<svg viewBox="0 0 30 30" xmlns="http://www.w3.org/2000/svg">
  <g id="icon" fill="currentColor">
    <path d="M14.973 0c4.213 0 7.772 1.451 10.674 4.353C28.549 7.254 30 10.803 30 15s-1.43 7.705-4.287 10.526C22.696 28.51 19.115 30 14.973 30c-4.072 0-7.585-1.474-10.54-4.42C1.477 22.633 0 19.107 0 15S1.474 7.34 4.42 4.34C7.313 1.446 10.83 0 14.973 0zm.04 2.706c-3.401 0-6.281 1.196-8.638 3.589C3.93 8.777 2.705 11.679 2.705 15c0 3.321 1.215 6.196 3.643 8.624 2.429 2.429 5.321 3.642 8.679 3.642 3.357 0 6.267-1.222 8.732-3.67 2.357-2.285 3.536-5.151 3.536-8.598 0-3.428-1.197-6.33-3.589-8.705-2.393-2.392-5.291-3.588-8.692-3.588zm.228 3.213a.6.6 0 01.47.148.655.655 0 01.226.442v.107l.402 6.482.295-3.59c0-.178.062-.33.187-.455a.621.621 0 01.455-.188c.178 0 .33.063.456.188a.62.62 0 01.187.456v.106l.347 4.822.349-3.884a.62.62 0 01.202-.401.587.587 0 01.414-.16c.162 0 .304.05.429.147a.553.553 0 01.215.388l.697 5.84.321-.777c.107-.268.312-.402.615-.402h3.51v1.286h-3.081l-1.098 2.678c-.126.321-.358.456-.697.401a.596.596 0 01-.388-.187.686.686 0 01-.174-.402l-.24-1.928-.456 5.598a.625.625 0 01-.617.562.64.64 0 01-.429-.161.601.601 0 01-.214-.401v-.081l-.374-4.634-.322 4.366a.767.767 0 01-.228.402.59.59 0 01-.416.16.638.638 0 01-.428-.16.6.6 0 01-.214-.402v-.08l-.349-5.224-.348 5.733v.08a.667.667 0 01-.187.469.599.599 0 01-.455.201.598.598 0 01-.456-.201.662.662 0 01-.188-.469v-.053l-.348-5.303-.322 5.115v.08a.755.755 0 01-.227.402.59.59 0 01-.415.161.638.638 0 01-.428-.16.6.6 0 01-.215-.402v-.08h-.026v-.08l-.375-5.357-.295 3.428a.598.598 0 01-.214.402.64.64 0 01-.428.16c-.161 0-.3-.048-.416-.147a.684.684 0 01-.228-.388l-.67-4.607-.08.16c-.107.233-.304.349-.59.349H5.275v-1.287h2.706l.83-1.687c.125-.286.343-.406.656-.362.313.045.496.219.55.522l.187 1.232.508-5.92c0-.178.063-.33.188-.454a.622.622 0 01.455-.188.62.62 0 01.455.188.619.619 0 01.187.455v.107l.295 4.179.402-5.598v-.08a.618.618 0 01.616-.562c.16 0 .303.053.428.16.126.107.196.24.214.402v.08l.322 4.875.375-5.92V6.51c0-.16.058-.295.174-.402a.725.725 0 01.418-.188z"/>
  </g>
</svg>
