<svg width="215" height="42" viewBox="0 0 215 42" fill="none" xmlns="http://www.w3.org/2000/svg">
  <g id="brand" fill="currentColor">
    <path class="text" fill-rule="evenodd" clip-rule="evenodd" d="M 24.69 21.3293 C 24.69 28.0657 19.2652 33.5266 12.5734 33.5266 C 5.8816 33.5266 0.4568 28.0657 0.4568 21.3293 C 0.4568 14.5929 5.8816 9.132 12.5734 9.132 C 19.2652 9.132 24.69 14.5929 24.69 21.3293 Z M 17.4199 21.3293 C 17.4199 24.0238 15.25 26.2082 12.5733 26.2082 C 9.8965 26.2082 7.7266 24.0238 7.7266 21.3293 C 7.7266 18.6347 9.8965 16.4504 12.5733 16.4504 C 15.25 16.4504 17.4199 18.6347 17.4199 21.3293 Z M 34.8984 41.5588 H 26.5855 V 9.5409 H 34.8382 V 13.6037 H 35.019 C 35.922 11.2388 38.091 9.2377 41.525 9.2377 C 46.103 9.2377 50.56 12.7548 50.56 21.1837 C 50.56 29.2488 46.404 33.1298 41.464 33.1298 C 38.212 33.1298 35.983 31.3712 35.019 29.0063 H 34.8984 V 41.5588 Z M 38.392 15.6655 C 36.103 15.6655 34.7177 17.7272 34.7177 21.1837 C 34.7177 24.5796 36.103 26.702 38.392 26.702 C 40.681 26.702 42.007 24.6402 42.007 21.1837 C 42.007 17.7272 40.681 15.6655 38.392 15.6655 Z M 75.18 25.3072 C 74.396 30.1584 70.27 33.2511 63.855 33.2511 C 56.445 33.2511 51.927 28.7789 51.927 21.2444 C 51.927 14.0282 56.506 9.2377 63.674 9.2377 C 70.662 9.2377 75.18 13.7705 75.18 21.1837 V 23.1242 H 60.12 V 23.488 C 60.12 25.7317 61.566 27.369 64.035 27.369 C 65.737 27.369 67.108 26.6262 67.589 25.3072 H 75.18 Z M 63.855 15.1197 C 61.822 15.1197 60.165 16.4993 60.12 18.5156 H 67.529 C 67.484 16.5144 65.918 15.1197 63.855 15.1197 Z M 85.612 19.7284 C 85.627 17.424 86.923 16.0293 88.986 16.0293 C 91.079 16.0293 92.314 17.424 92.299 19.7284 V 32.8266 H 100.612 V 17.9698 C 100.627 12.9064 97.449 9.2377 92.54 9.2377 C 89.136 9.2377 86.441 11.0265 85.432 13.9676 H 85.191 V 9.5409 H 77.299 V 32.8266 H 85.612 V 19.7284 Z M 117.193 9.5409 H 125.927 L 118.157 32.8266 H 108.518 L 100.748 9.5409 H 109.482 L 113.217 24.9434 H 113.458 L 117.193 9.5409 Z M 137.399 33.2511 C 143.815 33.2511 147.941 30.1584 148.724 25.3072 H 141.134 C 140.652 26.6262 139.282 27.369 137.58 27.369 C 135.11 27.369 133.665 25.7317 133.665 23.488 V 23.1242 H 148.724 V 21.1837 C 148.724 13.7705 144.206 9.2377 137.219 9.2377 C 130.05 9.2377 125.472 14.0282 125.472 21.2444 C 125.472 28.7789 129.99 33.2511 137.399 33.2511 Z M 133.665 18.5156 C 133.71 16.4993 135.366 15.1197 137.399 15.1197 C 139.463 15.1197 141.029 16.5144 141.074 18.5156 H 133.665 Z M 159.157 32.8266 H 150.844 V 9.5409 H 158.916 V 13.9676 H 159.157 C 160 10.693 161.928 9.2377 164.398 9.2377 C 165.121 9.2377 165.844 9.3589 166.506 9.556 V 16.6964 C 165.678 16.4083 164.292 16.2719 163.434 16.2719 C 160.979 16.2719 159.157 18.0304 159.157 20.6986 V 32.8266 Z M 189.104 17.1208 C 188.893 12.1938 184.827 9.2377 178.14 9.2377 C 171.529 9.2377 167.448 11.9664 167.478 16.8176 C 167.448 20.4864 169.812 22.8362 174.526 23.67 L 178.622 24.3976 C 180.429 24.7312 181.242 25.2163 181.272 26.0956 C 181.242 27.0658 180.143 27.6116 178.622 27.6116 C 176.74 27.6116 175.414 26.7929 175.188 25.3072 H 166.936 C 167.387 30.0826 171.484 33.2511 178.562 33.2511 C 184.962 33.2511 189.676 30.113 189.706 25.1253 C 189.676 21.684 187.387 19.6829 182.658 18.8188 L 177.959 17.9698 C 176.197 17.6514 175.7 17.0147 175.731 16.3325 C 175.7 15.3623 176.89 14.8165 178.321 14.8165 C 179.962 14.8165 181.333 15.6958 181.453 17.1208 H 189.104 Z M 214.027 25.3072 C 213.244 30.1584 209.118 33.2511 202.703 33.2511 C 195.293 33.2511 190.775 28.7789 190.775 21.2444 C 190.775 14.0282 195.354 9.2377 202.522 9.2377 C 209.51 9.2377 214.027 13.7705 214.027 21.1837 V 23.1242 H 198.968 V 23.488 C 198.968 25.7317 200.414 27.369 202.883 27.369 C 204.585 27.369 205.956 26.6262 206.437 25.3072 H 214.027 Z M 202.703 15.1197 C 200.67 15.1197 199.013 16.4993 198.968 18.5156 H 206.377 C 206.332 16.5144 204.766 15.1197 202.703 15.1197 Z" />
  </g>
</svg>
