<svg viewBox="0 0 16 16" fill="none" xmlns="http://www.w3.org/2000/svg">
  <rect width="16" height="16" rx="2" fill="#ad1f85" />
  <g clip-path="url(#clip0_4477_12938)">
    <path
      d="M10.5693 7.57713C11.5568 7.57713 12.3574 6.77636 12.3574 5.78857C12.3574 4.80077 11.5568 4 10.5693 4C9.58179 4 8.78125 4.80077 8.78125 5.78857C8.78125 6.77636 9.58179 7.57713 10.5693 7.57713Z"
      fill="#30272E" />
    <path
      d="M3.59961 5.78857C3.59961 6.77278 4.39368 7.57713 5.37634 7.57713V4C4.39368 4 3.59961 4.79936 3.59961 5.78857Z"
      fill="#30272E" />
    <path
      d="M6.19043 5.78857C6.19043 6.77278 6.9845 7.57713 7.96716 7.57713V4C6.98946 4 6.19043 4.79936 6.19043 5.78857Z"
      fill="#30272E" />
    <path
      d="M10.5693 11.999C11.5568 11.999 12.3574 11.1982 12.3574 10.2104C12.3574 9.22264 11.5568 8.42188 10.5693 8.42188C9.58179 8.42188 8.78125 9.22264 8.78125 10.2104C8.78125 11.1982 9.58179 11.999 10.5693 11.999Z"
      fill="#30272E" />
    <path
      d="M6.19043 10.2074C6.19043 11.1927 6.9845 11.998 7.96716 11.998V8.42188C6.98946 8.42188 6.19043 9.22212 6.19043 10.2074Z"
      fill="#30272E" />
    <path
      d="M3.59961 10.2074C3.59961 11.1977 4.39368 11.998 5.37634 11.998V8.42188C4.39368 8.42188 3.59961 9.22212 3.59961 10.2074Z"
      fill="#30272E" />
  </g>
  <defs>
    <clipPath id="clip0_4477_12938">
      <rect width="8.8" height="8" fill="white" transform="translate(3.59961 4)" />
    </clipPath>
  </defs>
</svg>
