<svg width="64" height="64" viewBox="0 0 64 64" fill="none" xmlns="http://www.w3.org/2000/svg">
<rect width="64" height="64" fill="#30272E"/>
<g clip-path="url(#clip0_4472_11171)">
<path d="M42.2775 30.3085C46.2275 30.3085 49.4297 27.1054 49.4297 23.1543C49.4297 19.2031 46.2275 16 42.2775 16C38.3274 16 35.1252 19.2031 35.1252 23.1543C35.1252 27.1054 38.3274 30.3085 42.2775 30.3085Z" fill="white"/>
<path d="M14.4 23.1543C14.4 27.0911 17.5763 30.3085 21.5069 30.3085V16C17.5763 16 14.4 19.1974 14.4 23.1543Z" fill="white"/>
<path d="M24.7626 23.1543C24.7626 27.0911 27.9388 30.3085 31.8695 30.3085V16C27.9587 16 24.7626 19.1974 24.7626 23.1543Z" fill="white"/>
<path d="M42.2773 47.9938C46.2274 47.9938 49.4295 44.7908 49.4295 40.8396C49.4295 36.8884 46.2274 33.6853 42.2773 33.6853C38.3273 33.6853 35.1251 36.8884 35.1251 40.8396C35.1251 44.7908 38.3273 47.9938 42.2773 47.9938Z" fill="white"/>
<path d="M24.7626 40.8275C24.7626 44.7687 27.9388 47.9897 31.8695 47.9897V33.6853C27.9587 33.6853 24.7626 36.8863 24.7626 40.8275Z" fill="white"/>
<path d="M14.4 40.8275C14.4 44.7887 17.5763 47.9897 21.5069 47.9897V33.6853C17.5763 33.6853 14.4 36.8863 14.4 40.8275Z" fill="white"/>
</g>
<defs>
<clipPath id="clip0_4472_11171">
<rect width="35.2" height="32" fill="white" transform="translate(14.4 16)"/>
</clipPath>
</defs>
</svg>
