<svg width="64" height="64" viewBox="0 0 64 64" fill="none" xmlns="http://www.w3.org/2000/svg">
<g clip-path="url(#clip0_4472_11175)">
<path d="M45.454 29.7673C50.625 29.7673 54.8169 25.5392 54.8169 20.3236C54.8169 15.1081 50.625 10.88 45.454 10.88C40.283 10.88 36.0911 15.1081 36.0911 20.3236C36.0911 25.5392 40.283 29.7673 45.454 29.7673Z" fill="#30272E"/>
<path d="M8.95996 20.3236C8.95996 25.5203 13.118 29.7673 18.2635 29.7673V10.88C13.118 10.88 8.95996 15.1006 8.95996 20.3236Z" fill="#30272E"/>
<path d="M22.5255 20.3236C22.5255 25.5203 26.6835 29.7673 31.8291 29.7673V10.88C26.7095 10.88 22.5255 15.1006 22.5255 20.3236Z" fill="#30272E"/>
<path d="M45.454 53.1119C50.6249 53.1119 54.8169 48.8838 54.8169 43.6682C54.8169 38.4527 50.6249 34.2246 45.454 34.2246C40.283 34.2246 36.0911 38.4527 36.0911 43.6682C36.0911 48.8838 40.283 53.1119 45.454 53.1119Z" fill="#30272E"/>
<path d="M22.5255 43.6523C22.5255 48.8547 26.6835 53.1065 31.8291 53.1065V34.2246C26.7095 34.2246 22.5255 38.4499 22.5255 43.6523Z" fill="#30272E"/>
<path d="M8.95996 43.6523C8.95996 48.8811 13.118 53.1065 18.2635 53.1065V34.2246C13.118 34.2246 8.95996 38.4499 8.95996 43.6523Z" fill="#30272E"/>
</g>
<defs>
<clipPath id="clip0_4472_11175">
<rect width="46.08" height="42.24" fill="white" transform="translate(8.95996 10.88)"/>
</clipPath>
</defs>
</svg>
