<svg
  viewBox="0 0 95 15"
  xmlns="http://www.w3.org/2000/svg"
  fill="currentColor"
>
  <path
    fill-rule="evenodd"
    clip-rule="evenodd"
    d="M11.0953 6.14123C11.0953 9.02825 8.70687 11.3686 5.76056 11.3686C2.81424 11.3686 0.425781 9.02825 0.425781 6.14123C0.425781 3.25421 2.81424 0.913818 5.76056 0.913818C8.70687 0.913818 11.0953 3.25421 11.0953 6.14123ZM7.89439 6.14122C7.89439 7.29603 6.93901 8.23219 5.76049 8.23219C4.58196 8.23219 3.62658 7.29603 3.62658 6.14122C3.62658 4.98641 4.58196 4.05026 5.76049 4.05026C6.93901 4.05026 7.89439 4.98641 7.89439 6.14122ZM15.59 14.811H11.9299V1.08903H15.5635V2.83027H15.643C16.0409 1.81671 16.9957 0.959089 18.5074 0.959089C20.5231 0.959089 22.4858 2.46643 22.4858 6.07884C22.4858 9.53532 20.6558 11.1986 18.4809 11.1986C17.0487 11.1986 16.0674 10.4449 15.643 9.43136H15.59V14.811ZM17.1283 3.71388C16.1204 3.71388 15.5104 4.59749 15.5104 6.07884C15.5104 7.5342 16.1204 8.4438 17.1283 8.4438C18.1361 8.4438 18.7196 7.56018 18.7196 6.07884C18.7196 4.59749 18.1361 3.71388 17.1283 3.71388ZM33.3253 7.84606C32.9805 9.92514 31.1637 11.2506 28.3391 11.2506C25.0768 11.2506 23.0877 9.3339 23.0877 6.10482C23.0877 3.01218 25.1033 0.959089 28.2595 0.959089C31.3361 0.959089 33.3253 2.90173 33.3253 6.07884V6.91047H26.6947V7.0664C26.6947 8.02798 27.3312 8.72967 28.4186 8.72967C29.1679 8.72967 29.7713 8.41131 29.9835 7.84606H33.3253ZM28.3391 3.47998C27.4439 3.47998 26.7146 4.07122 26.6947 4.93534H29.9569C29.937 4.07772 29.2475 3.47998 28.3391 3.47998ZM37.9187 5.45511C37.9254 4.46754 38.4956 3.86981 39.404 3.86981C40.3256 3.86981 40.8693 4.46754 40.8627 5.45511V11.0686H44.5228V4.70144C44.5294 2.5314 43.1304 0.959089 40.9688 0.959089C39.4703 0.959089 38.2834 1.72575 37.8392 2.9862H37.7331V1.08903H34.2587V11.0686H37.9187V5.45511ZM51.8232 1.08903H55.6689L52.2476 11.0686H48.004L44.5826 1.08903H48.4283L50.0727 7.69013H50.1788L51.8232 1.08903ZM60.7199 11.2506C63.5445 11.2506 65.3613 9.92514 65.7061 7.84606H62.3643C62.1521 8.41131 61.5487 8.72967 60.7995 8.72967C59.7121 8.72967 59.0755 8.02798 59.0755 7.0664V6.91047H65.7061V6.07884C65.7061 2.90173 63.7169 0.959089 60.6403 0.959089C57.4842 0.959089 55.4685 3.01218 55.4685 6.10482C55.4685 9.3339 57.4577 11.2506 60.7199 11.2506ZM59.0755 4.93534C59.0954 4.07122 59.8248 3.47998 60.7199 3.47998C61.6283 3.47998 62.3179 4.07772 62.3378 4.93534H59.0755ZM70.2996 11.0686H66.6395V1.08903H70.1935V2.9862H70.2996C70.6709 1.58281 71.5196 0.959089 72.607 0.959089C72.9253 0.959089 73.2435 1.01107 73.5353 1.09553V4.15568C73.1706 4.03224 72.5606 3.97376 72.1826 3.97376C71.1019 3.97376 70.2996 4.72743 70.2996 5.87093V11.0686ZM83.4846 4.3376C83.3918 2.22603 81.6015 0.959089 78.6575 0.959089C75.7467 0.959089 73.9498 2.12857 73.9631 4.20766C73.9498 5.77997 74.9908 6.78702 77.0662 7.14437L78.8697 7.45623C79.6654 7.59917 80.0234 7.80708 80.0367 8.18391C80.0234 8.59973 79.5394 8.83362 78.8697 8.83362C78.0409 8.83362 77.4574 8.48278 77.3579 7.84606H73.7244C73.9233 9.89266 75.7268 11.2506 78.8432 11.2506C81.6612 11.2506 83.7366 9.90565 83.7498 7.76809C83.7366 6.29324 82.7287 5.43562 80.6467 5.06528L78.578 4.70144C77.8022 4.565 77.5834 4.29212 77.5966 3.99975C77.5834 3.58393 78.1072 3.35004 78.7371 3.35004C79.4598 3.35004 80.0632 3.72687 80.1163 4.3376H83.4846ZM94.4583 7.84606C94.1135 9.92514 92.2968 11.2506 89.4721 11.2506C86.2099 11.2506 84.2207 9.3339 84.2207 6.10482C84.2207 3.01218 86.2364 0.959089 89.3926 0.959089C92.4692 0.959089 94.4583 2.90173 94.4583 6.07884V6.91047H87.8278V7.0664C87.8278 8.02798 88.4643 8.72967 89.5517 8.72967C90.301 8.72967 90.9044 8.41131 91.1165 7.84606H94.4583ZM89.4721 3.47998C88.577 3.47998 87.8477 4.07122 87.8278 4.93534H91.09C91.0701 4.07772 90.3805 3.47998 89.4721 3.47998Z"
  />
</svg>
