<svg viewBox="0 0 24 24" fill="none" xmlns="http://www.w3.org/2000/svg">
  <g id="icon">
    <path fill-rule="evenodd" clip-rule="evenodd" d="M19 4.5H5C4.72386 4.5 4.5 4.72386 4.5 5V19C4.5 19.2761 4.72386 19.5 5 19.5H19C19.2761 19.5 19.5 19.2761 19.5 19V5C19.5 4.72386 19.2761 4.5 19 4.5ZM5 3C3.89543 3 3 3.89543 3 5V19C3 20.1046 3.89543 21 5 21H19C20.1046 21 21 20.1046 21 19V5C21 3.89543 20.1046 3 19 3H5Z" fill="currentColor"/>
    <path fill-rule="evenodd" clip-rule="evenodd" d="M15.4772 10.4623C15.7683 10.1792 16.2317 10.1792 16.5228 10.4623L20.5228 14.3511L19.4772 15.4266L16 12.046L12.5228 15.4266C12.2719 15.6706 11.8857 15.7086 11.5921 15.5183L8.59643 13.5766L4.44186 16.606L3.55811 15.394L8.12953 12.0607C8.38061 11.8776 8.71858 11.8683 8.97934 12.0373L11.906 13.9342L15.4772 10.4623Z" fill="currentColor"/>
  </g>
</svg>
