<svg width="24" height="24" viewBox="0 0 24 24" xmlns="http://www.w3.org/2000/svg">
  <g id="icon" stroke="currentColor" fill="none">
    <path d="M3.75 15.562V8.43801C3.75 7.99506 3.98443 7.58518 4.36623 7.36059L11.3662 3.24294C11.7574 3.01284 12.2426 3.01284 12.6338 3.24295L19.6338 7.36059C20.0156 7.58518 20.25 7.99505 20.25 8.43801V15.562C20.25 16.0049 20.0156 16.4148 19.6338 16.6394L12.6338 20.7571C12.2426 20.9872 11.7574 20.9872 11.3662 20.7571L4.36622 16.6394C3.98443 16.4148 3.75 16.0049 3.75 15.562Z" stroke-width="1.5"/>
    <path d="M11.974 12.8934V21.0002M11.974 12.8934L3.82812 8.38525M11.974 12.8934L17.2022 10" stroke-width="1.5" stroke-linecap="round"/>
  </g>
</svg>
