<svg width="24" height="24" viewBox="0 0 24 24" fill="none" xmlns="http://www.w3.org/2000/svg">
<path d="M16.6249 11.2389C18.4024 11.2389 19.8434 9.7975 19.8434 8.01947C19.8434 6.24143 18.4024 4.80005 16.6249 4.80005C14.8473 4.80005 13.4064 6.24143 13.4064 8.01947C13.4064 9.7975 14.8473 11.2389 16.6249 11.2389Z" fill="black"/>
<path d="M4.08008 8.01947C4.08008 9.79105 5.5094 11.2389 7.27819 11.2389V4.80005C5.5094 4.80005 4.08008 6.2389 4.08008 8.01947Z" fill="black"/>
<path d="M8.74329 8.01947C8.74329 9.79105 10.1726 11.2389 11.9414 11.2389V4.80005C10.1815 4.80005 8.74329 6.2389 8.74329 8.01947Z" fill="black"/>
<path d="M16.6249 19.1973C18.4024 19.1973 19.8434 17.7559 19.8434 15.9778C19.8434 14.1998 18.4024 12.7584 16.6249 12.7584C14.8473 12.7584 13.4064 14.1998 13.4064 15.9778C13.4064 17.7559 14.8473 19.1973 16.6249 19.1973Z" fill="black"/>
<path d="M8.74329 15.9724C8.74329 17.746 10.1726 19.1954 11.9414 19.1954V12.7584C10.1815 12.7584 8.74329 14.1989 8.74329 15.9724Z" fill="black"/>
<path d="M4.08008 15.9724C4.08008 17.755 5.5094 19.1954 7.27819 19.1954V12.7584C5.5094 12.7584 4.08008 14.1989 4.08008 15.9724Z" fill="black"/>
</svg>
