<?xml version="1.0" encoding="UTF-8"?>
<svg version="1.1" xmlns="http://www.w3.org/2000/svg" xmlns:xlink="http://www.w3.org/1999/xlink">
<defs>

</defs>
<symbol id="i-all" fill="none" viewBox="0 0 24 24" xmlns="http://www.w3.org/2000/svg"><path clip-rule="evenodd" d="M9 5.5H6a.5.5 0 00-.5.5v12a.5.5 0 00.5.5h3a.5.5 0 00.5-.5V6a.5.5 0 00-.5-.5zM6 4a2 2 0 00-2 2v12a2 2 0 002 2h3a2 2 0 002-2V6a2 2 0 00-2-2zm12 1.5h-3a.5.5 0 00-.5.5v3a.5.5 0 00.5.5h3a.5.5 0 00.5-.5V6a.5.5 0 00-.5-.5zM15 4a2 2 0 00-2 2v3a2 2 0 002 2h3a2 2 0 002-2V6a2 2 0 00-2-2zm0 10.5h3a.5.5 0 01.5.5v3a.5.5 0 01-.5.5h-3a.5.5 0 01-.5-.5v-3a.5.5 0 01.5-.5zm-2 .5a2 2 0 012-2h3a2 2 0 012 2v3a2 2 0 01-2 2h-3a2 2 0 01-2-2z" fill="currentColor" fill-rule="evenodd"/></symbol>
<symbol id="i-audio" viewBox="0 0 24 24" fill="none" xmlns="http://www.w3.org/2000/svg"><g fill-rule="evenodd" clip-rule="evenodd" fill="currentColor"><path d="M3.25 7v10h1.5V7h-1.5zM19.25 7v10h1.5V7h-1.5zM7.25 4v16h1.5V4h-1.5zM12.75 7v10h-1.5V7h1.5zM15.25 4v16h1.5V4h-1.5z"/></g></symbol>
<symbol id="i-caret-down" viewBox="0 0 24 24" fill="none" xmlns="http://www.w3.org/2000/svg"><path fill-rule="evenodd" clip-rule="evenodd" d="M18.005 10.555L12 16.014l-6.005-5.459 1.01-1.11L12 13.986l4.995-4.54 1.01 1.109z" fill="currentColor"/></symbol>
<symbol id="i-check" viewBox="0 0 24 24" fill="none" xmlns="http://www.w3.org/2000/svg"><path d="M17.93 7.978L10.73 17.66l-4.516-3.358.895-1.204 3.312 2.463 6.303-8.477 1.204.895z" fill="currentColor"/></symbol>
<symbol id="i-checkmark" viewBox="0 0 20 20" xmlns="http://www.w3.org/2000/svg"><path d="M15.779 5L8.36 14.975l-4.3-3.198" fill="none" stroke="currentColor"/></symbol>
<symbol id="i-chevron-back" viewBox="0 0 24 24" fill="none" xmlns="http://www.w3.org/2000/svg"><path fill-rule="evenodd" clip-rule="evenodd" d="M13.445 18.005L7.986 12l5.459-6.004 1.11 1.009L10.014 12l4.54 4.995-1.109 1.01z" fill="currentColor"/></symbol>
<symbol id="i-chevron-forward" viewBox="0 0 24 24" fill="none" xmlns="http://www.w3.org/2000/svg"><path fill-rule="evenodd" clip-rule="evenodd" d="M10.555 5.996L16.014 12l-5.46 6.005-1.109-1.01L13.986 12 9.445 7.005l1.11-1.01z" fill="currentColor"/></symbol>
<symbol id="i-close-small" viewBox="0 0 24 24" xmlns="http://www.w3.org/2000/svg"><path fill-rule="evenodd" clip-rule="evenodd" d="M12 13.06l3.712 3.713 1.061-1.06L13.061 12l3.712-3.712-1.06-1.06L12 10.938 8.288 7.227l-1.061 1.06L10.939 12l-3.712 3.712 1.06 1.061L12 13.061z" fill="currentColor"/></symbol>
<symbol id="i-close" viewBox="0 0 24 24" fill="none" xmlns="http://www.w3.org/2000/svg"><path d="M5.405 5L19 19M5 19L18.595 5" stroke="currentColor" stroke-width="1.5"/></symbol>
<symbol id="i-ellipsis" viewBox="0 0 24 24" fill="none" xmlns="http://www.w3.org/2000/svg"><path d="M12 11v2m0-8v2m0 10v2" stroke="currentColor" stroke-width="2"/></symbol>
<symbol id="i-error" viewBox="0 0 24 24" fill="none" xmlns="http://www.w3.org/2000/svg"><path fill-rule="evenodd" clip-rule="evenodd" d="M12 20.75a8.75 8.75 0 100-17.5 8.75 8.75 0 000 17.5zM19.25 12a7.25 7.25 0 01-11.785 5.657L17.657 7.465A7.22 7.22 0 0119.25 12zm-2.648-5.602A7.25 7.25 0 006.398 16.602L16.602 6.398z" fill="currentColor"/></symbol>
<symbol id="i-external-link" viewBox="0 0 24 24" fill="none" xmlns="http://www.w3.org/2000/svg"><g stroke="currentColor" stroke-width="1.5"><path d="M10.25 5H7a2 2 0 00-2 2v10a2 2 0 002 2h10a2 2 0 002-2v-3.639M14.895 3.786l5.547-.025m0 0l-.047 5.525m.047-5.525l-7.68 7.681"/></g></symbol>
<symbol id="i-eye-closed" viewBox="0 0 24 24" fill="none" xmlns="http://www.w3.org/2000/svg"><path fill-rule="evenodd" clip-rule="evenodd" d="M16.423 3.699l-.875-.412-1.93 4.101A9.4 9.4 0 0012 7.25c-2.998 0-5.174 1.368-6.58 2.707-.703.669-1.22 1.337-1.563 1.839a9.765 9.765 0 00-.516.845l-.008.015-.002.005-.001.002s-.001.002.67.337l.67.336.003-.005.017-.032.077-.138c.07-.122.18-.302.329-.52.297-.435.748-1.017 1.358-1.598C7.674 9.883 9.497 8.75 12 8.75c.328 0 .645.02.95.056l-.136.29a3.5 3.5 0 00-2.919 6.202l-2.347 4.99.883.415 7.992-17.004zm-4.118 12.288a3.5 3.5 0 002.574-5.477l-2.574 5.477zm3.046-6.48a8.622 8.622 0 012.194 1.536c.61.581 1.061 1.163 1.359 1.599a8.29 8.29 0 01.422.689l.003.005L20 13c.672-.335.671-.336.671-.336l-.001-.003-.003-.005-.008-.015-.027-.052a9.752 9.752 0 00-.489-.794c-.343-.501-.86-1.169-1.563-1.838a10.14 10.14 0 00-2.59-1.807l-.639 1.357z" fill="#30272E"/></symbol>
<symbol id="i-eye-open" viewBox="0 0 24 24" fill="none" xmlns="http://www.w3.org/2000/svg"><path d="M4.5 13.5l.67.336.003-.005.017-.032.077-.138c.07-.122.18-.302.328-.52.298-.435.75-1.017 1.36-1.598C8.172 10.383 9.996 9.25 12.5 9.25c2.502 0 4.326 1.132 5.545 2.293.61.581 1.061 1.163 1.359 1.599a8.29 8.29 0 01.422.689l.003.005.67-.336.671-.336-.001-.003-.003-.005-.008-.015-.027-.052a9.752 9.752 0 00-.489-.794c-.343-.501-.86-1.169-1.563-1.838-1.406-1.34-3.582-2.707-6.58-2.707-2.997 0-5.173 1.368-6.58 2.707-.702.669-1.22 1.337-1.562 1.839a9.765 9.765 0 00-.516.845l-.008.015-.003.005v.002s-.001.002.67.337zm8 3a3.5 3.5 0 100-7 3.5 3.5 0 000 7z" fill="#30272E"/></symbol>
<symbol id="i-filter" fill="none" viewBox="0 0 24 24" xmlns="http://www.w3.org/2000/svg"><g fill="currentColor"><path d="M5 7h14v1.5H5zM7 11.25h10v1.5H7zM9 15.5h6V17H9z"/></g></symbol>
<symbol id="i-flag" fill="none" viewBox="0 0 24 24" xmlns="http://www.w3.org/2000/svg"><path clip-rule="evenodd" d="M4.5 4h9l.4 2h5.6v10h-7l-.4-2H6.5v7h-2zm7.76 4l-.4-2H6.5v6h7.24l.4 2h3.36V8z" fill="currentColor" fill-rule="evenodd"/></symbol>
<symbol id="i-globe" viewBox="0 0 24 24" fill="none" xmlns="http://www.w3.org/2000/svg"><path fill-rule="evenodd" clip-rule="evenodd" d="M5.517 8.75A7.269 7.269 0 0110 5.03a8.142 8.142 0 00-1.19 1.875 10.76 10.76 0 00-.657 1.845H5.517zm-.554 1.5a7.266 7.266 0 000 3.5h2.9a13.458 13.458 0 010-3.5h-2.9zm4.415 0c-.084.56-.128 1.145-.128 1.75s.044 1.19.128 1.75h5.244c.084-.56.128-1.145.128-1.75s-.044-1.19-.128-1.75H9.378zm6.759 0a13.45 13.45 0 010 3.5h2.9a7.266 7.266 0 000-3.5h-2.9zm2.346-1.5h-2.636a10.76 10.76 0 00-.656-1.845A8.143 8.143 0 0014 5.03a7.269 7.269 0 014.483 3.721zm-4.194 0H9.711c.13-.43.283-.836.458-1.211.495-1.063 1.139-1.847 1.831-2.306.692.46 1.335 1.243 1.83 2.306.176.375.33.78.46 1.211zm-8.772 6.5h2.636a10.7 10.7 0 00.7 1.938A8.08 8.08 0 0010 18.97a7.268 7.268 0 01-4.483-3.721zm8.772 0H9.711c.138.46.305.892.495 1.29.491 1.024 1.12 1.78 1.794 2.227.692-.46 1.336-1.243 1.83-2.306a9.02 9.02 0 00.46-1.211zm.902 1.845c.265-.57.486-1.188.656-1.845h2.636A7.268 7.268 0 0114 18.97a8.145 8.145 0 001.19-1.875zM3.25 12a8.75 8.75 0 1117.5 0 8.75 8.75 0 01-17.5 0z" fill="currentColor"/></symbol>
<symbol id="i-help" viewBox="0 0 24 24" fill="none" xmlns="http://www.w3.org/2000/svg"><path d="M9.75 10.25a2.25 2.25 0 112.5 2.236.273.273 0 00-.25.264V14m0 1v1.5m8-4.5a8 8 0 11-16 0 8 8 0 0116 0z" stroke="currentColor" stroke-width="1.5"/></symbol>
<symbol id="i-image" viewBox="0 0 24 24" fill="none" xmlns="http://www.w3.org/2000/svg"><g fill-rule="evenodd" clip-rule="evenodd" fill="currentColor"><path d="M19 4.5H5a.5.5 0 00-.5.5v14a.5.5 0 00.5.5h14a.5.5 0 00.5-.5V5a.5.5 0 00-.5-.5zM5 3a2 2 0 00-2 2v14a2 2 0 002 2h14a2 2 0 002-2V5a2 2 0 00-2-2H5z"/><path d="M15.477 10.462a.75.75 0 011.046 0l4 3.89-1.046 1.075L16 12.046l-3.477 3.38a.75.75 0 01-.93.092l-2.997-1.941-4.154 3.029-.884-1.212 4.572-3.333a.75.75 0 01.85-.024l2.926 1.897 3.571-3.472z"/></g></symbol>
<symbol id="i-info" viewBox="0 0 24 24" fill="none" xmlns="http://www.w3.org/2000/svg"><g fill="currentColor"><path d="M13 11v6h-2v-6h2zM13 9V7h-2v2h2z"/><path fill-rule="evenodd" clip-rule="evenodd" d="M3.25 12a8.75 8.75 0 1117.5 0 8.75 8.75 0 01-17.5 0zM12 4.75a7.25 7.25 0 100 14.5 7.25 7.25 0 000-14.5z"/></g></symbol>
<symbol id="i-institution" viewBox="0 0 24 24" fill="none" xmlns="http://www.w3.org/2000/svg"><path fill-rule="evenodd" clip-rule="evenodd" d="M18.646 9H20V8l-1-.5L12 4 5 7.5 4 8v1h14.646zm-3-1.5L12 5.677 8.354 7.5h7.292zm-7.897 9.44v-6.5h-1.5v6.5h1.5zm5-6.5v6.5h-1.5v-6.5h1.5zm5 0v6.5h-1.5v-6.5h1.5zm2.252 8.81c0 .414-.334.75-.748.75H4.752a.75.75 0 110-1.5h14.5a.75.75 0 01.749.75z" fill="currentColor"/></symbol>
<symbol id="i-item-indicator" viewBox="0 0 24 24" fill="none" xmlns="http://www.w3.org/2000/svg"><path fill-rule="evenodd" clip-rule="evenodd" d="M17.93 7.978l-7.2 9.681-4.516-3.358.896-1.204 3.312 2.463 6.303-8.477 1.204.895z" fill="currentColor"/></symbol>
<symbol id="i-menu" viewBox="0 0 24 24" fill="none" xmlns="http://www.w3.org/2000/svg"><path fill-rule="evenodd" clip-rule="evenodd" d="M5 5h14v1.5H5V5zm0 6.25h14v1.5H5v-1.5zm14 6.25H5V19h14v-1.5z" fill="currentColor"/></symbol>
<symbol id="i-model-3d" viewBox="0 0 24 24" xmlns="http://www.w3.org/2000/svg"><g stroke="currentColor" fill="none" stroke-width="1.5"><path d="M3.75 15.562V8.438c0-.443.234-.853.616-1.077l7-4.118a1.25 1.25 0 011.268 0l7 4.118c.382.224.616.634.616 1.077v7.124c0 .443-.234.853-.616 1.077l-7 4.118a1.25 1.25 0 01-1.268 0l-7-4.118a1.25 1.25 0 01-.616-1.077z"/><path d="M11.974 12.893V21m0-8.107L3.828 8.385m8.146 4.508L17.202 10" stroke-linecap="round"/></g></symbol>
<symbol id="i-pause" xmlns="http://www.w3.org/2000/svg" viewBox="0 0 24 24"><path fill-rule="evenodd" clip-rule="evenodd" d="M10 7H7v10h3V7zm7 0h-3v10h3V7z" fill="currentColor"/></symbol>
<symbol id="i-person" viewBox="0 0 24 24" fill="none" xmlns="http://www.w3.org/2000/svg"><path fill-rule="evenodd" clip-rule="evenodd" d="M16 9a4 4 0 11-8 0 4 4 0 018 0zm-1.5 0a2.5 2.5 0 11-5 0 2.5 2.5 0 015 0z" fill="currentColor"/><path d="M18.75 20v-2A2.75 2.75 0 0016 15.25H8A2.75 2.75 0 005.25 18v2h1.5v-2c0-.69.56-1.25 1.25-1.25h8c.69 0 1.25.56 1.25 1.25v2h1.5z" fill="currentColor"/></symbol>
<symbol id="i-play" xmlns="http://www.w3.org/2000/svg" viewBox="0 0 24 24"><path d="M9 17l7-5-7-5v10z" fill="currentColor"/></symbol>
<symbol id="i-radiomark" viewBox="0 0 24 24" fill="none" xmlns="http://www.w3.org/2000/svg"><circle cx="12" cy="12" r="7.2" fill="currentColor"/></symbol>
<symbol id="i-replay" viewBox="0 0 24 24" fill="none" xmlns="http://www.w3.org/2000/svg"><path fill-rule="evenodd" clip-rule="evenodd" d="M12 8v3L8 7l4-4v3a6 6 0 11-6 6h2a4 4 0 104-4z" fill="currentColor"/></symbol>
<symbol id="i-search" viewBox="0 0 24 24" fill="none" xmlns="http://www.w3.org/2000/svg"><g stroke="currentColor" stroke-width="1.5"><path d="M6 18l4-3.5"/><circle cx="13.5" cy="11.5" r="4.75"/></g></symbol>
<symbol id="i-source" viewBox="0 0 24 24" fill="none" xmlns="http://www.w3.org/2000/svg"><path fill-rule="evenodd" clip-rule="evenodd" d="M7.114 8.5H4V7h3.114a2.501 2.501 0 014.772 0H20v1.5h-8.114a2.501 2.501 0 01-4.772 0zM4 17h8.114a2.501 2.501 0 004.771 0H20v-1.5h-3.114a2.501 2.501 0 00-4.771 0H4V17z" fill="currentColor"/></symbol>
<symbol id="i-success" viewBox="0 0 24 24" xmlns="http://www.w3.org/2000/svg"><path fill-rule="evenodd" clip-rule="evenodd" d="M20.75 12a8.75 8.75 0 11-17.5 0 8.75 8.75 0 0117.5 0zM12 19.25a7.25 7.25 0 100-14.5 7.25 7.25 0 000 14.5z" fill="currentColor"/><path d="M8 12.929l2.953 2.215L15.75 8.5" fill="none" stroke="currentColor" stroke-width="1.5"/></symbol>
<symbol id="i-tag" viewBox="0 0 24 24" fill="none" xmlns="http://www.w3.org/2000/svg"><path fill-rule="evenodd" clip-rule="evenodd" d="M5 4.25a.75.75 0 00-.75.75v7.826c0 .2.08.39.22.53l6.72 6.716a2.313 2.313 0 003.276-.001l5.61-5.611-.531-.53.532.528a2.315 2.315 0 000-3.264L13.354 4.47a.75.75 0 00-.53-.22H5zm14.25 8.576a.815.815 0 01-.236.574l-5.61 5.611a.814.814 0 01-1.153 0L5.75 12.514V5.75h6.763l6.5 6.502a.816.816 0 01.237.574zM9 10a1 1 0 100-2 1 1 0 000 2z" fill="currentColor"/></symbol>
<symbol id="i-video" viewBox="0 0 24 24" fill="none" xmlns="http://www.w3.org/2000/svg"><g stroke="currentColor"><rect x="3.75" y="3.75" width="16.5" height="16.5" rx="1.536" stroke-width="1.5"/><path d="M10 15V9l5 3-5 3z" fill="currentColor"/></g></symbol>
<symbol id="i-warning" viewBox="0 0 24 24" fill="none" xmlns="http://www.w3.org/2000/svg"><g fill="currentColor"><path fill-rule="evenodd" clip-rule="evenodd" d="M12 4.75a7.25 7.25 0 100 14.5 7.25 7.25 0 000-14.5zM3.25 12a8.75 8.75 0 1117.5 0 8.75 8.75 0 01-17.5 0z"/><path d="M13 7h-2v6h2V7zM13 15h-2v2h2v-2z"/></g></symbol>
</svg>