<svg width="226" height="34" viewBox="0 0 226 34" xmlns="http://www.w3.org/2000/svg">
  <g id="logo" fill="#ffffff">
    <path class="text" d="M71.8823 17.2666C71.8823 22.7198 67.4908 27.1406 62.0737 27.1406C56.6565 27.1406 52.265 22.7198 52.265 17.2666C52.265 11.8133 56.6565 7.39258 62.0737 7.39258C67.4908 7.39258 71.8823 11.8133 71.8823 17.2666ZM65.997 17.2666C65.997 19.4479 64.2404 21.2162 62.0735 21.2162C59.9067 21.2162 58.1501 19.4479 58.1501 17.2666C58.1501 15.0853 59.9067 13.317 62.0735 13.317C64.2404 13.317 65.997 15.0853 65.997 17.2666ZM80.1463 33.6428H73.4168V7.72354H80.0975V11.0125H80.2438C80.9753 9.09804 82.7308 7.47809 85.5104 7.47809C89.2165 7.47809 92.8251 10.3253 92.8251 17.1487C92.8251 23.6776 89.4603 26.8194 85.4616 26.8194C82.8284 26.8194 81.0241 25.3958 80.2438 23.4813H80.1463V33.6428ZM82.9746 12.6816C81.1216 12.6816 80 14.3506 80 17.1487C80 19.8977 81.1216 21.6159 82.9746 21.6159C84.8277 21.6159 85.9005 19.9468 85.9005 17.1487C85.9005 14.3506 84.8277 12.6816 82.9746 12.6816ZM112.755 20.4868C112.121 24.414 108.78 26.9175 103.587 26.9175C97.589 26.9175 93.9317 23.2972 93.9317 17.1978C93.9317 11.3562 97.6378 7.47809 103.441 7.47809C109.097 7.47809 112.755 11.1475 112.755 17.1487V18.7196H100.564V19.0141C100.564 20.8304 101.734 22.1559 103.733 22.1559C105.111 22.1559 106.22 21.5545 106.61 20.4868H112.755ZM103.587 12.2398C101.941 12.2398 100.6 13.3566 100.564 14.9888H106.562C106.525 13.3688 105.257 12.2398 103.587 12.2398ZM121.2 15.9706C121.213 14.1052 122.261 12.9761 123.931 12.9761C125.626 12.9761 126.626 14.1052 126.613 15.9706V26.5739H133.343V14.547C133.355 10.448 130.783 7.47809 126.808 7.47809C124.053 7.47809 121.871 8.92623 121.054 11.3071H120.859V7.72354H114.471V26.5739H121.2V15.9706ZM146.766 7.72354H153.836L147.546 26.5739H139.743L133.453 7.72354H140.524L143.547 20.1923H143.742L146.766 7.72354ZM163.123 26.9175C168.317 26.9175 171.657 24.414 172.291 20.4868H166.147C165.757 21.5545 164.647 22.1559 163.27 22.1559C161.27 22.1559 160.1 20.8304 160.1 19.0141V18.7196H172.291V17.1487C172.291 11.1475 168.634 7.47809 162.977 7.47809C157.174 7.47809 153.468 11.3562 153.468 17.1978C153.468 23.2972 157.125 26.9175 163.123 26.9175ZM160.1 14.9888C160.136 13.3566 161.477 12.2398 163.123 12.2398C164.793 12.2398 166.061 13.3688 166.098 14.9888H160.1ZM180.737 26.5739H174.007V7.72354H180.542V11.3071H180.737C181.419 8.65624 182.98 7.47809 184.979 7.47809C185.564 7.47809 186.15 7.57627 186.686 7.73581V13.5161C186.015 13.2829 184.894 13.1725 184.199 13.1725C182.212 13.1725 180.737 14.5961 180.737 16.756V26.5739ZM204.979 13.8597C204.808 9.8712 201.517 7.47809 196.104 7.47809C190.752 7.47809 187.448 9.68712 187.472 13.6143C187.448 16.5842 189.362 18.4864 193.178 19.1614L196.494 19.7505C197.957 20.0205 198.615 20.4132 198.64 21.125C198.615 21.9104 197.725 22.3522 196.494 22.3522C194.97 22.3522 193.897 21.6895 193.714 20.4868H187.034C187.399 24.3526 190.715 26.9175 196.445 26.9175C201.626 26.9175 205.442 24.3772 205.467 20.3395C205.442 17.5537 203.589 15.9338 199.761 15.2342L195.958 14.547C194.531 14.2893 194.129 13.7738 194.153 13.2216C194.129 12.4361 195.092 11.9943 196.25 11.9943C197.579 11.9943 198.688 12.7061 198.786 13.8597H204.979ZM225.156 20.4868C224.522 24.414 221.181 26.9175 215.988 26.9175C209.99 26.9175 206.332 23.2972 206.332 17.1978C206.332 11.3562 210.039 7.47809 215.842 7.47809C221.498 7.47809 225.156 11.1475 225.156 17.1487V18.7196H212.964V19.0141C212.964 20.8304 214.135 22.1559 216.134 22.1559C217.512 22.1559 218.621 21.5545 219.011 20.4868H225.156ZM215.988 12.2398C214.342 12.2398 213.001 13.3566 212.964 14.9888H218.962C218.926 13.3688 217.658 12.2398 215.988 12.2398Z" fill-rule="evenodd"/>
    <path class="1-1" d="M0.0856323 7.6075C0.0856323 11.7937 3.46313 15.215 7.64278 15.215V0C3.46313 0 0.0856323 3.4 0.0856323 7.6075Z"/>
    <path class="1-2" d="M11.1047 7.6075C11.1047 11.7937 14.4822 15.215 18.6619 15.215V0C14.5033 0 11.1047 3.4 11.1047 7.6075Z"/>
    <path class="1-3" d="M29.6809 15.215C33.8546 15.215 37.2381 11.809 37.2381 7.6075C37.2381 3.40599 33.8546 0 29.6809 0C25.5072 0 22.1238 3.40599 22.1238 7.6075C22.1238 11.809 25.5072 15.215 29.6809 15.215Z"/>
    <path class="2-1" d="M0.0856323 26.3924C0.0856323 30.6 3.46313 34 7.64278 34V18.8062C3.46313 18.8062 0.0856323 22.2062 0.0856323 26.3924Z"/>
    <path class="2-2" d="M11.1047 26.3288C11.1047 30.515 14.4822 33.9363 18.6619 33.9363V18.7425C14.5033 18.7425 11.1047 22.1425 11.1047 26.3288Z"/>
    <path class="2-3" d="M29.6809 33.9362C33.8546 33.9362 37.2381 30.5302 37.2381 26.3287C37.2381 22.1272 33.8546 18.7212 29.6809 18.7212C25.5072 18.7212 22.1238 22.1272 22.1238 26.3287C22.1238 30.5302 25.5072 33.9362 29.6809 33.9362Z"/>
  </g>
</svg>
