<svg viewBox="0 0 30 30" xmlns="http://www.w3.org/2000/svg">
  <g id="icon" fill="currentColor">
    <path fill-rule="evenodd" clip-rule="evenodd" d="M4.43 4.35C7.31 1.45 10.826 0 14.981 0c4.206 0 7.76 1.45 10.664 4.35C28.548 7.25 30 10.8 30 15s-1.428 7.712-4.28 10.538C22.69 28.513 19.11 30 14.98 30c-4.08 0-7.597-1.474-10.55-4.425C1.476 22.626 0 19.101 0 15c0-4.1 1.477-7.65 4.43-10.65zM23.692 6.3c-2.378-2.4-5.269-3.6-8.673-3.6-3.405 0-6.283 1.2-8.636 3.6-2.453 2.475-3.68 5.375-3.68 8.7 0 3.324 1.214 6.2 3.643 8.625 2.428 2.424 5.318 3.638 8.673 3.638 3.353 0 6.27-1.225 8.748-3.676 2.353-2.274 3.529-5.137 3.529-8.587 0-3.426-1.202-6.325-3.604-8.7zm-2.843 9.27a.701.701 0 01.649-.434h3.523v1.407h-3.054l-1.09 2.625a.702.702 0 01-1.347-.186l-.16-1.35-.414 5.017a.701.701 0 01-1.4-.005l-.296-3.896-.275 3.545a.704.704 0 01-1.402-.01l-.273-4.34-.297 4.867a.702.702 0 01-1.403.003l-.29-4.436-.28 4.26a.702.702 0 01-1.403.005l-.343-4.738-.227 2.635a.704.704 0 01-1.396.041l-.65-4.423a.703.703 0 01-.627.384h-3.1v-1.405H7.95l.795-1.674a.703.703 0 011.33.2l.108.738.468-5.432a.703.703 0 011.402.009l.25 3.445.32-4.85a.702.702 0 011.402.001l.261 4.009.309-5.063a.703.703 0 011.403-.001l.359 5.7.211-2.716a.703.703 0 011.402.002l.315 4.163.257-3.11a.704.704 0 011.4-.027l.667 5.616.24-.576zm-5.397-.118h1.327a.453.453 0 100-.905h-1.327V13.22a.452.452 0 10-.905 0v1.327H13.22a.454.454 0 000 .905h1.327v1.327a.453.453 0 00.905 0v-1.327z"/>
  </g>
</svg>
