<?xml version="1.0" encoding="UTF-8"?>
<svg version="1.1" xmlns="http://www.w3.org/2000/svg" xmlns:xlink="http://www.w3.org/1999/xlink">
<defs>

</defs>
<symbol id="i-brand" viewBox="0 0 215 42" fill="none" xmlns="http://www.w3.org/2000/svg"><path class="text" fill-rule="evenodd" clip-rule="evenodd" d="M24.69 21.33c0 6.736-5.425 12.197-12.117 12.197-6.691 0-12.116-5.461-12.116-12.198 0-6.736 5.425-12.197 12.116-12.197 6.692 0 12.117 5.46 12.117 12.197zm-7.27 0c0 2.694-2.17 4.878-4.847 4.878-2.677 0-4.846-2.184-4.846-4.879 0-2.694 2.17-4.879 4.846-4.879 2.677 0 4.847 2.185 4.847 4.88zm17.478 20.229h-8.313V9.54h8.253v4.063h.181c.903-2.365 3.072-4.366 6.506-4.366 4.578 0 9.035 3.517 9.035 11.946 0 8.065-4.156 11.946-9.096 11.946-3.252 0-5.481-1.759-6.445-4.124h-.12V41.56zm3.494-25.893c-2.289 0-3.674 2.061-3.674 5.518 0 3.396 1.385 5.518 3.674 5.518 2.289 0 3.615-2.062 3.615-5.518 0-3.457-1.326-5.519-3.615-5.519zm36.788 9.641c-.784 4.851-4.91 7.944-11.325 7.944-7.41 0-11.928-4.472-11.928-12.007 0-7.216 4.579-12.006 11.747-12.006 6.988 0 11.506 4.533 11.506 11.946v1.94H60.12v.364c0 2.244 1.446 3.881 3.915 3.881 1.702 0 3.073-.743 3.554-2.062h7.591zM63.855 15.12c-2.033 0-3.69 1.38-3.735 3.396h7.409c-.045-2.002-1.611-3.396-3.674-3.396zm21.757 4.608c.015-2.304 1.311-3.699 3.374-3.699 2.093 0 3.328 1.395 3.313 3.7v13.098h8.313V17.97c.015-5.064-3.163-8.732-8.072-8.732-3.404 0-6.099 1.789-7.108 4.73h-.241V9.54h-7.892v23.286h8.313V19.728zm31.581-10.187h8.734l-7.77 23.286h-9.639l-7.77-23.286h8.734l3.735 15.402h.241l3.735-15.402zm20.206 23.71c6.416 0 10.542-3.093 11.325-7.944h-7.59c-.482 1.32-1.852 2.062-3.554 2.062-2.47 0-3.915-1.637-3.915-3.881v-.364h15.059v-1.94c0-7.414-4.518-11.946-11.505-11.946-7.169 0-11.747 4.79-11.747 12.006 0 7.535 4.518 12.007 11.927 12.007zm-3.734-14.735c.045-2.017 1.701-3.396 3.734-3.396 2.064 0 3.63 1.394 3.675 3.396h-7.409zm25.492 14.31h-8.313V9.542h8.072v4.427h.241c.843-3.275 2.771-4.73 5.241-4.73.723 0 1.446.12 2.108.318v7.14c-.828-.288-2.214-.424-3.072-.424-2.455 0-4.277 1.758-4.277 4.427v12.128zm29.947-15.705c-.211-4.927-4.277-7.883-10.964-7.883-6.611 0-10.692 2.728-10.662 7.58-.03 3.668 2.334 6.018 7.048 6.852l4.096.728c1.807.333 2.62.818 2.65 1.698-.03.97-1.129 1.516-2.65 1.516-1.882 0-3.208-.82-3.434-2.305h-8.252c.451 4.776 4.548 7.944 11.626 7.944 6.4 0 11.114-3.138 11.144-8.126-.03-3.441-2.319-5.442-7.048-6.306l-4.699-.85c-1.762-.318-2.259-.954-2.228-1.637-.031-.97 1.159-1.516 2.59-1.516 1.641 0 3.012.88 3.132 2.305h7.651zm24.923 8.186c-.783 4.851-4.909 7.944-11.324 7.944-7.41 0-11.928-4.472-11.928-12.007 0-7.216 4.579-12.006 11.747-12.006 6.988 0 11.505 4.533 11.505 11.946v1.94h-15.059v.364c0 2.244 1.446 3.881 3.915 3.881 1.702 0 3.073-.743 3.554-2.062h7.59zM202.703 15.12c-2.033 0-3.69 1.38-3.735 3.396h7.409c-.045-2.002-1.611-3.396-3.674-3.396z" fill="currentColor"/></symbol>
<symbol id="i-logo" viewBox="0 0 50 42" fill="none" xmlns="http://www.w3.org/2000/svg"><g fill="currentColor"><path class="circle" d="M37.559 18.795c5.156 0 9.335-4.207 9.335-9.398 0-5.19-4.18-9.397-9.335-9.397-5.156 0-9.335 4.207-9.335 9.398 0 5.19 4.18 9.397 9.335 9.397zM1 9.398c0 5.17 4.172 9.397 9.335 9.397V0C5.172 0 1 4.2 1 9.398zM14.612 9.398c0 5.17 4.172 9.397 9.335 9.397V0c-5.137 0-9.335 4.2-9.335 9.398zM37.559 41.921c5.156 0 9.335-4.207 9.335-9.397s-4.18-9.398-9.335-9.398c-5.156 0-9.335 4.208-9.335 9.398 0 5.19 4.18 9.397 9.335 9.397zM14.612 32.524c0 5.171 4.172 9.397 9.335 9.397V23.153c-5.137 0-9.335 4.2-9.335 9.37zM1 32.602C1 37.8 5.172 42 10.335 42V23.231c-5.163 0-9.335 4.2-9.335 9.371z"/></g></symbol>
<symbol id="i-logo-and-wordmark" viewBox="0 0 226 34" xmlns="http://www.w3.org/2000/svg"><g fill="currentColor"><path class="text" d="M71.882 17.267c0 5.453-4.391 9.874-9.808 9.874s-9.809-4.421-9.809-9.874c0-5.454 4.392-9.874 9.809-9.874 5.417 0 9.808 4.42 9.808 9.874zm-5.885 0c0 2.18-1.757 3.95-3.923 3.95-2.167 0-3.924-1.77-3.924-3.95 0-2.182 1.757-3.95 3.924-3.95 2.166 0 3.923 1.768 3.923 3.95zm14.15 16.376h-6.73V7.723h6.68v3.29h.147c.731-1.915 2.487-3.535 5.266-3.535 3.706 0 7.315 2.847 7.315 9.67 0 6.53-3.365 9.671-7.363 9.671-2.634 0-4.438-1.423-5.218-3.338h-.098v10.162zm2.828-20.961c-1.853 0-2.975 1.669-2.975 4.467 0 2.749 1.122 4.467 2.975 4.467s2.925-1.67 2.925-4.467c0-2.798-1.072-4.467-2.925-4.467zm29.78 7.805c-.634 3.927-3.975 6.43-9.168 6.43-5.998 0-9.655-3.62-9.655-9.72 0-5.84 3.706-9.719 9.509-9.719 5.656 0 9.314 3.67 9.314 9.67v1.572h-12.191v.294c0 1.816 1.17 3.142 3.169 3.142 1.378 0 2.487-.601 2.877-1.67h6.145zm-9.168-8.247c-1.646 0-2.987 1.117-3.023 2.749h5.998c-.037-1.62-1.305-2.75-2.975-2.75zm17.613 3.73c.013-1.865 1.061-2.994 2.731-2.994 1.695 0 2.695 1.13 2.682 2.995v10.603h6.73V14.547c.012-4.099-2.56-7.069-6.535-7.069-2.755 0-4.937 1.448-5.754 3.83h-.195V7.723h-6.388v18.85h6.729V15.97zm25.566-8.246h7.07l-6.29 18.85h-7.803l-6.29-18.85h7.071l3.023 12.468h.195l3.024-12.468zm16.357 19.194c5.194 0 8.534-2.504 9.168-6.431h-6.144c-.39 1.068-1.5 1.669-2.877 1.669-2 0-3.17-1.326-3.17-3.142v-.294h12.191v-1.571c0-6.002-3.657-9.67-9.314-9.67-5.803 0-9.509 3.877-9.509 9.719 0 6.1 3.657 9.72 9.655 9.72zm-3.023-11.93c.036-1.631 1.377-2.748 3.023-2.748 1.67 0 2.938 1.129 2.975 2.749H160.1zm20.637 11.586h-6.73V7.724h6.535v3.583h.195c.682-2.65 2.243-3.829 4.242-3.829.585 0 1.171.098 1.707.258v5.78c-.671-.233-1.792-.344-2.487-.344-1.987 0-3.462 1.424-3.462 3.584v9.818zm24.242-12.714c-.171-3.989-3.462-6.382-8.875-6.382-5.352 0-8.656 2.21-8.632 6.136-.024 2.97 1.89 4.872 5.706 5.547l3.316.59c1.463.27 2.121.662 2.146 1.374-.025.785-.915 1.227-2.146 1.227-1.524 0-2.597-.663-2.78-1.865h-6.68c.365 3.866 3.681 6.43 9.411 6.43 5.181 0 8.997-2.54 9.022-6.578-.025-2.785-1.878-4.405-5.706-5.105l-3.803-.687c-1.427-.258-1.829-.773-1.805-1.325-.024-.786.939-1.228 2.097-1.228 1.329 0 2.438.712 2.536 1.866h6.193zm20.177 6.627c-.634 3.927-3.975 6.43-9.168 6.43-5.998 0-9.656-3.62-9.656-9.72 0-5.84 3.707-9.719 9.51-9.719 5.656 0 9.314 3.67 9.314 9.67v1.572h-12.192v.294c0 1.816 1.171 3.142 3.17 3.142 1.378 0 2.487-.601 2.877-1.67h6.145zm-9.168-8.247c-1.646 0-2.987 1.117-3.024 2.749h5.998c-.036-1.62-1.304-2.75-2.974-2.75z" fill-rule="evenodd"/><path class="1-1" d="M.086 7.607c0 4.187 3.377 7.608 7.557 7.608V0C3.463 0 .086 3.4.086 7.607z"/><path class="1-2" d="M11.105 7.607c0 4.187 3.377 7.608 7.557 7.608V0c-4.159 0-7.557 3.4-7.557 7.607z"/><path class="1-3" d="M29.68 15.215c4.175 0 7.558-3.406 7.558-7.607C37.238 3.405 33.855 0 29.681 0s-7.557 3.406-7.557 7.607c0 4.202 3.383 7.608 7.557 7.608z"/><path class="2-1" d="M.086 26.392C.086 30.6 3.463 34 7.643 34V18.806c-4.18 0-7.557 3.4-7.557 7.586z"/><path class="2-2" d="M11.105 26.329c0 4.186 3.377 7.607 7.557 7.607V18.742c-4.159 0-7.557 3.4-7.557 7.587z"/><path class="2-3" d="M29.68 33.936c4.175 0 7.558-3.406 7.558-7.607 0-4.202-3.383-7.608-7.557-7.608s-7.557 3.406-7.557 7.608c0 4.201 3.383 7.607 7.557 7.607z"/></g></symbol>
<symbol id="i-oops" viewBox="0 0 1320 569" xmlns="http://www.w3.org/2000/svg"><path d="M199.235 406.514c-26.404 0-51.609-4.597-75.613-13.79-24.004-9.593-45.208-22.984-63.611-40.172-18.404-17.587-33.006-38.373-43.808-62.356C5.4 265.813 0 238.832 0 209.253c0-27.181 4.4-53.163 13.202-77.945 8.802-25.183 21.804-47.567 39.007-67.153 17.203-19.586 38.607-35.175 64.212-46.767C142.025 5.796 171.43 0 204.636 0c26.405 0 51.61 4.797 75.614 14.39 24.004 9.193 45.208 22.584 63.611 40.172 18.403 17.188 33.006 37.973 43.808 62.356 10.802 23.983 16.203 50.764 16.203 80.343 0 26.782-4.401 52.763-13.203 77.946-8.801 25.182-21.803 47.566-39.006 67.152-17.204 19.587-38.607 35.176-64.212 46.767-25.604 11.592-55.01 17.388-88.216 17.388zm9.002-23.983c30.805 0 56.41-6.395 76.814-19.186 20.403-13.191 35.606-31.378 45.608-54.562 10.402-23.583 15.603-50.964 15.603-82.142 0-27.581-3.201-53.563-9.602-77.946-6.401-24.382-16.003-45.767-28.805-64.154-12.402-18.787-28.005-33.377-46.809-43.77-18.803-10.392-40.807-15.589-66.011-15.589-30.006 0-55.21 6.396-75.614 19.187-20.403 12.79-35.806 30.778-46.208 53.962-10.402 22.784-15.603 49.765-15.603 80.943 0 27.98 3 54.162 9.002 78.545 6.401 24.383 15.803 45.967 28.205 64.754 12.802 18.787 28.605 33.577 47.408 44.369 18.804 10.393 40.808 15.589 66.012 15.589zM565.118 406.514c-22.404 0-42.608-5.196-60.611-15.589s-32.406-24.583-43.208-42.57c-10.402-18.387-15.603-39.172-15.603-62.356 0-16.788 3.201-33.177 9.602-49.165 6.801-15.989 16.203-30.579 28.205-43.77 12.002-13.19 26.005-23.583 42.007-31.178 16.003-7.994 33.206-11.991 51.61-11.991 23.204 0 44.008 5.596 62.411 16.788 18.803 11.192 33.606 25.982 44.408 44.369 11.202 17.987 16.803 37.773 16.803 59.358 0 23.184-5.201 45.168-15.603 65.954-10.002 20.785-25.005 37.773-45.008 50.964-20.004 12.791-45.008 19.186-75.013 19.186zm12.602-17.987c13.602 0 25.804-2.598 36.606-7.795 10.802-5.196 19.204-13.59 25.205-25.182 4.801-9.193 8.001-20.386 9.602-33.576 1.6-13.191 2.4-25.582 2.4-37.174 0-19.187-3.601-37.574-10.802-55.161-6.801-17.988-16.603-32.578-29.405-43.77-12.402-11.592-27.205-17.387-44.408-17.387-10.802 0-20.604 1.798-29.405 5.396-8.402 3.198-16.203 9.393-23.405 18.587-8.001 9.993-13.202 22.184-15.602 36.574-2.401 14.39-3.601 28.78-3.601 43.17 0 19.586 3.601 38.373 10.802 56.36 7.201 17.588 17.003 31.978 29.405 43.17 12.402 11.192 26.605 16.788 42.608 16.788zM739.819 569c-2 0-4.601-.4-7.801-1.199-3.201-.4-4.801-1.799-4.801-4.197 0-3.198 1.4-5.596 4.2-7.195l9.602-3.598a132.67 132.67 0 0017.403-7.195c5.601-2.398 8.402-7.594 8.402-15.589V226.041c0-3.198-1.001-7.994-3.001-14.39-1.6-6.395-4.401-12.591-8.401-18.587-4.001-5.996-9.402-9.593-16.203-10.792-1.601-.4-2.801-1.399-3.601-2.998-.8-1.599-1.2-3.198-1.2-4.797 0-1.998.4-3.597 1.2-4.796.8-1.199 1.801-1.999 3.001-2.399 15.202-3.597 28.205-7.394 39.007-11.392a4183.96 4183.96 0 0030.605-12.591h.6c0-.399.2-.599.6-.599.8 0 1.6.599 2.401 1.798.8 1.2 1.2 2.399 1.2 3.598 0 3.597-.6 9.393-1.8 17.388-.801 7.594-1.201 13.79-1.201 18.587 0 3.197.2 4.996.601 5.396 4-3.997 11.201-8.994 21.603-14.99 10.802-6.395 23.004-11.991 36.607-16.788 13.602-5.196 26.605-7.794 39.007-7.794 20.803 0 38.407 5.596 52.809 16.788 14.803 10.792 26.005 24.982 33.606 42.57 8.006 17.188 12.006 35.175 12.006 53.962 0 17.987-3.4 35.575-10.206 52.763-6.801 16.788-16.402 31.977-28.805 45.568-12.402 13.59-26.804 24.583-43.207 32.977-16.403 7.994-34.006 11.991-52.81 11.991-5.601 0-12.402-.999-20.403-2.998-7.602-1.599-15.203-3.797-22.804-6.595-7.202-2.798-12.803-5.996-16.803-9.593-.4 0-.801 2.398-1.201 7.195-.4 4.397-.8 8.993-1.2 13.79v121.714c0 5.197 2.001 9.194 6.001 11.992 4.401 3.198 9.202 5.396 14.403 6.595a1165.878 1165.878 0 0114.402 4.197 210.873 210.873 0 019.002 3.598c3.2 1.599 4.801 3.997 4.801 7.195 0 2.398-1.601 3.797-4.801 4.197-3.201.799-6.001 1.199-8.402 1.199-11.602 0-21.403-.6-29.405-1.799-7.601-.799-16.603-1.199-27.005-1.199-6.801 0-12.402.2-16.803.6-4 .399-8.201.799-12.602 1.199-4.401.799-10.602 1.199-18.603 1.199zm140.425-181.073c6.001 0 13.202-1.798 21.604-5.396 8.801-3.597 17.403-9.393 25.804-17.388 8.802-7.994 16.003-18.786 21.604-32.377 6.001-13.59 9.002-30.379 9.002-50.365 0-23.183-3.001-41.77-9.002-55.76-6.001-13.99-13.402-24.583-22.204-31.778-8.801-7.195-17.803-11.992-27.005-14.39-9.201-2.398-17.003-3.597-23.404-3.597-9.601 0-19.603 1.998-30.005 5.995-10.002 3.998-18.603 8.594-25.805 13.791-6.801 4.796-10.201 8.594-10.201 11.392 0 8.794-.201 17.787-.601 26.981 0 8.794-.2 17.388-.6 25.782 0 8.394-.2 15.988-.6 22.784v14.989c0 15.989 3.601 30.778 10.802 44.369 7.601 13.59 16.803 24.583 27.605 32.977 11.202 7.994 22.204 11.991 33.006 11.991zM1107.42 406.514c-12.41 0-24.01-1.998-34.81-5.996-10.8-3.597-20-8.793-27.6-15.589-2-4.396-3.6-11.791-4.8-22.184-.81-10.393-1.41-18.987-1.81-25.782 0-3.597 2.61-5.396 7.81-5.396 1.6 0 3 .4 4.2 1.199 1.6.4 2.6 1.399 3 2.998 5.2 19.586 13.4 33.576 24.6 41.97 11.6 8.395 23.21 12.592 34.81 12.592 11.6 0 21.4-3.798 29.4-11.392 8.4-7.995 12.61-17.788 12.61-29.38 0-10.792-3.61-19.986-10.81-27.58-7.2-7.995-19.8-17.588-37.8-28.78-13.61-8.394-24.61-16.389-33.01-23.983-8.4-7.595-14.6-15.389-18.6-23.384-3.6-7.994-5.4-16.988-5.4-26.981 0-12.791 3-24.383 9-34.775 6-10.393 15-18.587 27-24.583 12.01-6.396 27.01-9.593 45.01-9.593 12 0 22 1.199 30.01 3.597 8 2.398 14 4.997 18 7.795 3.2 4.397 5.8 11.392 7.8 20.985 2.4 9.193 3.6 17.987 3.6 26.381 0 2.798-2 4.197-6 4.197-2.4 0-4.8-.399-7.2-1.199-2-1.199-3.4-2.598-4.2-4.197-5.2-13.191-11.8-23.184-19.8-29.979-7.61-7.195-17.21-10.792-28.81-10.792-10 0-19 2.998-27 8.993-7.61 5.996-11.41 14.79-11.41 26.382 0 9.193 2.8 17.388 8.4 24.583 6.01 7.195 17.01 15.389 33.01 24.582 23.2 13.191 40.41 25.582 51.61 37.174 11.6 11.192 17.4 26.182 17.4 44.969 0 21.584-8.2 39.172-24.6 52.763-16.4 13.59-37.61 20.385-63.61 20.385zM1282.79 275.207c-2.8 0-5.2-1.599-7.2-4.797-1.6-3.598-2.8-9.793-3.6-18.587-1.6-17.188-3.4-35.775-5.4-55.761-2-20.386-3.8-40.571-5.4-60.557-1.2-19.986-2.4-38.173-3.6-54.562-.8-16.388-1.2-29.38-1.2-38.972 0-8.794 2.6-16.389 7.8-22.784 5.6-6.796 12.4-10.193 20.4-10.193 8.01 0 14.41 3.397 19.21 10.192 5.2 6.396 7.8 13.99 7.8 22.785 0 9.593-.6 22.584-1.8 38.972-1.2 16.389-2.8 34.576-4.8 54.562-1.6 19.986-3.4 40.171-5.4 60.557-2 20.386-4 38.973-6 55.761-.4 6.395-1.6 11.992-3.61 16.788-1.6 4.397-4 6.596-7.2 6.596zm1.2 131.307c-10 0-18.6-3.397-25.8-10.193-6.8-7.195-10.2-15.789-10.2-25.782 0-9.992 3.4-18.387 10.2-25.182 7.2-7.195 15.8-10.792 25.8-10.792 10.01 0 18.41 3.597 25.21 10.792 7.2 6.795 10.8 15.19 10.8 25.182 0 9.993-3.6 18.587-10.8 25.782-6.8 6.796-15.2 10.193-25.21 10.193z"/></symbol>
<symbol id="i-openverse-logo-text" viewBox="0 0 95 15" xmlns="http://www.w3.org/2000/svg" fill="currentColor"><path fill-rule="evenodd" clip-rule="evenodd" d="M11.095 6.141c0 2.887-2.388 5.228-5.334 5.228-2.947 0-5.335-2.34-5.335-5.228C.426 3.254 2.814.914 5.76.914c2.946 0 5.334 2.34 5.334 5.227zm-3.2 0c0 1.155-.956 2.091-2.135 2.091-1.178 0-2.133-.936-2.133-2.09 0-1.156.955-2.092 2.133-2.092 1.179 0 2.134.936 2.134 2.091zm7.695 8.67h-3.66V1.089h3.633V2.83h.08c.398-1.013 1.353-1.87 2.864-1.87 2.016 0 3.979 1.506 3.979 5.119 0 3.456-1.83 5.12-4.005 5.12-1.432 0-2.414-.754-2.838-1.768h-.053v5.38zm1.538-11.097c-1.008 0-1.618.883-1.618 2.365 0 1.455.61 2.365 1.618 2.365s1.592-.884 1.592-2.365c0-1.482-.584-2.365-1.592-2.365zm16.197 4.132c-.345 2.08-2.161 3.405-4.986 3.405-3.262 0-5.251-1.917-5.251-5.146 0-3.093 2.015-5.146 5.171-5.146 3.077 0 5.066 1.943 5.066 5.12v.831h-6.63v.156c0 .962.636 1.664 1.724 1.664.749 0 1.352-.319 1.564-.884h3.342zM28.34 3.48c-.895 0-1.624.591-1.644 1.455h3.262c-.02-.857-.71-1.455-1.618-1.455zm9.58 1.975c.006-.987.577-1.585 1.485-1.585.922 0 1.465.598 1.459 1.585v5.614h3.66V4.7C44.529 2.531 43.13.96 40.969.96c-1.499 0-2.686.767-3.13 2.027h-.106V1.09H34.26v9.98h3.66V5.455zM51.823 1.09h3.846l-3.421 9.98h-4.244l-3.421-9.98h3.845l1.645 6.601h.106l1.644-6.601zm8.897 10.162c2.825 0 4.641-1.326 4.986-3.405h-3.342c-.212.565-.815.884-1.564.884-1.088 0-1.724-.702-1.724-1.664V6.91h6.63V6.08c0-3.177-1.99-5.12-5.066-5.12-3.156 0-5.172 2.053-5.172 5.146 0 3.229 1.99 5.146 5.252 5.146zm-1.645-6.316c.02-.864.75-1.455 1.645-1.455.908 0 1.598.598 1.618 1.455h-3.263zM70.3 11.07h-3.66v-9.98h3.553v1.897h.107C70.67 1.583 71.52.96 72.607.96c.318 0 .636.052.928.137v3.06c-.364-.124-.974-.182-1.352-.182-1.081 0-1.883.753-1.883 1.897v5.198zm13.185-6.731C83.392 2.226 81.602.959 78.657.959c-2.91 0-4.707 1.17-4.694 3.249-.013 1.572 1.028 2.579 3.103 2.936l1.804.312c.795.143 1.153.351 1.167.728-.014.416-.498.65-1.167.65-.83 0-1.413-.351-1.512-.988h-3.634c.2 2.047 2.003 3.405 5.12 3.405 2.817 0 4.893-1.345 4.906-3.483-.013-1.475-1.021-2.332-3.103-2.703l-2.069-.364c-.776-.136-.995-.409-.981-.701-.014-.416.51-.65 1.14-.65.723 0 1.326.377 1.38.988h3.368zm10.973 3.508c-.344 2.08-2.161 3.405-4.986 3.405-3.262 0-5.251-1.917-5.251-5.146 0-3.093 2.015-5.146 5.172-5.146 3.076 0 5.065 1.943 5.065 5.12v.831h-6.63v.156c0 .962.636 1.664 1.724 1.664.749 0 1.352-.319 1.564-.884h3.342zM89.472 3.48c-.895 0-1.624.591-1.644 1.455h3.262c-.02-.857-.71-1.455-1.618-1.455z"/></symbol>
<symbol id="i-radiomark" viewBox="0 0 24 24" fill="none" xmlns="http://www.w3.org/2000/svg"><circle cx="12" cy="12" r="7.2" fill="currentColor"/></symbol>
<symbol id="i-wordpress" viewBox="0 0 24 24" fill="none" xmlns="http://www.w3.org/2000/svg"><path d="M12 3.25c-4.825 0-8.75 3.925-8.75 8.75s3.925 8.75 8.75 8.75 8.75-3.926 8.75-8.75S16.824 3.25 12 3.25zM4.133 12c0-1.14.245-2.223.682-3.202L8.568 19.08A7.868 7.868 0 014.133 12zM12 19.868a7.857 7.857 0 01-2.222-.32l2.36-6.86 2.418 6.626a.66.66 0 00.056.108A7.846 7.846 0 0112 19.87v-.001zm1.084-11.556c.473-.025.9-.075.9-.075.424-.05.374-.673-.05-.648 0 0-1.274.1-2.097.1-.773 0-2.072-.1-2.072-.1-.424-.025-.474.623-.05.648 0 0 .4.05.825.075l1.226 3.358-1.723 5.163L7.18 8.312c.474-.025.9-.075.9-.075.424-.05.373-.673-.05-.648 0 0-1.274.1-2.097.1-.147 0-.32-.004-.506-.01a7.858 7.858 0 016.573-3.545c2.048 0 3.913.784 5.312 2.066-.034-.002-.067-.006-.102-.006-.773 0-1.321.673-1.321 1.396 0 .648.374 1.197.773 1.845.3.524.648 1.197.648 2.17 0 .673-.259 1.454-.598 2.543l-.785 2.621-2.843-8.456.001-.001zm5.82-.086A7.863 7.863 0 0115.956 18.8l2.402-6.947c.45-1.122.598-2.02.598-2.818 0-.29-.019-.558-.052-.81z" fill="currentColor"/></symbol>
</svg>