<svg width="50" height="42" viewBox="0 0 50 42" fill="none" xmlns="http://www.w3.org/2000/svg">
  <g id="logo" fill="currentColor">
    <path class="circle" d="M37.5589 18.795C42.7146 18.795 46.8942 14.5876 46.8942 9.3975C46.8942 4.2074 42.7146 0 37.5589 0C32.4031 0 28.2236 4.2074 28.2236 9.3975C28.2236 14.5876 32.4031 18.795 37.5589 18.795Z"/>
    <path class="circle" d="M0.999969 9.3975C0.999969 14.5687 5.17217 18.795 10.3353 18.795V0C5.17217 0 0.999969 4.2 0.999969 9.3975Z"/>
    <path class="circle" d="M14.6118 9.3975C14.6118 14.5687 18.784 18.795 23.9471 18.795V0C18.8101 0 14.6118 4.2 14.6118 9.3975Z"/>
    <path class="circle" d="M37.5589 41.9212C42.7146 41.9212 46.8942 37.7138 46.8942 32.5238C46.8942 27.3337 42.7146 23.1263 37.5589 23.1263C32.4031 23.1263 28.2236 27.3337 28.2236 32.5238C28.2236 37.7138 32.4031 41.9212 37.5589 41.9212Z"/>
    <path class="circle" d="M14.6118 32.5238C14.6118 37.695 18.784 41.9213 23.9471 41.9213V23.1525C18.8101 23.1525 14.6118 27.3525 14.6118 32.5238Z"/>
    <path class="circle" d="M0.999969 32.6025C0.999969 37.8 5.17217 42 10.3353 42V23.2312C5.17217 23.2312 0.999969 27.4312 0.999969 32.6025Z"/>
  </g>
</svg>
