<svg fill="none" viewBox="0 0 24 24" xmlns="http://www.w3.org/2000/svg">
  <path id="icon" clip-rule="evenodd" d="m9 5.5h-3c-.27614 0-.5.22386-.5.5v12c0 .2761.22386.5.5.5h3c.27614 0 .5-.2239.5-.5v-12c0-.27614-.22386-.5-.5-.5zm-3-1.5c-1.10457 0-2 .89543-2 2v12c0 1.1046.89543 2 2 2h3c1.1046 0 2-.8954 2-2v-12c0-1.10457-.8954-2-2-2zm12 1.5h-3c-.2761 0-.5.22386-.5.5v3c0 .27614.2239.5.5.5h3c.2761 0 .5-.22386.5-.5v-3c0-.27614-.2239-.5-.5-.5zm-3-1.5c-1.1046 0-2 .89543-2 2v3c0 1.1046.8954 2 2 2h3c1.1046 0 2-.8954 2-2v-3c0-1.10457-.8954-2-2-2zm0 10.5h3c.2761 0 .5.2239.5.5v3c0 .2761-.2239.5-.5.5h-3c-.2761 0-.5-.2239-.5-.5v-3c0-.2761.2239-.5.5-.5zm-2 .5c0-1.1046.8954-2 2-2h3c1.1046 0 2 .8954 2 2v3c0 1.1046-.8954 2-2 2h-3c-1.1046 0-2-.8954-2-2z" fill="currentColor" fill-rule="evenodd"/>
</svg>
