<svg width="24" height="24" viewBox="0 0 24 24" fill="none" xmlns="http://www.w3.org/2000/svg">
  <g id="icon" fill="currentColor">
    <path fill-rule="evenodd" clip-rule="evenodd" d="M12 20.75C16.8325 20.75 20.75 16.8325 20.75 12C20.75 7.16751 16.8325 3.25 12 3.25C7.16751 3.25 3.25 7.16751 3.25 12C3.25 16.8325 7.16751 20.75 12 20.75ZM19.25 12C19.25 16.0041 16.0041 19.25 12 19.25C10.2836 19.25 8.70652 18.6536 7.4647 17.6566L17.6566 7.4647C18.6536 8.70652 19.25 10.2836 19.25 12ZM16.6022 6.39777C15.3504 5.36818 13.7474 4.75 12 4.75C7.99594 4.75 4.75 7.99594 4.75 12C4.75 13.7474 5.36818 15.3504 6.39777 16.6022L16.6022 6.39777Z"/>
  </g>
</svg>
