<svg width="24" height="24" viewBox="0 0 24 24" fill="none" xmlns="http://www.w3.org/2000/svg">
  <path
    d="M4.49961 13.5C5.17043 13.8354 5.1703 13.8357 5.17017 13.8359L5.17298 13.8305C5.17621 13.8242 5.18184 13.8135 5.18988 13.7985C5.20595 13.7686 5.2316 13.7218 5.26695 13.6608C5.3377 13.5385 5.44692 13.3592 5.59541 13.1419C5.89312 12.7062 6.34436 12.124 6.95435 11.5431C8.17308 10.3824 9.99719 9.25 12.4996 9.25C15.002 9.25 16.8261 10.3824 18.0449 11.5431C18.6549 12.124 19.1061 12.7062 19.4038 13.1419C19.5523 13.3592 19.6615 13.5385 19.7323 13.6608C19.7676 13.7218 19.7933 13.7686 19.8093 13.7985C19.8174 13.8135 19.823 13.8242 19.8262 13.8305L19.8291 13.8359C19.8289 13.8357 19.8288 13.8354 20.4996 13.5C21.1704 13.1646 21.1703 13.1643 21.1701 13.164L21.1688 13.1614L21.1662 13.1563L21.1583 13.1408C21.1517 13.1282 21.1427 13.1108 21.131 13.0892C21.1078 13.0459 21.0744 12.9852 21.0306 12.9096C20.9432 12.7584 20.8141 12.5471 20.6423 12.2956C20.2994 11.7938 19.7819 11.126 19.0794 10.4569C17.6731 9.11759 15.4972 7.75 12.4996 7.75C9.50203 7.75 7.32614 9.11759 5.91987 10.4569C5.21736 11.126 4.69984 11.7938 4.35694 12.2956C4.18511 12.5471 4.05605 12.7584 3.9686 12.9096C3.92484 12.9852 3.89142 13.0459 3.86818 13.0892C3.85656 13.1108 3.84748 13.1282 3.84092 13.1408L3.83297 13.1563L3.83041 13.1614L3.82948 13.1632C3.82931 13.1635 3.82879 13.1646 4.49961 13.5ZM12.4996 16.5C14.4326 16.5 15.9996 14.933 15.9996 13C15.9996 11.067 14.4326 9.5 12.4996 9.5C10.5666 9.5 8.99961 11.067 8.99961 13C8.99961 14.933 10.5666 16.5 12.4996 16.5Z"
    fill="currentColor" />
</svg>
