<svg width="24" height="24" viewBox="0 0 24 24" fill="none" xmlns="http://www.w3.org/2000/svg">
  <path fill-rule="evenodd" clip-rule="evenodd"
    d="M16.4229 3.69896L15.5477 3.28711L13.6178 7.38822C13.1078 7.29926 12.5685 7.25002 11.9997 7.25002C9.00215 7.25002 6.82626 8.61761 5.41999 9.95692C4.71748 10.626 4.19996 11.2938 3.85706 11.7956C3.68523 12.0471 3.55617 12.2584 3.46872 12.4096C3.42496 12.4852 3.39154 12.5459 3.3683 12.5892C3.35668 12.6108 3.3476 12.6282 3.34104 12.6408L3.33309 12.6563L3.33053 12.6614L3.3296 12.6632C3.32943 12.6635 3.32891 12.6646 3.99973 13C4.67055 13.3354 4.67042 13.3357 4.67029 13.3359L4.6731 13.3305C4.67633 13.3242 4.68196 13.3135 4.69 13.2985C4.70607 13.2686 4.73172 13.2218 4.76707 13.1608C4.83782 13.0385 4.94704 12.8592 5.09553 12.6419C5.39324 12.2062 5.84448 11.624 6.45447 11.0431C7.6732 9.88243 9.49731 8.75002 11.9997 8.75002C12.3283 8.75002 12.6452 8.76954 12.9505 8.80609L12.8144 9.09534C12.553 9.03302 12.2802 9.00002 11.9997 9.00002C10.0667 9.00002 8.49973 10.567 8.49973 12.5C8.49973 13.6433 9.04793 14.6586 9.89583 15.2974L7.54771 20.2871L8.43108 20.7028L16.4229 3.69896ZM12.305 15.9869C14.095 15.8322 15.4997 14.3302 15.4997 12.5C15.4997 11.7607 15.2705 11.0749 14.8792 10.5098L12.305 15.9869ZM15.3505 9.5071C16.2283 9.9299 16.9571 10.4832 17.545 11.0431C18.155 11.624 18.6062 12.2062 18.9039 12.6419C19.0524 12.8592 19.1616 13.0385 19.2324 13.1608C19.2677 13.2218 19.2934 13.2686 19.3094 13.2985C19.3175 13.3135 19.3231 13.3242 19.3263 13.3305L19.3292 13.3359C19.3292 13.3356 19.3408 13.3295 19.9997 13C20.6705 12.6646 20.6704 12.6643 20.6702 12.664L20.6689 12.6614L20.6663 12.6563L20.6584 12.6408C20.6518 12.6282 20.6428 12.6108 20.6311 12.5892C20.6079 12.5459 20.5745 12.4852 20.5307 12.4096C20.4433 12.2584 20.3142 12.0471 20.1424 11.7956C19.7995 11.2938 19.282 10.626 18.5795 9.95692C17.8984 9.30822 17.0367 8.65289 15.9885 8.14954L15.3505 9.5071Z"
    fill="currentColor" />
</svg>
