<svg width="24" height="24" viewBox="0 0 24 24" fill="none" xmlns="http://www.w3.org/2000/svg">
  <g id="icon" fill="currentColor">
    <path fill-rule="evenodd" clip-rule="evenodd"
          d="M5.51749 8.75C6.41755 6.95823 8.03863 5.5911 9.99995 5.02939C9.5354 5.56854 9.13576 6.20527 8.80951 6.90523C8.54437 7.47408 8.3235 8.09299 8.15326 8.75H5.51749ZM4.96262 10.25C4.82371 10.8104 4.75 11.3966 4.75 12C4.75 12.6034 4.82371 13.1896 4.96262 13.75H7.86318C7.78881 13.1834 7.75 12.598 7.75 12C7.75 11.4019 7.78881 10.8165 7.86317 10.25H4.96262ZM9.37773 10.25C9.29449 10.8092 9.25 11.3951 9.25 12C9.25 12.6049 9.2945 13.1908 9.37774 13.75H14.6223C14.7055 13.1908 14.75 12.6049 14.75 12C14.75 11.3952 14.7055 10.8092 14.6223 10.25H9.37773ZM16.1368 10.25C16.2112 10.8165 16.25 11.4019 16.25 12C16.25 12.5981 16.2112 13.1835 16.1368 13.75H19.0374C19.1763 13.1896 19.25 12.6034 19.25 12C19.25 11.3966 19.1763 10.8104 19.0374 10.25H16.1368ZM18.4825 8.75H15.8467C15.6765 8.09302 15.4556 7.47413 15.1905 6.90529C14.8642 6.2053 14.4646 5.56854 14 5.02937C15.9613 5.59107 17.5824 6.95821 18.4825 8.75ZM14.2894 8.75H9.71058C9.84009 8.31962 9.99413 7.91428 10.1691 7.53893C10.6645 6.47611 11.308 5.69218 12 5.23256C12.6919 5.69217 13.3355 6.47613 13.8309 7.53899C14.0059 7.91433 14.1599 8.31964 14.2894 8.75ZM5.51749 15.25H8.15328C8.33284 15.943 8.56873 16.5936 8.85353 17.1879C9.17113 17.8505 9.5558 18.455 10.0001 18.9706C8.03869 18.409 6.41757 17.0418 5.51749 15.25ZM14.2894 15.25H9.7106C9.8492 15.7106 10.0159 16.1424 10.2062 16.5396C10.6974 17.5645 11.3261 18.3198 12.0001 18.7674C12.692 18.3078 13.3356 17.5239 13.8309 16.4611C14.0059 16.0857 14.1599 15.6804 14.2894 15.25ZM15.1905 17.0948C15.4556 16.5259 15.6765 15.907 15.8467 15.25H18.4825C17.5824 17.0418 15.9614 18.4089 14.0001 18.9706C14.4646 18.4315 14.8642 17.7947 15.1905 17.0948ZM3.25 12C3.25 7.16751 7.16751 3.25 12 3.25C16.8325 3.25 20.75 7.16751 20.75 12C20.75 16.8325 16.8325 20.75 12 20.75C7.16751 20.75 3.25 16.8325 3.25 12Z"/>
  </g>
</svg>
