<svg width="24" height="24" viewBox="0 0 24 24" fill="none" xmlns="http://www.w3.org/2000/svg">
  <g id="icon" fill="currentColor">
    <path d="M13 11V17H11V11H13Z"/>
    <path d="M13 9V7H11V9H13Z"/>
    <path fill-rule="evenodd" clip-rule="evenodd" d="M3.25 12C3.25 7.16751 7.16751 3.25 12 3.25C16.8325 3.25 20.75 7.16751 20.75 12C20.75 16.8325 16.8325 20.75 12 20.75C7.16751 20.75 3.25 16.8325 3.25 12ZM12 4.75C7.99594 4.75 4.75 7.99594 4.75 12C4.75 16.0041 7.99594 19.25 12 19.25C16.0041 19.25 19.25 16.0041 19.25 12C19.25 7.99594 16.0041 4.75 12 4.75Z"/>
  </g>
</svg>
