<svg width="24" height="24" viewBox="0 0 24 24" fill="none" xmlns="http://www.w3.org/2000/svg">
  <path fill-rule="evenodd" clip-rule="evenodd" d="M18.646 9H20V8L19 7.5L12 4L5 7.5L4 8V9H18.646ZM15.646 7.5L12 5.677L8.354 7.5H15.646ZM7.749 16.94V10.44H6.249V16.94H7.749ZM12.749 10.44V16.94H11.249V10.44H12.749ZM17.749 10.44V16.94H16.249V10.44H17.749ZM20.001 19.25C20.001 19.664 19.667 20 19.253 20H4.752C4.55309 20 4.36232 19.921 4.22167 19.7803C4.08102 19.6397 4.002 19.4489 4.002 19.25C4.002 19.0511 4.08102 18.8603 4.22167 18.7197C4.36232 18.579 4.55309 18.5 4.752 18.5H19.252C19.4507 18.5003 19.6412 18.5794 19.7817 18.72C19.9221 18.8606 20.001 19.0513 20.001 19.25Z" fill="currentColor"/>
</svg>
