<svg width="24" height="24" viewBox="0 0 24 24" fill="none" xmlns="http://www.w3.org/2000/svg">
  <path fill-rule="evenodd" clip-rule="evenodd" d="M16 9C16 11.2091 14.2091 13 12 13C9.79086 13 8 11.2091 8 9C8 6.79086 9.79086 5 12 5C14.2091 5 16 6.79086 16 9ZM14.5 9C14.5 10.3807 13.3807 11.5 12 11.5C10.6193 11.5 9.5 10.3807 9.5 9C9.5 7.61929 10.6193 6.5 12 6.5C13.3807 6.5 14.5 7.61929 14.5 9Z" fill="currentColor"/>
  <path d="M18.75 20V18C18.75 16.4812 17.5188 15.25 16 15.25L8 15.25C6.48122 15.25 5.25 16.4812 5.25 18V20H6.75L6.75 18C6.75 17.3096 7.30964 16.75 8 16.75L16 16.75C16.6904 16.75 17.25 17.3096 17.25 18V20H18.75Z" fill="currentColor"/>
</svg>
