<svg xmlns="http://www.w3.org/2000/svg" viewBox="0 0 24 24">
  <g id="icon" fill="currentColor" fill-rule="evenodd">
    <path d="M12.7499 2.5H11.2499V5.5H12.7499V2.5Z"/>
    <path d="M12.7499 18.5H11.2499V21.5H12.7499V18.5Z"/>
    <path d="M18.187 4.75216L19.2477 5.81282L17.1263 7.93414L16.0657 6.87348L18.187 4.75216Z"/>
    <path d="M7.93396 17.1265L6.8733 16.0659L4.75198 18.1872L5.81264 19.2478L7.93396 17.1265Z"/>
    <path d="M18.5 11.25H21.5V12.75H18.5V11.25Z"/>
    <path d="M5.5 12.75V11.25H2.5V12.75H5.5Z"/>
    <path d="M19.2478 18.1872L18.1872 19.2478L16.0659 17.1265L17.1265 16.0659L19.2478 18.1872Z"/>
    <path d="M6.87348 7.93414L7.93414 6.87348L5.81282 4.75215L4.75216 5.81281L6.87348 7.93414Z"/>
    <path d="M16.5 12C16.5 14.4853 14.4853 16.5 12 16.5C9.51472 16.5 7.5 14.4853 7.5 12C7.5 9.51472 9.51472 7.5 12 7.5C14.4853 7.5 16.5 9.51472 16.5 12ZM15 12C15 13.6569 13.6569 15 12 15C10.3431 15 9 13.6569 9 12C9 10.3431 10.3431 9 12 9C13.6569 9 15 10.3431 15 12Z"/>
  </g>
</svg>
