<svg width="24" height="24" viewBox="0 0 24 24" fill="none" xmlns="http://www.w3.org/2000/svg">
  <path fill-rule="evenodd" clip-rule="evenodd" d="M5 4.25C4.58579 4.25 4.25 4.58579 4.25 5V12.8261C4.25 13.0252 4.32911 13.216 4.46991 13.3567L11.1908 20.0715C11.4056 20.2865 11.6607 20.4571 11.9415 20.5735C12.2225 20.69 12.5238 20.75 12.828 20.75C13.1322 20.75 13.4335 20.69 13.7145 20.5735C13.9954 20.457 14.2509 20.286 14.4658 20.0709L20.0754 14.4599L19.545 13.9296L20.0769 14.4583C20.5081 14.0245 20.75 13.4377 20.75 12.8261C20.75 12.2145 20.5081 11.6278 20.0769 11.194L13.3545 4.46974C13.2138 4.32904 13.023 4.25 12.8241 4.25H5ZM19.25 12.8261C19.25 13.0413 19.165 13.2476 19.0136 13.4003L13.4044 19.011C13.3287 19.0868 13.2389 19.1469 13.14 19.1879C13.0411 19.2289 12.935 19.25 12.828 19.25C12.7209 19.25 12.6149 19.2289 12.516 19.1879C12.4171 19.1469 12.3267 19.0862 12.251 19.0104L5.75 12.5153V5.75H12.5134L19.0137 12.252C19.165 12.4047 19.25 12.611 19.25 12.8261ZM9 10C9.55228 10 10 9.55228 10 9C10 8.44772 9.55228 8 9 8C8.44772 8 8 8.44772 8 9C8 9.55228 8.44772 10 9 10Z" fill="currentColor"/>
</svg>
