<svg viewBox="0 0 24 24" xmlns="http://www.w3.org/2000/svg">
<path fill-rule="evenodd" d="M12 24C18.6274 24 24 18.6274 24 12C24 5.37258 18.6274 0 12 0C5.37258 0 0 5.37258 0 12C0 18.6274 5.37258 24 12 24ZM15.2366 13.9284V9.02153C15.2366 8.80741 15.1575 8.62516 15.0011 8.47516C14.8444 8.32516 14.6655 8.25016 14.4656 8.25016H9.53663C9.32288 8.25016 9.14062 8.32554 8.99025 8.47516C8.84063 8.62516 8.76562 8.80704 8.76562 9.02153V13.9288H10.1366V19.7567H13.8656V13.9284H15.2366ZM12.0008 4.24329C10.8859 4.24329 10.329 4.80804 10.329 5.93604C10.329 7.05016 10.8866 7.60741 12.0008 7.60741C13.1149 7.60741 13.6721 7.05016 13.6721 5.93604C13.6721 4.80729 13.1156 4.24329 12.0008 4.24329Z" fill="currentColor"/>
</svg>
