<svg viewBox="0 0 24 24" xmlns="http://www.w3.org/2000/svg">
<path fill-rule="evenodd" d="M12 24C18.6274 24 24 18.6274 24 12C24 5.37258 18.6274 0 12 0C5.37258 0 0 5.37258 0 12C0 18.6274 5.37258 24 12 24ZM10.2621 10.8433L11.8697 10.0075C11.2266 8.85021 10.1627 8.27159 8.67661 8.27234C7.66186 8.27234 6.82261 8.60834 6.15848 9.27959C5.49436 9.95121 5.16211 10.858 5.16211 12.001C5.16211 13.1721 5.49061 14.0863 6.14761 14.7433C6.80461 15.4011 7.66936 15.7292 8.74074 15.7292C9.41236 15.7292 10.027 15.5616 10.5835 15.2256C11.1407 14.89 11.5765 14.4295 11.8907 13.8433L10.4125 13.0933C10.1264 13.7788 9.63361 14.122 8.93349 14.122C8.40473 14.122 8.00461 13.9288 7.73311 13.543C7.46198 13.1571 7.32623 12.6433 7.32623 12.0006C7.32623 10.5861 7.86248 9.87921 8.93349 9.87921C9.14798 9.87921 9.38011 9.95084 9.63023 10.0933C9.87998 10.2362 10.0904 10.4867 10.2621 10.8433ZM17.2052 10.8433L18.7911 10.0075C18.163 8.85021 17.1051 8.27159 15.6194 8.27234C14.605 8.27234 13.7657 8.60834 13.102 9.27959C12.4371 9.95121 12.1052 10.858 12.1052 12.001C12.1052 13.1721 12.43 14.0863 13.081 14.7433C13.7305 15.4011 14.5979 15.7292 15.6839 15.7292C16.3409 15.7292 16.948 15.5616 17.5052 15.2256C18.0617 14.89 18.505 14.4295 18.8331 13.8433L17.3331 13.0933C17.0477 13.7788 16.5546 14.122 15.8552 14.122C15.3257 14.122 14.926 13.9288 14.6549 13.543C14.3837 13.1571 14.2476 12.6433 14.2476 12.0006C14.2476 10.5861 14.7839 9.87921 15.8552 9.87921C16.0829 9.87921 16.3225 9.95084 16.573 10.0933C16.8227 10.2362 17.0339 10.4867 17.2052 10.8433Z" fill="currentColor"/>
</svg>
