<svg viewBox="0 0 24 24" xmlns="http://www.w3.org/2000/svg">
<path d="M11.9781 0C15.3347 0 18.1927 1.17189 20.5496 3.51455C21.6776 4.64295 22.5352 5.93259 23.121 7.38237C23.7064 8.83251 24 10.3715 24 12.0002C24 13.6431 23.7101 15.1825 23.1322 16.6176C22.5536 18.0532 21.6997 19.3214 20.5717 20.4213C19.4006 21.5782 18.0719 22.4644 16.5858 23.0786C15.1004 23.6929 13.5643 24 11.9788 24C10.3933 24 8.87526 23.697 7.42512 23.0891C5.97534 22.4824 4.6752 21.6037 3.52505 20.4539C2.37491 19.3042 1.50002 18.0074 0.900014 16.5644C0.300005 15.1214 0 13.6003 0 12.0002C0 10.4143 0.30338 8.88951 0.910514 7.42512C1.51765 5.96072 2.40004 4.65007 3.55693 3.4928C5.84259 1.16477 8.64951 0 11.9781 0ZM12.0216 2.16453C9.27877 2.16453 6.97136 3.12192 5.09971 5.03595C4.15657 5.99334 3.43168 7.06811 2.92467 8.261C2.41691 9.4539 2.16378 10.7004 2.16378 12.0006C2.16378 13.2865 2.41691 14.5259 2.92467 15.718C3.43205 16.9116 4.15657 17.9759 5.09971 18.9115C6.04247 19.8476 7.10636 20.5612 8.29288 21.0547C9.47827 21.5475 10.7214 21.7938 12.0216 21.7938C13.3071 21.7938 14.5529 21.5445 15.7615 21.0442C16.9686 20.5436 18.0569 19.8228 19.0289 18.88C20.9002 17.0515 21.8355 14.7587 21.8355 12.0009C21.8355 10.6723 21.5925 9.41527 21.1068 8.2295C20.6219 7.04374 19.9143 5.98697 18.9865 5.0577C17.0568 3.12905 14.7359 2.16453 12.0216 2.16453ZM11.8712 10.0078L10.2635 10.8437C10.0918 10.487 9.8814 10.2365 9.63165 10.0937C9.38152 9.95116 9.14939 9.87953 8.93489 9.87953C7.86387 9.87953 7.32762 10.5864 7.32762 12.0009C7.32762 12.6437 7.46337 13.1575 7.7345 13.5433C8.006 13.9292 8.40613 14.1223 8.93489 14.1223C9.63503 14.1223 10.1278 13.7792 10.4139 13.0937L11.8922 13.8437C11.5779 14.4299 11.1422 14.8904 10.5849 15.226C10.0284 15.562 9.41377 15.7296 8.74214 15.7296C7.67075 15.7296 6.80598 15.4015 6.14897 14.7437C5.49196 14.0867 5.16346 13.1725 5.16346 12.0013C5.16346 10.8583 5.49571 9.95153 6.15985 9.2799C6.82398 8.60863 7.66325 8.27263 8.67801 8.27263C10.1642 8.27188 11.2281 8.85051 11.8712 10.0078ZM18.7927 10.0078L17.2068 10.8437C17.0354 10.487 16.8243 10.2365 16.5745 10.0937C16.324 9.95116 16.0844 9.87953 15.8567 9.87953C14.7854 9.87953 14.2491 10.5864 14.2491 12.0009C14.2491 12.6437 14.3852 13.1575 14.6564 13.5433C14.9275 13.9292 15.3272 14.1223 15.8567 14.1223C16.5561 14.1223 17.0493 13.7792 17.3346 13.0937L18.8347 13.8437C18.5065 14.4299 18.0633 14.8904 17.5068 15.226C16.9495 15.562 16.3424 15.7296 15.6854 15.7296C14.5994 15.7296 13.732 15.4015 13.0825 14.7437C12.4314 14.0867 12.1067 13.1725 12.1067 12.0013C12.1067 10.8583 12.4386 9.95153 13.1035 9.2799C13.7672 8.60863 14.6065 8.27263 15.6209 8.27263C17.1066 8.27188 18.1645 8.85051 18.7927 10.0078Z" fill="currentColor"/>
</svg>
