<svg viewBox="0 0 24 24" xmlns="http://www.w3.org/2000/svg">
<path d="M23.4764 15.5169C23.8168 14.4047 24 13.2237 24 12C24 5.37258 18.6274 0 12 0C5.37258 0 0 5.37258 0 12C0 18.6274 5.37258 24 12 24C16.5723 24 20.5473 21.4428 22.5729 17.6806L15.9893 14.7531L15.9899 14.7553C15.832 15.5128 15.4502 16.1304 14.8435 16.6086C14.2352 17.0871 13.5179 17.3627 12.6895 17.4336V19.2767H11.2967V17.4336C9.96812 17.4201 8.7535 16.9416 7.654 15.9984L9.304 14.3271C10.0892 15.0553 10.9825 15.4194 11.9826 15.4194C12.3966 15.4194 12.7506 15.3272 13.0439 15.1408C13.3364 14.9556 13.4834 14.6488 13.4834 14.2194C13.4834 13.9244 13.3796 13.6851 13.173 13.5008L12.8927 13.3762L12.0047 12.9977L10.5906 12.3546L8.68337 11.5187L8.68079 11.5033L0.703125 7.956C0.969064 7.21294 1.30621 6.50375 1.70633 5.83666L8.21507 8.73082L8.212 8.71256C8.41187 8.08406 8.79025 7.58043 9.34787 7.20206C9.90437 6.82368 10.5546 6.61293 11.2979 6.56981V4.72668H12.691V6.56981C13.7912 6.62718 14.791 6.99844 15.691 7.68393L14.1265 9.29118C13.4541 8.81981 12.7694 8.58431 12.0692 8.58431C11.6976 8.58431 11.3657 8.65594 11.0732 8.79844C10.7804 8.94131 10.6337 9.18431 10.6337 9.52706C10.6337 9.62718 10.6694 9.72693 10.7406 9.82706L12.262 10.5133L13.312 10.9847L15.241 11.8416L15.2449 11.8567L23.4764 15.5169Z" fill="currentColor"/>
</svg>
