<svg viewBox="0 0 24 24" xmlns="http://www.w3.org/2000/svg">
<path d="M11.9783 0C15.3495 0 18.1924 1.15688 20.5069 3.471C22.8349 5.7855 24 8.62838 24 12C24 15.372 22.857 18.1785 20.5706 20.4217C18.1425 22.8075 15.2779 24 11.9783 24C8.721 24 5.907 22.8142 3.53587 20.4431C1.179 18.0855 0 15.2719 0 12C0 8.71425 1.179 5.87138 3.53587 3.47137C5.85 1.15725 8.664 0 11.9783 0ZM2.7 8.7645C2.343 9.75 2.16412 10.8289 2.16412 12.0004C2.16412 14.6576 3.13538 16.9579 5.07788 18.9004C7.035 20.8294 9.3495 21.7935 12.0206 21.7935C14.721 21.7935 17.049 20.8155 19.0069 18.8576C19.707 18.1864 20.2564 17.4862 20.6561 16.7569L16.1351 14.7428C15.9773 15.5002 15.5955 16.1179 14.9888 16.596C14.3805 17.0745 13.6631 17.3501 12.8348 17.421V19.2641H11.442V17.421C10.1134 17.4075 8.89875 16.929 7.79925 15.9859L9.44925 14.3145C10.2345 15.0428 11.1277 15.4069 12.1279 15.4069C12.5419 15.4069 12.8959 15.3146 13.1891 15.1283C13.4816 14.943 13.6286 14.6362 13.6286 14.2069C13.6286 13.9065 13.521 13.6639 13.3069 13.4783L12.15 12.9851L10.7359 12.342L8.82862 11.5061L2.7 8.7645ZM12.0214 2.14275C9.29287 2.14275 6.98588 3.10688 5.1 5.0355C4.62825 5.50725 4.18538 6.04275 3.77138 6.64313L8.35725 8.7C8.55713 8.0715 8.9355 7.56788 9.49312 7.1895C10.0496 6.81113 10.6999 6.60038 11.4431 6.55725V4.71413H12.8363V6.55725C13.9365 6.61462 14.9362 6.98588 15.8363 7.67138L14.2717 9.27863C13.5994 8.80725 12.9146 8.57175 12.2145 8.57175C11.8429 8.57175 11.511 8.64338 11.2185 8.78588C10.9256 8.92875 10.779 9.17175 10.779 9.5145C10.779 9.61462 10.8146 9.71438 10.8859 9.8145L12.4072 10.5008L13.4573 10.9721L15.3862 11.829L21.5351 14.5718C21.7358 13.7288 21.8355 12.8719 21.8355 12.0004C21.8355 9.243 20.8785 6.92175 18.9645 5.0355C17.0644 3.10688 14.7491 2.14275 12.0214 2.14275Z" fill="currentColor"/>
</svg>
