<svg viewBox="0 0 24 24" xmlns="http://www.w3.org/2000/svg">
<path d="M23.5045 15.4236C23.8269 14.3387 24 13.1896 24 12C24 5.37258 18.6274 0 12 0C7.66161 0 3.86094 2.30225 1.75307 5.75166L7.4642 8.29116L7.46982 8.27677C8.42626 6.77152 10.0488 5.78027 12.3418 5.78027C13.3176 5.78027 14.8097 5.9819 16.1221 7.11027L14.1681 9.1214C14.0655 9.01946 13.9438 8.91834 13.8038 8.81715C13.4665 8.59127 13.0383 8.4124 12.4983 8.4124C11.5668 8.4124 10.9443 8.94471 10.5532 9.65296L10.5507 9.6636L23.5045 15.4236ZM22.6185 17.5951C20.6074 21.404 16.6069 24 12 24C5.37258 24 0 18.6274 0 12C0 10.5462 0.258539 9.15271 0.732148 7.86311L6.61037 10.4769L6.60689 10.4858C6.5042 10.9961 6.44851 11.5285 6.44851 12.0783C6.44851 16.8689 10.0243 18.2187 12.274 18.2187C13.6007 18.2187 14.7489 17.7905 15.6477 17.1622C15.8185 17.0398 15.9733 16.9166 16.1154 16.7912L14.3661 14.6656C14.3148 14.7243 14.2612 14.78 14.2063 14.8299C13.5258 15.4751 12.7779 15.4751 12.6108 15.4751C10.7804 15.4751 10.0143 13.5439 10.004 11.9969L10.0063 11.987L22.6185 17.5951Z" fill="currentColor"/>
</svg>
