<svg viewBox="0 0 24 24" xmlns="http://www.w3.org/2000/svg">
<path d="M12 0C5.37275 0 0 5.37275 0 12C0 18.6265 5.37275 24 12 24C18.6273 24 24 18.6265 24 12C24 5.37269 18.6273 0 12 0ZM12 21.7499C6.62356 21.7499 2.24975 17.3757 2.24975 12C2.24975 10.8746 2.44369 9.79381 2.79638 8.78788L6.60969 10.4859C6.507 10.9963 6.45131 11.5286 6.45131 12.0784C6.45131 16.869 10.0271 18.2188 12.2768 18.2188C13.6035 18.2188 14.7517 17.7906 15.6505 17.1623C15.8213 17.0399 15.9761 16.9167 16.1182 16.7913L14.3689 14.6658C14.3176 14.7244 14.264 14.7801 14.2091 14.83C13.5286 15.4752 12.7807 15.4752 12.6136 15.4752C10.7832 15.4752 10.0171 13.544 10.0068 11.997L20.5166 16.6762C20.5291 16.6784 20.5393 16.6784 20.5496 16.6806C18.8912 19.6999 15.6806 21.7499 12 21.7499ZM21.3958 14.4913L10.556 9.65306C10.9471 8.94481 11.5696 8.4125 12.5011 8.4125C13.0411 8.4125 13.4693 8.59138 13.8066 8.81725C13.9466 8.91844 14.0683 9.01956 14.1709 9.1215L16.1249 7.11037C14.8125 5.982 13.3204 5.78038 12.3446 5.78038C10.0516 5.78038 8.42906 6.77163 7.47262 8.27688L3.84775 6.66019C5.59237 4.00606 8.59437 2.24938 12 2.24938C17.3764 2.24938 21.7506 6.62288 21.7506 12C21.7506 12.8703 21.6341 13.7127 21.4192 14.5163C21.4104 14.5075 21.4046 14.5001 21.3958 14.4913Z" fill="currentColor"/>
</svg>
