<svg viewBox="0 0 24 24" xmlns="http://www.w3.org/2000/svg">
<path fill-rule="evenodd" d="M12 24C18.6274 24 24 18.6274 24 12C24 5.37258 18.6274 0 12 0C5.37258 0 0 5.37258 0 12C0 18.6274 5.37258 24 12 24ZM20.0783 12.3214L19.8423 12.2142L17.4647 11.2278V8.24943L10.1143 5.20703L6.85748 6.64223V10.0278L6.87908 10.0494L4.00708 11.2494V14.335L7.07108 15.6646L10.1783 14.3782L10.3927 14.4646L16.6711 17.0574L16.8215 17.0998L16.9503 17.0566L19.8639 15.8134L20.0783 15.707V12.3214ZM16.4351 14.0358V16.1566L16.4143 16.1358V16.1582L10.9071 13.8862V11.6998L16.4143 13.9494V14.0358H16.4351ZM18.7287 12.579L16.7999 13.371L15.0639 12.6206L16.9495 11.8286L18.7287 12.579ZM19.3279 13.1358V15.2142L17.1855 16.1358V14.0358L19.3279 13.1358Z" fill="currentColor"/>
</svg>
