<svg viewBox="0 0 24 24" xmlns="http://www.w3.org/2000/svg">
<path d="M11.9784 0C15.3352 0 18.1784 1.164 20.5064 3.4928C22.8352 5.808 24 8.6432 24 12C24 15.3576 22.856 18.1712 20.5704 20.4424C18.1568 22.8144 15.292 24 11.9784 24C8.7352 24 5.9216 22.8216 3.536 20.464C1.1792 18.1072 0 15.2864 0 12C0 8.7296 1.1792 5.8936 3.536 3.4936C5.864 1.164 8.6784 0 11.9784 0ZM12.0216 2.1648C9.2936 2.1648 6.9856 3.1288 5.1 5.0576C3.1424 7.044 2.164 9.3576 2.164 12C2.164 14.672 3.1352 16.9712 5.0776 18.9C7.0208 20.844 9.3352 21.8144 12.0208 21.8144C14.692 21.8144 17.0208 20.836 19.0064 18.8784C20.8928 17.0504 21.8352 14.7576 21.8352 12C21.8352 9.2576 20.8776 6.9432 18.964 5.0576C17.064 3.128 14.7496 2.1648 12.0216 2.1648ZM19.8424 12.2144L20.0784 12.3216V15.7072L19.864 15.8136L16.9504 17.0568L16.8216 17.1L16.6712 17.0576L10.3928 14.4648L10.1784 14.3784L7.0712 15.6648L4.0072 14.3352V11.2496L6.8792 10.0496L6.8576 10.028V6.6424L10.1144 5.2072L17.4648 8.2496V11.228L19.8424 12.2144ZM16.4352 16.1568V14.036H16.4144V13.9496L10.9072 11.7V13.8864L16.4144 16.1584V16.136L16.4352 16.1568ZM16.8 13.3712L18.7288 12.5792L16.9496 11.8288L15.064 12.6208L16.8 13.3712ZM19.328 15.2144V13.136L17.1856 14.036V16.136L19.328 15.2144Z" fill="currentColor"/>
</svg>
