<svg viewBox="0 0 24 24" xmlns="http://www.w3.org/2000/svg">
<path fill-rule="evenodd" d="M12 24C18.6274 24 24 18.6274 24 12C24 5.37258 18.6274 0 12 0C5.37258 0 0 5.37258 0 12C0 18.6274 5.37258 24 12 24ZM8.44486 6.88897C7.48748 7.69597 6.89498 8.83522 6.66661 10.3067L5.72461 10.3063L8.10323 12.685L10.4815 10.3063H9.60286C9.80273 8.89222 10.7024 8.18534 12.3029 8.18534C13.1894 8.18534 13.8674 8.51759 14.3391 9.18172C14.8101 9.84622 15.046 10.8137 15.046 12.0853C15.046 13.2992 14.7887 14.2712 14.2739 14.9995C13.7597 15.7277 13.0806 16.0922 12.2384 16.0922C10.5524 16.0922 9.67373 15.3636 9.60248 13.9063H6.58036C6.78061 15.4063 7.37311 16.5632 8.35898 17.3777C9.34448 18.1922 10.516 18.5991 11.8731 18.5991C13.7166 18.5991 15.2159 17.9878 16.3739 16.7668C17.5304 15.5458 18.109 14.014 18.109 12.1708C18.109 10.2711 17.5517 8.71372 16.4376 7.49947C15.3235 6.28597 13.8227 5.67847 11.9376 5.67847C10.5659 5.67847 9.40186 6.08197 8.44486 6.88897Z" fill="currentColor"/>
</svg>
