<svg viewBox="0 0 24 24" xmlns="http://www.w3.org/2000/svg">
<path d="M11.9786 0C15.3353 0 18.1777 1.16438 20.5069 3.49313C22.8349 5.80763 24 8.643 24 12C24 15.3577 22.8566 18.1714 20.5706 20.4427C18.1567 22.8142 15.2921 24 11.9786 24C8.73525 24 5.92125 22.8214 3.53587 20.4641C1.179 18.1073 0 15.2865 0 12.0004C0 8.72925 1.179 5.8935 3.53587 3.4935C5.86425 1.16438 8.67863 0 11.9786 0ZM12.0214 2.1645C9.29287 2.1645 6.98588 3.129 5.1 5.05763C3.1425 7.04363 2.16412 9.35775 2.16412 12C2.16412 14.6719 3.13538 16.9714 5.07788 18.9C7.02075 20.8433 9.33488 21.8141 12.0206 21.8141C14.6918 21.8141 17.0209 20.8357 19.0065 18.8786C20.8924 17.0501 21.8351 14.7574 21.8351 12C21.8351 9.25762 20.8778 6.94313 18.9641 5.05763C17.064 3.12825 14.7495 2.1645 12.0214 2.1645ZM6.66412 10.3069C6.8925 8.83537 7.485 7.69613 8.44238 6.88912C9.39937 6.08213 10.5634 5.67863 11.9351 5.67863C13.8202 5.67863 15.321 6.28613 16.4351 7.49963C17.5492 8.71387 18.1065 10.2713 18.1065 12.171C18.1065 14.0141 17.5279 15.546 16.3714 16.767C15.2134 17.988 13.7141 18.5993 11.8706 18.5993C10.5135 18.5993 9.342 18.1924 8.3565 17.3779C7.37063 16.5634 6.77813 15.4065 6.57788 13.9065H9.6C9.67125 15.3637 10.5499 16.0924 12.2359 16.0924C13.0781 16.0924 13.7572 15.7279 14.2714 14.9996C14.7863 14.2714 15.0435 13.2994 15.0435 12.0855C15.0435 10.8139 14.8076 9.84638 14.3366 9.18188C13.8649 8.51775 13.1869 8.1855 12.3004 8.1855C10.6999 8.1855 9.80025 8.89237 9.60038 10.3065H10.479L8.10075 12.6851L5.72213 10.3065L6.66412 10.3069Z" fill="currentColor"/>
</svg>
