<svg viewBox="0 0 24 24" xmlns="http://www.w3.org/2000/svg">
<path fill-rule="evenodd" d="M12 24C18.6274 24 24 18.6274 24 12C24 5.37258 18.6274 0 12 0C5.37258 0 0 5.37258 0 12C0 18.6274 5.37258 24 12 24ZM16.8859 12.2038C16.7934 12.2656 16.7215 12.3535 16.6791 12.4563L16.4871 12.9171L15.9535 8.42434C15.9363 8.28625 15.8685 8.15943 15.7633 8.06834C15.6581 7.97724 15.5229 7.92832 15.3838 7.931C15.2447 7.93368 15.1114 7.98778 15.0098 8.08287C14.9082 8.17795 14.8454 8.30729 14.8335 8.44594L14.6279 10.9339L14.3759 7.60354C14.3654 7.4621 14.3019 7.32985 14.198 7.23328C14.0942 7.1367 13.9577 7.08292 13.8159 7.08272C13.674 7.08252 13.5374 7.1359 13.4332 7.23219C13.3291 7.32847 13.2652 7.46053 13.2543 7.60194L13.0855 9.77474L12.7983 5.21474C12.7889 5.07225 12.7256 4.93868 12.6213 4.84113C12.517 4.74358 12.3795 4.68935 12.2367 4.68945C12.0939 4.68956 11.9565 4.74398 11.8524 4.84167C11.7482 4.93937 11.6851 5.07303 11.6759 5.21554L11.4287 9.26594L11.2199 6.05874C11.2123 5.91518 11.15 5.77999 11.0457 5.68101C10.9415 5.58203 10.8032 5.5268 10.6595 5.5267C10.5157 5.5266 10.3774 5.58163 10.273 5.68046C10.1686 5.77928 10.1061 5.91439 10.0983 6.05794L9.84231 9.93794L9.64231 7.18194C9.63256 7.04043 9.5697 6.90782 9.46633 6.8107C9.36295 6.71357 9.22669 6.6591 9.08485 6.65819C8.943 6.65728 8.80606 6.71 8.70144 6.80579C8.59682 6.90158 8.53227 7.03336 8.52071 7.17474L8.14631 11.5203L8.05991 10.9299C8.04231 10.8107 7.98687 10.7003 7.90176 10.6149C7.81664 10.5296 7.70636 10.4738 7.58716 10.4559C7.46797 10.438 7.34617 10.4588 7.23972 10.5153C7.13326 10.5719 7.04779 10.6611 6.99591 10.7699L6.35991 12.1091H4.23511V13.2331H6.71511C6.81892 13.2332 6.92074 13.2046 7.00927 13.1503C7.0978 13.0961 7.1696 13.0184 7.21671 12.9259L7.73671 16.4643C7.75808 16.5996 7.82804 16.7225 7.93348 16.81C8.03892 16.8974 8.17262 16.9434 8.30954 16.9394C8.44647 16.9354 8.57723 16.8816 8.67736 16.7881C8.77749 16.6946 8.84011 16.5679 8.85351 16.4315L9.03511 14.3235L9.30951 18.1139C9.31548 18.2591 9.37749 18.3963 9.4825 18.4967C9.5875 18.5971 9.72734 18.653 9.87263 18.6524C10.0179 18.6519 10.1574 18.5951 10.2617 18.4939C10.3659 18.3928 10.427 18.2551 10.4319 18.1099L10.6559 14.7019L10.8879 18.2507C10.8937 18.3959 10.9555 18.5332 11.0604 18.6337C11.1652 18.7343 11.305 18.7903 11.4503 18.79C11.5955 18.7897 11.7351 18.7331 11.8395 18.6321C11.9439 18.5311 12.0051 18.3935 12.0103 18.2483L12.2479 14.3547L12.4663 17.8267C12.4782 17.9666 12.542 18.097 12.645 18.1924C12.7481 18.2877 12.8831 18.3411 13.0235 18.3421C13.1639 18.3431 13.2996 18.2917 13.404 18.1978C13.5084 18.1039 13.574 17.9745 13.5879 17.8347L13.8079 14.9987L14.0447 18.1155C14.0518 18.2589 14.1137 18.3941 14.2175 18.4932C14.3214 18.5924 14.4593 18.6479 14.6028 18.6485C14.7464 18.649 14.8847 18.5944 14.9892 18.496C15.0937 18.3976 15.1565 18.2629 15.1647 18.1195L15.4959 14.1059L15.6239 15.1859C15.6381 15.3097 15.6931 15.4253 15.7802 15.5144C15.8673 15.6035 15.9816 15.6611 16.105 15.6781C16.2284 15.6952 16.354 15.6707 16.462 15.6085C16.57 15.5464 16.6543 15.45 16.7015 15.3347L17.5735 13.2347H20.0167V12.1091H17.1983C17.0871 12.109 16.9783 12.1419 16.8859 12.2038Z" fill="currentColor"/>
</svg>
