<svg viewBox="0 0 24 24" xmlns="http://www.w3.org/2000/svg">
<path d="M3.544 3.48C5.848 1.16 8.6608 0 11.9848 0C15.3496 0 18.1928 1.16 20.516 3.48C22.8384 5.8 24 8.64 24 12C24 15.36 22.8576 18.1696 20.576 20.4304C18.152 22.8104 15.288 24 11.984 24C8.72 24 5.9064 22.8208 3.544 20.46C1.1808 18.1008 0 15.2808 0 12C0 8.72 1.1816 5.88 3.544 3.48ZM18.9536 5.04C17.0512 3.12 14.7384 2.16 12.0152 2.16C9.2912 2.16 6.9888 3.12 5.1064 5.04C3.144 7.02 2.1624 9.34 2.1624 12C2.1624 14.6592 3.1336 16.96 5.0768 18.9C7.0192 20.8392 9.3312 21.8104 12.0152 21.8104C14.6976 21.8104 17.0312 20.8304 19.0136 18.8696C20.896 17.0504 21.8368 14.76 21.8368 12C21.8368 9.2592 20.8752 6.94 18.9536 5.04ZM16.6792 12.456C16.7216 12.3532 16.7935 12.2653 16.886 12.2034C16.9784 12.1416 17.0872 12.1087 17.1984 12.1088H20.0168V13.2344H17.5736L16.7016 15.3344C16.6544 15.4497 16.5701 15.546 16.4621 15.6082C16.3541 15.6704 16.2285 15.6948 16.1051 15.6778C15.9817 15.6608 15.8674 15.6031 15.7803 15.514C15.6932 15.4249 15.6382 15.3094 15.624 15.1856L15.496 14.1056L15.1648 18.1192C15.1566 18.2625 15.0938 18.3973 14.9893 18.4957C14.8848 18.5941 14.7465 18.6486 14.6029 18.6481C14.4593 18.6476 14.3214 18.5921 14.2176 18.4929C14.1138 18.3938 14.0519 18.2586 14.0448 18.1152L13.808 14.9984L13.588 17.8344C13.5741 17.9741 13.5085 18.1036 13.4041 18.1975C13.2997 18.2913 13.164 18.3428 13.0236 18.3418C12.8832 18.3408 12.7482 18.2874 12.6451 18.192C12.542 18.0967 12.4783 17.9663 12.4664 17.8264L12.248 14.3544L12.0104 18.248C12.0052 18.3932 11.944 18.5307 11.8396 18.6317C11.7351 18.7327 11.5956 18.7893 11.4504 18.7896C11.3051 18.79 11.1653 18.7339 11.0605 18.6334C10.9556 18.5328 10.8938 18.3956 10.888 18.2504L10.656 14.7016L10.432 18.1096C10.4271 18.2548 10.366 18.3925 10.2617 18.4936C10.1575 18.5948 10.018 18.6516 9.87273 18.6521C9.72744 18.6526 9.5876 18.5968 9.48259 18.4964C9.37758 18.396 9.31558 18.2588 9.3096 18.1136L9.0352 14.3232L8.8536 16.4312C8.8402 16.5675 8.77758 16.6943 8.67745 16.7878C8.57732 16.8813 8.44656 16.935 8.30963 16.9391C8.17271 16.9431 8.03901 16.8971 7.93357 16.8096C7.82813 16.7222 7.75818 16.5993 7.7368 16.464L7.2168 12.9256C7.16969 13.0181 7.09789 13.0958 7.00936 13.15C6.92083 13.2042 6.81902 13.2329 6.7152 13.2328H4.2352V12.1088H6.36L6.996 10.7696C7.04789 10.6608 7.13336 10.5716 7.23981 10.515C7.34626 10.4585 7.46806 10.4376 7.58726 10.4556C7.70645 10.4735 7.81674 10.5292 7.90185 10.6146C7.98696 10.6999 8.04241 10.8104 8.06 10.9296L8.1464 11.52L8.5208 7.1744C8.53236 7.03303 8.59692 6.90124 8.70153 6.80545C8.80615 6.70966 8.9431 6.65694 9.08494 6.65785C9.22678 6.65876 9.36304 6.71324 9.46642 6.81036C9.5698 6.90749 9.63266 7.04009 9.6424 7.1816L9.8424 9.9376L10.0984 6.0576C10.1062 5.91405 10.1687 5.77895 10.2731 5.68012C10.3775 5.58129 10.5158 5.52626 10.6596 5.52636C10.8033 5.52647 10.9416 5.58169 11.0458 5.68067C11.1501 5.77965 11.2124 5.91484 11.22 6.0584L11.4288 9.2656L11.676 5.2152C11.6852 5.0727 11.7483 4.93904 11.8525 4.84134C11.9566 4.74364 12.094 4.68922 12.2368 4.68912C12.3796 4.68902 12.5171 4.74324 12.6214 4.84079C12.7257 4.93834 12.789 5.07191 12.7984 5.2144L13.0856 9.7744L13.2544 7.6016C13.2653 7.4602 13.3292 7.32813 13.4333 7.23185C13.5375 7.13557 13.6741 7.08218 13.8159 7.08239C13.9578 7.08259 14.0943 7.13636 14.1981 7.23294C14.302 7.32952 14.3655 7.46177 14.376 7.6032L14.628 10.9336L14.8336 8.4456C14.8455 8.30695 14.9083 8.17761 15.0099 8.08253C15.1115 7.98745 15.2447 7.93335 15.3839 7.93067C15.523 7.92798 15.6582 7.9769 15.7634 8.068C15.8686 8.15909 15.9364 8.28591 15.9536 8.424L16.4872 12.9168L16.6792 12.456ZM12.3616 12.3616H13.4232C13.4722 12.3639 13.5211 12.3562 13.567 12.3391C13.6129 12.3219 13.6549 12.2956 13.6904 12.2618C13.7259 12.228 13.7541 12.1873 13.7734 12.1422C13.7927 12.0971 13.8026 12.0486 13.8026 11.9996C13.8026 11.9506 13.7927 11.9021 13.7734 11.857C13.7541 11.8119 13.7259 11.7712 13.6904 11.7374C13.6549 11.7036 13.6129 11.6773 13.567 11.6601C13.5211 11.643 13.4722 11.6353 13.4232 11.6376H12.3616V10.576C12.3616 10.48 12.3235 10.3879 12.2556 10.32C12.1877 10.2521 12.0956 10.214 11.9996 10.214C11.9036 10.214 11.8115 10.2521 11.7436 10.32C11.6757 10.3879 11.6376 10.48 11.6376 10.576V11.6376H10.576C10.4851 11.645 10.4003 11.6864 10.3385 11.7534C10.2766 11.8205 10.2423 11.9084 10.2423 11.9996C10.2423 12.0908 10.2766 12.1787 10.3385 12.2458C10.4003 12.3128 10.4851 12.3542 10.576 12.3616H11.6376V13.4232C11.642 13.5163 11.682 13.6041 11.7494 13.6684C11.8168 13.7327 11.9064 13.7686 11.9996 13.7686C12.0928 13.7686 12.1824 13.7327 12.2498 13.6684C12.3172 13.6041 12.3572 13.5163 12.3616 13.4232V12.3616Z" fill="currentColor"/>
</svg>
