<svg viewBox="0 0 24 24" xmlns="http://www.w3.org/2000/svg">
<path d="M11.9784 0C15.3488 0 18.196 1.1608 20.5176 3.4824C22.8392 5.8032 24 8.6424 24 12C24 15.3576 22.856 18.164 20.5704 20.4208C18.1568 22.808 15.292 24 11.9784 24C8.7208 24 5.9104 22.8208 3.5464 20.464C1.1816 18.1064 0 15.2856 0 12C0 8.7144 1.1792 5.872 3.536 3.472C5.8504 1.1568 8.664 0 11.9784 0ZM12.0104 2.1648C9.2896 2.1648 6.9856 3.1216 5.1 5.036C3.144 7.0216 2.164 9.3432 2.164 12C2.164 14.6568 3.136 16.9568 5.0784 18.8992C7.0216 20.8424 9.3352 21.8128 12.0216 21.8128C14.7072 21.8128 17.0352 20.8352 19.0072 18.8768C20.8928 17.0488 21.836 14.756 21.836 11.9984C21.836 9.256 20.8784 6.9344 18.9648 5.0344C17.0504 3.1208 14.732 2.164 12.0112 2.164L12.0104 2.1648ZM12.1928 4.7352C12.2603 4.72719 12.3287 4.73361 12.3935 4.75402C12.4583 4.77443 12.5181 4.80837 12.5688 4.8536C12.6731 4.94318 12.7381 5.07018 12.7496 5.2072V5.2928L13.0712 10.4784L13.3072 7.6064C13.3072 7.464 13.3568 7.3424 13.4568 7.2424C13.504 7.19384 13.5607 7.15545 13.6233 7.12959C13.6859 7.10372 13.7531 7.09093 13.8208 7.092C13.9632 7.092 14.0848 7.1424 14.1856 7.2424C14.2342 7.28975 14.2725 7.34655 14.2982 7.4093C14.3239 7.47204 14.3365 7.5394 14.3352 7.6072V7.692L14.6128 11.5496L14.892 8.4424C14.9039 8.31903 14.9615 8.20459 15.0536 8.1216C15.143 8.03723 15.2619 7.99128 15.3848 7.9936C15.5144 7.9936 15.628 8.0336 15.728 8.1112C15.7765 8.14826 15.8169 8.19498 15.8465 8.2484C15.8761 8.30182 15.8943 8.36079 15.9 8.4216L16.4576 13.0936L16.7144 12.472C16.8 12.2576 16.964 12.1504 17.2064 12.1504H20.0144V13.1792H17.5496L16.6712 15.3216C16.5704 15.5784 16.3848 15.6864 16.1136 15.6424C15.9951 15.633 15.8844 15.5796 15.8032 15.4928C15.7229 15.4037 15.674 15.2907 15.664 15.1712L15.472 13.6288L15.1072 18.1072C15.0948 18.2298 15.0375 18.3435 14.9464 18.4265C14.8553 18.5094 14.7368 18.5558 14.6136 18.5568C14.4872 18.5577 14.365 18.5118 14.2704 18.428C14.1735 18.3476 14.1121 18.2324 14.0992 18.1072V18.0424L13.8 14.3352L13.5424 17.828C13.5161 17.9514 13.4524 18.0637 13.36 18.1496C13.2701 18.2341 13.1506 18.2801 13.0272 18.2776C12.9012 18.2787 12.7792 18.2331 12.6848 18.1496C12.5877 18.0691 12.5262 17.9535 12.5136 17.828V17.764L12.2344 13.5848L11.956 18.1712V18.2352C11.9572 18.375 11.9035 18.5098 11.8064 18.6104C11.7608 18.6617 11.7047 18.7026 11.6419 18.7304C11.5791 18.7581 11.5111 18.772 11.4424 18.7712C11.3736 18.7722 11.3054 18.7584 11.2425 18.7306C11.1795 18.7029 11.1233 18.6619 11.0776 18.6104C10.9798 18.5101 10.9258 18.3752 10.9272 18.2352V18.1928L10.6488 13.9504L10.3912 18.0424V18.1064C10.3657 18.2299 10.3022 18.3424 10.2096 18.428C10.12 18.5126 10.0008 18.5589 9.8776 18.5568C9.75158 18.5579 9.62962 18.5123 9.5352 18.4288C9.43779 18.3484 9.37599 18.2329 9.3632 18.1072V18.0432H9.3424V17.9792L9.0424 13.6936L8.8064 16.436C8.79398 16.5616 8.73245 16.6772 8.6352 16.7576C8.5407 16.8409 8.41879 16.8865 8.2928 16.8856C8.164 16.8856 8.0528 16.8472 7.96 16.768C7.86593 16.6881 7.80165 16.5787 7.7776 16.4576L7.2416 12.772L7.1776 12.9C7.092 13.0864 6.9344 13.1792 6.7056 13.1792H4.22V12.1496H6.3848L7.0488 10.8C7.1488 10.5712 7.3232 10.4752 7.5736 10.5104C7.824 10.5464 7.9704 10.6856 8.0136 10.928L8.1632 11.9136L8.5696 7.1776C8.5696 7.0352 8.62 6.9136 8.72 6.8144C8.76725 6.76588 8.8239 6.72752 8.88649 6.70165C8.94908 6.67579 9.01629 6.66298 9.084 6.664C9.15173 6.66289 9.21897 6.67566 9.28157 6.70152C9.34417 6.72739 9.40081 6.7658 9.448 6.8144C9.49649 6.86163 9.53478 6.91829 9.56051 6.9809C9.58624 7.04351 9.59887 7.11072 9.5976 7.1784V7.264L9.8336 10.6072L10.1552 6.1288V6.0648C10.1664 5.94187 10.2232 5.82756 10.3143 5.74436C10.4055 5.66117 10.5246 5.61509 10.648 5.6152C10.776 5.6152 10.8904 5.6576 10.9904 5.7432C11.0912 5.8288 11.1472 5.9352 11.1616 6.0648V6.1288L11.4192 10.0288L11.7192 5.2928V5.208C11.7192 5.08 11.7656 4.972 11.8584 4.8864C11.9507 4.80142 12.068 4.74785 12.1928 4.7352Z" fill="currentColor"/>
</svg>
