<svg viewBox="0 0 24 24" xmlns="http://www.w3.org/2000/svg">
<path d="M11.9786 0C15.3353 0 18.1778 1.16438 20.5069 3.49313C22.8349 5.80762 24 8.64304 24 12C24 15.3578 22.8566 18.1714 20.5706 20.4427C18.1567 22.8142 15.2922 24 11.9786 24C8.73528 24 5.92125 22.8214 3.53587 20.4642C1.179 18.1073 0 15.2865 0 12.0004C0 8.72928 1.179 5.8935 3.53587 3.4935C5.86425 1.16438 8.67864 0 11.9786 0ZM12.0214 2.1645C9.29288 2.1645 6.98587 3.129 5.1 5.05762C3.1425 7.04362 2.16413 9.35776 2.16413 12C2.16413 14.6718 3.13538 16.9714 5.07787 18.9C7.02075 20.8433 9.33488 21.8142 12.0206 21.8142C14.6918 21.8142 17.0209 20.8358 19.0065 18.8786C20.8924 17.0502 21.8351 14.7574 21.8351 12C21.8351 9.2576 20.8778 6.94313 18.9642 5.05762C17.064 3.12825 14.7495 2.1645 12.0214 2.1645ZM16.9073 8.57136C17.0925 8.57136 17.25 8.63552 17.3782 8.76376C17.5073 8.8924 17.5718 9.04984 17.5718 9.23552V18.0638C17.5718 18.2494 17.5073 18.4065 17.3782 18.5347C17.3171 18.5974 17.2438 18.647 17.1628 18.6802C17.0818 18.7135 16.9948 18.7298 16.9073 18.7282H10.3714C10.1854 18.7282 10.0286 18.6642 9.8996 18.5347C9.83696 18.4737 9.78744 18.4003 9.75432 18.3193C9.72112 18.2382 9.70504 18.1513 9.70688 18.0638V15.4489H7.09275C6.90638 15.4489 6.74962 15.3851 6.621 15.2565C6.55834 15.1952 6.5089 15.1218 6.47575 15.0406C6.4426 14.9594 6.42643 14.8724 6.42825 14.7847V5.95725C6.42825 5.7855 6.48487 5.63925 6.6 5.51813C6.71346 5.39718 6.8643 5.31794 7.02825 5.29313H13.6278C13.8131 5.29313 13.9706 5.35725 14.0996 5.48587C14.2278 5.61413 14.2924 5.772 14.2924 5.95762V8.57216L16.9073 8.57136ZM7.7355 14.1427H9.70688V9.23552C9.70688 9.06416 9.76352 8.91784 9.87864 8.7964C9.98616 8.67912 10.129 8.60016 10.2855 8.57136H12.9855V6.62138H7.7355V14.1427ZM16.2642 9.87824H11.0142V17.4H16.2642V9.87824Z" fill="currentColor"/>
</svg>
