<svg viewBox="0 0 24 24" xmlns="http://www.w3.org/2000/svg">
<path fill-rule="evenodd" d="M12 24C18.6274 24 24 18.6274 24 12C24 5.37258 18.6274 0 12 0C5.37258 0 0 5.37258 0 12C0 18.6274 5.37258 24 12 24ZM17.3784 8.7636C17.2501 8.63536 17.0926 8.5712 16.9074 8.5712L14.2925 8.572V5.95746C14.2925 5.77184 14.228 5.61397 14.0997 5.48571C13.9708 5.35709 13.8132 5.29297 13.628 5.29297H7.02836C6.86441 5.31778 6.71357 5.39702 6.60011 5.51797C6.48498 5.63909 6.42836 5.78534 6.42836 5.95709V14.7846C6.42654 14.8722 6.44271 14.9593 6.47586 15.0404C6.50902 15.1216 6.55845 15.195 6.62111 15.2563C6.74974 15.385 6.90649 15.4487 7.09286 15.4487H9.70699V18.0636C9.70515 18.1511 9.72123 18.2381 9.75443 18.3191C9.78755 18.4002 9.83707 18.4735 9.89971 18.5346C10.0288 18.664 10.1855 18.7281 10.3715 18.7281H16.9074C16.9949 18.7297 17.0819 18.7134 17.1629 18.6801C17.2439 18.6468 17.3172 18.5973 17.3784 18.5346C17.5074 18.4063 17.5719 18.2492 17.5719 18.0636V9.23536C17.5719 9.04968 17.5074 8.89224 17.3784 8.7636Z M11.0143 9.87808H16.2643V17.3998H11.0143V9.87808Z M9.70699 14.1426H7.73562V6.62122H12.9856V8.5712H10.2856C10.1292 8.6 9.98627 8.67896 9.87875 8.79624C9.76363 8.91768 9.70699 9.064 9.70699 9.23536V14.1426Z" fill="currentColor"/>
</svg>
