<svg width="30" height="30" viewBox="0 0 30 30" fill="none" xmlns="http://www.w3.org/2000/svg">
  <g id="icon">
    <path d="M14.9733 0C19.1691 0 22.7222 1.45547 25.6336 4.36641C28.5436 7.25953 30 10.8038 30 15C30 19.1972 28.5708 22.7142 25.7133 25.5534C22.6959 28.5178 19.1152 30 14.9733 30C10.9191 30 7.40156 28.5267 4.41984 25.5802C1.47375 22.6341 0 19.1081 0 15.0005C0 10.9116 1.47375 7.36688 4.41984 4.36687C7.33031 1.45547 10.8483 0 14.9733 0ZM15.0267 2.70563C11.6161 2.70563 8.73234 3.91125 6.375 6.32203C3.92813 8.80453 2.70516 11.6972 2.70516 15C2.70516 18.3398 3.91922 21.2142 6.34734 23.625C8.77594 26.0541 11.6686 27.2677 15.0258 27.2677C18.3647 27.2677 21.2761 26.0447 23.7581 23.5983C26.1155 21.3127 27.2939 18.4467 27.2939 15C27.2939 11.572 26.0972 8.67891 23.7052 6.32203C21.33 3.91031 18.4369 2.70563 15.0267 2.70563ZM21.1341 10.7142C21.3656 10.7142 21.5625 10.7944 21.7228 10.9547C21.8841 11.1155 21.9647 11.3123 21.9647 11.5444V22.5797C21.9647 22.8117 21.8841 23.0081 21.7228 23.1684C21.6464 23.2468 21.5547 23.3087 21.4535 23.3503C21.3522 23.3919 21.2435 23.4123 21.1341 23.4103H12.9642C12.7317 23.4103 12.5358 23.3302 12.3745 23.1684C12.2962 23.0921 12.2343 23.0004 12.1929 22.8991C12.1514 22.7978 12.1313 22.6891 12.1336 22.5797V19.3111H8.86594C8.63297 19.3111 8.43703 19.2314 8.27625 19.0706C8.19792 18.994 8.13613 18.9022 8.09469 18.8007C8.05325 18.6993 8.03304 18.5905 8.03531 18.4809V7.44656C8.03531 7.23187 8.10609 7.04906 8.25 6.89766C8.39182 6.74648 8.58037 6.64742 8.78531 6.61641H17.0348C17.2664 6.61641 17.4633 6.69656 17.6245 6.85734C17.7848 7.01766 17.8655 7.215 17.8655 7.44703V10.7152H21.1341V10.7142ZM9.66938 17.6784H12.1336V11.5444C12.1336 11.3302 12.2044 11.1473 12.3483 10.9955C12.4827 10.8489 12.6613 10.7502 12.8569 10.7142H16.2319V8.27672H9.66938V17.6784ZM20.3302 12.3478H13.7677V21.75H20.3302V12.3478Z" fill="black"/>
  </g>
</svg>
