<svg viewBox="0 0 24 24" xmlns="http://www.w3.org/2000/svg">
<path d="M3.55463 3.48755C5.84025 1.15877 8.646 0 11.9749 0C15.3319 0 18.1969 1.16964 20.5549 3.51268C21.6833 4.64145 22.5405 5.92959 23.1262 7.38649C23.7112 8.82989 24 10.3715 24 12.0002C24 13.6438 23.7113 15.1877 23.1259 16.6304C22.5548 18.0588 21.7005 19.3203 20.5714 20.4202C19.3995 21.5778 18.0742 22.461 16.5885 23.0756C15.1024 23.6902 13.5608 24 11.9749 24C10.3886 24 8.86875 23.7015 7.4115 23.1007C5.96812 22.4865 4.66913 21.6052 3.51225 20.4618C2.36925 19.3053 1.49887 18.007 0.898875 16.5633C0.298875 15.1202 0 13.6007 0 12.0002C0 10.4143 0.298875 8.89476 0.898875 7.43712C1.5135 5.96522 2.397 4.6452 3.55463 3.48755ZM18.9829 5.05058C17.0546 3.12192 14.7394 2.15966 12.0251 2.15966C9.282 2.15966 6.972 3.1193 5.10075 5.03295C4.158 5.99072 3.43012 7.06849 2.916 8.2685C2.41613 9.45427 2.15963 10.6993 2.15963 11.9994C2.15963 13.2853 2.41613 14.5225 2.916 15.7221C3.43012 16.9083 4.15763 17.9729 5.10075 18.9157C6.04388 19.8449 7.10812 20.5589 8.29425 21.0592C9.47962 21.5448 10.7246 21.7897 12.0251 21.7897C13.311 21.7897 14.5477 21.5422 15.7477 21.042C16.962 20.5417 18.0533 19.8176 19.0252 18.874C20.8965 17.0455 21.84 14.758 21.84 12.0002C21.84 10.6715 21.5951 9.41302 21.1091 8.22725C20.6235 7.04186 19.9117 5.97947 18.9829 5.05058ZM7.04175 12.0002C7.04175 8.83099 8.03812 5.09255 12 5.09255C15.9615 5.09255 16.9579 8.83099 16.9579 12.0002C16.9579 15.1697 15.9615 18.9078 12 18.9078C8.03775 18.9078 7.04175 15.1697 7.04175 12.0002ZM12.4455 7.75622C12.3075 7.72209 12.1609 7.69734 12 7.69734C9.96225 7.69734 9.8655 10.604 9.8655 11.9998C9.8655 12.4487 9.87712 13.0502 9.95812 13.6637L12.5966 8.81486C12.8704 8.3416 12.7309 8.00222 12.4455 7.75622ZM14.1345 12.0002C14.1345 11.4538 14.1146 10.6768 13.9747 9.93275L11.0257 15.0261C10.614 15.6437 10.8997 15.9928 11.3535 16.186C11.3932 16.2017 11.4375 16.2152 11.4795 16.2272C11.505 16.2362 11.529 16.2445 11.5552 16.2524C11.6925 16.2865 11.8402 16.3034 12.0007 16.3034C14.0377 16.3034 14.1345 13.3963 14.1345 12.0002Z" fill="currentColor"/>
</svg>
