<svg viewBox="0 0 24 24" xmlns="http://www.w3.org/2000/svg">
<path fill-rule="evenodd" d="M12 24C18.6274 24 24 18.6274 24 12C24 5.37258 18.6274 0 12 0C5.37258 0 0 5.37258 0 12C0 18.6274 5.37258 24 12 24ZM7.04297 12C7.04297 8.8309 8.03934 5.09253 12.0012 5.09253C15.9627 5.09253 16.9591 8.8309 16.9591 12C16.9591 15.1695 15.9627 18.9075 12.0012 18.9075C8.03897 18.9075 7.04297 15.1695 7.04297 12ZM12.4467 7.75615C12.3087 7.72203 12.1621 7.69728 12.0012 7.69728C9.96347 7.69728 9.86672 10.6039 9.86672 11.9997C9.86672 12.4485 9.87834 13.05 9.95934 13.6635L12.5978 8.81478C12.8716 8.34153 12.7321 8.00215 12.4467 7.75615ZM14.1357 12C14.1357 11.4537 14.1158 10.6767 13.976 9.93265L11.027 15.0259C10.6152 15.6435 10.901 15.9927 11.3547 16.1858C11.3945 16.2015 11.4387 16.215 11.4807 16.227C11.5062 16.236 11.5302 16.2443 11.5565 16.2522C11.6937 16.2863 11.8415 16.3032 12.002 16.3032C14.039 16.3032 14.1357 13.3962 14.1357 12Z" fill="currentColor"/>
</svg>
