<svg width="20" height="20" viewBox="0 0 20 20" fill="none" xmlns="http://www.w3.org/2000/svg">
<path d="M13.457 6.25C12.8906 2.76172 11.5547 0.3125 10 0.3125C8.44531 0.3125 7.10938 2.76172 6.54297 6.25H13.457ZM6.25 10C6.25 10.8672 6.29688 11.6992 6.37891 12.5H13.6172C13.6992 11.6992 13.7461 10.8672 13.7461 10C13.7461 9.13281 13.6992 8.30078 13.6172 7.5H6.37891C6.29688 8.30078 6.25 9.13281 6.25 10ZM18.9336 6.25C17.8164 3.59766 15.5547 1.54688 12.7617 0.71875C13.7148 2.03906 14.3711 4.02734 14.7148 6.25H18.9336ZM7.23438 0.71875C4.44531 1.54688 2.17969 3.59766 1.06641 6.25H5.28516C5.625 4.02734 6.28125 2.03906 7.23438 0.71875ZM19.3516 7.5H14.8711C14.9531 8.32031 15 9.16016 15 10C15 10.8398 14.9531 11.6797 14.8711 12.5H19.3477C19.5625 11.6992 19.6836 10.8672 19.6836 10C19.6836 9.13281 19.5625 8.30078 19.3516 7.5ZM5 10C5 9.16016 5.04688 8.32031 5.12891 7.5H0.648438C0.4375 8.30078 0.3125 9.13281 0.3125 10C0.3125 10.8672 0.4375 11.6992 0.648438 12.5H5.125C5.04688 11.6797 5 10.8398 5 10ZM6.54297 13.75C7.10938 17.2383 8.44531 19.6875 10 19.6875C11.5547 19.6875 12.8906 17.2383 13.457 13.75H6.54297ZM12.7656 19.2812C15.5547 18.4531 17.8203 16.4023 18.9375 13.75H14.7188C14.375 15.9727 13.7187 17.9609 12.7656 19.2812ZM1.06641 13.75C2.18359 16.4023 4.44531 18.4531 7.23828 19.2812C6.28516 17.9609 5.62891 15.9727 5.28516 13.75H1.06641Z" fill="#B0B0B0"/>
</svg>
