<?xml version="1.0" encoding="UTF-8"?>
<svg version="1.1" xmlns="http://www.w3.org/2000/svg" xmlns:xlink="http://www.w3.org/1999/xlink">
<defs>

</defs>
<symbol id="i-by" viewBox="0 0 30 30" xmlns="http://www.w3.org/2000/svg"><path d="M14.973 0c4.213 0 7.768 1.446 10.66 4.34C28.544 7.25 30 10.803 30 15c0 4.215-1.43 7.723-4.287 10.526C22.678 28.51 19.098 30 14.973 30c-4.054 0-7.571-1.474-10.553-4.42C1.474 22.633 0 19.107 0 15S1.474 7.34 4.42 4.34C7.313 1.446 10.83 0 14.973 0zm.054 2.706c-3.41 0-6.295 1.196-8.652 3.589-2.447 2.5-3.67 5.402-3.67 8.706 0 3.321 1.214 6.196 3.642 8.624 2.429 2.429 5.322 3.642 8.679 3.642 3.339 0 6.25-1.222 8.732-3.67 2.358-2.267 3.536-5.133 3.536-8.598 0-3.41-1.197-6.311-3.589-8.705-2.392-2.392-5.285-3.588-8.678-3.588zm4.018 8.57v6.134H17.33v7.286h-4.66V17.41h-1.714v-6.134a.93.93 0 01.28-.683.933.933 0 01.684-.281h6.161c.25 0 .474.093.67.28a.912.912 0 01.294.684zM12.91 7.42c0-1.41.696-2.116 2.09-2.116s2.09.705 2.09 2.116c0 1.393-.697 2.09-2.09 2.09-1.393 0-2.09-.697-2.09-2.09z" fill="currentColor"/></symbol>
<symbol id="i-cc" viewBox="0 0 30 30" xmlns="http://www.w3.org/2000/svg"><path d="M14.972 0c4.196 0 7.769 1.465 10.715 4.393A14.426 14.426 0 0128.9 9.228C29.633 11.04 30 12.964 30 15c0 2.054-.363 3.978-1.085 5.772a13.77 13.77 0 01-3.2 4.754 15.417 15.417 0 01-4.983 3.322A14.932 14.932 0 0114.973 30c-1.982 0-3.88-.38-5.692-1.14a15.087 15.087 0 01-4.875-3.293c-1.437-1.437-2.531-3.058-3.281-4.862A14.71 14.71 0 010 15c0-1.982.38-3.888 1.138-5.719a15.062 15.062 0 013.308-4.915C7.303 1.456 10.812 0 14.972 0zm.055 2.706c-3.429 0-6.313 1.196-8.652 3.589a12.896 12.896 0 00-2.72 4.031 11.814 11.814 0 00-.95 4.675c0 1.607.316 3.156.95 4.646a12.428 12.428 0 002.72 3.992 12.362 12.362 0 003.99 2.679c1.483.616 3.037.924 4.662.924 1.607 0 3.164-.312 4.675-.937a12.954 12.954 0 004.084-2.705c2.339-2.286 3.508-5.152 3.508-8.6 0-1.66-.304-3.231-.91-4.713a11.994 11.994 0 00-2.651-3.965c-2.412-2.41-5.314-3.616-8.706-3.616zm-.188 9.803l-2.01 1.045c-.215-.445-.477-.758-.79-.937-.312-.178-.602-.268-.87-.268-1.34 0-2.01.884-2.01 2.652 0 .803.17 1.446.509 1.928.34.482.84.724 1.5.724.876 0 1.492-.43 1.85-1.286l1.847.937a4.407 4.407 0 01-1.634 1.728c-.696.42-1.464.63-2.303.63-1.34 0-2.42-.41-3.242-1.233-.821-.82-1.232-1.964-1.232-3.428 0-1.428.416-2.562 1.246-3.401.83-.84 1.879-1.26 3.147-1.26 1.858 0 3.188.723 3.992 2.17zm8.652 0l-1.983 1.045c-.214-.445-.478-.758-.79-.937-.313-.178-.613-.268-.897-.268-1.34 0-2.01.884-2.01 2.652 0 .803.17 1.446.51 1.928.338.482.838.724 1.5.724.874 0 1.49-.43 1.847-1.286l1.875.937a4.606 4.606 0 01-1.66 1.728c-.696.42-1.455.63-2.277.63-1.357 0-2.441-.41-3.253-1.233-.814-.82-1.22-1.964-1.22-3.428 0-1.428.415-2.562 1.246-3.401.83-.84 1.879-1.26 3.147-1.26 1.857 0 3.18.723 3.965 2.17z" fill="currentColor"/></symbol>
<symbol id="i-nc" viewBox="0 0 30 30" xmlns="http://www.w3.org/2000/svg"><path d="M14.973 0c4.214 0 7.768 1.446 10.66 4.339C28.544 7.232 30 10.786 30 15c0 4.215-1.429 7.723-4.287 10.527C22.678 28.51 19.097 30 14.973 30c-4.072 0-7.59-1.482-10.553-4.446C1.474 22.607 0 19.09 0 15c0-4.107 1.474-7.66 4.42-10.66C7.313 1.446 10.83 0 14.973 0zM3.375 10.956c-.446 1.232-.67 2.58-.67 4.045 0 3.321 1.214 6.196 3.642 8.624 2.447 2.412 5.34 3.617 8.679 3.617 3.375 0 6.285-1.223 8.733-3.67.875-.839 1.561-1.714 2.061-2.626l-5.651-2.518a3.866 3.866 0 01-1.433 2.317c-.76.598-1.657.943-2.693 1.031v2.304h-1.74v-2.304c-1.661-.017-3.18-.615-4.554-1.794l2.063-2.089c.981.91 2.098 1.366 3.348 1.366.517 0 .96-.116 1.326-.349.366-.231.55-.615.55-1.151 0-.376-.135-.68-.402-.911l-1.447-.617-1.767-.804-2.384-1.044-7.661-3.427zm11.652-8.278c-3.41 0-6.295 1.206-8.652 3.616-.59.59-1.143 1.26-1.66 2.01l5.732 2.571a3.513 3.513 0 011.42-1.888c.695-.473 1.508-.737 2.437-.79V5.893h1.741v2.304c1.376.071 2.625.535 3.75 1.392L17.84 11.6c-.84-.59-1.697-.884-2.572-.884-.464 0-.88.09-1.245.267-.366.179-.55.483-.55.911 0 .125.045.25.134.375l1.902.858 1.313.59 2.41 1.07 7.687 3.429c.25-1.054.375-2.125.375-3.214 0-3.447-1.196-6.349-3.588-8.707-2.375-2.41-5.27-3.616-8.68-3.616z" fill="currentColor"/></symbol>
<symbol id="i-nd" viewBox="0 0 30 30" xmlns="http://www.w3.org/2000/svg"><path d="M14.973 0c4.196 0 7.75 1.455 10.66 4.366C28.544 7.26 30 10.804 30 15c0 4.197-1.43 7.714-4.287 10.553C22.696 28.518 19.115 30 14.973 30c-4.054 0-7.571-1.473-10.553-4.42C1.474 22.634 0 19.108 0 15c0-4.088 1.474-7.633 4.42-10.633C7.33 1.455 10.848 0 14.973 0zm.054 2.706c-3.41 0-6.295 1.205-8.652 3.616-2.447 2.483-3.67 5.375-3.67 8.678 0 3.34 1.214 6.214 3.642 8.625 2.429 2.43 5.322 3.643 8.679 3.643 3.339 0 6.25-1.223 8.732-3.67 2.358-2.285 3.536-5.15 3.536-8.598 0-3.428-1.197-6.321-3.589-8.678-2.375-2.412-5.268-3.616-8.678-3.616zm5.652 8.758v2.571H9.777v-2.571H20.68zm0 4.822v2.57H9.777v-2.57H20.68z" fill="currentColor"/></symbol>
<symbol id="i-pd" viewBox="0 0 30 30" xmlns="http://www.w3.org/2000/svg"><path d="M15 0C6.716 0 0 6.716 0 15c0 8.283 6.716 15 15 15 8.284 0 15-6.717 15-15 0-8.284-6.716-15-15-15zm0 27.187C8.28 27.187 2.812 21.72 2.812 15c0-1.407.243-2.758.683-4.015l4.767 2.122a10.081 10.081 0 00-.198 1.991c0 5.988 4.47 7.675 7.282 7.675a7.314 7.314 0 004.217-1.32c.214-.153.407-.307.585-.464l-2.187-2.657a2.496 2.496 0 01-.2.206c-.85.806-1.785.806-1.994.806-2.288 0-3.246-2.414-3.258-4.348l13.137 5.85c.015.002.028.002.041.005-2.073 3.774-6.086 6.336-10.687 6.336zm11.745-9.073l-13.55-6.048c.489-.885 1.267-1.55 2.431-1.55.675 0 1.21.223 1.632.506.175.126.327.252.456.38l2.442-2.514c-1.64-1.41-3.505-1.663-4.725-1.663-2.866 0-4.895 1.24-6.09 3.121L4.81 8.326C6.99 5.007 10.743 2.811 15 2.811c6.72 0 12.188 5.467 12.188 12.188 0 1.088-.145 2.14-.414 3.145-.011-.01-.018-.02-.03-.03z" fill="currentColor"/></symbol>
<symbol id="i-remix" viewBox="0 0 30 30" xmlns="http://www.w3.org/2000/svg"><path d="M14.973 0c4.196 0 7.75 1.455 10.66 4.366C28.544 7.26 30 10.804 30 15c0 4.197-1.43 7.714-4.287 10.553C22.696 28.518 19.115 30 14.973 30c-4.054 0-7.571-1.473-10.553-4.42C1.474 22.634 0 19.108 0 15c0-4.088 1.474-7.633 4.42-10.633C7.33 1.455 10.848 0 14.973 0zm.054 2.706c-3.41 0-6.295 1.205-8.652 3.616-2.447 2.483-3.67 5.375-3.67 8.678 0 3.34 1.214 6.214 3.642 8.625 2.429 2.43 5.322 3.643 8.679 3.643 3.339 0 6.25-1.223 8.732-3.67 2.358-2.285 3.536-5.151 3.536-8.598 0-3.428-1.197-6.321-3.589-8.678-2.375-2.412-5.268-3.616-8.678-3.616zm9.776 12.562l.295.134v4.232l-.268.133-3.642 1.554-.161.054-.188-.053-7.848-3.241-.268-.108-3.884 1.608-3.83-1.662v-3.857l3.59-1.5-.027-.027V8.303l4.071-1.794 9.188 3.803v3.723l2.972 1.233zm-4.259 4.928v-2.651h-.026v-.108l-6.884-2.812v2.733l6.884 2.84v-.028l.026.026zM21 16.714l2.411-.99-2.224-.938-2.357.99 2.17.938zm3.16 2.304V16.42l-2.678 1.125v2.625l2.679-1.152z" fill="currentColor"/></symbol>
<symbol id="i-sa" viewBox="0 0 30 30" xmlns="http://www.w3.org/2000/svg"><path d="M14.973 0c4.196 0 7.75 1.455 10.66 4.366C28.544 7.26 30 10.804 30 15c0 4.197-1.43 7.714-4.287 10.553C22.696 28.518 19.115 30 14.973 30c-4.054 0-7.571-1.473-10.553-4.42C1.474 22.634 0 19.108 0 15c0-4.088 1.474-7.633 4.42-10.633C7.33 1.455 10.848 0 14.973 0zm.054 2.706c-3.41 0-6.295 1.205-8.652 3.616-2.447 2.483-3.67 5.375-3.67 8.678 0 3.34 1.214 6.214 3.642 8.625 2.429 2.43 5.322 3.643 8.679 3.643 3.339 0 6.25-1.223 8.732-3.67 2.358-2.285 3.536-5.151 3.536-8.598 0-3.428-1.197-6.321-3.589-8.678-2.375-2.412-5.268-3.616-8.678-3.616zM8.33 12.884c.286-1.84 1.026-3.264 2.223-4.273 1.196-1.008 2.651-1.513 4.366-1.513 2.356 0 4.232.76 5.625 2.277 1.393 1.517 2.09 3.464 2.09 5.839 0 2.304-.724 4.219-2.17 5.745-1.447 1.526-3.321 2.29-5.626 2.29-1.696 0-3.16-.508-4.392-1.527-1.233-1.018-1.973-2.464-2.224-4.339H12c.09 1.822 1.187 2.733 3.295 2.733 1.053 0 1.902-.456 2.544-1.366.644-.91.965-2.126.965-3.643 0-1.59-.294-2.799-.883-3.63-.59-.83-1.437-1.245-2.545-1.245-2.001 0-3.126.884-3.375 2.651h1.098l-2.973 2.973-2.973-2.973H8.33z" fill="currentColor"/></symbol>
<symbol id="i-sampling-plus" viewBox="0 0 30 30" xmlns="http://www.w3.org/2000/svg"><path fill-rule="evenodd" clip-rule="evenodd" d="M4.43 4.35C7.31 1.45 10.826 0 14.981 0c4.206 0 7.76 1.45 10.664 4.35C28.548 7.25 30 10.8 30 15s-1.428 7.712-4.28 10.538C22.69 28.513 19.11 30 14.98 30c-4.08 0-7.597-1.474-10.55-4.425C1.476 22.626 0 19.101 0 15c0-4.1 1.477-7.65 4.43-10.65zM23.692 6.3c-2.378-2.4-5.269-3.6-8.673-3.6-3.405 0-6.283 1.2-8.636 3.6-2.453 2.475-3.68 5.375-3.68 8.7 0 3.324 1.214 6.2 3.643 8.625 2.428 2.424 5.318 3.638 8.673 3.638 3.353 0 6.27-1.225 8.748-3.676 2.353-2.274 3.529-5.137 3.529-8.587 0-3.426-1.202-6.325-3.604-8.7zm-2.843 9.27a.701.701 0 01.649-.434h3.523v1.407h-3.054l-1.09 2.625a.702.702 0 01-1.347-.186l-.16-1.35-.414 5.017a.701.701 0 01-1.4-.005l-.296-3.896-.275 3.545a.704.704 0 01-1.402-.01l-.273-4.34-.297 4.867a.702.702 0 01-1.403.003l-.29-4.436-.28 4.26a.702.702 0 01-1.403.005l-.343-4.738-.227 2.635a.704.704 0 01-1.396.041l-.65-4.423a.703.703 0 01-.627.384h-3.1v-1.405H7.95l.795-1.674a.703.703 0 011.33.2l.108.738.468-5.432a.703.703 0 011.402.009l.25 3.445.32-4.85a.702.702 0 011.402.001l.261 4.009.309-5.063a.703.703 0 011.403-.001l.359 5.7.211-2.716a.703.703 0 011.402.002l.315 4.163.257-3.11a.704.704 0 011.4-.027l.667 5.616.24-.576zm-5.397-.118h1.327a.453.453 0 100-.905h-1.327V13.22a.452.452 0 10-.905 0v1.327H13.22a.454.454 0 000 .905h1.327v1.327a.453.453 0 00.905 0v-1.327z" fill="currentColor"/></symbol>
<symbol id="i-sampling" viewBox="0 0 30 30" xmlns="http://www.w3.org/2000/svg"><path d="M14.973 0c4.213 0 7.772 1.451 10.674 4.353C28.549 7.254 30 10.803 30 15s-1.43 7.705-4.287 10.526C22.696 28.51 19.115 30 14.973 30c-4.072 0-7.585-1.474-10.54-4.42C1.477 22.633 0 19.107 0 15S1.474 7.34 4.42 4.34C7.313 1.446 10.83 0 14.973 0zm.04 2.706c-3.401 0-6.281 1.196-8.638 3.589C3.93 8.777 2.705 11.679 2.705 15c0 3.321 1.215 6.196 3.643 8.624 2.429 2.429 5.321 3.642 8.679 3.642 3.357 0 6.267-1.222 8.732-3.67 2.357-2.285 3.536-5.151 3.536-8.598 0-3.428-1.197-6.33-3.589-8.705-2.393-2.392-5.291-3.588-8.692-3.588zm.228 3.213a.6.6 0 01.47.148.655.655 0 01.226.442v.107l.402 6.482.295-3.59a.62.62 0 01.187-.455.621.621 0 01.455-.188c.178 0 .33.063.456.188a.62.62 0 01.187.456v.106l.347 4.822.349-3.884a.62.62 0 01.202-.401.587.587 0 01.414-.16.68.68 0 01.429.147.553.553 0 01.215.388l.697 5.84.321-.777c.107-.268.312-.402.615-.402h3.51v1.286h-3.081l-1.098 2.678c-.126.321-.358.456-.697.401a.596.596 0 01-.388-.187.686.686 0 01-.174-.402l-.24-1.928-.456 5.598a.625.625 0 01-.617.562.64.64 0 01-.429-.161.601.601 0 01-.214-.401v-.081l-.374-4.634-.322 4.366a.767.767 0 01-.228.402.59.59 0 01-.416.16.638.638 0 01-.428-.16.6.6 0 01-.214-.402v-.08l-.349-5.224-.348 5.733v.08a.667.667 0 01-.187.469.599.599 0 01-.455.201.598.598 0 01-.456-.201.662.662 0 01-.188-.469v-.053l-.348-5.303-.322 5.115v.08a.755.755 0 01-.227.402.59.59 0 01-.415.161.638.638 0 01-.428-.16.6.6 0 01-.215-.402v-.08h-.026v-.08l-.375-5.357-.295 3.428a.598.598 0 01-.214.402.64.64 0 01-.428.16.62.62 0 01-.416-.147.684.684 0 01-.228-.388l-.67-4.607-.08.16c-.107.233-.304.349-.59.349H5.275v-1.287h2.706l.83-1.687c.125-.286.343-.406.656-.362.313.045.496.219.55.522l.187 1.232.508-5.92c0-.178.063-.33.188-.454a.622.622 0 01.455-.188.62.62 0 01.455.188.619.619 0 01.187.455v.107l.295 4.179.402-5.598v-.08a.618.618 0 01.616-.562.64.64 0 01.428.16c.126.107.196.24.214.402v.08l.322 4.875.375-5.92V6.51c0-.16.058-.295.174-.402a.725.725 0 01.418-.188z" fill="currentColor"/></symbol>
<symbol id="i-share" viewBox="0 0 30 30" fill="none" xmlns="http://www.w3.org/2000/svg"><path d="M14.973 0c4.196 0 7.75 1.455 10.66 4.366C28.544 7.26 30 10.804 30 15c0 4.197-1.43 7.714-4.287 10.553C22.696 28.518 19.115 30 14.973 30c-4.054 0-7.571-1.473-10.553-4.42C1.474 22.634 0 19.108 0 15c0-4.088 1.474-7.633 4.42-10.633C7.33 1.455 10.848 0 14.973 0zm.054 2.706c-3.41 0-6.295 1.205-8.652 3.616-2.447 2.483-3.67 5.375-3.67 8.678 0 3.34 1.214 6.214 3.642 8.625 2.429 2.43 5.322 3.643 8.679 3.643 3.339 0 6.25-1.223 8.732-3.67 2.358-2.285 3.536-5.151 3.536-8.598 0-3.428-1.197-6.321-3.589-8.678-2.375-2.412-5.268-3.616-8.678-3.616zm6.107 8.008c.232 0 .428.08.589.24.161.162.242.358.242.59V22.58c0 .232-.08.428-.242.588a.802.802 0 01-.589.242h-8.17a.8.8 0 01-.59-.242.797.797 0 01-.24-.588V19.31H8.866a.8.8 0 01-.59-.24.8.8 0 01-.24-.59V7.447c0-.215.07-.398.214-.55a.923.923 0 01.535-.28h8.25c.231 0 .428.08.59.24.16.16.24.358.24.59v3.268h3.27zM9.67 17.678h2.465v-6.134c0-.214.07-.397.214-.549a.915.915 0 01.509-.28h3.375V8.276H9.669v9.401zm10.661-5.33h-6.562v9.402h6.562v-9.402z" fill="#000"/></symbol>
<symbol id="i-zero" viewBox="0 0 30 30" xmlns="http://www.w3.org/2000/svg"><path d="M4.443 4.36C7.3 1.447 10.807 0 14.97 0c4.196 0 7.777 1.462 10.725 4.39a14.365 14.365 0 013.214 4.843C29.639 11.037 30 12.964 30 15c0 2.055-.36 3.984-1.093 5.788-.714 1.785-1.781 3.362-3.193 4.737a15.399 15.399 0 01-4.978 3.32A14.972 14.972 0 0114.969 30a14.82 14.82 0 01-5.705-1.125c-1.804-.767-3.428-1.869-4.874-3.298-1.428-1.446-2.516-3.069-3.266-4.873A14.701 14.701 0 010 15c0-1.982.374-3.882 1.124-5.704a15.224 15.224 0 013.32-4.937zM23.73 6.312C21.319 3.903 18.424 2.7 15.03 2.7c-3.429 0-6.316 1.2-8.655 3.591a13.054 13.054 0 00-2.731 4.044A11.899 11.899 0 002.7 15c0 1.607.32 3.154.945 4.653a12.806 12.806 0 002.73 3.992 12.651 12.651 0 003.993 2.68c1.482.607 3.038.913 4.663.913 1.608 0 3.154-.31 4.654-.935a12.9 12.9 0 004.097-2.71C26.12 21.307 27.3 18.447 27.3 15c0-1.66-.306-3.234-.914-4.716a12.033 12.033 0 00-2.657-3.97zM8.802 15c0-3.961 1.246-8.634 6.198-8.634s6.197 4.673 6.197 8.634c0 3.962-1.245 8.634-6.197 8.634-4.953 0-6.198-4.672-6.198-8.634zm6.755-5.305A2.291 2.291 0 0015 9.622c-2.547 0-2.668 3.633-2.668 5.377 0 .562.014 1.313.116 2.08l3.298-6.06c.342-.592.168-1.016-.19-1.324zM17.668 15c0-.683-.025-1.654-.2-2.584l-3.686 6.366c-.514.772-.157 1.209.41 1.45.05.02.105.037.157.052l.095.031c.172.043.356.064.557.064 2.546 0 2.667-3.634 2.667-5.379z" fill="currentColor"/></symbol>
</svg>