<svg width="200" height="200" viewBox="0 0 200 200" fill="#30272E" xmlns="http://www.w3.org/2000/svg">
   <style>
    svg {
      fill: #30272E;
    }
    @media (prefers-color-scheme: dark) {
      svg {
        fill: #fff;
      }
    }
  </style>
  <path d="M142.044 93.0227C158.203 93.0227 171.303 79.81 171.303 63.5113C171.303 47.2127 158.203 34 142.044 34C125.885 34 112.785 47.2127 112.785 63.5113C112.785 79.81 125.885 93.0227 142.044 93.0227Z" />
  <path d="M28 63.5113C28 79.7508 40.9938 93.0227 57.0737 93.0227V34C40.9938 34 28 47.1894 28 63.5113Z" />
  <path d="M70.3924 63.5113C70.3924 79.7508 83.3862 93.0227 99.4661 93.0227V34C83.4675 34 70.3924 47.1894 70.3924 63.5113Z" />
  <path d="M142.044 165.975C158.203 165.975 171.303 152.762 171.303 136.463C171.303 120.165 158.203 106.952 142.044 106.952C125.885 106.952 112.785 120.165 112.785 136.463C112.785 152.762 125.885 165.975 142.044 165.975Z" />
  <path d="M70.3924 136.414C70.3924 152.671 83.3862 165.958 99.4661 165.958V106.952C83.4674 106.952 70.3924 120.156 70.3924 136.414Z" />
  <path d="M28 136.414C28 152.754 40.9938 165.958 57.0737 165.958V106.952C40.9938 106.952 28 120.156 28 136.414Z" />
</svg>
