<svg viewBox="0 0 30 30" xmlns="http://www.w3.org/2000/svg">
  <g id="icon" fill="currentColor">
    <path d="M14.973 0c4.196 0 7.75 1.455 10.66 4.366C28.544 7.26 30 10.804 30 15c0 4.197-1.43 7.714-4.287 10.553C22.696 28.518 19.115 30 14.973 30c-4.054 0-7.571-1.473-10.553-4.42C1.474 22.634 0 19.108 0 15c0-4.088 1.474-7.633 4.42-10.633C7.33 1.455 10.848 0 14.973 0zm.054 2.706c-3.41 0-6.295 1.205-8.652 3.616-2.447 2.483-3.67 5.375-3.67 8.678 0 3.34 1.214 6.214 3.642 8.625 2.429 2.43 5.322 3.643 8.679 3.643 3.339 0 6.25-1.223 8.732-3.67 2.358-2.285 3.536-5.151 3.536-8.598 0-3.428-1.197-6.321-3.589-8.678-2.375-2.412-5.268-3.616-8.678-3.616zm9.776 12.562l.295.134v4.232l-.268.133-3.642 1.554-.161.054-.188-.053-7.848-3.241-.268-.108-3.884 1.608-3.83-1.662v-3.857l3.59-1.5-.027-.027V8.303l4.071-1.794 9.188 3.803v3.723l2.972 1.233zm-4.259 4.928v-2.651h-.026v-.108l-6.884-2.812v2.733l6.884 2.84v-.028l.026.026zM21 16.714l2.411-.99-2.224-.938-2.357.99 2.17.938zm3.16 2.304V16.42l-2.678 1.125v2.625l2.679-1.152z"/>
  </g>
</svg>
