<?xml version="1.0" encoding="UTF-8"?>
<svg version="1.1" xmlns="http://www.w3.org/2000/svg" xmlns:xlink="http://www.w3.org/1999/xlink">
<symbol id="check" fill="none" viewBox="0 0 24 24"><path fill="currentColor" d="M17.93 7.978 10.73 17.66l-4.516-3.358.895-1.204 3.312 2.463 6.304-8.477z"/></symbol>
<symbol id="all" fill="none" viewBox="0 0 24 24"><path fill="currentColor" fill-rule="evenodd" d="M9 5.5H6a.5.5 0 0 0-.5.5v12a.5.5 0 0 0 .5.5h3a.5.5 0 0 0 .5-.5V6a.5.5 0 0 0-.5-.5M6 4a2 2 0 0 0-2 2v12a2 2 0 0 0 2 2h3a2 2 0 0 0 2-2V6a2 2 0 0 0-2-2zm12 1.5h-3a.5.5 0 0 0-.5.5v3a.5.5 0 0 0 .5.5h3a.5.5 0 0 0 .5-.5V6a.5.5 0 0 0-.5-.5M15 4a2 2 0 0 0-2 2v3a2 2 0 0 0 2 2h3a2 2 0 0 0 2-2V6a2 2 0 0 0-2-2zm0 10.5h3a.5.5 0 0 1 .5.5v3a.5.5 0 0 1-.5.5h-3a.5.5 0 0 1-.5-.5v-3a.5.5 0 0 1 .5-.5m-2 .5a2 2 0 0 1 2-2h3a2 2 0 0 1 2 2v3a2 2 0 0 1-2 2h-3a2 2 0 0 1-2-2z" clip-rule="evenodd"/></symbol>
<symbol id="caret-down" fill="none" viewBox="0 0 24 24"><path fill="currentColor" fill-rule="evenodd" d="M18.005 10.555 12 16.014l-6.004-5.459 1.009-1.11L12 13.986l4.996-4.54z" clip-rule="evenodd"/></symbol>
<symbol id="audio" fill="none" viewBox="0 0 24 24"><g fill="currentColor" fill-rule="evenodd" clip-rule="evenodd"><path d="M3.25 7v10h1.5V7zM19.25 7v10h1.5V7zM7.25 4v16h1.5V4zM12.75 7v10h-1.5V7zM15.25 4v16h1.5V4z"/></g></symbol>
<symbol id="close-small" viewBox="0 0 24 24"><path fill="currentColor" fill-rule="evenodd" d="m12 13.06 3.712 3.713 1.061-1.06L13.061 12l3.712-3.712-1.06-1.06L12 10.938 8.288 7.227l-1.061 1.06L10.939 12l-3.712 3.712 1.06 1.061z" clip-rule="evenodd"/></symbol>
<symbol id="checkmark" viewBox="0 0 20 20"><path fill="none" stroke="currentColor" d="M15.779 5 8.36 14.975l-4.3-3.198"/></symbol>
<symbol id="chevron-forward" fill="none" viewBox="0 0 24 24"><path fill="currentColor" fill-rule="evenodd" d="M10.555 5.996 16.014 12l-5.46 6.005-1.109-1.01L13.986 12 9.445 7.005z" clip-rule="evenodd"/></symbol>
<symbol id="chevron-back" fill="none" viewBox="0 0 24 24"><path fill="currentColor" fill-rule="evenodd" d="M13.445 18.005 7.986 12l5.459-6.004 1.11 1.009L10.014 12l4.54 4.996z" clip-rule="evenodd"/></symbol>
<symbol id="close" fill="none" viewBox="0 0 24 24"><path stroke="currentColor" stroke-width="1.5" d="M5.405 5 19 19M5 19 18.595 5"/></symbol>
<symbol id="error" fill="none" viewBox="0 0 24 24"><path fill="currentColor" fill-rule="evenodd" d="M12 20.75a8.75 8.75 0 1 0 0-17.5 8.75 8.75 0 0 0 0 17.5M19.25 12a7.25 7.25 0 0 1-11.785 5.657L17.657 7.465A7.22 7.22 0 0 1 19.25 12m-2.648-5.602A7.25 7.25 0 0 0 6.398 16.602z" clip-rule="evenodd"/></symbol>
<symbol id="external-link" fill="none" viewBox="0 0 24 24"><g stroke="currentColor" stroke-width="1.5"><path d="M10.25 5H7a2 2 0 0 0-2 2v10a2 2 0 0 0 2 2h10a2 2 0 0 0 2-2v-3.639M14.895 3.786l5.547-.025m0 0-.047 5.525m.047-5.525-7.68 7.681"/></g></symbol>
<symbol id="eye-closed" fill="none" viewBox="0 0 24 24"><path fill="currentColor" fill-rule="evenodd" d="m16.423 3.699-.875-.412-1.93 4.101A9.4 9.4 0 0 0 12 7.25c-2.998 0-5.174 1.368-6.58 2.707-.703.669-1.22 1.337-1.563 1.839a10 10 0 0 0-.516.845l-.008.015-.002.005-.001.002s-.001.002.67.337l.67.336.003-.005.017-.032.077-.138c.07-.122.18-.302.329-.52.297-.435.748-1.017 1.358-1.598C7.674 9.883 9.497 8.75 12 8.75q.492.001.95.056l-.136.29a3.5 3.5 0 0 0-2.919 6.202l-2.347 4.99.883.415zm-4.118 12.288a3.5 3.5 0 0 0 2.574-5.477zm3.046-6.48a8.6 8.6 0 0 1 2.194 1.536c.61.581 1.061 1.163 1.359 1.599a8 8 0 0 1 .422.689l.003.005L20 13c.672-.335.671-.336.671-.336l-.001-.003-.003-.005-.008-.015-.027-.052-.1-.18a10 10 0 0 0-.389-.613c-.343-.502-.86-1.17-1.562-1.84a10.1 10.1 0 0 0-2.591-1.806z" clip-rule="evenodd"/></symbol>
<symbol id="eye-open" fill="none" viewBox="0 0 24 24"><path fill="currentColor" d="m4.5 13.5.67.336.003-.005.017-.032.077-.138c.07-.122.18-.302.328-.52.298-.435.75-1.017 1.36-1.598C8.172 10.383 9.996 9.25 12.5 9.25c2.502 0 4.326 1.132 5.545 2.293.61.581 1.061 1.163 1.359 1.599a8 8 0 0 1 .422.689l.003.005.67-.336.671-.336-.001-.003-.003-.005-.008-.015-.027-.052-.1-.18a10 10 0 0 0-.389-.613c-.343-.502-.86-1.17-1.563-1.84-1.406-1.338-3.582-2.706-6.58-2.706-2.997 0-5.173 1.368-6.58 2.707-.702.669-1.22 1.337-1.562 1.839a10 10 0 0 0-.516.845l-.008.015-.003.005v.002s-.001.002.67.337m8 3a3.5 3.5 0 1 0 0-7 3.5 3.5 0 0 0 0 7"/></symbol>
<symbol id="flag" fill="none" viewBox="0 0 24 24"><path fill="currentColor" fill-rule="evenodd" d="M4.5 4h9l.4 2h5.6v10h-7l-.4-2H6.5v7h-2zm7.76 4-.4-2H6.5v6h7.24l.4 2h3.36V8z" clip-rule="evenodd"/></symbol>
<symbol id="filter" fill="none" viewBox="0 0 24 24"><g fill="currentColor"><path d="M5 7h14v1.5H5zM7 11.25h10v1.5H7zM9 15.5h6V17H9z"/></g></symbol>
<symbol id="image" fill="none" viewBox="0 0 24 24"><g fill="currentColor" fill-rule="evenodd" clip-rule="evenodd"><path d="M19 4.5H5a.5.5 0 0 0-.5.5v14a.5.5 0 0 0 .5.5h14a.5.5 0 0 0 .5-.5V5a.5.5 0 0 0-.5-.5M5 3a2 2 0 0 0-2 2v14a2 2 0 0 0 2 2h14a2 2 0 0 0 2-2V5a2 2 0 0 0-2-2z"/><path d="M15.477 10.462a.75.75 0 0 1 1.046 0l4 3.89-1.046 1.075L16 12.046l-3.477 3.38a.75.75 0 0 1-.93.092l-2.997-1.941-4.154 3.029-.884-1.212 4.572-3.333a.75.75 0 0 1 .85-.024l2.926 1.897z"/></g></symbol>
<symbol id="info" fill="none" viewBox="0 0 24 24"><g fill="currentColor"><path d="M13 11v6h-2v-6zM13 9V7h-2v2z"/><path fill-rule="evenodd" d="M3.25 12a8.75 8.75 0 1 1 17.5 0 8.75 8.75 0 0 1-17.5 0M12 4.75a7.25 7.25 0 1 0 0 14.5 7.25 7.25 0 0 0 0-14.5" clip-rule="evenodd"/></g></symbol>
<symbol id="globe" fill="none" viewBox="0 0 24 24"><path fill="currentColor" fill-rule="evenodd" d="M5.517 8.75A7.27 7.27 0 0 1 10 5.03a8.1 8.1 0 0 0-1.19 1.875 11 11 0 0 0-.657 1.845zm-.554 1.5a7.27 7.27 0 0 0 0 3.5h2.9a13.5 13.5 0 0 1 0-3.5zm4.415 0q-.127.841-.128 1.75.001.909.128 1.75h5.244q.127-.841.128-1.75-.001-.909-.128-1.75zm6.759 0a13.5 13.5 0 0 1 0 3.5h2.9a7.27 7.27 0 0 0 0-3.5zm2.346-1.5h-2.636a11 11 0 0 0-.656-1.845A8.1 8.1 0 0 0 14 5.03a7.27 7.27 0 0 1 4.483 3.721m-4.194 0H9.711q.195-.647.458-1.211c.495-1.063 1.139-1.847 1.831-2.306.692.46 1.335 1.243 1.83 2.306q.264.563.46 1.211m-8.772 6.5h2.636a10.7 10.7 0 0 0 .7 1.938A8 8 0 0 0 10 18.97a7.27 7.27 0 0 1-4.483-3.721m8.772 0H9.711q.209.692.495 1.29c.491 1.024 1.12 1.78 1.794 2.227.692-.46 1.336-1.243 1.83-2.306a9 9 0 0 0 .46-1.211m.902 1.845c.265-.57.486-1.188.656-1.845h2.636A7.27 7.27 0 0 1 14 18.97a8.2 8.2 0 0 0 1.19-1.875M3.25 12a8.75 8.75 0 1 1 17.5 0 8.75 8.75 0 0 1-17.5 0" clip-rule="evenodd"/></symbol>
<symbol id="ellipsis" fill="none" viewBox="0 0 24 24"><path stroke="currentColor" stroke-width="2" d="M12 11v2m0-8v2m0 10v2"/></symbol>
<symbol id="menu" fill="none" viewBox="0 0 24 24"><path fill="currentColor" fill-rule="evenodd" d="M5 5h14v1.5H5zm0 6.25h14v1.5H5zm14 6.25H5V19h14z" clip-rule="evenodd"/></symbol>
<symbol id="model-3d" viewBox="0 0 24 24"><g fill="none" stroke="currentColor" stroke-width="1.5"><path d="M3.75 15.562V8.438c0-.443.234-.853.616-1.077l7-4.118a1.25 1.25 0 0 1 1.268 0l7 4.118c.382.224.616.634.616 1.077v7.124c0 .443-.234.853-.616 1.077l-7 4.118a1.25 1.25 0 0 1-1.268 0l-7-4.118a1.25 1.25 0 0 1-.616-1.077Z"/><path stroke-linecap="round" d="M11.974 12.893V21m0-8.107L3.828 8.385m8.146 4.508L17.202 10"/></g></symbol>
<symbol id="radiomark" fill="none" viewBox="0 0 24 24"><circle cx="12" cy="12" r="7.2" fill="currentColor"/></symbol>
<symbol id="institution" fill="none" viewBox="0 0 24 24"><path fill="currentColor" fill-rule="evenodd" d="M18.646 9H20V8l-1-.5L12 4 5 7.5 4 8v1zm-3-1.5L12 5.677 8.354 7.5zm-7.897 9.44v-6.5h-1.5v6.5zm5-6.5v6.5h-1.5v-6.5zm5 0v6.5h-1.5v-6.5zm2.252 8.81c0 .414-.334.75-.748.75H4.752a.75.75 0 1 1 0-1.5h14.5a.75.75 0 0 1 .749.75" clip-rule="evenodd"/></symbol>
<symbol id="item-indicator" fill="none" viewBox="0 0 24 24"><path fill="currentColor" fill-rule="evenodd" d="m17.93 7.978-7.2 9.681-4.515-3.358.895-1.204 3.312 2.463 6.303-8.477z" clip-rule="evenodd"/></symbol>
<symbol id="play" viewBox="0 0 24 24"><path fill="currentColor" d="m9 17 7-5-7-5z"/></symbol>
<symbol id="replay" fill="none" viewBox="0 0 24 24"><path fill="currentColor" fill-rule="evenodd" d="M12 8v3L8 7l4-4v3a6 6 0 1 1-6 6h2a4 4 0 1 0 4-4" clip-rule="evenodd"/></symbol>
<symbol id="search" fill="none" viewBox="0 0 24 24"><g stroke="currentColor" stroke-width="1.5"><path d="m6 18 4-3.5"/><circle cx="13.5" cy="11.5" r="4.75"/></g></symbol>
<symbol id="pause" viewBox="0 0 24 24"><path fill="currentColor" fill-rule="evenodd" d="M10 7H7v10h3zm7 0h-3v10h3z" clip-rule="evenodd"/></symbol>
<symbol id="person" fill="none" viewBox="0 0 24 24"><path fill="currentColor" fill-rule="evenodd" d="M16 9a4 4 0 1 1-8 0 4 4 0 0 1 8 0m-1.5 0a2.5 2.5 0 1 1-5 0 2.5 2.5 0 0 1 5 0" clip-rule="evenodd"/><path fill="currentColor" d="M18.75 20v-2A2.75 2.75 0 0 0 16 15.25H8A2.75 2.75 0 0 0 5.25 18v2h1.5v-2c0-.69.56-1.25 1.25-1.25h8c.69 0 1.25.56 1.25 1.25v2z"/></symbol>
<symbol id="tag" fill="none" viewBox="0 0 24 24"><path fill="currentColor" fill-rule="evenodd" d="M5 4.25a.75.75 0 0 0-.75.75v7.826c0 .2.08.39.22.53l6.72 6.716a2.313 2.313 0 0 0 3.276-.001l5.61-5.611-.531-.53.532.528a2.315 2.315 0 0 0 0-3.264L13.354 4.47a.75.75 0 0 0-.53-.22zm14.25 8.576a.82.82 0 0 1-.236.574l-5.61 5.611a.814.814 0 0 1-1.153 0L5.75 12.514V5.75h6.763l6.5 6.502a.82.82 0 0 1 .237.574M9 10a1 1 0 1 0 0-2 1 1 0 0 0 0 2" clip-rule="evenodd"/></symbol>
<symbol id="help" fill="none" viewBox="0 0 24 24"><path stroke="currentColor" stroke-width="1.5" d="M9.75 10.25a2.25 2.25 0 1 1 2.5 2.236.273.273 0 0 0-.25.264V14m0 1v1.5m8-4.5a8 8 0 1 1-16 0 8 8 0 0 1 16 0Z"/></symbol>
<symbol id="video" fill="none" viewBox="0 0 24 24"><g stroke="currentColor"><rect width="16.5" height="16.5" x="3.75" y="3.75" stroke-width="1.5" rx="1.536"/><path fill="currentColor" d="M10 15V9l5 3z"/></g></symbol>
<symbol id="warning" fill="none" viewBox="0 0 24 24"><g fill="currentColor"><path fill-rule="evenodd" d="M12 4.75a7.25 7.25 0 1 0 0 14.5 7.25 7.25 0 0 0 0-14.5M3.25 12a8.75 8.75 0 1 1 17.5 0 8.75 8.75 0 0 1-17.5 0" clip-rule="evenodd"/><path d="M13 7h-2v6h2zM13 15h-2v2h2z"/></g></symbol>
<symbol id="source" fill="none" viewBox="0 0 24 24"><path fill="currentColor" fill-rule="evenodd" d="M7.114 8.5H4V7h3.114a2.501 2.501 0 0 1 4.772 0H20v1.5h-8.114a2.501 2.501 0 0 1-4.772 0M4 17h8.114a2.501 2.501 0 0 0 4.771 0H20v-1.5h-3.114a2.501 2.501 0 0 0-4.771 0H4z" clip-rule="evenodd"/></symbol>
<symbol id="success" viewBox="0 0 24 24"><path fill="currentColor" fill-rule="evenodd" d="M20.75 12a8.75 8.75 0 1 1-17.5 0 8.75 8.75 0 0 1 17.5 0M12 19.25a7.25 7.25 0 1 0 0-14.5 7.25 7.25 0 0 0 0 14.5" clip-rule="evenodd"/><path fill="none" stroke="currentColor" stroke-width="1.5" d="m8 12.929 2.953 2.215L15.75 8.5"/></symbol>
<symbol id="sun" viewBox="0 0 24 24"><g fill="currentColor" fill-rule="evenodd"><path d="M12.7499 2.5H11.2499V5.5H12.7499V2.5Z"/><path d="M12.7499 18.5H11.2499V21.5H12.7499V18.5Z"/><path d="M18.187 4.75216L19.2477 5.81282L17.1263 7.93414L16.0657 6.87348L18.187 4.75216Z"/><path d="M7.93396 17.1265L6.8733 16.0659L4.75198 18.1872L5.81264 19.2478L7.93396 17.1265Z"/><path d="M18.5 11.25H21.5V12.75H18.5V11.25Z"/><path d="M5.5 12.75V11.25H2.5V12.75H5.5Z"/><path d="M19.2478 18.1872L18.1872 19.2478L16.0659 17.1265L17.1265 16.0659L19.2478 18.1872Z"/><path d="M6.87348 7.93414L7.93414 6.87348L5.81282 4.75215L4.75216 5.81281L6.87348 7.93414Z"/><path d="M16.5 12C16.5 14.4853 14.4853 16.5 12 16.5C9.51472 16.5 7.5 14.4853 7.5 12C7.5 9.51472 9.51472 7.5 12 7.5C14.4853 7.5 16.5 9.51472 16.5 12ZM15 12C15 13.6569 13.6569 15 12 15C10.3431 15 9 13.6569 9 12C9 10.3431 10.3431 9 12 9C13.6569 9 15 10.3431 15 12Z"/></g></symbol>
<symbol id="moon" viewBox="0 0 24 24"><path d="M16 13.75C17.1886 13.75 18.293 13.389 19.2094 12.7715C18.8243 16.4128 15.7435 19.25 12 19.25C7.99594 19.25 4.75 16.0041 4.75 12C4.75 8.25654 7.58716 5.17574 11.2285 4.79057C10.611 5.70697 10.25 6.81141 10.25 8C10.25 11.1756 12.8244 13.75 16 13.75Z" fill="none" stroke="currentColor" stroke-width="1.5"/></symbol>
</svg>
