<?xml version="1.0" encoding="UTF-8"?>
<svg version="1.1" xmlns="http://www.w3.org/2000/svg" xmlns:xlink="http://www.w3.org/1999/xlink">
<symbol id="logo" fill="none" viewBox="0 0 50 42"><g fill="currentColor"><path d="M37.559 18.795c5.156 0 9.335-4.207 9.335-9.397S42.714 0 37.56 0s-9.335 4.207-9.335 9.398 4.18 9.397 9.335 9.397M1 9.398c0 5.17 4.172 9.397 9.335 9.397V0C5.172 0 1 4.2 1 9.398M14.612 9.398c0 5.17 4.172 9.397 9.335 9.397V0c-5.137 0-9.335 4.2-9.335 9.398M37.559 41.921c5.156 0 9.335-4.207 9.335-9.397s-4.18-9.398-9.335-9.398-9.335 4.208-9.335 9.398 4.18 9.397 9.335 9.397M14.612 32.524c0 5.171 4.172 9.397 9.335 9.397V23.153c-5.137 0-9.335 4.2-9.335 9.37M1 32.603C1 37.8 5.172 42 10.335 42V23.231c-5.163 0-9.335 4.2-9.335 9.371" class="circle"/></g></symbol>
<symbol id="brand" fill="none" viewBox="0 0 215 42"><path fill="currentColor" fill-rule="evenodd" d="M24.69 21.33c0 6.736-5.425 12.197-12.117 12.197-6.691 0-12.116-5.461-12.116-12.198 0-6.736 5.425-12.197 12.116-12.197 6.692 0 12.117 5.46 12.117 12.197m-7.27 0c0 2.694-2.17 4.878-4.847 4.878s-4.846-2.184-4.846-4.879 2.17-4.879 4.846-4.879 4.847 2.185 4.847 4.88m17.478 20.229h-8.313V9.54h8.253v4.063h.181c.903-2.365 3.072-4.366 6.506-4.366 4.578 0 9.035 3.517 9.035 11.946 0 8.065-4.156 11.946-9.096 11.946-3.252 0-5.481-1.759-6.445-4.124h-.12zm3.494-25.893c-2.289 0-3.674 2.061-3.674 5.518 0 3.396 1.385 5.518 3.674 5.518s3.615-2.062 3.615-5.518-1.326-5.519-3.615-5.519m36.788 9.641c-.784 4.851-4.91 7.944-11.325 7.944-7.41 0-11.928-4.472-11.928-12.007 0-7.216 4.579-12.006 11.747-12.006 6.988 0 11.506 4.533 11.506 11.946v1.94H60.12v.364c0 2.244 1.446 3.881 3.915 3.881 1.702 0 3.073-.743 3.554-2.062zM63.855 15.12c-2.033 0-3.69 1.38-3.735 3.396h7.409c-.045-2.002-1.611-3.396-3.674-3.396m21.757 4.608c.015-2.304 1.311-3.699 3.374-3.699 2.093 0 3.328 1.395 3.313 3.7v13.098h8.313V17.97c.015-5.064-3.163-8.732-8.072-8.732-3.404 0-6.099 1.789-7.108 4.73h-.241V9.54h-7.892v23.286h8.313zm31.581-10.187h8.734l-7.77 23.286h-9.639l-7.77-23.286h8.734l3.735 15.402h.241zm20.206 23.71c6.416 0 10.542-3.093 11.325-7.944h-7.59c-.482 1.32-1.852 2.062-3.554 2.062-2.47 0-3.915-1.637-3.915-3.881v-.364h15.059v-1.94c0-7.414-4.518-11.946-11.505-11.946-7.169 0-11.747 4.79-11.747 12.006 0 7.535 4.518 12.007 11.927 12.007m-3.734-14.735c.045-2.017 1.701-3.396 3.734-3.396 2.064 0 3.63 1.394 3.675 3.396zm25.492 14.31h-8.313V9.542h8.072v4.427h.241c.843-3.275 2.771-4.73 5.241-4.73.723 0 1.446.12 2.108.318v7.14c-.828-.288-2.214-.424-3.072-.424-2.455 0-4.277 1.758-4.277 4.427zm29.947-15.705c-.211-4.927-4.277-7.883-10.964-7.883-6.611 0-10.692 2.728-10.662 7.58-.03 3.668 2.334 6.018 7.048 6.852l4.096.728c1.807.333 2.62.818 2.65 1.698-.03.97-1.129 1.516-2.65 1.516-1.882 0-3.208-.82-3.434-2.305h-8.252c.451 4.776 4.548 7.944 11.626 7.944 6.4 0 11.114-3.138 11.144-8.126-.03-3.441-2.319-5.442-7.048-6.306l-4.699-.85c-1.762-.318-2.259-.954-2.228-1.637-.031-.97 1.159-1.516 2.59-1.516 1.641 0 3.012.88 3.132 2.305zm24.923 8.186c-.783 4.851-4.909 7.944-11.324 7.944-7.41 0-11.928-4.472-11.928-12.007 0-7.216 4.579-12.006 11.747-12.006 6.988 0 11.505 4.533 11.505 11.946v1.94h-15.059v.364c0 2.244 1.446 3.881 3.915 3.881 1.702 0 3.073-.743 3.554-2.062zM202.703 15.12c-2.033 0-3.69 1.38-3.735 3.396h7.409c-.045-2.002-1.611-3.396-3.674-3.396" class="text" clip-rule="evenodd"/></symbol>
<symbol id="openverse-logo-text" fill="currentColor" viewBox="0 0 95 15"><path fill-rule="evenodd" d="M11.095 6.141c0 2.887-2.388 5.228-5.334 5.228-2.947 0-5.335-2.34-5.335-5.228S2.814.914 5.76.914s5.334 2.34 5.334 5.227m-3.2 0c0 1.155-.956 2.091-2.135 2.091s-2.133-.936-2.133-2.09c0-1.156.955-2.092 2.133-2.092 1.179 0 2.134.936 2.134 2.091m7.695 8.67h-3.66V1.089h3.633V2.83h.08c.398-1.013 1.353-1.87 2.864-1.87 2.016 0 3.979 1.506 3.979 5.119 0 3.456-1.83 5.12-4.005 5.12-1.432 0-2.414-.754-2.838-1.768h-.053zm1.538-11.097c-1.008 0-1.618.883-1.618 2.365 0 1.455.61 2.365 1.618 2.365s1.592-.884 1.592-2.365-.584-2.365-1.592-2.365m16.197 4.132c-.345 2.08-2.161 3.405-4.986 3.405-3.262 0-5.251-1.917-5.251-5.146 0-3.093 2.015-5.146 5.171-5.146 3.077 0 5.066 1.943 5.066 5.12v.831h-6.63v.156c0 .962.636 1.664 1.724 1.664.749 0 1.352-.319 1.564-.884zM28.34 3.48c-.895 0-1.624.591-1.644 1.455h3.262c-.02-.857-.71-1.455-1.618-1.455m9.58 1.975c.006-.987.577-1.585 1.485-1.585.922 0 1.465.598 1.459 1.585v5.614h3.66V4.7C44.529 2.531 43.13.96 40.969.96c-1.499 0-2.686.767-3.13 2.027h-.106V1.09H34.26v9.98h3.66zM51.823 1.09h3.846l-3.421 9.98h-4.244l-3.421-9.98h3.845l1.645 6.601h.106zm8.897 10.162c2.825 0 4.641-1.326 4.986-3.405h-3.342c-.212.565-.815.884-1.564.884-1.088 0-1.724-.702-1.724-1.664V6.91h6.63V6.08c0-3.177-1.99-5.12-5.066-5.12-3.156 0-5.172 2.053-5.172 5.146 0 3.229 1.99 5.146 5.252 5.146m-1.645-6.316c.02-.864.75-1.455 1.645-1.455.908 0 1.598.598 1.618 1.455zM70.3 11.07h-3.66v-9.98h3.553v1.897h.107C70.67 1.583 71.52.96 72.607.96c.318 0 .636.052.928.137v3.06c-.364-.124-.974-.182-1.352-.182-1.081 0-1.883.753-1.883 1.897zm13.185-6.731C83.392 2.226 81.602.959 78.657.959c-2.91 0-4.707 1.17-4.694 3.249-.013 1.572 1.028 2.579 3.103 2.936l1.804.312c.795.143 1.153.351 1.167.728-.014.416-.498.65-1.167.65-.83 0-1.413-.351-1.512-.988h-3.634c.2 2.047 2.003 3.405 5.12 3.405 2.817 0 4.893-1.345 4.906-3.483-.013-1.475-1.021-2.332-3.103-2.703l-2.069-.364c-.776-.136-.995-.409-.981-.701-.014-.416.51-.65 1.14-.65.723 0 1.326.377 1.38.988zm10.973 3.508c-.344 2.08-2.161 3.405-4.986 3.405-3.262 0-5.251-1.917-5.251-5.146 0-3.093 2.015-5.146 5.172-5.146 3.076 0 5.065 1.943 5.065 5.12v.831h-6.63v.156c0 .962.636 1.664 1.724 1.664.749 0 1.352-.319 1.564-.884zM89.472 3.48c-.895 0-1.624.591-1.644 1.455h3.262c-.02-.857-.71-1.455-1.618-1.455" clip-rule="evenodd"/></symbol>
<symbol id="wordpress" fill="none" viewBox="0 0 24 24"><path fill="currentColor" d="M12 3.25c-4.825 0-8.75 3.925-8.75 8.75s3.925 8.75 8.75 8.75 8.75-3.926 8.75-8.75S16.824 3.25 12 3.25M4.133 12c0-1.14.245-2.223.682-3.202L8.568 19.08A7.87 7.87 0 0 1 4.133 12M12 19.868a7.9 7.9 0 0 1-2.222-.32l2.36-6.86 2.418 6.626a1 1 0 0 0 .056.108A7.9 7.9 0 0 1 12 19.87zm1.084-11.556c.473-.025.9-.075.9-.075.424-.05.374-.673-.05-.648 0 0-1.274.1-2.097.1-.773 0-2.072-.1-2.072-.1-.424-.025-.474.623-.05.648 0 0 .4.05.825.075l1.226 3.358-1.723 5.163L7.18 8.312c.474-.025.9-.075.9-.075.424-.05.373-.673-.05-.648 0 0-1.274.1-2.097.1-.147 0-.32-.004-.506-.01a7.86 7.86 0 0 1 6.573-3.545c2.048 0 3.913.784 5.312 2.066q-.05-.004-.102-.006c-.773 0-1.321.673-1.321 1.396 0 .648.374 1.197.773 1.845.3.524.648 1.197.648 2.17 0 .673-.259 1.454-.598 2.543l-.785 2.621zm5.82-.086A7.863 7.863 0 0 1 15.956 18.8l2.402-6.947c.45-1.122.598-2.02.598-2.818q-.001-.433-.052-.81"/></symbol>
<symbol id="radiomark" fill="none" viewBox="0 0 24 24"><circle cx="12" cy="12" r="7.2" fill="currentColor"/></symbol>
<symbol id="oops" viewBox="0 0 1320 569"><path d="M199.235 406.514q-39.606 0-75.613-13.79-36.006-14.39-63.611-40.172-27.605-26.381-43.808-62.356Q0 253.622 0 209.253q0-40.772 13.202-77.945Q26.405 93.534 52.21 64.155q25.805-29.379 64.212-46.767Q154.827 0 204.636 0q39.608 0 75.614 14.39 36.006 13.79 63.611 40.172 27.605 25.782 43.808 62.356 16.203 35.975 16.203 80.343 0 40.172-13.203 77.946t-39.006 67.152q-25.805 29.38-64.212 46.767-38.406 17.388-88.216 17.388m9.002-23.983q46.208 0 76.814-19.186 30.605-19.786 45.608-54.562 15.603-35.375 15.603-82.142 0-41.371-9.602-77.946-9.602-36.573-28.805-64.154-18.603-28.18-46.809-43.77-28.205-15.588-66.011-15.589-45.008 0-75.614 19.187Q88.816 63.555 73.213 98.33 57.61 132.507 57.61 179.274q0 41.97 9.002 78.545 9.602 36.574 28.205 64.754 19.203 28.18 47.408 44.369 28.206 15.59 66.012 15.589M565.118 406.514q-33.606 0-60.611-15.589t-43.208-42.57q-15.603-27.58-15.603-62.356 0-25.183 9.602-49.165 10.202-23.983 28.205-43.77 18.003-19.785 42.007-31.178 24.004-11.991 51.61-11.991 34.806 0 62.411 16.788 28.205 16.788 44.408 44.369 16.803 26.98 16.803 59.358 0 34.776-15.603 65.954-15.003 31.178-45.008 50.964-30.006 19.186-75.013 19.186m12.602-17.987q20.403 0 36.606-7.795 16.203-7.794 25.205-25.182 7.201-13.79 9.602-33.576 2.4-19.786 2.4-37.174 0-28.78-10.802-55.161-10.202-26.982-29.405-43.77-18.603-17.388-44.408-17.387-16.203 0-29.405 5.396-12.602 4.797-23.405 18.587-12.002 14.99-15.602 36.574-3.601 21.585-3.601 43.17 0 29.38 10.802 56.36 10.802 26.382 29.405 43.17t42.608 16.788M739.819 569q-3 0-7.801-1.199-4.801-.6-4.801-4.197 0-4.797 4.2-7.195l9.602-3.598a133 133 0 0 0 17.403-7.195q8.402-3.597 8.402-15.589V226.041q0-4.797-3.001-14.39-2.4-9.593-8.401-18.587-6.002-8.994-16.203-10.792-2.401-.6-3.601-2.998t-1.2-4.797q0-2.997 1.2-4.796t3.001-2.399q22.804-5.395 39.007-11.392a4184 4184 0 0 0 30.605-12.591h.6q0-.599.6-.599 1.2 0 2.401 1.798 1.2 1.8 1.2 3.598 0 5.395-1.8 17.388-1.201 11.391-1.201 18.587 0 4.796.601 5.396 6-5.996 21.603-14.99 16.203-9.593 36.607-16.788 20.404-7.794 39.007-7.794 31.205 0 52.809 16.788 22.204 16.188 33.606 42.57 12.007 25.782 12.006 53.962.002 26.98-10.206 52.763-10.201 25.182-28.805 45.568t-43.207 32.977q-24.604 11.991-52.81 11.991-8.402 0-20.403-2.998-11.403-2.398-22.804-6.595-10.803-4.197-16.803-9.593-.6 0-1.201 7.195-.6 6.595-1.2 13.79v121.714q0 7.795 6.001 11.992 6.601 4.797 14.403 6.595a1166 1166 0 0 1 14.402 4.197 211 211 0 0 1 9.002 3.598q4.8 2.398 4.801 7.195 0 3.597-4.801 4.197-4.801 1.199-8.402 1.199-17.403 0-29.405-1.799-11.402-1.199-27.005-1.199-10.202 0-16.803.6-6 .599-12.602 1.199Q751.821 569 739.819 569m140.425-181.073q9.001 0 21.604-5.396 13.202-5.395 25.804-17.388 13.203-11.99 21.604-32.377 9.002-20.385 9.002-50.365 0-34.775-9.002-55.76-9.001-20.985-22.204-31.778-13.202-10.793-27.005-14.39t-23.404-3.597q-14.402 0-30.005 5.995-15.002 5.996-25.805 13.791-10.201 7.195-10.201 11.392 0 13.19-.601 26.981 0 13.191-.6 25.782 0 12.59-.6 22.784v14.989q0 23.983 10.802 44.369 11.402 20.386 27.605 32.977 16.803 11.991 33.006 11.991M1107.42 406.514c-12.41 0-24.01-1.998-34.81-5.996q-16.2-5.395-27.6-15.589-3-6.594-4.8-22.184c-.81-10.393-1.41-18.987-1.81-25.782 0-3.597 2.61-5.396 7.81-5.396q2.4 0 4.2 1.199 2.4.6 3 2.998 7.8 29.379 24.6 41.97c11.6 8.395 23.21 12.592 34.81 12.592q17.4 0 29.4-11.392c8.4-7.995 12.61-17.788 12.61-29.38 0-10.792-3.61-19.986-10.81-27.58q-10.8-11.992-37.8-28.78c-13.61-8.394-24.61-16.389-33.01-23.983q-12.6-11.392-18.6-23.384-5.4-11.991-5.4-26.981 0-19.187 9-34.775 9-15.59 27-24.583c12.01-6.396 27.01-9.593 45.01-9.593 12 0 22 1.199 30.01 3.597q12 3.597 18 7.795 4.8 6.595 7.8 20.985 3.6 13.79 3.6 26.381 0 4.197-6 4.197-3.6 0-7.2-1.199-3-1.799-4.2-4.197-7.8-19.786-19.8-29.979c-7.61-7.195-17.21-10.792-28.81-10.792q-15 0-27 8.993c-7.61 5.996-11.41 14.79-11.41 26.382q0 13.79 8.4 24.583c6.01 7.195 17.01 15.389 33.01 24.582 23.2 13.191 40.41 25.582 51.61 37.174q17.4 16.788 17.4 44.969 0 32.376-24.6 52.763c-16.4 13.59-37.61 20.385-63.61 20.385M1282.79 275.207q-4.2 0-7.2-4.797-2.4-5.397-3.6-18.587-2.4-25.782-5.4-55.761-3-30.578-5.4-60.557-1.8-29.979-3.6-54.562-1.2-24.583-1.2-38.972 0-13.191 7.8-22.784 8.4-10.193 20.4-10.193c8.01 0 14.41 3.397 19.21 10.192q7.8 9.593 7.8 22.785 0 14.39-1.8 38.972t-4.8 54.562q-2.4 29.978-5.4 60.557t-6 55.761c-.4 6.395-1.6 11.992-3.61 16.788q-2.4 6.596-7.2 6.596m1.2 131.307q-15 0-25.8-10.193-10.2-10.793-10.2-25.782t10.2-25.182q10.8-10.792 25.8-10.792c10.01 0 18.41 3.597 25.21 10.792q10.8 10.193 10.8 25.182 0 14.99-10.8 25.782c-6.8 6.796-15.2 10.193-25.21 10.193"/></symbol>
<symbol id="logo-and-wordmark" viewBox="0 0 226 34"><g fill="currentColor"><path fill-rule="evenodd" d="M71.882 17.267c0 5.453-4.391 9.874-9.808 9.874s-9.809-4.421-9.809-9.874 4.392-9.874 9.809-9.874 9.808 4.42 9.808 9.874m-5.885 0c0 2.18-1.757 3.95-3.923 3.95s-3.924-1.77-3.924-3.95c0-2.182 1.757-3.95 3.924-3.95s3.923 1.768 3.923 3.95m14.15 16.376h-6.73V7.723h6.68v3.29h.147c.731-1.915 2.487-3.535 5.266-3.535 3.706 0 7.315 2.847 7.315 9.67 0 6.53-3.365 9.671-7.363 9.671-2.634 0-4.438-1.423-5.218-3.338h-.098zm2.828-20.961c-1.853 0-2.975 1.669-2.975 4.467 0 2.749 1.122 4.467 2.975 4.467s2.925-1.67 2.925-4.467c0-2.798-1.072-4.467-2.925-4.467m29.78 7.805c-.634 3.927-3.975 6.43-9.168 6.43-5.998 0-9.655-3.62-9.655-9.72 0-5.84 3.706-9.719 9.509-9.719 5.656 0 9.314 3.67 9.314 9.67v1.572h-12.191v.294c0 1.816 1.17 3.142 3.169 3.142 1.378 0 2.487-.601 2.877-1.67zm-9.168-8.247c-1.646 0-2.987 1.117-3.023 2.749h5.998c-.037-1.62-1.305-2.75-2.975-2.75m17.613 3.73c.013-1.865 1.061-2.994 2.731-2.994 1.695 0 2.695 1.13 2.682 2.995v10.603h6.73V14.547c.012-4.099-2.56-7.069-6.535-7.069-2.755 0-4.937 1.448-5.754 3.83h-.195V7.723h-6.388v18.85h6.729zm25.566-8.246h7.07l-6.29 18.85h-7.803l-6.29-18.85h7.071l3.023 12.468h.195zm16.357 19.194c5.194 0 8.534-2.504 9.168-6.431h-6.144c-.39 1.068-1.5 1.669-2.877 1.669-2 0-3.17-1.326-3.17-3.142v-.294h12.191v-1.571c0-6.001-3.657-9.67-9.314-9.67-5.803 0-9.509 3.877-9.509 9.719 0 6.1 3.657 9.72 9.655 9.72m-3.023-11.93c.036-1.631 1.377-2.748 3.023-2.748 1.67 0 2.938 1.129 2.975 2.749zm20.637 11.586h-6.73V7.724h6.535v3.583h.195c.682-2.65 2.243-3.829 4.242-3.829.585 0 1.171.098 1.707.258v5.78c-.671-.233-1.792-.344-2.487-.344-1.987 0-3.462 1.424-3.462 3.584zm24.242-12.714c-.171-3.989-3.462-6.382-8.875-6.382-5.352 0-8.656 2.21-8.632 6.136-.024 2.97 1.89 4.872 5.706 5.547l3.316.59c1.463.27 2.121.662 2.146 1.374-.025.785-.915 1.227-2.146 1.227-1.524 0-2.597-.663-2.78-1.865h-6.68c.365 3.866 3.681 6.43 9.411 6.43 5.181 0 8.997-2.54 9.022-6.578-.025-2.785-1.878-4.405-5.706-5.105l-3.803-.687c-1.427-.258-1.829-.773-1.805-1.325-.024-.786.939-1.228 2.097-1.228 1.329 0 2.438.712 2.536 1.866zm20.177 6.627c-.634 3.927-3.975 6.43-9.168 6.43-5.998 0-9.656-3.62-9.656-9.72 0-5.84 3.707-9.719 9.51-9.719 5.656 0 9.314 3.67 9.314 9.67v1.572h-12.192v.294c0 1.816 1.171 3.142 3.17 3.142 1.378 0 2.487-.601 2.877-1.67zm-9.168-8.247c-1.646 0-2.987 1.117-3.024 2.749h5.998c-.036-1.62-1.304-2.75-2.974-2.75" class="text"/><path d="M.086 7.608c0 4.186 3.377 7.607 7.557 7.607V0C3.463 0 .086 3.4.086 7.608" class="1-1"/><path d="M11.105 7.608c0 4.186 3.377 7.607 7.557 7.607V0c-4.159 0-7.557 3.4-7.557 7.608" class="1-2"/><path d="M29.68 15.215c4.175 0 7.558-3.406 7.558-7.607S33.855 0 29.681 0s-7.557 3.406-7.557 7.608c0 4.201 3.383 7.607 7.557 7.607" class="1-3"/><path d="M.086 26.392C.086 30.6 3.463 34 7.643 34V18.806c-4.18 0-7.557 3.4-7.557 7.586" class="2-1"/><path d="M11.105 26.329c0 4.186 3.377 7.607 7.557 7.607V18.743c-4.159 0-7.557 3.4-7.557 7.586" class="2-2"/><path d="M29.68 33.936c4.175 0 7.558-3.406 7.558-7.607s-3.383-7.608-7.557-7.608-7.557 3.406-7.557 7.608c0 4.201 3.383 7.607 7.557 7.607" class="2-3"/></g></symbol>
</svg>
