<?xml version="1.0" encoding="UTF-8"?>
<svg version="1.1" xmlns="http://www.w3.org/2000/svg" xmlns:xlink="http://www.w3.org/1999/xlink">
<symbol id="by" viewBox="0 0 30 30"><path fill="currentColor" d="M14.973 0q6.32 0 10.66 4.34Q30 8.705 30 15q0 6.322-4.287 10.526Q21.16 30.001 14.973 30q-6.08 0-10.553-4.42Q0 21.16 0 15C0 8.84 1.474 7.34 4.42 4.34Q8.759 0 14.973 0m.054 2.706q-5.116 0-8.652 3.589-3.67 3.75-3.67 8.706 0 4.982 3.642 8.624t8.679 3.642q5.009.001 8.732-3.67 3.537-3.4 3.536-8.598 0-5.115-3.589-8.705-3.588-3.588-8.678-3.588m4.018 8.57v6.134H17.33v7.286h-4.66V17.41h-1.714v-6.134a.93.93 0 0 1 .28-.683.93.93 0 0 1 .684-.281h6.161q.376 0 .67.28a.91.91 0 0 1 .294.684M12.91 7.42q0-2.115 2.09-2.116c2.09-.001 2.09.705 2.09 2.116q0 2.09-2.09 2.09t-2.09-2.09"/></symbol>
<symbol id="nc" viewBox="0 0 30 30"><path fill="currentColor" d="M14.973 0q6.321 0 10.66 4.339Q30 8.679 30 15q0 6.322-4.287 10.527Q21.16 30.001 14.973 30 8.865 30 4.42 25.554 0 21.134 0 15 0 8.84 4.42 4.34 8.759 0 14.973 0M3.375 10.956q-.67 1.848-.67 4.045 0 4.982 3.642 8.624 3.67 3.617 8.679 3.617 5.062 0 8.733-3.67 1.312-1.258 2.061-2.626l-5.651-2.518a3.87 3.87 0 0 1-1.433 2.317q-1.14.898-2.693 1.031v2.304h-1.74v-2.304q-2.492-.025-4.554-1.794l2.063-2.089q1.472 1.366 3.348 1.366.776 0 1.326-.349.55-.347.55-1.151 0-.564-.402-.911l-1.447-.617-1.767-.804-2.384-1.044zm11.652-8.278q-5.116 0-8.652 3.616-.885.885-1.66 2.01l5.732 2.571a3.5 3.5 0 0 1 1.42-1.888q1.043-.71 2.437-.79V5.893h1.741v2.304q2.063.107 3.75 1.392L17.84 11.6q-1.26-.885-2.572-.884-.697 0-1.245.267-.55.269-.55.911 0 .188.134.375l1.902.858 1.313.59 2.41 1.07 7.687 3.429q.375-1.58.375-3.214 0-5.17-3.588-8.707-3.564-3.616-8.68-3.616z"/></symbol>
<symbol id="pd" viewBox="0 0 30 30"><path fill="currentColor" d="M15 0C6.716 0 0 6.716 0 15s6.716 15 15 15 15-6.717 15-15S23.284 0 15 0m0 27.187C8.28 27.187 2.812 21.72 2.812 15c0-1.407.243-2.758.683-4.015l4.767 2.122a10 10 0 0 0-.198 1.991c0 5.988 4.47 7.675 7.282 7.675a7.3 7.3 0 0 0 4.217-1.32q.32-.229.585-.464l-2.187-2.657a3 3 0 0 1-.2.206c-.85.806-1.785.806-1.994.806-2.288 0-3.246-2.414-3.258-4.348l13.137 5.85q.022.002.041.005c-2.073 3.774-6.086 6.336-10.687 6.336m11.745-9.073-13.55-6.048c.489-.885 1.267-1.55 2.431-1.55.675 0 1.21.223 1.632.506q.262.189.456.38l2.442-2.514c-1.64-1.41-3.505-1.663-4.725-1.663-2.866 0-4.895 1.24-6.09 3.121L4.81 8.326C6.99 5.007 10.743 2.811 15 2.811c6.72 0 12.188 5.467 12.188 12.188 0 1.088-.145 2.14-.414 3.145-.011-.01-.018-.02-.03-.03z"/></symbol>
<symbol id="nd" viewBox="0 0 30 30"><path fill="currentColor" d="M14.973 0q6.294 0 10.66 4.366Q30 8.706 30 15t-4.287 10.553Q21.187 30 14.973 30q-6.08 0-10.553-4.42Q0 21.161 0 15 0 8.868 4.42 4.367 8.785 0 14.973 0m.054 2.706q-5.116 0-8.652 3.616-3.67 3.724-3.67 8.678 0 5.01 3.642 8.625 3.643 3.644 8.679 3.643 5.009 0 8.732-3.67 3.537-3.427 3.536-8.598 0-5.142-3.589-8.678-3.563-3.617-8.678-3.616m5.652 8.758v2.571H9.777v-2.571H20.68zm0 4.822v2.57H9.777v-2.57H20.68z"/></symbol>
<symbol id="sa" viewBox="0 0 30 30"><path fill="currentColor" d="M14.973 0q6.294 0 10.66 4.366Q30 8.706 30 15t-4.287 10.553Q21.187 30 14.973 30q-6.08 0-10.553-4.42Q0 21.161 0 15 0 8.868 4.42 4.367 8.785 0 14.973 0m.054 2.706q-5.116 0-8.652 3.616-3.67 3.724-3.67 8.678 0 5.01 3.642 8.625 3.643 3.644 8.679 3.643 5.009 0 8.732-3.67Q27.295 20.17 27.294 15q0-5.142-3.589-8.678-3.563-3.617-8.678-3.616M8.33 12.884q.428-2.76 2.223-4.273t4.366-1.513q3.535 0 5.625 2.277 2.09 2.276 2.09 5.839 0 3.456-2.17 5.745t-5.626 2.29q-2.544 0-4.392-1.527t-2.224-4.339H12q.134 2.733 3.295 2.733 1.58 0 2.544-1.366.965-1.366.965-3.643 0-2.384-.883-3.63-.884-1.245-2.545-1.245-3.001 0-3.375 2.651h1.098l-2.973 2.973-2.973-2.973H8.33z"/></symbol>
<symbol id="remix" viewBox="0 0 30 30"><path fill="currentColor" d="M14.973 0q6.294 0 10.66 4.366Q30 8.706 30 15t-4.287 10.553Q21.187 30 14.973 30q-6.08 0-10.553-4.42Q0 21.161 0 15 0 8.868 4.42 4.367 8.785 0 14.973 0m.054 2.706q-5.116 0-8.652 3.616-3.67 3.724-3.67 8.678 0 5.01 3.642 8.625 3.643 3.644 8.679 3.643 5.009 0 8.732-3.67Q27.295 20.17 27.294 15q0-5.142-3.589-8.678-3.563-3.617-8.678-3.616m9.776 12.562.295.134v4.232l-.268.133-3.642 1.554-.161.054-.188-.053-7.848-3.241-.268-.108-3.884 1.608-3.83-1.662v-3.857l3.59-1.5-.027-.027V8.303l4.071-1.794 9.188 3.803v3.723zm-4.259 4.928v-2.651h-.026v-.108l-6.884-2.812v2.733l6.884 2.84v-.028zM21 16.714l2.411-.99-2.224-.938-2.357.99zm3.16 2.304V16.42l-2.678 1.125v2.625z"/></symbol>
<symbol id="sampling-plus" viewBox="0 0 30 30"><path fill="currentColor" fill-rule="evenodd" d="M4.43 4.35Q8.75 0 14.981 0q6.309 0 10.664 4.35T30 15c0 6.3-1.428 7.712-4.28 10.538Q21.175 30 14.98 30q-6.12 0-10.55-4.425T0 15 4.43 4.35M23.692 6.3q-3.567-3.6-8.673-3.6-5.107 0-8.636 3.6-3.68 3.713-3.68 8.7t3.643 8.625q3.641 3.637 8.673 3.638 5.03 0 8.748-3.676 3.53-3.411 3.529-8.587 0-5.138-3.604-8.7m-2.843 9.27a.7.7 0 0 1 .649-.434h3.523v1.407h-3.054l-1.09 2.625a.702.702 0 0 1-1.347-.186l-.16-1.35-.414 5.017a.701.701 0 0 1-1.4-.005l-.296-3.896-.275 3.545a.704.704 0 0 1-1.402-.01l-.273-4.34-.297 4.867a.702.702 0 0 1-1.403.003l-.29-4.436-.28 4.26a.702.702 0 0 1-1.403.005l-.343-4.738-.227 2.635a.704.704 0 0 1-1.396.041l-.65-4.423a.7.7 0 0 1-.627.384h-3.1v-1.405H7.95l.795-1.674a.703.703 0 0 1 1.33.2l.108.738.468-5.432a.703.703 0 0 1 1.402.009l.25 3.445.32-4.85a.702.702 0 0 1 1.402.001l.261 4.009.309-5.063a.703.703 0 0 1 1.403-.001l.359 5.7.211-2.716a.703.703 0 0 1 1.402.002l.315 4.163.257-3.11a.704.704 0 0 1 1.4-.027l.667 5.616zm-5.397-.118h1.327a.453.453 0 1 0 0-.905h-1.327V13.22a.452.452 0 1 0-.905 0v1.327H13.22a.454.454 0 0 0 0 .905h1.327v1.327a.453.453 0 0 0 .905 0z" clip-rule="evenodd"/></symbol>
<symbol id="cc" viewBox="0 0 30 30"><path fill="currentColor" d="M14.972 0q6.295 0 10.715 4.393A14.4 14.4 0 0 1 28.9 9.228Q30 11.946 30 15q-.001 3.081-1.085 5.772a13.8 13.8 0 0 1-3.2 4.754 15.4 15.4 0 0 1-4.983 3.322A14.9 14.9 0 0 1 14.973 30Q12 30 9.281 28.86a15.1 15.1 0 0 1-4.875-3.293q-2.156-2.156-3.281-4.862A14.7 14.7 0 0 1 0 15q0-2.973 1.138-5.719a15.1 15.1 0 0 1 3.308-4.915Q8.732.001 14.972 0m.055 2.706q-5.144 0-8.652 3.589a12.9 12.9 0 0 0-2.72 4.031 11.8 11.8 0 0 0-.95 4.675q0 2.41.95 4.646a12.4 12.4 0 0 0 2.72 3.992 12.4 12.4 0 0 0 3.99 2.679q2.225.924 4.662.924 2.41 0 4.675-.937a13 13 0 0 0 4.084-2.705q3.508-3.428 3.508-8.6 0-2.49-.91-4.713a12 12 0 0 0-2.651-3.965q-3.618-3.616-8.706-3.616m-.188 9.803-2.01 1.045q-.321-.668-.79-.937-.468-.268-.87-.268-2.01 0-2.01 2.652 0 1.205.509 1.928.51.723 1.5.724 1.314-.001 1.85-1.286l1.847.937a4.4 4.4 0 0 1-1.634 1.728q-1.044.63-2.303.63-2.01 0-3.242-1.233-1.232-1.231-1.232-3.428 0-2.142 1.246-3.401 1.245-1.26 3.147-1.26 2.787 0 3.992 2.17zm8.652 0-1.983 1.045q-.322-.668-.79-.937-.47-.268-.897-.268-2.01 0-2.01 2.652 0 1.205.51 1.928.507.723 1.5.724 1.311-.001 1.847-1.286l1.875.937a4.6 4.6 0 0 1-1.66 1.728q-1.044.63-2.277.63-2.035 0-3.253-1.233-1.22-1.231-1.22-3.428 0-2.142 1.246-3.401 1.245-1.26 3.147-1.26 2.787 0 3.965 2.17z"/></symbol>
<symbol id="sampling" viewBox="0 0 30 30"><path fill="currentColor" d="M14.973 0q6.32 0 10.674 4.353T30 15c0 6.295-1.43 7.705-4.287 10.526Q21.187 30.001 14.973 30q-6.108 0-10.54-4.42Q0 21.16 0 15C0 8.84 1.474 7.34 4.42 4.34Q8.759 0 14.973 0m.04 2.706q-5.102 0-8.638 3.589Q2.706 10.018 2.705 15t3.643 8.624 8.679 3.642q5.035.001 8.732-3.67 3.536-3.428 3.536-8.598 0-5.142-3.589-8.705-3.59-3.588-8.692-3.588zm.228 3.213a.6.6 0 0 1 .47.148.66.66 0 0 1 .226.442v.107l.402 6.482.295-3.59a.62.62 0 0 1 .187-.455.62.62 0 0 1 .455-.188q.267 0 .456.188a.62.62 0 0 1 .187.456v.106l.347 4.822.349-3.884a.62.62 0 0 1 .202-.401.59.59 0 0 1 .414-.16.68.68 0 0 1 .429.147.55.55 0 0 1 .215.388l.697 5.84.321-.777q.16-.402.615-.402h3.51v1.286h-3.081l-1.098 2.678q-.189.482-.697.401a.6.6 0 0 1-.388-.187.7.7 0 0 1-.174-.402l-.24-1.928-.456 5.598a.625.625 0 0 1-.617.562.64.64 0 0 1-.429-.161.6.6 0 0 1-.214-.401v-.081l-.374-4.634-.322 4.366a.77.77 0 0 1-.228.402.6.6 0 0 1-.416.16.64.64 0 0 1-.428-.16.6.6 0 0 1-.214-.402v-.08l-.349-5.224-.348 5.733v.08a.67.67 0 0 1-.187.469.6.6 0 0 1-.455.201.6.6 0 0 1-.456-.201.66.66 0 0 1-.188-.469v-.053l-.348-5.303-.322 5.115v.08a.76.76 0 0 1-.227.402.6.6 0 0 1-.415.161.64.64 0 0 1-.428-.16.6.6 0 0 1-.215-.402v-.08h-.026v-.08l-.375-5.357-.295 3.428a.6.6 0 0 1-.214.402.64.64 0 0 1-.428.16.62.62 0 0 1-.416-.147.7.7 0 0 1-.228-.388l-.67-4.607-.08.16q-.16.35-.59.349H5.275v-1.287h2.706l.83-1.687q.187-.429.656-.362t.55.522l.187 1.232.508-5.92q0-.268.188-.454a.62.62 0 0 1 .455-.188.62.62 0 0 1 .455.188.62.62 0 0 1 .187.455v.107l.295 4.179.402-5.598v-.08a.62.62 0 0 1 .616-.562.64.64 0 0 1 .428.16q.188.16.214.402v.08l.322 4.875.375-5.92V6.51q0-.24.174-.402a.73.73 0 0 1 .418-.188z"/></symbol>
<symbol id="share" fill="none" viewBox="0 0 30 30"><path fill="#000" d="M14.973 0q6.295 0 10.66 4.366Q30 8.706 30 15q0 6.295-4.287 10.553Q21.187 30 14.973 30q-6.08 0-10.553-4.42Q0 21.162 0 15 0 8.869 4.42 4.368 8.785 0 14.973 0m.054 2.706q-5.116 0-8.652 3.616-3.67 3.724-3.67 8.678 0 5.01 3.642 8.625 3.644 3.644 8.679 3.643 5.009 0 8.732-3.67 3.537-3.427 3.536-8.598 0-5.142-3.589-8.678-3.563-3.617-8.678-3.616m6.107 8.008q.348 0 .589.24.242.243.242.59V22.58q0 .348-.242.588a.8.8 0 0 1-.589.242h-8.17a.8.8 0 0 1-.59-.242.8.8 0 0 1-.24-.588V19.31H8.866a.8.8 0 0 1-.59-.24.8.8 0 0 1-.24-.59V7.447q-.001-.322.214-.55a.92.92 0 0 1 .535-.28h8.25q.347 0 .59.24.24.241.24.59v3.268h3.27M9.67 17.678h2.465v-6.134q-.001-.321.214-.549a.9.9 0 0 1 .509-.28h3.375V8.276H9.669zm10.661-5.33h-6.562v9.402h6.562z"/></symbol>
<symbol id="zero" viewBox="0 0 30 30"><path fill="currentColor" d="M4.443 4.36C7.3 1.447 10.807 0 14.97 0c4.196 0 7.777 1.462 10.725 4.39a14.4 14.4 0 0 1 3.214 4.843C29.639 11.037 30 12.964 30 15c0 2.055-.36 3.984-1.093 5.788-.714 1.785-1.781 3.362-3.193 4.737a15.4 15.4 0 0 1-4.978 3.32A15 15 0 0 1 14.969 30a14.8 14.8 0 0 1-5.705-1.125q-2.706-1.152-4.874-3.298-2.141-2.168-3.266-4.873A14.7 14.7 0 0 1 0 15q0-2.972 1.124-5.704a15.2 15.2 0 0 1 3.32-4.937zM23.73 6.312C21.319 3.903 18.424 2.7 15.03 2.7c-3.429 0-6.316 1.2-8.655 3.591a13 13 0 0 0-2.731 4.044A11.9 11.9 0 0 0 2.7 15c0 1.607.32 3.154.945 4.653a12.8 12.8 0 0 0 2.73 3.992 12.7 12.7 0 0 0 3.993 2.68q2.224.912 4.663.913c1.608 0 3.154-.31 4.654-.935a12.9 12.9 0 0 0 4.097-2.71C26.12 21.307 27.3 18.447 27.3 15q-.001-2.492-.914-4.716a12 12 0 0 0-2.657-3.97zM8.802 15c0-3.961 1.246-8.634 6.198-8.634s6.197 4.673 6.197 8.634-1.245 8.634-6.197 8.634c-4.953 0-6.198-4.672-6.198-8.634m6.755-5.305A2.3 2.3 0 0 0 15 9.622c-2.547 0-2.668 3.633-2.668 5.377 0 .562.014 1.313.116 2.08l3.298-6.06c.342-.592.168-1.016-.19-1.324zM17.668 15c0-.683-.025-1.654-.2-2.584l-3.686 6.366c-.514.772-.157 1.209.41 1.45.05.02.105.037.157.052l.095.031q.257.064.557.064c2.546 0 2.667-3.634 2.667-5.379"/></symbol>
</svg>
