<?xml version="1.0" encoding="UTF-8"?>
<!DOCTYPE svg  PUBLIC '-//W3C//DTD SVG 1.1//EN'  'http://www.w3.org/Graphics/SVG/1.1/DTD/svg11.dtd'>
<svg width="50px" height="50px" enable-background="new 0 0 284.929 284.929" version="1.1" viewBox="0 0 284.929 284.929" xml:space="preserve" xmlns="http://www.w3.org/2000/svg">
		<path d="m165.3 142.47l112.21-112.2c1.902-1.903 2.847-4.093 2.847-6.567 0-2.475-0.951-4.665-2.847-6.567l-14.278-14.276c-1.902-1.902-4.093-2.857-6.563-2.857-2.478 0-4.665 0.955-6.571 2.857l-133.05 133.04c-1.903 1.903-2.853 4.093-2.853 6.567 0 2.475 0.95 4.664 2.853 6.567l133.05 133.04c1.903 1.906 4.086 2.851 6.564 2.851s4.66-0.947 6.563-2.851l14.277-14.267c1.902-1.903 2.851-4.094 2.851-6.57 0-2.472-0.948-4.661-2.851-6.564l-112.2-112.21z"/>
		<path d="m55.668 142.47l112.2-112.2c1.903-1.903 2.851-4.093 2.851-6.567 0-2.475-0.947-4.665-2.851-6.567l-14.27-14.276c-1.903-1.902-4.093-2.857-6.564-2.857-2.478 0-4.668 0.955-6.57 2.857l-133.05 133.04c-1.903 1.903-2.853 4.093-2.853 6.567 0 2.475 0.95 4.664 2.853 6.567l133.05 133.04c1.902 1.906 4.09 2.851 6.57 2.851 2.471 0 4.661-0.947 6.563-2.851l14.271-14.267c1.903-1.903 2.851-4.094 2.851-6.57 0-2.472-0.947-4.661-2.851-6.564l-112.2-112.21z"/>
</svg>
