<?xml version="1.0" encoding="UTF-8"?>
<!DOCTYPE svg  PUBLIC '-//W3C//DTD SVG 1.1//EN'  'http://www.w3.org/Graphics/SVG/1.1/DTD/svg11.dtd'>
<svg width="284.94px" height="284.94px" enable-background="new 0 0 284.936 284.936" version="1.1" viewBox="0 0 284.936 284.936" xml:space="preserve" xmlns="http://www.w3.org/2000/svg">
		<path d="m277.52 135.9l-133.05-133.04c-1.899-1.902-4.089-2.857-6.564-2.857-2.472 0-4.659 0.955-6.562 2.857l-14.277 14.275c-1.903 1.903-2.853 4.089-2.853 6.567s0.95 4.664 2.853 6.567l112.21 112.2-112.21 112.21c-1.903 1.903-2.853 4.093-2.853 6.564 0 2.477 0.95 4.667 2.853 6.57l14.277 14.271c1.902 1.905 4.089 2.854 6.562 2.854 2.478 0 4.665-0.951 6.563-2.854l133.05-133.04c1.902-1.902 2.851-4.093 2.851-6.567s-0.949-4.664-2.851-6.571z"/>
		<path d="m170.73 142.47c0-2.474-0.947-4.665-2.857-6.571l-133.04-133.04c-1.902-1.902-4.092-2.857-6.566-2.857s-4.665 0.955-6.567 2.857l-14.274 14.276c-1.906 1.903-2.856 4.089-2.856 6.567s0.95 4.664 2.856 6.567l112.2 112.2-112.2 112.21c-1.906 1.903-2.856 4.093-2.856 6.564 0 2.477 0.95 4.667 2.856 6.57l14.273 14.271c1.903 1.905 4.093 2.854 6.567 2.854s4.664-0.951 6.567-2.854l133.04-133.04c1.91-1.902 2.857-4.093 2.857-6.567z"/>
</svg>
