<?xml version="1.0" encoding="UTF-8"?>
<svg xmlns="http://www.w3.org/2000/svg" xmlns:xlink="http://www.w3.org/1999/xlink" width="10pt" height="10pt" viewBox="0 0 10 10" version="1.1">
<g id="surface1">
<path style=" stroke:none;fill-rule:nonzero;fill:rgb(0%,0%,0%);fill-opacity:1;" d="M 9.566406 6.492188 L 5.234375 2.160156 C 5.136719 2.0625 5.003906 2.003906 4.859375 2.003906 C 4.714844 2.003906 4.582031 2.0625 4.480469 2.160156 L 0.15625 6.484375 C 0.0546875 6.585938 0 6.71875 0 6.863281 C 0 7.003906 0.0546875 7.140625 0.15625 7.238281 L 0.476562 7.558594 C 0.574219 7.65625 0.707031 7.710938 0.847656 7.710938 C 0.992188 7.710938 1.125 7.65625 1.226562 7.558594 L 4.859375 3.925781 L 8.496094 7.5625 C 8.597656 7.660156 8.730469 7.71875 8.875 7.71875 C 9.015625 7.71875 9.148438 7.660156 9.246094 7.5625 L 9.566406 7.242188 C 9.773438 7.035156 9.773438 6.699219 9.566406 6.492188 Z M 9.566406 6.492188 "/>
</g>
</svg>
