<?xml version="1.0" encoding="UTF-8"?>
<svg xmlns="http://www.w3.org/2000/svg" xmlns:xlink="http://www.w3.org/1999/xlink" width="10pt" height="10pt" viewBox="0 0 10 10" version="1.1">
<g id="surface1">
<path style=" stroke:none;fill-rule:nonzero;fill:rgb(0%,0%,0%);fill-opacity:1;" d="M 9.566406 2.46875 L 9.246094 2.148438 C 9.148438 2.046875 9.015625 1.992188 8.875 1.992188 C 8.730469 1.992188 8.597656 2.046875 8.496094 2.148438 L 4.863281 5.785156 L 1.226562 2.144531 C 1.125 2.046875 0.992188 1.992188 0.847656 1.992188 C 0.707031 1.992188 0.574219 2.046875 0.476562 2.144531 L 0.15625 2.464844 C -0.0507812 2.671875 -0.0507812 3.007812 0.15625 3.21875 L 4.488281 7.5625 C 4.585938 7.660156 4.71875 7.730469 4.863281 7.730469 C 5.007812 7.730469 5.140625 7.660156 5.242188 7.5625 L 9.566406 3.226562 C 9.667969 3.128906 9.722656 2.988281 9.722656 2.847656 C 9.722656 2.703125 9.667969 2.570312 9.566406 2.46875 Z M 9.566406 2.46875 "/>
</g>
</svg>
