<svg xmlns="http://www.w3.org/2000/svg" xmlns:xlink="http://www.w3.org/1999/xlink" version="1.1" x="0px" y="0px" viewBox="0 0 100 100" enable-background="new 0 0 100 100" xml:space="preserve"><path d="M 94.4 54.6 L 42.6 2.4 C 41.1 0.8 39 0 36.9 0 H 8 C 3.6 0 0 3.6 0 8 v 28.7 c 0 2.1 0.8 4.1 2.3 5.6 l 52 52 c 1.6 1.6 3.6 2.3 5.7 2.3 c 2 0 4.1 -0.8 5.6 -2.3 l 28.7 -28.5 C 97.5 62.8 97.5 57.7 94.4 54.6 z M 91.5 63 L 62.8 91.5 c -0.8 0.8 -1.8 1.2 -2.8 1.2 c -1.1 0 -2.1 -0.4 -2.8 -1.2 l -52 -52 C 4.4 38.8 4 37.8 4 36.7 V 8 c 0 -2.2 1.8 -4 4 -4 h 28.9 C 38 4 39 4.4 39.8 5.2 l 51.8 52.2 C 93.1 59 93.1 61.5 91.5 63 z"/><path d="M 20 12 c -4.4 0 -8 3.6 -8 8 c 0 4.4 3.6 8 8 8 s 8 -3.6 8 -8 C 28 15.6 24.4 12 20 12 z M 20 24 c -2.2 0 -4 -1.8 -4 -4 c 0 -2.2 1.8 -4 4 -4 s 4 1.8 4 4 C 24 22.2 22.2 24 20 24 z"/></svg>
