<svg width="30" height="30" viewBox="0 0 30 30" fill="none" xmlns="http://www.w3.org/2000/svg">
<path d="M17.7324 10.3243C18.0496 10.0579 18.0907 9.58477 17.8243 9.26761C17.5579 8.95044 17.0848 8.9093 16.7676 9.17572L17.7324 10.3243ZM11 15L10.5176 14.4257C10.348 14.5682 10.25 14.7784 10.25 15C10.25 15.2216 10.348 15.4318 10.5176 15.5743L11 15ZM16.7676 20.8243C17.0848 21.0907 17.5579 21.0496 17.8243 20.7324C18.0907 20.4152 18.0496 19.9421 17.7324 19.6757L16.7676 20.8243ZM16.7676 9.17572L10.5176 14.4257L11.4824 15.5743L17.7324 10.3243L16.7676 9.17572ZM10.5176 15.5743L16.7676 20.8243L17.7324 19.6757L11.4824 14.4257L10.5176 15.5743Z" fill="#787878"/>
<circle cx="15" cy="15" r="14.25" stroke="#787878" stroke-width="1.5"/>
</svg>
