<svg width="925.934" height="120" xmlns="http://www.w3.org/2000/svg" xmlns:svg="http://www.w3.org/2000/svg" xmlns:xlink="http://www.w3.org/1999/xlink">
 <g class="layer">
  <title>Layer 1</title>
  <rect fill="black" height="83.303" id="svg_9" width="16.407" x="318.445" y="8.381"/>
  <g id="svg_1">
   <defs>
    <rect height="233.51" id="SVGID_1_" width="925.934"/>
   </defs>
   <clipPath id="SVGID_2_">
    <use id="svg_2" x="1" xlink:href="#SVGID_1_" y="-120"/>
   </clipPath>
   <path clip-path="url(#SVGID_2_)" d="m341.51999,34.166l16.40201,0l15.28,41.60001l12.922,-41.60001l16.18201,0l-18.207,54.64999c-4.93002,14.85001 -7.82901,23.55101 -26.29102,24.62202c-5.71799,0.328 -9.77798,-0.468 -18.133,-2.541l0,-14.679c7.121,2.19699 10.491,2.88898 14.31299,2.771c5.95502,0 8.76202,-1.84901 10.11401,-6.69801l-22.582,-58.125l0,-0.00001z" id="svg_3"/>
   <path clip-path="url(#SVGID_2_)" d="m43.073,77.117l-20.913,0l0,-21.14101l0.352,0l17.208,0c10.422,0 15.482,3.588 15.482,10.97301c0,6.55899 -4.302,10.168 -12.129,10.168m-20.913,-53.722l0.352,0l18.941,0c8.028,0 12.83,3.19099 12.83,8.541c0,4.327 -2.293,9.47699 -13.178,9.47699l-18.945,0l0,-18.01799zm42.087,29.27299c-3.568,-2.026 -6.2,-2.911 -12.257,-4.12399l-0.03,-0.666c7.389,-2.158 19.739,-5.77 19.739,-18.85301c0,-4.974 -1.97,-9.562 -5.548,-12.92499c-4.701,-4.58501 -11.892,-6.72101 -22.646,-6.72101l-42.172,0l0,82.62201l45.411,0c16.793,0 28.076,-8.86601 28.076,-22.07001c-0.001,-7.265 -3.654,-13.23599 -10.573,-17.263" id="svg_4"/>
   <path clip-path="url(#SVGID_2_)" d="m95.16,51.36099c4.27599,-13.98201 12.406,-18.605 23.384,-18.258l-0.402,17.056c-1.383,-0.11601 -1.56499,0.04999 -2.489,0.04999c-7.164,0 -18.989,4.968 -18.989,13.49701l0,27.978l-16.525,0l0,-57.194l15.021,0l0,16.871z" id="svg_5"/>
   <path clip-path="url(#SVGID_2_)" d="m162.855,62.481c0,-10.82201 -4.394,-18.827 -12.48198,-18.827c-8.08601,0 -12.47801,8.00499 -12.47801,18.827c0,12.70399 4.392,19.054 12.47801,19.054c8.088,0 12.48198,-6.34901 12.48198,-19.054m-42.752,0c0,-17.87601 12.478,-30.937 30.27,-30.937c17.10699,0 30.276,13.06099 30.276,30.937c0,17.877 -13.16901,31.05299 -30.276,31.05299c-17.79201,0 -30.27,-13.17599 -30.27,-31.05299" id="svg_6"/>
   <path clip-path="url(#SVGID_2_)" d="m227.237,62.481c0,-10.82201 -4.38899,-18.827 -12.48199,-18.827c-8.086,0 -12.474,8.00499 -12.474,18.827c0,12.70399 4.388,19.054 12.474,19.054c8.093,0 12.48199,-6.34901 12.48199,-19.054m-42.758,0c0,-17.87601 12.483,-30.937 30.27498,-30.937c17.10301,0 30.276,13.06099 30.276,30.937c0,17.877 -13.17299,31.05299 -30.276,31.05299c-17.79198,0 -30.27498,-13.17599 -30.27498,-31.05299" id="svg_7"/>
  </g>
  <polygon fill="black" id="svg_8" points="251.06100463867188,8.3800048828125 267.5830078125,8.3800048828125 267.5830078125,54.82600402832031 288.7250061035156,33.800994873046875 310.6789855957031,33.800994873046875 289.48699951171875,53.26100158691406 312.302001953125,91.68400573730469 294.625,91.68400573730469 278.2770080566406,63.30999755859375 267.81298828125,72.62300109863281 267.81298828125,91.68400573730469 251.06100463867188,91.68400573730469 "/>
  <g id="svg_10">
   <defs>
    <rect height="233.51" id="SVGID_3_" width="925.934"/>
   </defs>
   <clipPath id="SVGID_4_">
    <use id="svg_11" x="1" xlink:href="#SVGID_3_" y="-120"/>
   </clipPath>
   <path clip-path="url(#SVGID_4_)" d="m425.08701,43.38901c4.62,-6.93399 10.05002,-10.521 18.371,-10.521c6.12,0 10.74802,1.621 14.207,5.086c4.052,4.05099 5.086,7.28101 5.086,18.024l0,35.705l-16.62799,0l0,-32.46701c0,-11.558 -2.319,-15.59999 -9.133,-15.59999c-6.93903,0 -11.90305,5.896 -11.90305,13.979l0,34.08699l-16.63797,0l0,-57.194l16.63797,0l0,8.901l0,0.00001l0.00003,0z" id="svg_12"/>
   <path clip-path="url(#SVGID_4_)" d="m580.04303,8.951l0,82.618l-16.17999,0l0,-67.825l-0.67902,-0.09c0,0 -17.59399,67.40199 -17.729,67.91499l-15.30499,0c-0.125,-0.513 -17.492,-68.60399 -17.492,-68.60399l-0.677,0.078l0,68.52499l-16.065,0l0,-82.618l28.742,0c0.12701,0.515 13.20203,51.759 13.20203,51.759s13.42395,-51.255 13.55798,-51.759l28.625,0l0,0.00099l0,0.00002z" id="svg_13"/>
   <path clip-path="url(#SVGID_4_)" d="m590.45099,34.49001l16.63599,0l0,38.823c0,5.66101 3.70404,9.35901 9.48199,9.35901c6.12,0 11.78802,-5.657 11.78802,-11.784l0,-36.39801l16.40698,0l0,57.19301l-16.52802,0l0,-8.31401c-4.27496,4.85201 -8.89697,9.93401 -19.63995,9.93401c-10.74902,0 -18.146,-6.81499 -18.146,-16.642l0,-42.17101l0.00098,0z" id="svg_14"/>
   <path clip-path="url(#SVGID_4_)" d="m664.02899,72.62399c2.19299,7.73399 7.04999,11.32399 15.36401,11.32399c5.77899,0 9.59296,-2.661 9.59296,-6.36099c0,-3.46201 -3.46198,-5.657 -12.48596,-7.627c-16.75104,-3.694 -23.56604,-9.47101 -23.56604,-20.22301c0,-10.396 8.55103,-16.868 22.30402,-16.868c10.159,0 22.06403,1.271 25.87604,15.25101l-14.55103,2.54799c-0.47198,-5.894 -4.16101,-8.55199 -11.78998,-8.55199c-4.50604,0 -8.08801,2.07399 -8.08801,4.85399c0,3.34801 2.88501,4.976 12.36298,7.164c15.48303,3.463 24.38,8.312 24.38,19.29401c0,5.19698 -1.95697,9.94099 -5.53998,13.41c-4.50903,4.5 -11.211,6.46599 -21.03699,6.46599c-9.12805,0 -16.05902,-2.422 -21.02502,-7.508c-2.08502,-2.19499 -3.11902,-3.81699 -4.96802,-8.09599l13.17102,-5.076z" id="svg_15"/>
   <path clip-path="url(#SVGID_4_)" d="m746.841,57.48199c0.11902,-3.119 0.34399,-13.979 -10.40302,-13.979c-11.43896,0 -10.97498,10.86 -10.85901,13.979l21.26202,0zm16.75098,10.40001l-38.01398,0c0.45996,9.81898 4.16296,14.446 11.89697,14.446c5.203,0 9.48401,-3.008 13.177,-9.015l11.32599,6.472c-2.54297,3.92299 -8.66998,13.519 -25.76801,13.519c-23.22699,0 -28.30701,-18.843 -28.30701,-30.618c0,-18.032 10.97205,-29.817 27.84204,-29.817c16.29199,0 27.84601,12.02 27.84601,29.125l0,5.888" id="svg_16"/>
   <path clip-path="url(#SVGID_4_)" d="m771.20398,34.49001l16.64001,0l0,38.823c0,5.66101 3.698,9.35901 9.46997,9.35901c6.12799,0 11.78699,-5.657 11.78699,-11.784l0,-36.39801l16.41101,0l0,57.19301l-16.52197,0l0,-8.31401c-4.27197,4.85201 -8.896,9.93401 -19.64899,9.93401c-10.737,0 -18.13702,-6.81499 -18.13702,-16.642l0,-42.17101z" id="svg_17"/>
   <path clip-path="url(#SVGID_4_)" d="m852.17102,43.73199c2.31403,-3.235 7.62903,-10.629 20.22101,-10.629c12.83002,0 15.258,7.16699 16.755,11.67099c5.43097,-9.132 12.13098,-11.67099 18.948,-11.67099c11.78497,0 18.83899,7.16699 18.83899,19.409l0,39.17101l-16.64001,0l0,-38.823c0,-5.778 -3.12,-9.009 -8.784,-9.009c-6.93298,0 -11.90302,6.12401 -11.90302,14.562l0,33.27l-16.63702,0l0,-38.354c0,-6.24699 -2.77197,-9.25099 -8.54602,-9.25099c-7.39697,0 -12.138,5.435 -12.138,14.20999l0,33.39602l-16.63593,0l0,-57.194l16.521,0l0,9.24199l0,-0.00001l0,-0.00001z" id="svg_18"/>
  </g>
 </g>
</svg>