<?xml version="1.0" encoding="UTF-8"?> <svg xmlns="http://www.w3.org/2000/svg" id="Layer_1" data-name="Layer 1" viewBox="0 0 128 27"> <defs> <style>.cls-1{fill:#130add;}.cls-2{fill:#000426;}</style> </defs> <title>logo</title> <path class="cls-1" d="M3.78,17.51a3.27,3.27,0,1,1,3.27-3.27A3.27,3.27,0,0,1,3.78,17.51ZM20.71,2.24c-2.44,0-2.54,2-6.23,2s-4-2-6.24-2a3.27,3.27,0,0,0,0,6.54c2.44,0,2.54-2,6.24-2s4,2,6.23,2a3.27,3.27,0,0,0,0-6.54Zm0,17.47c-2.44,0-2.54,2-6.23,2s-4-2-6.24-2a3.27,3.27,0,1,0,0,6.53c2.44,0,2.54-2,6.24-2s4,2,6.23,2a3.27,3.27,0,1,0,0-6.53ZM25.55,11c-2.45,0-2.36,2.14-5.45,2.14h0c-2.85,0-2.89-2.13-5.62-2.13a3.24,3.24,0,0,0-3.1,3.26,3.3,3.3,0,0,0,3.27,3.27c2.44,0,2.35-2.14,5.45-2.14h0c2.85,0,2.89,2.14,5.62,2.14a3.24,3.24,0,0,0,3.09-3.26A3.29,3.29,0,0,0,25.55,11Z"></path> <path class="cls-2" d="M49.85,19h0a7.51,7.51,0,0,1-6.32,3.78,7.43,7.43,0,0,1-7.64-7.7,7.62,7.62,0,0,1,7.65-7.57,7.37,7.37,0,0,1,6.31,3.64h0a.38.38,0,0,1-.14.5l-3,1.73a.37.37,0,0,1-.5-.13h0a3.25,3.25,0,1,0,0,3.65h0a.37.37,0,0,1,.51-.14l3,1.73A.37.37,0,0,1,49.85,19ZM88.91,1.53a2.31,2.31,0,1,0,2.31,2.31A2.31,2.31,0,0,0,88.91,1.53ZM91.05,8a.39.39,0,0,0-.38-.38H87.15a.38.38,0,0,0-.38.38V22.23a.39.39,0,0,0,.38.39h3.52a.4.4,0,0,0,.38-.39Zm34.13-6.46a2.31,2.31,0,1,0,2.31,2.31A2.31,2.31,0,0,0,125.18,1.53ZM127.32,8a.38.38,0,0,0-.38-.38h-3.52A.38.38,0,0,0,123,8V22.23a.39.39,0,0,0,.38.39h3.52a.39.39,0,0,0,.38-.39ZM56.39,1.15A.38.38,0,0,0,56,.77H52.49a.38.38,0,0,0-.38.38V22.23a.39.39,0,0,0,.38.39H56a.39.39,0,0,0,.38-.39ZM104.12,7.6h-3.21c-.47,0-.47-.28-.47-.54,0-2.24,0-2,3.57-2a.36.36,0,0,0,.35-.36V1.26c0-.2,0-.5-.44-.5-2.53,0-7.71-.48-7.75,6.42,0,0,0,.42-.31.42H93.61a.39.39,0,0,0-.38.39v3.52a.38.38,0,0,0,.38.38h2.2c.31,0,.36,0,.36.33v10a.38.38,0,0,0,.38.38h3.52a.38.38,0,0,0,.38-.38v-10c0-.32.1-.32.4-.32h3.27a.38.38,0,0,0,.38-.38V8A.38.38,0,0,0,104.12,7.6ZM73.27,8V22.23a.39.39,0,0,1-.38.39h-3.5c-.39,0-.38-.5-.38-.5,0-.21-.17-.35-.35-.24a5.37,5.37,0,0,1-3,.9c-4.51,0-7.57-3.26-7.57-7.77a7.5,7.5,0,0,1,7.45-7.5,6.72,6.72,0,0,1,3.09.81.25.25,0,0,0,.39-.22s0-.49.38-.49h3.45A.38.38,0,0,1,73.27,8ZM69,15.08a3.28,3.28,0,1,0-3.28,3.3A3.29,3.29,0,0,0,69,15.08Zm10.75,7.51H76.24a.38.38,0,0,1-.38-.38V8a.39.39,0,0,1,.38-.39h3.57c.4,0,.38.5.38.5a.24.24,0,0,0,.31.25c.09,0,.31-.14.46-.2a8.57,8.57,0,0,1,3.36-.52c.44,0,.44.3.44.49v3.42a.36.36,0,0,1-.36.36c-3.16,0-4.13.37-4.26,2l0,8.34A.39.39,0,0,1,79.78,22.59ZM120.4,8V22.23a.39.39,0,0,1-.38.39h-3.5c-.4,0-.38-.5-.38-.5,0-.21-.17-.35-.35-.24a5.41,5.41,0,0,1-3,.9c-4.51,0-7.57-3.26-7.57-7.77a7.49,7.49,0,0,1,7.45-7.5,6.65,6.65,0,0,1,3.08.81.25.25,0,0,0,.39-.22s0-.49.38-.49H120A.38.38,0,0,1,120.4,8Zm-4.25,7.09a3.28,3.28,0,1,0-3.28,3.3A3.29,3.29,0,0,0,116.15,15.08Z"></path> </svg> 