<?xml version="1.0" encoding="UTF-8"?> <svg xmlns="http://www.w3.org/2000/svg" id="Layer_1" data-name="Layer 1" viewBox="0 0 320 240"> <defs> <style>.cls-1{fill:#130add;}.cls-2{fill:#000426;}</style> </defs> <title>Clarifai_Pos</title> <path class="cls-1" d="M58.92,126.93a5.39,5.39,0,1,1,5.4-5.39A5.39,5.39,0,0,1,58.92,126.93Zm27.93-25.19c-4,0-4.19,3.37-10.29,3.37s-6.64-3.37-10.28-3.37a5.4,5.4,0,0,0,0,10.79c4,0,4.19-3.37,10.28-3.37s6.65,3.37,10.29,3.37a5.4,5.4,0,0,0,0-10.79Zm0,28.81c-4,0-4.19,3.37-10.29,3.37s-6.64-3.37-10.28-3.37a5.39,5.39,0,0,0,0,10.78c4,0,4.19-3.36,10.28-3.36s6.65,3.36,10.29,3.36a5.39,5.39,0,0,0,0-10.78Zm8-14.4c-4,0-3.89,3.53-9,3.53h0c-4.7,0-4.77-3.53-9.28-3.53a5.36,5.36,0,0,0-5.1,5.38,5.45,5.45,0,0,0,5.39,5.4c4,0,3.89-3.54,9-3.54h0c4.7,0,4.76,3.53,9.27,3.53a5.36,5.36,0,0,0,5.11-5.39A5.45,5.45,0,0,0,94.83,116.15Z"></path> <path class="cls-2" d="M134.93,129.4h0a12.37,12.37,0,0,1-10.43,6.23c-7.74,0-12.59-5.83-12.59-12.71a12.56,12.56,0,0,1,12.6-12.48,12.16,12.16,0,0,1,10.43,6h0a.63.63,0,0,1-.23.83l-4.93,2.84a.61.61,0,0,1-.83-.21h0a5.35,5.35,0,1,0,0,6h0a.62.62,0,0,1,.84-.23l4.94,2.86A.62.62,0,0,1,134.93,129.4Zm64.43-28.83a3.81,3.81,0,1,0,3.8,3.81A3.81,3.81,0,0,0,199.36,100.57Zm3.52,10.65a.63.63,0,0,0-.62-.63h-5.81a.63.63,0,0,0-.62.63v23.5a.63.63,0,0,0,.63.63h5.8a.63.63,0,0,0,.62-.63Zm56.31-10.65a3.81,3.81,0,1,0,3.81,3.81A3.81,3.81,0,0,0,259.19,100.57Zm3.53,10.65a.63.63,0,0,0-.63-.63h-5.8a.63.63,0,0,0-.62.63v23.5a.63.63,0,0,0,.62.63h5.8a.63.63,0,0,0,.63-.63Zm-117-11.28a.63.63,0,0,0-.63-.63h-5.81a.63.63,0,0,0-.62.63v34.78a.63.63,0,0,0,.63.63h5.8a.63.63,0,0,0,.63-.63Zm78.74,10.65h-5.3c-.77,0-.77-.47-.77-.9,0-3.69,0-3.3,5.89-3.3a.58.58,0,0,0,.58-.59v-5.68c0-.33,0-.82-.73-.82-4.17,0-12.72-.8-12.78,10.59,0,0,0,.7-.51.7h-3.72a.63.63,0,0,0-.63.62V117a.63.63,0,0,0,.63.63h3.63c.52,0,.6,0,.6.55v16.51a.63.63,0,0,0,.63.63h5.8a.63.63,0,0,0,.63-.63V118.19c0-.53.16-.54.65-.54h5.4a.63.63,0,0,0,.63-.63v-5.81A.63.63,0,0,0,224.45,110.59Zm-50.89.63v23.5a.63.63,0,0,1-.62.63h-5.78c-.65,0-.62-.82-.62-.82,0-.34-.29-.57-.58-.39a8.88,8.88,0,0,1-4.88,1.48c-7.44,0-12.49-5.37-12.49-12.81a12.36,12.36,0,0,1,12.29-12.38,11.05,11.05,0,0,1,5.09,1.34.41.41,0,0,0,.64-.36s0-.82.62-.82h5.71A.63.63,0,0,1,173.56,111.22Zm-7,11.7a5.41,5.41,0,1,0-5.41,5.44A5.42,5.42,0,0,0,166.56,122.92Zm17.74,12.39h-5.84a.63.63,0,0,1-.63-.62V111.18a.63.63,0,0,1,.62-.63h5.9c.65,0,.62.82.62.82a.41.41,0,0,0,.51.42c.15,0,.51-.24.76-.34a14.12,14.12,0,0,1,5.54-.86c.74,0,.73.5.73.82v5.64a.59.59,0,0,1-.58.59c-5.23,0-6.83.6-7,3.28l0,13.77A.63.63,0,0,1,184.3,135.31Zm67-24.09v23.5a.63.63,0,0,1-.62.63H244.9c-.65,0-.62-.82-.62-.82,0-.34-.28-.57-.58-.39a8.88,8.88,0,0,1-4.88,1.48c-7.44,0-12.49-5.37-12.49-12.81a12.36,12.36,0,0,1,12.29-12.38,11.05,11.05,0,0,1,5.09,1.34.41.41,0,0,0,.64-.36s0-.82.63-.82h5.7A.63.63,0,0,1,251.3,111.22Zm-7,11.7a5.41,5.41,0,1,0-5.41,5.44A5.42,5.42,0,0,0,244.3,122.92Z"></path> </svg> 