<svg id="Layer_1" data-name="Layer 1" xmlns="http://www.w3.org/2000/svg" viewBox="0 0 467.72 226.77"><defs><style>.cls-1{fill:none;stroke:#fff;stroke-miterlimit:10;stroke-width:2px;}.cls-2{fill:#fff;}</style></defs><title>AI_By_Clarifai_White_Outline</title><rect class="cls-1" x="10.21" y="9.54" width="446.32" height="206.24" rx="5.88" ry="5.88"/><path class="cls-2" d="M107.28,171.48h0c-4.9,8.33-13.82,14.5-24,14.57-17.92.12-29.24-13.27-29.36-29.19a29.08,29.08,0,0,1,29-29.09,28.14,28.14,0,0,1,24.21,13.73v0a1.43,1.43,0,0,1-.52,1.9l-11.37,6.67a1.43,1.43,0,0,1-1.92-.47h0a12.38,12.38,0,1,0,.1,13.92h0a1.45,1.45,0,0,1,2-.54l11.48,6.52A1.45,1.45,0,0,1,107.28,171.48Zm148.59-67.74a8.81,8.81,0,1,0,8.87,8.75A8.82,8.82,0,0,0,255.87,103.74Zm8.33,24.58a1.46,1.46,0,0,0-1.46-1.45l-13.43.1a1.45,1.45,0,0,0-1.43,1.46l.39,54.38a1.44,1.44,0,0,0,1.46,1.44l13.41-.09a1.47,1.47,0,0,0,1.45-1.47Zm130.1-25.55a8.81,8.81,0,1,0,8.87,8.74A8.8,8.8,0,0,0,394.3,102.77Zm8.34,24.57a1.46,1.46,0,0,0-1.47-1.44l-13.42.09a1.44,1.44,0,0,0-1.43,1.47l.38,54.37a1.46,1.46,0,0,0,1.47,1.44l13.41-.09a1.45,1.45,0,0,0,1.44-1.47ZM131.73,103.15a1.46,1.46,0,0,0-1.46-1.45l-13.43.1a1.46,1.46,0,0,0-1.43,1.46l.57,80.48a1.47,1.47,0,0,0,1.47,1.45l13.41-.1a1.44,1.44,0,0,0,1.44-1.46ZM314.09,126.5l-12.26.09c-1.79,0-1.8-1.06-1.81-2.07-.06-8.54,0-7.62,13.58-7.71a1.38,1.38,0,0,0,1.34-1.39l-.1-13.14c0-.75,0-1.89-1.69-1.88-9.67.07-29.44-1.64-29.4,24.72,0,0,0,1.6-1.17,1.6l-8.61.07a1.44,1.44,0,0,0-1.44,1.46l.09,13.44a1.46,1.46,0,0,0,1.47,1.44l8.39-.06c1.2,0,1.39,0,1.4,1.26l.27,38.21a1.46,1.46,0,0,0,1.47,1.44l13.41-.09a1.46,1.46,0,0,0,1.44-1.47l-.27-38.22c0-1.23.38-1.25,1.51-1.26l12.5-.09a1.46,1.46,0,0,0,1.44-1.47l-.09-13.45A1.46,1.46,0,0,0,314.09,126.5Zm-117.73,2.3.39,54.37a1.47,1.47,0,0,1-1.44,1.47l-13.36.09c-1.51,0-1.46-1.88-1.46-1.88,0-.8-.66-1.32-1.35-.91a20.55,20.55,0,0,1-11.27,3.51c-17.21.12-29-12.21-29.09-29.43A28.6,28.6,0,0,1,167,127.18a25.4,25.4,0,0,1,11.8,3,.94.94,0,0,0,1.48-.85s-.08-1.89,1.43-1.9l13.2-.09h0A1.46,1.46,0,0,1,196.36,128.8Zm-16,27.19a12.51,12.51,0,1,0-12.42,12.68A12.55,12.55,0,0,0,180.35,156Zm41.26,28.38-13.53.09a1.44,1.44,0,0,1-1.46-1.44l-.39-54.38a1.45,1.45,0,0,1,1.43-1.46l13.65-.1c1.52,0,1.46,1.88,1.46,1.88a.94.94,0,0,0,1.18,1c.35-.09,1.17-.55,1.76-.8,2.12-.89,5.84-2,12.79-2.07,1.72,0,1.69,1.13,1.7,1.88s.09,13,.09,13a1.37,1.37,0,0,1-1.34,1.39c-12.09.09-15.77,1.5-16.2,7.71l.31,31.84A1.47,1.47,0,0,1,221.61,184.37Zm154.61-56.84.39,54.37a1.47,1.47,0,0,1-1.44,1.47l-13.36.09c-1.52,0-1.46-1.88-1.46-1.88,0-.8-.66-1.32-1.35-.91a20.55,20.55,0,0,1-11.27,3.51c-17.21.12-29-12.21-29.1-29.43a28.62,28.62,0,0,1,28.23-28.84,25.4,25.4,0,0,1,11.8,3,.94.94,0,0,0,1.48-.85s-.08-1.89,1.43-1.9l13.2-.09h0A1.46,1.46,0,0,1,376.22,127.53Zm-16,27.19a12.51,12.51,0,1,0-12.42,12.68A12.55,12.55,0,0,0,360.21,154.72ZM64.05,67.43c-3,0-4.9-1.88-4.92-5.05a5.38,5.38,0,0,1,3.18-5.29,25.32,25.32,0,0,1,7.42-1.89l0-2c0-2.46-1.11-3.66-3.49-3.65A3.25,3.25,0,0,0,62.66,53v.54l-2.84,0v-.5c0-3.5,2.17-6.15,6.47-6.18s6.44,2.42,6.47,6.39l.06,9c0,2.21.52,2.63,2.15,2.66l0,2.17H74c-2.38,0-3.8-.8-4-3.64C68.59,66.07,66.72,67.42,64.05,67.43ZM65,65a4.47,4.47,0,0,0,3.37-1.61,5.17,5.17,0,0,0,1.4-3.65l0-2.54a20.25,20.25,0,0,0-5.42,1.37,3.55,3.55,0,0,0-2.1,3.48C62.23,63.86,63,65,65,65ZM78.43,47.38l2.59,0,.32,4.47c1-2.73,2.47-4.74,5.27-4.76a11.6,11.6,0,0,1,1.29.12l0,3.21a12.06,12.06,0,0,0-1.42-.11A4.4,4.4,0,0,0,83,51.94a5.65,5.65,0,0,0-1.39,3.89l.08,11.1-3.13,0Zm11.26-.08,2.8,0,0-4.17,3.08-1,0,5.14,4.72,0,0,2.62-4.72,0,.07,10.73c0,3,.82,3.66,3.2,3.65h.67l0,2.59h-1.3c-3.71,0-5.64-1.26-5.67-5.6l-.08-11.35-2.8,0ZM104,39.35l3.38,0,0,3.75-3.38,0Zm.18,7.85,3.13,0,.14,19.57-3.13,0Zm17.38-9.43,0,2.58h-1.13c-2.21,0-3.16,1.19-3.15,3.2l0,3.54,4.21,0,0,2.62-4.21,0,.12,17-3.14,0-.12-16.94-2.83,0,0-2.63,2.84,0,0-3.68c0-3.5,1.84-5.64,5.89-5.67Zm3.3,1.43,3.38,0,0,3.76-3.38,0Zm.18,7.85,3.13,0,.14,19.57-3.13,0Zm19.13,13.06v-.17l3,0v.33c0,3.8-2.25,6.78-6.8,6.81S133,63.94,133,58.89l0-4.17c0-5,2.66-8.25,7.29-8.28s6.78,2.83,6.81,6.67v.38l-3,0v-.17c0-2.37-1-4.29-3.79-4.27s-4.28,2-4.26,5.33l0,4.76c0,3.22,1.5,5.25,4.22,5.23S144.17,62.48,144.16,60.11Zm11.18,6.68c-3,0-4.9-1.89-4.92-5.06a5.36,5.36,0,0,1,3.18-5.28A25,25,0,0,1,161,54.56l0-2c0-2.46-1.11-3.67-3.49-3.65a3.26,3.26,0,0,0-3.57,3.45v.54l-2.84,0v-.5c0-3.51,2.16-6.15,6.46-6.18s6.45,2.42,6.48,6.38l.06,9c0,2.21.52,2.62,2.15,2.65l0,2.17h-1c-2.38,0-3.8-.81-4-3.64C159.88,65.42,158,66.77,155.34,66.79Zm.94-2.43a4.47,4.47,0,0,0,3.37-1.61,5.19,5.19,0,0,0,1.4-3.64l0-2.55a20.57,20.57,0,0,0-5.42,1.38,3.53,3.53,0,0,0-2.1,3.48C153.52,63.21,154.32,64.37,156.28,64.36Zm13.41-26.93,3.14,0,.2,28.89-3.13,0Zm16,1.34,3.38,0,0,3.76-3.38,0Zm.18,7.85,3.13,0,.14,19.57-3.14,0Zm8.76-.06,2.59,0,.27,3.67c1.45-2.55,3.23-4.11,6.07-4.13,3.05,0,5.07,2.26,5.09,5.76l.1,14.2-3.09,0-.09-13.69c0-2.17-1.16-3.59-3.12-3.57-2.55,0-4.66,2.66-4.64,5.17l.09,12.14-3.13,0Zm17.73-.13,2.8,0,0-4.17,3.08-1,0,5.13,4.72,0V49l-4.71,0,.07,10.73c0,3,.82,3.67,3.2,3.65h.67l0,2.59H221c-3.71,0-5.64-1.25-5.67-5.59L215.22,49l-2.8,0ZM240.09,60c0,3.68-2.42,6.36-6.81,6.4-4.88,0-7.37-3-7.4-7.88l0-4.47c0-4.88,2.61-8.24,7.12-8.27s7.08,3.2,7.11,7.88l0,3.17-11.18.08v2c0,2.84,1.33,4.92,4.33,4.9,2.63,0,4-1.62,3.94-3.83v-.17l2.88,0ZM228.9,54.79l8.14-.06V53.27c0-2.88-1.33-4.91-4-4.9s-4.12,2-4.1,5.21ZM244.63,36.9l3.13,0L248,65.76l-3.14,0Zm8.8-.06,3.13,0,.21,28.89-3.13,0Zm8.69,1.39,3.39,0,0,3.76-3.38,0Zm.18,7.85,3.14,0,.13,19.57-3.13,0Zm15.3,26.23c-5.3,0-8.19-1.36-8.21-4.16,0-1.71,1.27-3,3.77-3.53v-.08c-1.8-.62-2.77-1.49-2.78-2.82s.95-2.14,2.66-3a5.75,5.75,0,0,1-2.42-4.87V51.74c0-3.63,2.58-6.11,6.63-6.14a9.15,9.15,0,0,1,2.55.4c2.88-.56,3.25-1.57,3.19-3.4l2.38,0a5.93,5.93,0,0,1,.22,1.42c0,2-1.36,2.72-3.73,3.2a5.21,5.21,0,0,1,2.07,4.61l0,2c0,3.67-2.46,6.11-6.64,6.14a7.84,7.84,0,0,1-2.67-.4c-1.17.51-1.62,1-1.62,1.6,0,1,1.85,1.61,4.56,1.59h.71c5.3,0,7.49,1.78,7.51,4.62C285.81,70.46,282.73,72.28,277.6,72.31ZM283,67.64c0-1.54-1.6-2.33-5.11-2.3h-.58c-3.51,0-5.17,1-5.16,2.54s1.81,2.41,5.45,2.39C281,70.24,283,69.35,283,67.64Zm-2.1-13.72,0-2.38a3.63,3.63,0,0,0-7.26,0l0,2.42a3.63,3.63,0,1,0,7.26,0Zm21.41,5.65c0,3.68-2.42,6.36-6.8,6.4-4.89,0-7.37-3-7.41-7.88l0-4.47c0-4.88,2.62-8.24,7.12-8.27s7.08,3.2,7.11,7.88l0,3.17-11.19.08v2c0,2.84,1.33,4.92,4.34,4.9,2.63,0,4-1.62,3.94-3.83v-.17l2.88,0Zm-11.19-5.22,8.14-.06V52.83c0-2.88-1.33-4.91-4-4.89s-4.12,2-4.09,5.2Zm15.76-8.58,2.59,0,.27,3.67c1.44-2.56,3.23-4.11,6.07-4.13,3.05,0,5.07,2.26,5.09,5.76l.1,14.19-3.09,0-.1-13.7c0-2.17-1.15-3.58-3.11-3.56-2.55,0-4.66,2.66-4.64,5.16l.09,12.15-3.13,0Zm29.8,13v-.17l3,0v.33c0,3.8-2.25,6.78-6.8,6.81s-7.29-3.12-7.32-8.17l0-4.17c0-5,2.65-8.25,7.28-8.28s6.79,2.83,6.82,6.67v.38l-3,0V52c0-2.37-1-4.29-3.78-4.27s-4.29,2-4.27,5.33l0,4.76c0,3.22,1.49,5.25,4.21,5.23S336.73,61.13,336.71,58.75Zm20.62.43c0,3.68-2.42,6.37-6.8,6.4-4.89,0-7.37-3-7.41-7.88l0-4.47c0-4.88,2.62-8.24,7.12-8.27s7.08,3.2,7.12,7.88l0,3.17-11.19.08v2c0,2.84,1.33,4.92,4.34,4.9,2.63,0,3.95-1.62,3.94-3.83V59l2.88,0ZM346.15,54l8.13-.05V52.44c0-2.88-1.32-4.91-4-4.89s-4.12,2-4.09,5.2Zm23-17.94,3.13,0,.08,12.35c1.2-2.05,2.73-3.52,5.45-3.54,3.71,0,6,2.92,6.06,7.09l0,6.22c0,4.22-2.37,7.16-6.08,7.18-2.84,0-4.44-1.68-5.66-3.67L372,64.88l-2.59,0Zm4.55,12.91a5.3,5.3,0,0,0-1.35,3.72l0,4.88a5.21,5.21,0,0,0,1.44,3.71,4.07,4.07,0,0,0,3.06,1.48c2.55,0,3.91-2.11,3.89-4.83l0-5.72c0-2.71-1.41-4.79-4-4.77A4.16,4.16,0,0,0,373.73,48.93Zm12.95-3.73,3.22,0,4.62,16h0l4.23-16,3.13,0-5.75,19.74A14,14,0,0,1,394,69.61a5.18,5.18,0,0,1-4.29,1.66h-1.37l0-2.55h.83a3.17,3.17,0,0,0,3.53-2.82l.2-.88Z"/></svg>