<?xml version="1.0" encoding="UTF-8"?>
<svg width="177px" height="37px" viewBox="0 0 177 37" version="1.1" xmlns="http://www.w3.org/2000/svg" xmlns:xlink="http://www.w3.org/1999/xlink">
    <!-- Generator: Sketch 51.3 (57544) - http://www.bohemiancoding.com/sketch -->
    <title>Layer_1</title>
    <desc>Created with Sketch.</desc>
    <defs></defs>
    <g id="Symbols" stroke="none" stroke-width="1" fill="none" fill-rule="evenodd">
        <g id="Nav-Menu-1400px---noCollections" transform="translate(-31.000000, -15.000000)" fill="#1A1A1A">
            <g id="Navbar-no-Collections" transform="translate(-1.000000, 0.000000)">
                <g id="Top-bar">
                    <g id="Nav-Menu-Collections">
                        <g id="EUCollections-logo-Copy" transform="translate(32.000000, 15.000000)">
                            <g id="Layer_1">
                                <path d="M24.4112888,11.2429975 L24.4473203,11.2429975 L24.4112888,11.2429975 M7.47649028,22.3262765 C10.1428203,22.3262765 12.3047094,24.4783695 12.3047094,27.1326176 C12.3047094,29.7868657 10.1428203,31.9389587 7.47649028,31.9389587 C4.8101603,31.9389587 2.64827112,29.7868657 2.64827112,27.1326176 C2.64827112,24.4783695 4.8101603,22.3262765 7.47649028,22.3262765 M10.9715444,33.0867416 C10.9715444,31.7237494 12.0885205,30.6118346 13.457717,30.6118346 C14.8269135,30.6118346 15.9438896,31.7237494 15.9438896,33.0867416 C15.9438896,34.4497339 14.8269135,35.5616486 13.457717,35.5616486 C12.0885205,35.5616486 10.9715444,34.4497339 10.9715444,33.0867416 M30.0322007,13.4668269 C29.9961692,13.144013 29.9601377,12.821199 29.9601377,12.4983851 C29.8880747,12.2473075 29.8520433,11.8527571 29.8160118,11.6375478 C29.7079173,11.3506021 29.7079173,11.2429975 29.6718858,11.0277882 C29.5998229,10.8125789 29.5998229,10.8125789 29.4917284,10.346292 C29.239508,9.44958661 28.8431616,8.55288118 28.4107838,7.69204397 C28.1225319,7.15402072 27.7622171,6.6877339 27.4019022,6.22144707 C27.3298392,6.11384242 27.1136503,5.8627649 27.0415873,5.79102847 C26.8974614,5.61168738 26.1047687,4.67911374 25.8525483,4.46390444 C25.6003279,4.24869514 25.384139,4.03348584 25.0958871,3.81827653 C24.8436667,3.60306723 24.5554148,3.38785793 24.3031944,3.20851684 C24.0870055,3.02917576 23.8347851,2.95743933 23.6185961,2.81396646 C22.3935256,2.0607339 21.0243291,1.45097421 19.6191012,1.12816026 C14.8989765,0.0521137473 9.35012757,1.6303153 6.28745123,5.46821452 C5.96316786,5.8627649 5.63888448,6.25731529 5.3146011,6.6877339 C5.17047516,6.86707498 5.09841219,7.1181525 4.95428624,7.3333618 C4.66603435,7.79964862 4.44984543,8.23006723 4.23365652,8.73222226 C3.36890084,10.6332378 2.82842855,12.9646719 3.00858598,15.1526331 C3.11668044,16.3721525 3.33286936,17.5916719 3.76524719,18.7394548 C3.90937314,19.098137 4.0174676,19.4568192 4.19762503,19.8155013 C4.30571949,20.0665788 4.59397138,20.5687339 4.63000286,20.6404703 C2.10779882,21.752385 0.342255997,24.2631602 0.342255997,27.204354 C0.342255997,31.1498579 3.58508976,34.3779974 7.54855325,34.3779974 C8.41330892,34.3779974 9.24203311,34.2345246 9.99869432,33.9475788 C9.99869432,33.983447 10.0347258,33.983447 10.0347258,34.0193153 C10.4310722,35.5616486 11.8363001,36.7452998 13.52978,36.7452998 C15.5115117,36.7452998 17.1329286,35.13123 17.1329286,33.1584781 C17.1329286,31.4368036 15.9438896,30.002075 14.3224727,29.6433928 C14.3224727,29.6075246 14.3585042,29.5716564 14.3585042,29.5357881 C14.3945356,29.3923153 14.4665986,29.2488424 14.5026301,29.1053695 C14.5746931,28.9260284 14.6107246,28.7466874 14.6467561,28.5314781 C14.6467561,28.4238734 14.6827875,28.3162688 14.6827875,28.1727959 C14.718819,28.029323 14.718819,27.8858502 14.718819,27.7423773 C14.7548505,27.7065091 14.790882,27.7423773 14.862945,27.7423773 C15.6556377,27.7782455 16.4483304,27.9217184 17.2410231,27.8499819 C18.718314,27.7782455 20.3036994,27.4912998 21.6368644,26.8815401 C23.0420924,26.2717804 24.4112888,25.4826796 25.5642964,24.4425013 C26.1047687,23.9762145 26.645241,23.4381912 27.0776188,22.8284316 C27.2938077,22.5414858 27.5460281,22.2904083 27.7261856,22.0034626 C27.8703115,21.752385 28.0865004,21.5013075 28.2306264,21.25023 C28.3387208,21.0708889 28.3387208,20.9632843 28.4468153,20.7839432 C28.5188783,20.6763385 28.5909412,20.5687339 28.6269727,20.425261 C28.7350672,20.1741835 28.7710987,19.8872378 28.7710987,19.600292 C28.8071302,19.0622688 28.6269727,18.4883773 28.3026894,18.0220905 C28.0504689,17.6275401 27.4379337,17.2688579 26.9695244,17.125385 C26.4290521,16.9819122 25.7804853,17.0177804 25.240013,17.1971215 C24.6635092,17.4123308 24.2671629,17.9144858 23.9428795,18.4525091 C23.5825646,19.0264005 23.2582813,19.5644238 22.789872,20.0307106 C21.8890848,20.927416 20.9162347,21.6447804 19.7271956,22.1110672 C15.1872283,23.9403463 9.92663135,21.4654393 8.41330892,16.8384393 C7.72871068,14.6863463 7.90886812,12.2831757 9.02584419,10.2745556 C9.60234797,9.2343773 10.3950407,8.30180366 11.3318593,7.5485711 C11.8363001,7.15402072 12.4128039,6.79533855 12.9893077,6.54426103 C13.52978,6.32905172 14.0702523,6.18557886 14.6107246,6.00623777 C15.0431024,5.8627649 15.6196062,5.82689669 16.051984,5.79102847 C16.5203933,5.75516025 17.0248341,5.75516025 17.4932435,5.82689669 C18.4660936,5.97036955 19.4749752,6.22144707 20.3757624,6.65186568 C20.8441717,6.9029432 21.384644,7.22575715 21.8170218,7.58443932 C22.2493997,7.94312149 22.717809,8.37354009 23.0781238,8.8039587 C23.3663757,9.16264087 23.5105017,9.41371839 23.7987536,9.77240056 C24.0870055,10.2028192 24.4833518,10.669106 24.5193833,11.2071292 L21.1324236,11.2071292 C20.051479,11.2071292 18.8624399,10.9560517 17.8535583,11.4582068 C16.8086452,11.99623 15.979921,13.5026951 16.6645193,14.6146099 C16.9888027,15.1526331 17.1329286,15.5830517 17.7454639,15.8699975 C18.3579991,16.1569432 18.8624399,16.1928114 19.5470382,16.1928114 C21.0963921,16.1569432 22.645746,16.1928114 24.1950999,16.1928114 L26.6092095,16.1928114 C27.2938077,16.1928114 27.978406,16.2286796 28.6269727,15.9776021 C29.5998229,15.6547881 30.1402952,14.6146099 30.0322007,13.4668269" id="Shape"></path>
                                <g id="Group" transform="translate(38.460372, 5.770945)">
                                    <g id="Europeana-paths" transform="translate(0.000000, 6.727273)">
                                        <path d="M12.6710526,8.17642831 C12.6710526,8.90765361 12.3410773,9.30650377 11.6151316,9.30650377 L2.83778783,9.30650377 L2.83778783,10.1706791 C2.83778783,12.9626303 4.02569901,14.3586058 6.46751645,14.3586058 C7.98540296,14.3586058 9.37129934,14.0262307 10.4932155,13.4279554 C10.6252056,13.3614804 10.8231908,13.2950054 10.9551809,13.2950054 C11.2851562,13.2950054 11.5491365,13.4279554 11.7471217,13.6938556 C11.9451069,13.9597557 12.077097,14.2256558 12.077097,14.5580309 C12.077097,15.0233561 11.8791118,15.3557312 11.4171464,15.6216313 C9.96525493,16.4193317 8.24938322,16.8181818 6.33552632,16.8181818 C4.15768914,16.8181818 2.5078125,16.1534315 1.45189145,14.757456 C0.461965461,13.5609055 0,11.9655049 0,9.90477902 L0,6.9134028 C0,4.85267697 0.461965461,3.25727632 1.45189145,2.06072584 C2.57380757,0.731225296 4.15768914,1.77635684e-15 6.33552632,1.77635684e-15 C8.57935855,1.77635684e-15 10.1632401,0.664750269 11.2851562,2.06072584 C12.2090872,3.19080129 12.6710526,4.78620194 12.6710526,6.84692778 L12.6710526,8.17642831 L12.6710526,8.17642831 Z M9.89925987,6.51455264 C9.89925987,3.78907654 8.71134868,2.39310097 6.40152138,2.39310097 C4.02569901,2.39310097 2.77179276,3.78907654 2.77179276,6.51455264 L2.77179276,7.04635286 L9.89925987,7.04635286 L9.89925987,6.51455264 L9.89925987,6.51455264 Z" id="Shape"></path>
                                        <path d="M29.1488823,16.8181818 C28.5412022,16.8181818 27.9335221,16.6187567 27.393362,16.1534315 C27.0557619,15.8875314 26.8532019,15.4886813 26.5831218,14.9568811 C25.3677616,16.2199066 23.6797613,16.8181818 21.4516009,16.8181818 C17.8730403,16.8181818 16.05,14.823931 16.05,10.9019044 L16.05,1.46245059 C16.05,1.06360043 16.18504,0.731225296 16.4551201,0.465325189 C16.7252001,0.199425081 17.0628002,0.0664750269 17.4679202,0.0664750269 C17.8730403,0.0664750269 18.2106404,0.199425081 18.4807204,0.465325189 C18.7508005,0.731225296 18.8858405,1.06360043 18.8858405,1.46245059 L18.8858405,10.6360043 C18.8858405,11.7660798 19.0884005,12.6302551 19.4935206,13.1620553 C19.9661607,13.7603306 20.8439208,14.0927057 21.991761,14.0927057 C23.8823214,14.0927057 25.2327216,13.3614804 25.9754417,11.8990298 L25.9754417,1.39597557 C25.9754417,0.997125404 26.1104818,0.664750269 26.3805618,0.398850162 C26.6506419,0.132950054 26.9882419,-1.77635684e-15 27.393362,-1.77635684e-15 C27.7984821,-1.77635684e-15 28.1360821,0.132950054 28.4061622,0.398850162 C28.6762422,0.664750269 28.8112822,0.997125404 28.8112822,1.39597557 L28.8112822,12.4973051 C28.8112822,13.4944305 29.1488823,14.2256558 29.8240824,14.5580309 C30.2292025,14.757456 30.3642425,15.0898311 30.3642425,15.4886813 C30.5668025,16.4193317 30.0941625,16.8181818 29.1488823,16.8181818 L29.1488823,16.8181818 Z" id="Shape"></path>
                                        <path d="M41.2834257,2.99137621 C41.0907664,2.99137621 40.9623269,2.92490119 40.7696676,2.92490119 C40.5770083,2.92490119 40.384349,2.85842616 40.1916898,2.85842616 L39.7421514,2.85842616 C37.8155586,2.85842616 36.659603,3.85555156 36.2742844,5.78332734 L36.2742844,15.4222063 C36.2742844,15.8210564 36.1458449,16.1534315 35.8889658,16.4193317 C35.6320868,16.6852318 35.310988,16.8181818 34.9256694,16.8181818 C34.5403509,16.8181818 34.2192521,16.6852318 33.962373,16.4193317 C33.705494,16.1534315 33.5770545,15.8210564 33.5770545,15.4222063 L33.5770545,4.52030183 C33.5770545,3.52317643 33.2559557,2.79195113 32.6137581,2.459576 C32.2284395,2.26015092 32.1,1.92777578 32.1,1.52892562 C32.1,0.731225296 32.5495383,0.265900108 33.448615,0.265900108 L33.8981533,0.265900108 C34.9256694,0.531800216 35.6320868,1.19655049 36.0174054,2.26015092 C37.0449215,0.797700323 38.4577562,1.77635684e-15 40.3201293,1.77635684e-15 C41.1549861,1.77635684e-15 41.8614035,0.132950054 42.4393813,0.398850162 C42.8889197,0.664750269 43.0815789,0.997125404 43.0815789,1.52892562 C43.0815789,1.92777578 42.9531394,2.26015092 42.6962604,2.52605102 C42.4393813,2.79195113 42.1182825,2.92490119 41.7971837,2.92490119 C41.6045245,2.99137621 41.4760849,2.99137621 41.2834257,2.99137621 L41.2834257,2.99137621 Z" id="Shape"></path>
                                        <path d="M56.7088565,14.8160173 C55.5425194,16.1507937 53.8273177,16.8181818 51.4946433,16.8181818 C49.2305771,16.8181818 47.5153754,16.1507937 46.3490382,14.8160173 C45.3199172,13.6147186 44.7710526,12.012987 44.7710526,10.0775613 L44.7710526,6.74062049 C44.7710526,4.73845599 45.3199172,3.2034632 46.3490382,2.0021645 C47.5153754,0.667388167 49.2305771,1.77635684e-15 51.4946433,1.77635684e-15 C53.8273177,1.77635684e-15 55.5425194,0.667388167 56.7088565,2.0021645 C57.7379776,3.2034632 58.2868421,4.80519481 58.2868421,6.74062049 L58.2868421,10.0775613 C58.2868421,12.0797258 57.7379776,13.6147186 56.7088565,14.8160173 L56.7088565,14.8160173 Z M55.3366952,6.74062049 C55.3366952,4.004329 54.0331419,2.66955267 51.4946433,2.66955267 C48.9561448,2.66955267 47.7211996,4.004329 47.7211996,6.74062049 L47.7211996,10.0775613 C47.7211996,12.8138528 48.9561448,14.215368 51.4946433,14.215368 C54.0331419,14.215368 55.3366952,12.8138528 55.3366952,10.0775613 L55.3366952,6.74062049 L55.3366952,6.74062049 Z" id="Shape"></path>
                                        <path d="M68.3190977,16.3171091 C66.8146617,16.3171091 65.5153759,15.9301421 64.3528571,15.0917136 L64.3528571,20.5092518 C64.3528571,20.8962188 64.2160902,21.2186913 63.9425564,21.4766693 C63.6690226,21.7346474 63.3271053,21.8636364 62.9168045,21.8636364 C62.5065038,21.8636364 62.1645865,21.7346474 61.8910526,21.4766693 C61.6175188,21.2186913 61.4807519,20.8962188 61.4807519,20.5092518 L61.4807519,4.12764816 C61.4807519,3.09573612 61.1388346,2.4507911 60.5233835,2.12831858 C60.1130827,1.93483508 59.9763158,1.61236256 59.9763158,1.22539555 C59.9763158,0.451461518 60.455,-1.77635684e-15 61.4123684,-1.77635684e-15 C62.0278195,-1.77635684e-15 62.6432707,0.193483508 63.1903383,0.644945025 C63.3954887,0.838428533 63.6006391,1.09640654 63.8057895,1.35438455 C65.1734586,0.451461518 66.6095113,-1.77635684e-15 68.1823308,-1.77635684e-15 C72.2853383,-1.77635684e-15 74.3368421,2.12831858 74.3368421,6.38495575 L74.3368421,9.22271386 C74.3368421,13.9953071 72.2853383,16.3171091 68.3190977,16.3171091 L68.3190977,16.3171091 Z M71.3963534,6.25596675 C71.3963534,3.74068115 70.1654511,2.4507911 67.7036466,2.4507911 C66.5411278,2.4507911 65.378609,2.90225261 64.3528571,3.74068115 L64.3528571,12.447439 C65.378609,13.4148565 66.5411278,13.866318 67.8404135,13.866318 C70.2338346,13.866318 71.3963534,12.447439 71.3963534,9.60968088 L71.3963534,6.25596675 L71.3963534,6.25596675 Z" id="Shape"></path>
                                        <path d="M89.5421053,8.17642831 C89.5421053,8.90765361 89.2121299,9.30650377 88.4861842,9.30650377 L79.7088405,9.30650377 L79.7088405,10.1706791 C79.7088405,12.9626303 80.8967516,14.3586058 83.3385691,14.3586058 C84.8564556,14.3586058 86.242352,14.0262307 87.3642681,13.4279554 C87.4962582,13.3614804 87.6942434,13.2950054 87.8262336,13.2950054 C88.1562089,13.2950054 88.4201891,13.4279554 88.6181743,13.6938556 C88.8161595,13.9597557 88.9481497,14.2256558 88.9481497,14.5580309 C88.9481497,15.0233561 88.7501645,15.3557312 88.288199,15.6216313 C86.8363076,16.4193317 85.1204359,16.8181818 83.2065789,16.8181818 C81.0287418,16.8181818 79.3788651,16.1534315 78.3229441,14.757456 C77.3330181,13.5609055 76.8710526,11.9655049 76.8710526,9.90477902 L76.8710526,6.9134028 C76.8710526,4.85267697 77.3330181,3.25727632 78.3229441,2.06072584 C79.4448602,0.731225296 81.0287418,1.77635684e-15 83.2065789,1.77635684e-15 C85.4504112,1.77635684e-15 87.0342928,0.664750269 88.1562089,2.06072584 C89.0801398,3.19080129 89.5421053,4.78620194 89.5421053,6.84692778 L89.5421053,8.17642831 L89.5421053,8.17642831 Z M86.8363076,6.51455264 C86.8363076,3.78907654 85.6483964,2.39310097 83.3385691,2.39310097 C80.9627467,2.39310097 79.7088405,3.78907654 79.7088405,6.51455264 L79.7088405,7.04635286 L86.8363076,7.04635286 L86.8363076,6.51455264 L86.8363076,6.51455264 Z" id="Shape"></path>
                                        <path d="M104.234059,16.8181818 C103.587371,16.8181818 103.005351,16.6187567 102.617338,16.1534315 C102.358663,15.9540065 102.164656,15.6216313 101.97065,15.1563061 C101.000617,16.2863816 99.5132334,16.8181818 97.573168,16.8181818 C95.6977713,16.8181818 94.2750567,16.3528566 93.3696928,15.4886813 C92.5289977,14.6245059 92.0763158,13.4944305 92.0763158,12.0984549 L92.0763158,11.8325548 C92.0763158,10.4365792 92.5289977,9.30650377 93.4343616,8.44232842 C94.4690632,7.57815307 95.9564467,7.11282788 97.8318434,7.11282788 L101.453299,7.11282788 L101.453299,6.31512756 C101.453299,4.91915199 101.259292,3.98850162 100.80661,3.39022637 C100.353928,2.7254761 99.4485646,2.39310097 98.1551876,2.39310097 C96.9911483,2.39310097 95.8917779,2.65900108 94.9217452,3.19080129 C94.6630698,3.32375135 94.4690632,3.39022637 94.2750567,3.39022637 C93.9517124,3.39022637 93.6283682,3.25727632 93.4343616,2.99137621 C93.2403551,2.7254761 93.1110174,2.459576 93.1110174,2.12720086 C93.1110174,1.7283507 93.3050239,1.39597557 93.693037,1.13007546 C94.8570763,0.398850162 96.4091287,1.77635684e-15 98.3491942,1.77635684e-15 C100.483266,1.77635684e-15 102.035319,0.531800216 102.940682,1.66187567 C103.781377,2.65900108 104.169391,4.32087675 104.169391,6.51455264 L104.169391,12.5637801 C104.169391,13.5609055 104.492735,14.2921308 105.074754,14.6245059 C105.462768,14.890406 105.592105,15.1563061 105.592105,15.5551563 C105.592105,16.4193317 105.139423,16.8181818 104.234059,16.8181818 L104.234059,16.8181818 Z M101.38863,9.30650377 L98.0905188,9.30650377 C95.8917779,9.30650377 94.7277386,10.1706791 94.7277386,11.8325548 L94.7277386,12.0984549 C94.7277386,13.7603306 95.827109,14.6245059 97.9611811,14.6245059 C100.224591,14.6245059 101.38863,13.4944305 101.38863,11.2342796 L101.38863,9.30650377 L101.38863,9.30650377 Z" id="Shape"></path>
                                        <path d="M121.95,16.4177489 C121.681579,16.6847042 121.346053,16.8181818 120.943421,16.8181818 C120.540789,16.8181818 120.205263,16.6847042 119.936842,16.4177489 C119.668421,16.1507937 119.534211,15.8170996 119.534211,15.4166667 L119.534211,6.20670996 C119.534211,5.07215007 119.332895,4.20454545 118.930263,3.67063492 C118.460526,3.00324675 117.588158,2.66955267 116.447368,2.66955267 C114.568421,2.66955267 113.293421,3.33694084 112.488158,4.73845599 L112.488158,15.4166667 C112.488158,15.8170996 112.353947,16.1507937 112.085526,16.4177489 C111.817105,16.6847042 111.481579,16.8181818 111.078947,16.8181818 C110.676316,16.8181818 110.340789,16.6847042 110.072368,16.4177489 C109.803947,16.1507937 109.669737,15.8170996 109.669737,15.4166667 L109.669737,4.47150072 C109.669737,3.47041847 109.334211,2.73629149 108.663158,2.4025974 C108.260526,2.20238095 108.126316,1.86868687 108.126316,1.46825397 C108.126316,0.667388167 108.596053,0.20021645 109.535526,0.20021645 C110.139474,0.20021645 110.743421,0.4004329 111.280263,0.867604618 C111.615789,1.2012987 111.817105,1.53499278 112.018421,1.93542569 C113.226316,0.600649351 114.903947,0 117.118421,0 C120.675,0 122.486842,2.0021645 122.486842,5.93975469 L122.486842,15.4166667 C122.352632,15.8170996 122.218421,16.1507937 121.95,16.4177489 L121.95,16.4177489 Z" id="Shape"></path>
                                        <path d="M136.334059,16.8181818 C135.687371,16.8181818 135.105351,16.6187567 134.717338,16.1534315 C134.458663,15.9540065 134.264656,15.6216313 134.07065,15.1563061 C133.100617,16.2863816 131.613233,16.8181818 129.673168,16.8181818 C127.797771,16.8181818 126.375057,16.3528566 125.469693,15.4886813 C124.628998,14.6245059 124.176316,13.4944305 124.176316,12.0984549 L124.176316,11.8325548 C124.176316,10.4365792 124.628998,9.30650377 125.534362,8.44232842 C126.569063,7.57815307 128.056447,7.11282788 129.931843,7.11282788 L133.553299,7.11282788 L133.553299,6.31512756 C133.553299,4.91915199 133.359292,3.98850162 132.90661,3.39022637 C132.453928,2.7254761 131.548565,2.39310097 130.255188,2.39310097 C129.091148,2.39310097 127.991778,2.65900108 127.021745,3.19080129 C126.76307,3.32375135 126.569063,3.39022637 126.375057,3.39022637 C126.051712,3.39022637 125.728368,3.25727632 125.534362,2.99137621 C125.340355,2.7254761 125.211017,2.459576 125.211017,2.12720086 C125.211017,1.7283507 125.405024,1.39597557 125.793037,1.13007546 C126.957076,0.398850162 128.509129,1.77635684e-15 130.449194,1.77635684e-15 C132.583266,1.77635684e-15 134.135319,0.531800216 135.040682,1.66187567 C135.881377,2.65900108 136.269391,4.32087675 136.269391,6.51455264 L136.269391,12.5637801 C136.269391,13.5609055 136.592735,14.2921308 137.174754,14.6245059 C137.562768,14.890406 137.692105,15.1563061 137.692105,15.5551563 C137.692105,16.4193317 137.239423,16.8181818 136.334059,16.8181818 L136.334059,16.8181818 Z M133.553299,9.30650377 L130.255188,9.30650377 C128.056447,9.30650377 126.892407,10.1706791 126.892407,11.8325548 L126.892407,12.0984549 C126.892407,13.7603306 127.991778,14.6245059 130.12585,14.6245059 C132.38926,14.6245059 133.553299,13.4944305 133.553299,11.2342796 L133.553299,9.30650377 L133.553299,9.30650377 Z" id="Shape"></path>
                                    </g>
                                </g>
                            </g>
                        </g>
                    </g>
                </g>
            </g>
        </g>
    </g>
</svg>