<svg width="30" height="30" viewBox="0 0 30 30" fill="none" xmlns="http://www.w3.org/2000/svg">
<path d="M25.3125 18.75H23.4375C23.1889 18.75 22.9504 18.8488 22.7746 19.0246C22.5988 19.2004 22.5 19.4389 22.5 19.6875V26.25H3.75V7.5H12.1875C12.4361 7.5 12.6746 7.40123 12.8504 7.22541C13.0262 7.0496 13.125 6.81114 13.125 6.5625V4.6875C13.125 4.43886 13.0262 4.2004 12.8504 4.02459C12.6746 3.84877 12.4361 3.75 12.1875 3.75H2.8125C2.06658 3.75 1.35121 4.04632 0.823762 4.57376C0.296316 5.10121 0 5.81658 0 6.5625L0 27.1875C0 27.9334 0.296316 28.6488 0.823762 29.1762C1.35121 29.7037 2.06658 30 2.8125 30H23.4375C24.1834 30 24.8988 29.7037 25.4262 29.1762C25.9537 28.6488 26.25 27.9334 26.25 27.1875V19.6875C26.25 19.4389 26.1512 19.2004 25.9754 19.0246C25.7996 18.8488 25.5611 18.75 25.3125 18.75ZM28.5938 0H21.0938C19.8416 0 19.2158 1.51816 20.0977 2.40234L22.1912 4.4959L7.91016 18.7717C7.77906 18.9023 7.67504 19.0576 7.60406 19.2285C7.53308 19.3994 7.49655 19.5827 7.49655 19.7678C7.49655 19.9529 7.53308 20.1361 7.60406 20.307C7.67504 20.478 7.77906 20.6332 7.91016 20.7639L9.23848 22.0898C9.36912 22.2209 9.52436 22.325 9.69529 22.3959C9.86623 22.4669 10.0495 22.5035 10.2346 22.5035C10.4197 22.5035 10.6029 22.4669 10.7738 22.3959C10.9448 22.325 11.1 22.2209 11.2307 22.0898L25.5047 7.81172L27.5977 9.90234C28.4766 10.7812 30 10.166 30 8.90625V1.40625C30 1.03329 29.8518 0.675604 29.5881 0.411881C29.3244 0.148158 28.9667 0 28.5938 0V0Z" fill="#787878"/>
</svg>
