<svg width="30" height="30" xmlns="http://www.w3.org/2000/svg" xmlns:svg="http://www.w3.org/2000/svg">
 <title>filter</title>

 <desc>Created with Sketch.</desc>
 <g>
  <title>Layer 1</title>
  <g stroke="null" id="svg_1" fill-rule="evenodd" fill="none">
   <path stroke="#4A69CA" stroke-width="2" id="svg_2" fill-rule="nonzero" d="m7.27117,23.61874c0.31561,-1.22622 1.42874,-2.13229 2.75349,-2.13229c1.57018,0 2.84306,1.27288 2.84306,2.84306c0,1.57018 -1.27288,2.84306 -2.84306,2.84306c-1.32475,0 -2.43788,-0.90607 -2.75349,-2.13229l-5.06492,0c-0.39254,0 -0.71076,-0.31822 -0.71076,-0.71076c0,-0.39254 0.31822,-0.71076 0.71076,-0.71076l5.06492,0zm7.10764,-9.9507c0.31561,-1.22622 1.42874,-2.13229 2.75349,-2.13229c1.57018,0 2.84306,1.27288 2.84306,2.84306c0,1.57018 -1.27288,2.84306 -2.84306,2.84306c-1.32475,0 -2.43788,-0.90607 -2.75349,-2.13229l-12.17256,0c-0.39254,0 -0.71076,-0.31822 -0.71076,-0.71076c0,-0.39254 0.31822,-0.71076 0.71076,-0.71076l12.17256,0zm-5.68611,-8.52917c0.31561,-1.22622 1.42874,-2.13229 2.75349,-2.13229c1.57018,0 2.84306,1.27288 2.84306,2.84306c0,1.57018 -1.27288,2.84306 -2.84306,2.84306c-1.32475,0 -2.43788,-0.90607 -2.75349,-2.13229l-6.48645,0c-0.39254,0 -0.71076,-0.31822 -0.71076,-0.71076c0,-0.39254 0.31822,-0.71076 0.71076,-0.71076l6.48645,0zm9.15036,1.42153c-0.39254,0 -0.71076,-0.31822 -0.71076,-0.71076c0,-0.39254 0.31822,-0.71076 0.71076,-0.71076l9.9507,0c0.39254,0 0.71076,0.31822 0.71076,0.71076c0,0.39254 -0.31822,0.71076 -0.71076,0.71076l-9.9507,0zm5.68611,8.52917c-0.39254,0 -0.71076,-0.31822 -0.71076,-0.71076c0,-0.39254 0.31822,-0.71076 0.71076,-0.71076l4.26458,0c0.39254,0 0.71076,0.31822 0.71076,0.71076c0,0.39254 -0.31822,0.71076 -0.71076,0.71076l-4.26458,0zm-7.10764,9.9507c-0.39254,0 -0.71076,-0.31822 -0.71076,-0.71076c0,-0.39254 0.31822,-0.71076 0.71076,-0.71076l11.37222,0c0.39254,0 0.71076,0.31822 0.71076,0.71076c0,0.39254 -0.31822,0.71076 -0.71076,0.71076l-11.37222,0zm-4.97535,-17.7691c0.78508,0 1.42153,-0.63645 1.42153,-1.42153c0,-0.78508 -0.63645,-1.42153 -1.42153,-1.42153c-0.78508,0 -1.42153,0.63645 -1.42153,1.42153c0,0.78508 0.63645,1.42153 1.42153,1.42153zm5.68611,8.52917c0.78508,0 1.42153,-0.63645 1.42153,-1.42153c0,-0.78508 -0.63645,-1.42153 -1.42153,-1.42153c-0.78508,0 -1.42153,0.63645 -1.42153,1.42153c0,0.78508 0.63645,1.42153 1.42153,1.42153zm-7.10764,9.9507c0.78508,0 1.42153,-0.63645 1.42153,-1.42153c0,-0.78508 -0.63645,-1.42153 -1.42153,-1.42153c-0.78508,0 -1.42153,0.63645 -1.42153,1.42153c0,0.78508 0.63645,1.42153 1.42153,1.42153z"/>
  </g>
 </g>
</svg>
