<?xml version="1.0" encoding="UTF-8"?>
<!DOCTYPE svg  PUBLIC '-//W3C//DTD SVG 1.1//EN'  'http://www.w3.org/Graphics/SVG/1.1/DTD/svg11.dtd'>
<svg enable-background="new 0 0 1000 1000" version="1.1" viewBox="0 0 1000 1000" xml:space="preserve" xmlns="http://www.w3.org/2000/svg">
<metadata> Svg Vector Icons : http://www.onlinewebfonts.com/icon </metadata>
<g transform="matrix(1 0 0 -1 0 1920)"><path d="m783.6 1530.1c-25.7 0-50.3 5-73.7 15-23.5 10-43.7 23.5-60.7 40.5s-30.5 37.3-40.5 60.7c-10 23.5-15 48.1-15 73.7 0 20.6 3.2 40.6 9.5 59.9 6.4 19.3 15.4 36.8 27.2 52.3 11.7 15.6 25.4 29.2 41 41 15.6 11.7 33 20.8 52.3 27.2s39.3 9.5 59.9 9.5c25.7 0 50.3-5 73.7-15 23.5-10 43.7-23.5 60.7-40.5s30.5-37.3 40.5-60.7c10-23.5 15-48.1 15-73.7s-5-50.3-15-73.7c-10-23.5-23.5-43.7-40.5-60.7s-37.3-30.5-60.7-40.5-48-15-73.7-15zm-23.4 88.6c1.5-1.8 3.5-2.6 5.8-2.6s4.2 0.9 5.8 2.6l123.4 123.4c1.5 1.5 2.3 3.5 2.3 5.8s-0.8 4.3-2.3 6.1l-45.8 45.8c-1.5 1.5-3.5 2.3-5.8 2.3s-4.2-0.8-5.8-2.3l-72.1-72.1-27.7 28c-1.5 1.5-3.5 2.3-5.8 2.3s-4.3-0.8-6.1-2.3l-45.8-45.8c-1.5-1.8-2.3-3.7-2.3-5.9s0.8-4.2 2.3-5.9l79.9-79.4zm-700.8 23.7c-9 0-16.7 3.2-23.2 9.7s-9.7 14.2-9.7 23.2v44.8h483.9c0-26.1 3.8-52 11.5-77.7h-462.5zm230.4-712.4v329.2l-230.4 362.1h469.8c14-36.2 34.8-67.9 62.2-95.1l-169.9-267v-197.5l-131.7-131.7z"/></g>
</svg>
