<svg xmlns="http://www.w3.org/2000/svg" xmlns:xlink="http://www.w3.org/1999/xlink" viewBox="0 0 30 30" version="1.1" x="0px" y="0px"><title>filter</title><desc>Created with Sketch.</desc><g stroke="none" stroke-width="1" fill="none" fill-rule="evenodd"><path d="M9.56300874,21 C9.78503014,20.1373864 10.5680803,19.5 11.5,19.5 C12.6045695,19.5 13.5,20.3954305 13.5,21.5 C13.5,22.6045695 12.6045695,23.5 11.5,23.5 C10.5680803,23.5 9.78503014,22.8626136 9.56300874,22 L6,22 C5.72385763,22 5.5,21.7761424 5.5,21.5 C5.5,21.2238576 5.72385763,21 6,21 L9.56300874,21 Z M14.5630087,14 C14.7850301,13.1373864 15.5680803,12.5 16.5,12.5 C17.6045695,12.5 18.5,13.3954305 18.5,14.5 C18.5,15.6045695 17.6045695,16.5 16.5,16.5 C15.5680803,16.5 14.7850301,15.8626136 14.5630087,15 L6,15 C5.72385763,15 5.5,14.7761424 5.5,14.5 C5.5,14.2238576 5.72385763,14 6,14 L14.5630087,14 Z M10.5630087,8 C10.7850301,7.13738639 11.5680803,6.5 12.5,6.5 C13.6045695,6.5 14.5,7.3954305 14.5,8.5 C14.5,9.6045695 13.6045695,10.5 12.5,10.5 C11.5680803,10.5 10.7850301,9.86261361 10.5630087,9 L6,9 C5.72385763,9 5.5,8.77614237 5.5,8.5 C5.5,8.22385763 5.72385763,8 6,8 L10.5630087,8 Z M17,9 C16.7238576,9 16.5,8.77614237 16.5,8.5 C16.5,8.22385763 16.7238576,8 17,8 L24,8 C24.2761424,8 24.5,8.22385763 24.5,8.5 C24.5,8.77614237 24.2761424,9 24,9 L17,9 Z M21,15 C20.7238576,15 20.5,14.7761424 20.5,14.5 C20.5,14.2238576 20.7238576,14 21,14 L24,14 C24.2761424,14 24.5,14.2238576 24.5,14.5 C24.5,14.7761424 24.2761424,15 24,15 L21,15 Z M16,22 C15.7238576,22 15.5,21.7761424 15.5,21.5 C15.5,21.2238576 15.7238576,21 16,21 L24,21 C24.2761424,21 24.5,21.2238576 24.5,21.5 C24.5,21.7761424 24.2761424,22 24,22 L16,22 Z M12.5,9.5 C13.0522847,9.5 13.5,9.05228475 13.5,8.5 C13.5,7.94771525 13.0522847,7.5 12.5,7.5 C11.9477153,7.5 11.5,7.94771525 11.5,8.5 C11.5,9.05228475 11.9477153,9.5 12.5,9.5 Z M16.5,15.5 C17.0522847,15.5 17.5,15.0522847 17.5,14.5 C17.5,13.9477153 17.0522847,13.5 16.5,13.5 C15.9477153,13.5 15.5,13.9477153 15.5,14.5 C15.5,15.0522847 15.9477153,15.5 16.5,15.5 Z M11.5,22.5 C12.0522847,22.5 12.5,22.0522847 12.5,21.5 C12.5,20.9477153 12.0522847,20.5 11.5,20.5 C10.9477153,20.5 10.5,20.9477153 10.5,21.5 C10.5,22.0522847 10.9477153,22.5 11.5,22.5 Z" fill="#000000" fill-rule="nonzero"/></g></svg>
