<svg xmlns="http://www.w3.org/2000/svg" xmlns:xlink="http://www.w3.org/1999/xlink" version="1.1" x="0px" y="0px" viewBox="0 0 20 25" enable-background="new 0 0 20 20" xml:space="preserve"><g><path fill="#000000" d="M10,0C4.5,0,0,4.5,0,10c0,5.5,4.5,10,10,10c5.5,0,10-4.5,10-10C20,4.5,15.5,0,10,0z M10,18   c-4.4,0-8-3.6-8-8c0-4.4,3.6-8,8-8c4.4,0,8,3.6,8,8C18,14.4,14.4,18,10,18z"/><path fill="#000000" d="M10,5C8.3,5,7,6.3,7,8h2c0-0.6,0.4-1,1-1c0.6,0,1,0.4,1,1c0,0.4-0.2,0.7-0.5,0.9C9.6,9.4,9,10.4,9,11.5V12   h2v-0.5c0-0.4,0.2-0.7,0.4-0.8c1-0.5,1.6-1.5,1.6-2.6C13,6.3,11.7,5,10,5z"/><rect x="9" y="13" fill="#000000" width="2" height="2"/></g></svg>
