<svg width="15" height="15" viewBox="0 0 15 15" fill="none" xmlns="http://www.w3.org/2000/svg">
<path d="M14.7656 7.5C14.7656 11.5136 11.5124 14.7656 7.5 14.7656C3.48759 14.7656 0.234375 11.5136 0.234375 7.5C0.234375 3.48876 3.48759 0.234375 7.5 0.234375C11.5124 0.234375 14.7656 3.48876 14.7656 7.5ZM7.69497 2.63672C6.09838 2.63672 5.08008 3.30929 4.28045 4.50463C4.17686 4.65949 4.21151 4.86835 4.35999 4.98094L5.37656 5.75174C5.52905 5.86737 5.74632 5.83986 5.86479 5.68957C6.38815 5.02576 6.74701 4.64083 7.54359 4.64083C8.1421 4.64083 8.8824 5.02603 8.8824 5.6064C8.8824 6.04515 8.52021 6.27047 7.92926 6.60179C7.24008 6.98813 6.32812 7.46897 6.32812 8.67188V8.78906C6.32812 8.98321 6.48554 9.14062 6.67969 9.14062H8.32031C8.51446 9.14062 8.67188 8.98321 8.67188 8.78906V8.75001C8.67188 7.91616 11.109 7.88145 11.109 5.625C11.109 3.92572 9.34632 2.63672 7.69497 2.63672ZM7.5 9.90234C6.75688 9.90234 6.15234 10.5069 6.15234 11.25C6.15234 11.9931 6.75688 12.5977 7.5 12.5977C8.24312 12.5977 8.84766 11.9931 8.84766 11.25C8.84766 10.5069 8.24312 9.90234 7.5 9.90234Z" fill="#B0B0B0"/>
</svg>
