<svg height="94.666664" viewBox="0 0 293.33334 94.666664" width="293.33334" xmlns="http://www.w3.org/2000/svg" xmlns:xlink="http://www.w3.org/1999/xlink"><clipPath id="a"><path d="m0 71h220v-71h-220z"/></clipPath><g clip-path="url(#a)" transform="matrix(1.3333333 0 0 -1.3333333 0 94.666667)"><path d="m0 0c0-3.304-.646-5.315-2.119-6.716-1.149-1.042-2.801-1.652-4.489-1.652-2.155 0-3.951.718-5.603 2.262l2.801 3.412c.611-.898 1.401-1.365 2.335-1.365.97 0 1.76.539 2.083 1.437.251.683.324 1.365.324 3.376v15.408h4.668z" transform="translate(91.2207 45.798)"/><path d="m0 0c0-2.442 1.975-4.382 4.381-4.382 2.371 0 4.347 1.976 4.347 4.31 0 2.478-1.904 4.418-4.347 4.418-2.442 0-4.381-1.94-4.381-4.346m12.606 7.758v-15.552h-4.346v2.011c-1.4-1.759-2.945-2.513-5.1-2.513-4.381 0-7.65 3.555-7.65 8.296 0 4.669 3.304 8.261 7.578 8.261 2.12 0 3.664-.755 5.172-2.514v2.011z" transform="translate(99.7319 45.798)"/><path d="m0 0v-1.796c1.437 1.652 2.838 2.299 4.741 2.299 2.155 0 3.664-.862 4.848-2.837 1.222 1.903 2.91 2.837 5.101 2.837 1.868 0 3.52-.862 4.345-2.227.575-.934.826-2.047.826-3.771v-10.057h-4.345v8.512c0 1.257-.072 1.832-.359 2.479-.395.862-1.185 1.364-2.191 1.364-1.113 0-2.083-.574-2.55-1.544-.323-.682-.467-1.472-.467-2.837v-7.974h-4.346v8.261c0 1.329-.072 2.011-.323 2.586-.359.898-1.329 1.508-2.335 1.508-.97 0-2.011-.574-2.442-1.4-.359-.647-.503-1.473-.503-2.981v-7.974h-4.346v15.552z" transform="translate(120.8472 53.5558)"/><path d="m0 0c-.467 2.011-1.759 3.089-3.699 3.089-1.939 0-3.268-1.15-3.664-3.089zm-7.506-2.766c.108-2.693 1.436-4.166 3.807-4.166 1.652 0 2.694.611 3.699 2.083l4.023-.646c-1.329-3.197-3.951-4.849-7.614-4.849-5.064 0-8.369 3.268-8.369 8.261 0 5.028 3.197 8.296 8.153 8.296 4.957 0 7.974-3.196 7.974-8.404v-.575z" transform="translate(156.0059 47.8454)"/><path d="m0 0v-1.939c1.365 1.759 2.766 2.442 4.885 2.442 1.831 0 3.483-.683 4.525-1.868.898-1.041 1.221-2.191 1.221-4.31v-9.877h-4.346v8.62c0 1.293-.108 1.975-.431 2.515-.431.754-1.4 1.22-2.55 1.22-2.226 0-3.304-1.364-3.304-4.309v-8.046h-4.346v15.552z" transform="translate(167.8198 53.5558)"/><path d="m0 0c0-2.442 1.975-4.382 4.381-4.382 2.37 0 4.346 1.976 4.346 4.31 0 2.478-1.903 4.418-4.346 4.418-2.442 0-4.381-1.94-4.381-4.346m12.606 19.107v-26.901h-4.346v2.011c-1.401-1.759-2.945-2.513-5.1-2.513-4.382 0-7.65 3.555-7.65 8.296 0 4.669 3.304 8.261 7.578 8.261 2.12 0 3.663-.755 5.172-2.514v13.36z" transform="translate(186.2788 45.798)"/><path d="m0 0c0-2.478 1.94-4.417 4.418-4.417 2.406 0 4.382 1.939 4.382 4.345 0 2.443-1.976 4.382-4.418 4.382-2.37 0-4.382-1.975-4.382-4.31m13.289-.036c0-4.921-3.663-8.296-8.979-8.296-5.207 0-8.799 3.412-8.799 8.404 0 4.741 3.735 8.153 8.943 8.153s8.835-3.376 8.835-8.261" transform="translate(206.7109 45.8337)"/><path d="m0 0h2.692l5.507-13.19 5.717 13.19h2.723l3.358-20.542h-3.963l-1.815 12.434-5.537-12.706h-1.089l-5.354 12.706-2.028-12.434h-3.962z" transform="translate(118.4297 29.5041)"/><path d="m0 0c0-1.967.908-2.996 2.693-2.996 1.754 0 2.662 1.029 2.662 2.996v7.412h3.66v-8.017c0-3.54-2.268-5.507-6.322-5.507-4.085 0-6.353 1.967-6.353 5.507v8.017h3.66z" transform="translate(145.1118 14.6501)"/><path d="m0 0c-.787.605-1.453.877-2.179.877-.817 0-1.422-.483-1.422-1.119 0-.605.394-.877 2.088-1.452 1.483-.514 1.936-.726 2.542-1.18.968-.666 1.451-1.664 1.451-2.904 0-2.753-2.268-4.69-5.505-4.69-1.907 0-3.691.787-4.962 2.179l1.906 2.238c1.059-1.058 2.027-1.543 3.116-1.543.938 0 1.664.636 1.664 1.453 0 .756-.364 1.029-2.027 1.633-1.633.605-1.936.727-2.511 1.15-.877.605-1.301 1.513-1.301 2.723 0 2.45 1.936 4.175 4.69 4.175 1.633 0 2.994-.454 4.265-1.392z" transform="translate(164.8062 19.006)"/><path d="m173.488 8.962h-3.66v13.1h3.66zm.393 18.636c0-1.21-.998-2.209-2.208-2.209-1.24 0-2.209.999-2.209 2.24 0 1.179.999 2.177 2.209 2.177 1.24 0 2.208-.968 2.208-2.208"/><path d="m0 0c-1.059.817-1.876 1.119-2.965 1.119-2.178 0-3.782-1.573-3.782-3.691 0-2.117 1.604-3.66 3.782-3.66 1.12 0 1.966.302 2.965 1.089v-3.57c-1.18-.605-2.148-.817-3.358-.817-4.055 0-7.17 2.995-7.17 6.898 0 3.993 3.115 7.049 7.2 7.049 1.301 0 2.269-.243 3.328-.787z" transform="translate(186.7686 18.0685)"/><path d="m0 0-30.724-17.738v-35.478l30.724-17.739 30.725 17.739v35.478zm0-5.125 26.287-15.176v-30.353l-26.287-15.176-26.286 15.176v30.353z" transform="translate(30.7241 70.9772)"/><path d="m0 0h-4.313l10.312 20.716h4.313z" transform="translate(23.6104 25.1423)"/><path d="m0 0h-4.313l10.312 20.716h4.313z" transform="translate(40.0581 25.1423)"/><path d="m0 0h-4.313l5.156 10.358h4.313z" transform="translate(15.3921 25.1423)"/><path d="m0 0h-4.313l5.156 10.358h4.313z" transform="translate(36.9927 35.4982)"/></g></svg>