<svg width="280" height="42" viewBox="0 0 280 42" fill="none" xmlns="http://www.w3.org/2000/svg">
  <path fill-rule="evenodd" clip-rule="evenodd" d="M89.69 21.3293C89.69 28.0657 84.2652 33.5266 77.5734 33.5266C70.8816 33.5266 65.4568 28.0657 65.4568 21.3293C65.4568 14.5929 70.8816 9.13202 77.5734 9.13202C84.2652 9.13202 89.69 14.5929 89.69 21.3293ZM82.4199 21.3293C82.4199 24.0238 80.25 26.2082 77.5733 26.2082C74.8965 26.2082 72.7266 24.0238 72.7266 21.3293C72.7266 18.6347 74.8965 16.4504 77.5733 16.4504C80.25 16.4504 82.4199 18.6347 82.4199 21.3293ZM99.8984 41.5588H91.5855V9.54085H99.8382V13.6037H100.019C100.922 11.2388 103.091 9.23765 106.525 9.23765C111.103 9.23765 115.56 12.7548 115.56 21.1837C115.56 29.2488 111.404 33.1298 106.464 33.1298C103.212 33.1298 100.983 31.3712 100.019 29.0063H99.8984V41.5588ZM103.392 15.6655C101.103 15.6655 99.7177 17.7272 99.7177 21.1837C99.7177 24.5796 101.103 26.702 103.392 26.702C105.681 26.702 107.007 24.6402 107.007 21.1837C107.007 17.7272 105.681 15.6655 103.392 15.6655ZM140.18 25.3072C139.396 30.1584 135.27 33.2511 128.855 33.2511C121.445 33.2511 116.927 28.7789 116.927 21.2444C116.927 14.0282 121.506 9.23765 128.674 9.23765C135.662 9.23765 140.18 13.7705 140.18 21.1837V23.1242H125.12V23.488C125.12 25.7317 126.566 27.369 129.035 27.369C130.737 27.369 132.108 26.6262 132.589 25.3072H140.18ZM128.855 15.1197C126.822 15.1197 125.165 16.4993 125.12 18.5156H132.529C132.484 16.5144 130.918 15.1197 128.855 15.1197ZM150.612 19.7284C150.627 17.424 151.923 16.0293 153.986 16.0293C156.079 16.0293 157.314 17.424 157.299 19.7284V32.8266H165.612V17.9698C165.627 12.9064 162.449 9.23765 157.54 9.23765C154.136 9.23765 151.441 11.0265 150.432 13.9676H150.191V9.54085H142.299V32.8266H150.612V19.7284ZM182.193 9.54085H190.927L183.157 32.8266H173.518L165.748 9.54085H174.482L178.217 24.9434H178.458L182.193 9.54085ZM202.399 33.2511C208.815 33.2511 212.941 30.1584 213.724 25.3072H206.134C205.652 26.6262 204.282 27.369 202.58 27.369C200.11 27.369 198.665 25.7317 198.665 23.488V23.1242H213.724V21.1837C213.724 13.7705 209.206 9.23765 202.219 9.23765C195.05 9.23765 190.472 14.0282 190.472 21.2444C190.472 28.7789 194.99 33.2511 202.399 33.2511ZM198.665 18.5156C198.71 16.4993 200.366 15.1197 202.399 15.1197C204.463 15.1197 206.029 16.5144 206.074 18.5156H198.665ZM224.157 32.8266H215.844V9.54085H223.916V13.9676H224.157C225 10.693 226.928 9.23765 229.398 9.23765C230.121 9.23765 230.844 9.35893 231.506 9.55601V16.6964C230.678 16.4083 229.292 16.2719 228.434 16.2719C225.979 16.2719 224.157 18.0304 224.157 20.6986V32.8266ZM254.104 17.1208C253.893 12.1938 249.827 9.23765 243.14 9.23765C236.529 9.23765 232.448 11.9664 232.478 16.8176C232.448 20.4864 234.812 22.8362 239.526 23.67L243.622 24.3976C245.429 24.7312 246.242 25.2163 246.272 26.0956C246.242 27.0658 245.143 27.6116 243.622 27.6116C241.74 27.6116 240.414 26.7929 240.188 25.3072H231.936C232.387 30.0826 236.484 33.2511 243.562 33.2511C249.962 33.2511 254.676 30.113 254.706 25.1253C254.676 21.684 252.387 19.6829 247.658 18.8188L242.959 17.9698C241.197 17.6514 240.7 17.0147 240.731 16.3325C240.7 15.3623 241.89 14.8165 243.321 14.8165C244.962 14.8165 246.333 15.6958 246.453 17.1208H254.104ZM279.027 25.3072C278.244 30.1584 274.118 33.2511 267.703 33.2511C260.293 33.2511 255.775 28.7789 255.775 21.2444C255.775 14.0282 260.354 9.23765 267.522 9.23765C274.51 9.23765 279.027 13.7705 279.027 21.1837V23.1242H263.968V23.488C263.968 25.7317 265.414 27.369 267.883 27.369C269.585 27.369 270.956 26.6262 271.437 25.3072H279.027ZM267.703 15.1197C265.67 15.1197 264.013 16.4993 263.968 18.5156H271.377C271.332 16.5144 269.766 15.1197 267.703 15.1197Z" fill="#23282D" />
  <g clip-path="url(#clip0)">
    <path d="M37.5589 18.795C42.7146 18.795 46.8942 14.5876 46.8942 9.3975C46.8942 4.2074 42.7146 0 37.5589 0C32.4031 0 28.2236 4.2074 28.2236 9.3975C28.2236 14.5876 32.4031 18.795 37.5589 18.795Z" fill="#23282D" />
    <path d="M0.999969 9.3975C0.999969 14.5687 5.17217 18.795 10.3353 18.795V0C5.17217 0 0.999969 4.2 0.999969 9.3975Z" fill="#23282D" />
    <path d="M14.6118 9.3975C14.6118 14.5687 18.784 18.795 23.9471 18.795V0C18.8101 0 14.6118 4.2 14.6118 9.3975Z" fill="#23282D" />
    <path d="M37.5589 41.9212C42.7146 41.9212 46.8942 37.7138 46.8942 32.5238C46.8942 27.3337 42.7146 23.1263 37.5589 23.1263C32.4031 23.1263 28.2236 27.3337 28.2236 32.5238C28.2236 37.7138 32.4031 41.9212 37.5589 41.9212Z" fill="#23282D" />
    <path d="M14.6118 32.5238C14.6118 37.695 18.784 41.9213 23.9471 41.9213V23.1525C18.8101 23.1525 14.6118 27.3525 14.6118 32.5238Z" fill="#23282D" />
    <path d="M0.999969 32.6025C0.999969 37.8 5.17217 42 10.3353 42V23.2312C5.17217 23.2312 0.999969 27.4312 0.999969 32.6025Z" fill="#23282D" />
  </g>
  <defs>
    <clipPath id="clip0">
      <rect width="45.8942" height="42" fill="white" transform="translate(0.999969)" />
    </clipPath>
  </defs>
</svg>
