
<svg class="MVLogotype" viewBox="0 0 153.9 50.9" xmlns="http://www.w3.org/2000/svg" fill="#fff" color="#fff">
	<path d="M20.1 22.4V7.9l-5.7 14.6h-4L4.7 8.1v14.4H0v-22h6.4l6 14.9 5.7-14.9h6.7v22H20.1z"/>
	<path d="M28.7 14.5v-14h4.9v13.6c0 2.7 1.5 4 3.8 4s3.8-1.3 3.8-4V0.5h4.9v14c0 5.5-3.9 8.4-8.7 8.4S28.7 20 28.7 14.5z"/>
	<path d="m61.1 7.1c-0.2-1-1-2.8-3.7-2.8-1.8 0-3 1.1-3 2.4 0 1.1 0.7 1.8 2.2 2.1l2.9 0.6c4.2 0.8 6.4 3.5 6.4 6.6 0 3.4-2.9 6.9-8.1 6.9-6.1 0-8.7-3.9-9-7l4.5-1.1c0.2 2 1.6 3.8 4.6 3.8 1.9 0 3.1-0.9 3.1-2.3 0-1.1-0.9-1.9-2.4-2.2l-3-0.6c-3.7-0.7-6-3.2-6-6.4 0-4.2 3.7-7.1 7.9-7.1 5.5 0 7.6 3.3 8 5.9l-4.4 1.2z"/>
	<path d="m69.3 22.4v-22h13.9v4.6h-9v4.2h8.2v4.3h-8.2v4.2h9.1v4.7h-14z"/>
	<path d="M87 14.5v-14h4.9v13.6c0 2.7 1.5 4 3.8 4s3.8-1.3 3.8-4V0.5h4.9v14c0 5.5-3.9 8.4-8.7 8.4S87 20 87 14.5z"/>
	<path d="M128.8 22.4V7.9l-5.7 14.6h-4l-5.7-14.4v14.4h-4.7v-22h6.4l6 14.9 5.7-14.9h6.7v22H128.8z"/>
	<path d="m149.1 7.1c-0.2-1-1-2.8-3.7-2.8-1.8 0-3 1.1-3 2.4 0 1.1 0.7 1.8 2.2 2.1l2.9 0.6c4.2 0.8 6.4 3.5 6.4 6.6 0 3.4-2.9 6.9-8.1 6.9-6.1 0-8.7-3.9-9-7l4.5-1.1c0.2 2 1.6 3.8 4.6 3.8 1.9 0 3.1-0.9 3.1-2.3 0-1.1-0.9-1.9-2.4-2.2l-3-0.6c-3.7-0.7-6-3.2-6-6.4 0-4.2 3.7-7.1 7.9-7.1 5.5 0 7.6 3.3 8 5.9l-4.4 1.2z"/>
	<path d="m16.6 28.5h3.2l-8.5 22h-3l-8.3-22h3.2l6.8 18 6.6-18z"/>
	<path d="m23.4 50.4v-22h3.1v22h-3.1z"/>
	<path d="m30.4 39.4c0-7.3 5.5-11.4 10.9-11.4 5 0 8.6 2.7 9.7 7l-2.8 1c-0.8-3.3-3.3-5.2-6.9-5.2-4 0-7.8 2.9-7.8 8.7 0 5.7 3.8 8.7 7.8 8.7 3.8 0 6.1-2.3 7-5.3l2.7 1c-1.2 4.1-4.7 7.1-9.7 7.1-5.7-0.1-10.9-4.2-10.9-11.6z"/>
	<path d="M62.8 31.3v19.2h-3V31.3h-7.3v-2.8h17.7v2.8H62.8z"/>
	<path d="m82.1 28c5.5 0 11 4.1 11 11.4s-5.5 11.5-11 11.5-11-4.1-11-11.5 5.5-11.4 11-11.4zm0 20.1c4.1 0 7.9-2.9 7.9-8.7 0-5.7-3.8-8.7-7.9-8.7s-7.9 2.9-7.9 8.7 3.8 8.7 7.9 8.7z"/>
	<path d="m102.9 41.5h-3.3v9h-3.1v-22h8.3c4.2 0 6.7 2.9 6.7 6.5 0 3.2-2 5.6-5.3 6.2l5.2 9.2h-3.5l-5-8.9zm1.4-2.8c2.5 0 4.2-1.5 4.2-3.7 0-2.3-1.7-3.8-4.2-3.8h-4.7v7.5h4.7z"/>
	<path d="m116.2 50.4v-22h3.1v22h-3.1z"/>
	<path d="m137.9 44.3h-9.7l-2.3 6.1h-3.3l8.7-22h3.5l8.7 22h-3.3l-2.3-6.1zm-8.7-2.8h7.6l-3.8-9.9-3.8 9.9z"/>
</svg>
