<?xml version="1.0" encoding="UTF-8"?>
<svg class="nyplLionLogo svgIcon" data-reactid="55" focusable="false" viewBox="0 0 257 144" xmlns="http://www.w3.org/2000/svg">
<title data-reactid="56">The New York Public Library</title>
<g class="nyplLionLogo-text" data-reactid="57">
<g class="nyplLionLogo-text-ny" data-reactid="58">
<path transform="translate(-27.252 -24.715)" d="m156.37 26.649h1.9341l14.218 20.593v-20.593h1.8624v23.852h-1.8267l-14.362-20.736v20.736h-1.8264v-23.852z" data-reactid="59"/>
<path transform="translate(-27.252 -24.715)" d="m178.14 41.799c0-4.8348 2.7935-8.7745 7.342-8.7745 4.3694 0 6.769 3.5098 6.4105 8.3804h-11.783v0.394c0.036 3.9036 1.6836 7.4851 5.7665 7.4851a8.4639 8.4639 0 0 0 4.942 -1.6117l0.78812 1.4685a9.8233 9.8233 0 0 1 -5.8022 1.755c-5.2289 2e-5 -7.6642-4.1903-7.6642-9.0968zm11.891-1.934c-0.03568-2.5784-1.3607-5.2289-4.6198-5.2289-2.9726 0-4.6919 2.2921-5.1932 5.2289h9.8131z" data-reactid="60"/>
<path transform="translate(-27.252 -24.715)" d="m193.9 33.418h2.0054l4.155 14.218 4.4765-14.218h1.8267l4.4768 14.254 4.19-14.254h1.8627l-5.1576 17.083h-1.7189l-4.6202-14.397-4.6198 14.397h-1.7189z" data-reactid="61"/>
<path transform="translate(-27.252 -24.715)" d="m233.36 41.512l-7.9864-14.863h2.2206l6.7687 12.893h0.07172l6.7687-12.893h2.0057l-7.915 14.863v8.9895h-1.934v-8.9895z" data-reactid="62"/>
<path transform="translate(-27.252 -24.715)" d="m241.6 41.978c0-4.2979 2.2919-8.9536 7.6642-8.9536s7.8433 4.62 7.8433 8.8819c0 4.2975-2.4354 8.9894-7.8076 8.9894-5.372 0-7.6999-4.6202-7.6999-8.9178zm13.538 0c0-3.8323-2.0415-7.342-5.9449-7.342-3.8681 0-5.6231 3.4382-5.6231 7.2703 0 3.868 1.8984 7.3777 5.7658 7.3777 3.9038-1e-5 5.8022-3.4382 5.8022-7.306z" data-reactid="63"/>
<path transform="translate(-27.252 -24.715)" d="m260.69 33.418h1.8627v2.9726c0.64469-1.2535 2.1845-3.3665 4.5842-3.3665a4.6834 4.6834 0 0 1 1.6476 0.28648l-0.46591 1.7548a3.5647 3.5647 0 0 0 -1.3968 -0.25066c-2.3636 0-3.9038 2.7937-4.3691 3.7964v11.89h-1.8627v-17.083z" data-reactid="64"/>
<path transform="translate(-27.252 -24.715)" d="m272.22 24.715h1.8624v25.786h-1.8624v-25.786zm2.0411 16.188 7.4855-7.4853h2.328l-7.5568 7.4853 7.9507 9.5981h-2.328z" data-reactid="65"/>
</g>
<g class="nyplLionLogo-text-public" data-reactid="66">
<path transform="translate(-27.252 -24.715)" d="m156.4 62.536h5.193c5.0141 0 8.1658 2.4712 8.1658 6.733 0 4.2975-2.9726 6.9837-8.3806 6.9837h-3.0083v10.135h-1.9699v-23.852zm4.9426 12.033c4.5482 0 6.4105-2.0773 6.4105-5.2289 0-2.9726-1.7907-5.1215-6.3391-5.1215h-3.044v10.35h2.9726z" data-reactid="67"/>
<path transform="translate(-27.252 -24.715)" d="m172.77 81.374v-12.069h1.8627v11.675c0 2.5072 0.89514 4.1186 3.5096 4.1186 2.5431 0 4.6555-2.3995 5.2289-3.4022v-12.392h1.862v13.789a14.413 14.413 0 0 0 0.32252 3.2948h-1.898a18.731 18.731 0 0 1 -0.2508 -2.7935 6.8564 6.8564 0 0 1 -5.6584 3.1876c-3.5813 0-4.9784-2.3281-4.9784-5.408z" data-reactid="68"/>
<path transform="translate(-27.252 -24.715)" d="m189.89 85.492v-24.891h1.862v10.279a6.0729 6.0729 0 0 1 4.4771 -1.9697c4.8703 0 7.2343 3.9035 7.2343 8.8817 0 4.7991-3.2234 8.9894-8.4523 8.9894a9.6515 9.6515 0 0 1 -5.1211 -1.2894zm11.604-7.6283c0-3.7249-1.4328-7.2703-5.5871-7.2703a6.1277 6.1277 0 0 0 -4.1546 1.934v11.962a7.7056 7.7056 0 0 0 3.3312 0.68035c4.333 3e-5 6.4105-3.7606 6.4105-7.306z" data-reactid="69"/>
<path transform="translate(-27.252 -24.715)" d="m207.29 60.601h1.8627v25.786h-1.8627v-25.786z" data-reactid="70"/>
<path transform="translate(-27.252 -24.715)" d="m214.24 64.255a1.4147 1.4147 0 1 1 2.8292 0 1.4156 1.4156 0 1 1 -2.8292 0zm0.46559 5.0496h1.898v17.083h-1.898v-17.083z" data-reactid="71"/>
<path transform="translate(-27.252 -24.715)" d="m220.18 77.828c0-5.4078 3.116-8.9174 7.5211-8.9174a7.4214 7.4214 0 0 1 5.0855 1.7904l-0.96686 1.3609a6.121 6.121 0 0 0 -4.1543 -1.54c-3.7964 0-5.5157 3.295-5.5157 7.2346 0 3.7962 1.6836 7.4134 5.48 7.4134a6.8891 6.8891 0 0 0 4.3694 -1.54l0.82344 1.3968a8.0084 8.0084 0 0 1 -5.3006 1.755c-4.9063-5e-5 -7.342-4.3695-7.342-8.9538z" data-reactid="72"/>
</g>
<g class="nyplLionLogo-text-library" data-reactid="73">
<path transform="translate(-27.252 -24.715)" d="m155.86 122.27v-23.852h5.0856v19.769h8.8819v4.0833h-13.968z" data-reactid="74"/>
<path transform="translate(-27.252 -24.715)" d="m176.01 102.58a2.8586 2.8586 0 0 1 -2.9013 -2.8654 2.8222 2.8222 0 0 1 2.9013 -2.7935 2.8536 2.8536 0 0 1 2.9366 2.7935 2.8895 2.8895 0 0 1 -2.9366 2.8654zm-2.3997 19.698v-17.442h4.799v17.442h-4.799z" data-reactid="75"/>
<path transform="translate(-27.252 -24.715)" d="m187.36 96.488v9.706a6.2202 6.2202 0 0 1 4.2617 -1.791c4.3697 0 7.4137 3.008 7.4137 9.0253 0 5.9449-4.0112 9.2757-9.2758 9.2757a16.584 16.584 0 0 1 -7.163 -1.3967v-24.819h4.7633zm0 22.097a6.7276 6.7276 0 0 0 2.3996 0.39457c2.6501 0 4.2256-1.9697 4.2256-5.5514 0-3.2591-1.1099-5.2646-3.6887-5.2646a4.1438 4.1438 0 0 0 -2.9366 1.325v9.0963z" data-reactid="76"/>
<path transform="translate(-27.252 -24.715)" d="m212.43 109.02a3.3914 3.3914 0 0 0 -1.827 -0.39386c-2.1125 0-3.3662 1.8627-3.796 2.6501v10.995h-4.7633v-17.442h4.7633v2.3643a5.1622 5.1622 0 0 1 4.4051 -2.7935 4.7777 4.7777 0 0 1 2.364 0.46594z" data-reactid="77"/>
<path transform="translate(-27.252 -24.715)" d="m225.04 122.27a9.7059 9.7059 0 0 1 -0.28684 -1.8627 6.4329 6.4329 0 0 1 -4.9063 2.2923c-2.9726 0-5.2645-1.7903-5.2645-4.9067 0-4.5485 4.6915-6.1957 9.3114-6.1957h0.609v-1.0029c0-1.5045-0.609-2.435-2.8292-2.435a7.3614 7.3614 0 0 0 -4.4411 1.6472l-2.0772-2.9009a10.365 10.365 0 0 1 7.0555 -2.507c4.7633 0 7.0195 1.8267 7.0195 6.4466v6.2674a23.456 23.456 0 0 0 0.50128 5.1575h-4.6916zm-0.53728-7.7363h-0.609c-2.7932 0-4.7273 0.82412-4.7273 2.8652a1.8641 1.8641 0 0 0 2.1128 1.8264 4.2768 4.2768 0 0 0 3.2234 -1.5395v-3.152z" data-reactid="78"/>
<path transform="translate(-27.252 -24.715)" d="m243.44 109.02a3.3902 3.3902 0 0 0 -1.8263 -0.39386c-2.1132 0-3.3669 1.8627-3.7968 2.6501v10.995h-4.7633v-17.442h4.7633v2.3643a5.1628 5.1628 0 0 1 4.4054 -2.7935 4.7761 4.7761 0 0 1 2.3636 0.46594z" data-reactid="79"/>
<path transform="translate(-27.252 -24.715)" d="m246.31 104.83h5.0855l3.8681 11.497h0.17907l3.5456-11.497h4.9067l-7.1986 19.304c-1.5402 4.119-3.3669 6.5182-8.1298 6.5182a9.3232 9.3232 0 0 1 -2.6861 -0.32217l0.68038-3.7604a5.485 5.485 0 0 0 1.6832 0.17879c2.4353 0 3.2948-1.1813 3.9752-3.044l0.64469-1.7903z" data-reactid="80"/>
</g>
</g>
<g class="nyplLionLogo-lion" data-reactid="81">
<path transform="translate(-27.252 -24.715)" d="m111.91 99.193c-3.7417-1.8312-8.6011-2.7485-12.137-4.7124-2.7998-1.5523-4.946-4.1165-7.9589-5.498a60.029 60.029 0 0 0 -9.468 -3.4535c-6.2512-1.5378-11.502 0.46472-13.323 1.9058a13.414 13.414 0 0 0 -5.0205 13.339 15.944 15.944 0 0 0 2.5563 6.7285c5.2726 7.447 15.141 9.8665 22.96 14.565a0.50625 0.50625 0 0 0 0.73907 -0.10187c1.3131-1.9313 2.3808-3.4857 4.5924-4.4055 2.2457-0.93738 5.7793-0.619 8.8261-0.47076 3.1477 0.1521 6.5454-0.14337 7.6869-1.7709 1.3638-1.9424 1.2844-5.8566-0.7973-7.0524-1.117-0.64368-2.7828-0.6731-3.9975-1.2333a4.3204 4.3204 0 0 1 -2.059 -2.2424 4.0746 4.0746 0 0 1 -0.25964 -3.3115c0.489-0.88025 1.7226-0.63116 2.7133-0.40076 1.9635 0.45068 5.2443 0.92871 7.1334 0.1001 0.55656-0.28446-1.4333-1.6168-2.1859-1.9847zm-19.72-1.0743c-0.16821 0.87573-0.7019 2.567-1.5557 2.6771-0.86029 0.1098-1.4802-0.81232-2.0969-1.1581a24.412 24.412 0 0 0 -3.8726 -1.4106c-1.1735-0.38867-2.7825-0.87018-3.254-1.9898-0.707-1.6666 0.94434-2.4554 2.1335-2.8212a12.116 12.116 0 0 1 3.4004 -0.54181c2.1485-0.10327 4.1996 0.20435 4.9205 1.5548a6.4932 6.4932 0 0 1 0.32468 3.6897z" fill="#FFF" data-reactid="82"/>
<path transform="translate(-27.252 -24.715)" d="m32.833 104.45a2.2944 2.2944 0 0 1 0.54613 -1.3161 34.485 34.485 0 0 1 19.427 -11.197c1.5052-0.21582 2.5898-0.11156 2.8365 0.49191 0.43235 1.0576-0.4436 1.6673-1.4976 2.2774-18.345 10.964-17.045 27.263-17.221 33.931 0.05527 2.7273-1.9143 3.2238-2.4062 1.9389a48.038 48.038 0 0 1 -1.6848 -26.126z" fill="#FFF" data-reactid="83"/>
<path transform="translate(-27.252 -24.715)" d="m45.247 80.44a2.1967 2.1967 0 0 1 1.1785 -0.73891 30.355 30.355 0 0 1 19.203 1.6337c1.1428 0.50578 1.6576 1.2227 0.90727 1.704a38.83 38.83 0 0 0 -5.4445 3.9246 2.4715 2.4715 0 0 1 -1.782 0.35665c-5.9666-0.78655-9.0656-1.2511-18.035 2.149-1.3763 0.57868-2.6142-0.20873-1.9808-1.2904a45.712 45.712 0 0 1 5.9536 -7.7386z" fill="#FFF" data-reactid="84"/>
<path transform="translate(-27.252 -24.715)" d="m56.84 73.4c-1.5424-0.17563-1.5643-1.3039-0.91213-1.7435a37.8 37.8 0 0 1 7.1314 -3.6769 3.616 3.616 0 0 1 1.9923 -0.33359c2.016 0.20181 5.3543 1.5591 9.1848 4.292 4.5937 3.2779 8.6804 9.5049 5.9474 9.0009a25.587 25.587 0 0 0 -3.0019 -0.43945c-2.0706-0.18361-3.4291 0.02891-4.3831-0.06825a1.9627 1.9627 0 0 1 -1.0361 -0.55044c-3.877-3.4767-8.356-5.6832-14.923-6.4807z" fill="#FFF" data-reactid="85"/>
<path transform="translate(-27.252 -24.715)" d="m130.65 127.83c-0.41362 1.2908-0.90482 2.91-1.9576 2.1589a47.305 47.305 0 0 0 -10.514 -5.8067c-0.22586-0.05055-0.20021-0.36442-0.12054-0.54143a7.7642 7.7642 0 0 0 0.56119 -2.0553 5.1055 5.1055 0 0 1 1.0116 -1.8083 18.619 18.619 0 0 0 1.8991 -6.6028 16.563 16.563 0 0 0 -0.30071 -5.2407 10.439 10.439 0 0 1 -0.63877 -2.3196c0.01245-0.73927 0.36027-1.5139 0.43164-2.3865 0.20819-2.525-2.9785-4.6302-4.7178-5.4416-3.9454-1.8423-8.1386-3.4898-12.4-5.7381-2.4056-1.2689-4.3362-4.0522-6.2661-5.546-1.9497-1.5043-8.2159-3.9897-10.72-4.6512a1.0379 1.0379 0 0 1 -0.86172 -0.86328 25.026 25.026 0 0 0 -9.3712 -14.551c-1.759-1.3668 0.21341-2.1442 2.6354-2.2623 38.182-1.309 60.155 33.829 51.33 63.656z" fill="#FFF" data-reactid="86"/>
<path transform="translate(-27.252 -24.715)" d="m115.14 110.94c-0.02739-0.19436-0.111-0.85254-0.11036-0.98836a2.6087 2.6087 0 0 1 1.0488 -1.0839 10.66 10.66 0 0 1 1.4718 -1.0361c0.13838-0.08695 0.23019 0.114 0.24892 0.15381 1.4075 2.1367 0.87988 7.4175-0.13721 9.9287-0.11795 0.25534-0.33306 0.35473-0.42089 0.16768a6.365 6.365 0 0 0 -2.1733 -2.7125 0.53647 0.53647 0 0 1 -0.16314 -0.43959 10.785 10.785 0 0 0 0.23539 -3.9897z" fill="#FFF" data-reactid="87"/>
<path transform="translate(-27.252 -24.715)" d="m97.736 123.94a3.0755 3.0755 0 0 1 1.3367 -1.817c1.2809-0.80333 3.4096-0.838 5.4641-0.97864a17.343 17.343 0 0 0 5.5342 -0.90517c0.85722-0.39425 1.7146-1.517 3.0392-0.945a2.1965 2.1965 0 0 1 1.1558 1.4165 5.1518 5.1518 0 0 1 0.29759 2.1332c-0.19071 2.4634-2.1913 3.6662-2.5512 5.9688a2.0551 2.0551 0 0 1 -0.29862 1.0756c-1.5276 1.5547-4.5483 1.2277-7.2793 0.95267a8.6974 8.6974 0 0 1 -2.6051 -0.43856 5.7296 5.7296 0 0 1 -1.302 -1.0462 30.722 30.722 0 0 1 -2.2438 -2.3882 4.156 4.156 0 0 1 -1.0146 -1.3008 6.8301 6.8301 0 0 1 0.46712 -1.7273z" fill="#FFF" data-reactid="88"/>
<path transform="translate(-27.252 -24.715)" d="m49.907 152.97a8.0642 8.0642 0 0 1 -2.0101 -2.4869c-4.6763-7.4744-7.2972-33.945-1.2712-42.924 1.9176-3.1459 3.9492-1.6954 3.274 0.73615-1.1541 5.4586-0.44672 8.5174 2.2076 14.441 4.1714 8.8022 17.047 21.023 20.456 25.455 5.8431 7.6015 7.7877 13.139 7.7614 14.631-0.03154 1.1446-0.25115 1.8741-2.2568 1.7048a50.122 50.122 0 0 1 -28.161 -11.558z" fill="#FFF" data-reactid="89"/>
<path transform="translate(-27.252 -24.715)" d="m55.956 117.27a21.792 21.792 0 0 1 0.30557 -17.625c0.7188-1.3548 1.4212-2.24 2.3383-1.985 0.998 0.27818 1.2286 1.2998 1.3663 3.1933 1.0155 15.714 10.52 21.005 22.459 26.553 9.4187 4.8149 20.135 10.32 29.116 23.654 1.3594 1.9251 1.5554 3.0932 0.02079 4.1959a48.868 48.868 0 0 1 -17.694 8.0363c-1.0924 0.25566-2.2193 0.06375-3.187-2.4326-10.082-25.977-27.01-24.806-34.725-43.59z" fill="#FFF" data-reactid="90"/>
<path transform="translate(-27.252 -24.715)" d="m118.4 149.21c-1.535 1.5343-2.4055 0.3315-2.907-0.65371a45.568 45.568 0 0 0 -7.6354 -12.103 0.78694 0.78694 0 0 1 0.72767 -1.3444 5.4998 5.4998 0 0 0 3.0367 -0.493 6.0856 6.0856 0 0 0 2.787 -3.9443c0.427-1.507 0.447-1.9504 1.3704-2.0442a3.0341 3.0341 0 0 1 0.90418 0.10947 10.917 10.917 0 0 1 3.2123 1.9146 31.194 31.194 0 0 1 6.2266 6.775 1.7956 1.7956 0 0 1 -0.19539 1.7671 50.135 50.135 0 0 1 -7.5271 10.016z" fill="#FFF" data-reactid="91"/>
<path transform="translate(-27.252 -24.715)" d="m82.029 59.239a55.069 55.069 0 1 0 55.253 55.074 54.894 54.894 0 0 0 -55.253 -55.074zm-32.121 93.715a8.0643 8.0643 0 0 1 -2.0101 -2.4869c-4.6763-7.4744-7.2972-33.945-1.2712-42.924 1.9176-3.1459 3.9492-1.6954 3.274 0.73615-1.1541 5.4586-0.44672 8.5174 2.2076 14.441 4.1714 8.8022 17.047 21.023 20.456 25.455 5.8431 7.6015 7.7877 13.139 7.7614 14.631-0.03154 1.1446-0.25115 1.8741-2.2568 1.7047a50.122 50.122 0 0 1 -28.161 -11.558zm80.739-25.141c-0.41362 1.2908-0.90482 2.9099-1.9576 2.1589a47.302 47.302 0 0 0 -10.514 -5.8067c-0.22586-0.05059-0.20021-0.36442-0.12054-0.54143a7.7642 7.7642 0 0 0 0.56119 -2.0553 5.1055 5.1055 0 0 1 1.0116 -1.8083 18.619 18.619 0 0 0 1.8991 -6.6028 16.563 16.563 0 0 0 -0.30071 -5.2407 10.439 10.439 0 0 1 -0.63877 -2.3196c0.01245-0.73927 0.36027-1.5139 0.43164-2.3865 0.20819-2.525-2.9785-4.6301-4.7178-5.4414-3.9454-1.8423-8.1386-3.4898-12.4-5.7381-2.4056-1.269-4.3362-4.0522-6.2661-5.546-1.9497-1.5043-8.2159-3.9897-10.72-4.6512a1.038 1.038 0 0 1 -0.86172 -0.86328 25.026 25.026 0 0 0 -9.3712 -14.551c-1.759-1.3668 0.21341-2.1442 2.6354-2.2623 38.182-1.309 60.155 33.829 51.33 63.656zm-15.504-16.889c-0.02739-0.19436-0.111-0.85253-0.11036-0.98836a2.6087 2.6087 0 0 1 1.0488 -1.0839 10.66 10.66 0 0 1 1.4718 -1.0361c0.13838-0.08695 0.23019 0.114 0.24892 0.15381 1.4075 2.1367 0.87988 7.4175-0.13721 9.9287-0.11795 0.25534-0.33306 0.35473-0.42089 0.16768a6.365 6.365 0 0 0 -2.1733 -2.7125 0.5365 0.5365 0 0 1 -0.16314 -0.43962 10.784 10.784 0 0 0 0.23543 -3.9897zm-46.121-23.502c1.8211-1.4411 7.0718-3.4436 13.323-1.9058a60.022 60.022 0 0 1 9.468 3.4536c3.0128 1.3812 5.159 3.9456 7.9588 5.4979 3.5361 1.9638 8.3955 2.8812 12.137 4.7123 0.75257 0.3679 2.7424 1.7001 2.1859 1.9845-1.889 0.82862-5.1698 0.3509-7.1333-0.10014-0.99077-0.23036-2.2244-0.47942-2.7133 0.40081a4.0747 4.0747 0 0 0 0.25963 3.3114 4.3205 4.3205 0 0 0 2.059 2.2424c1.2147 0.56016 2.8805 0.5896 3.9975 1.2332 2.0816 1.1958 2.1612 5.1101 0.7973 7.0524-1.1415 1.6275-4.5392 1.923-7.6869 1.7709-3.0468-0.14828-6.5804-0.46662-8.8261 0.47077-2.2116 0.91976-3.2792 2.4741-4.5923 4.4054a0.50625 0.50625 0 0 1 -0.73909 0.10184c-7.8182-4.6981-17.687-7.1176-22.96-14.565a15.944 15.944 0 0 1 -2.5562 -6.7285 13.414 13.414 0 0 1 5.0205 -13.339zm-12.182-14.035c-1.5424-0.17563-1.5643-1.3039-0.91213-1.7436a37.8 37.8 0 0 1 7.1314 -3.6769 3.616 3.616 0 0 1 1.9923 -0.33359c2.016 0.20177 5.3543 1.5591 9.1848 4.292 4.5937 3.2778 8.6804 9.5049 5.9474 9.0009a25.595 25.595 0 0 0 -3.0019 -0.43941c-2.0706-0.18361-3.4291 0.02891-4.3831-0.06825a1.9626 1.9626 0 0 1 -1.0361 -0.55048c-3.877-3.4767-8.356-5.6832-14.923-6.4807zm40.896 50.535a3.0755 3.0755 0 0 1 1.3367 -1.817c1.2809-0.80333 3.4096-0.838 5.4641-0.97864a17.343 17.343 0 0 0 5.5342 -0.90518c0.85722-0.39425 1.7146-1.517 3.0392-0.945a2.1965 2.1965 0 0 1 1.1558 1.4165 5.1518 5.1518 0 0 1 0.29759 2.1332c-0.19071 2.4634-2.1913 3.6662-2.5512 5.9688a2.0551 2.0551 0 0 1 -0.29862 1.0756c-1.5276 1.5547-4.5483 1.2277-7.2793 0.95268a8.6973 8.6973 0 0 1 -2.6051 -0.43859 5.7285 5.7285 0 0 1 -1.302 -1.0462 30.722 30.722 0 0 1 -2.2438 -2.3882 4.156 4.156 0 0 1 -1.0146 -1.3008 6.8301 6.8301 0 0 1 0.46712 -1.7273zm-52.489-43.496a2.1971 2.1971 0 0 1 1.1785 -0.73891 30.355 30.355 0 0 1 19.203 1.6337c1.1428 0.50578 1.6576 1.2227 0.90727 1.704a38.83 38.83 0 0 0 -5.4445 3.9246 2.4715 2.4715 0 0 1 -1.782 0.35665c-5.9666-0.78655-9.0656-1.2511-18.035 2.149-1.3763 0.57868-2.6142-0.20873-1.9808-1.2904a45.713 45.713 0 0 1 5.9536 -7.7387zm-12.404 24.022a2.2958 2.2958 0 0 1 0.54631 -1.316 34.484 34.484 0 0 1 19.427 -11.197c1.505-0.21547 2.5897-0.11153 2.8363 0.49191 0.43232 1.058-0.4436 1.6677-1.4974 2.2774-18.346 10.964-17.045 27.263-17.221 33.931 0.05523 2.7274-1.9143 3.2238-2.4062 1.9393a48.04 48.04 0 0 1 -1.685 -26.127zm23.119 12.814a21.792 21.792 0 0 1 0.30553 -17.625c0.71883-1.3548 1.4212-2.24 2.3383-1.985 0.998 0.27818 1.2286 1.2998 1.3663 3.1931 1.0155 15.714 10.52 21.005 22.459 26.553 9.4187 4.8149 20.135 10.32 29.116 23.654 1.3593 1.925 1.5554 3.0932 0.02079 4.1958a48.868 48.868 0 0 1 -17.694 8.0363c-1.0924 0.25566-2.2194 0.06375-3.1871-2.4326-10.082-25.977-27.01-24.807-34.725-43.59zm62.441 31.948c-1.535 1.5343-2.4055 0.33154-2.907-0.65367a45.567 45.567 0 0 0 -7.6354 -12.103 0.787 0.787 0 0 1 0.72767 -1.3445 5.4998 5.4998 0 0 0 3.0367 -0.49294 6.0855 6.0855 0 0 0 2.787 -3.9444c0.427-1.5069 0.447-1.9503 1.3704-2.0442a3.0352 3.0352 0 0 1 0.90418 0.10947 10.918 10.918 0 0 1 3.2123 1.9147 31.193 31.193 0 0 1 6.2266 6.7749 1.7957 1.7957 0 0 1 -0.19539 1.7671 50.134 50.134 0 0 1 -7.527 10.016z" data-reactid="92"/>
<path transform="translate(-27.252 -24.715)" d="m84.671 98.227a24.394 24.394 0 0 1 3.8723 1.4106c0.61681 0.34572 1.2366 1.2679 2.0973 1.1581 0.85356-0.11015 1.3872-1.8014 1.5554-2.6772a6.4916 6.4916 0 0 0 -0.32458 -3.6897c-0.72075-1.3504-2.7721-1.658-4.9204-1.5547a12.12 12.12 0 0 0 -3.4006 0.54179c-1.1889 0.36584-2.8403 1.1546-2.1334 2.8212 0.47166 1.1196 2.0803 1.6012 3.2541 1.9898z" data-reactid="93"/>
</g>
</svg>
