<svg
  viewBox="0 0 1320 569"
  xmlns="http://www.w3.org/2000/svg"
>
  <g id="oops">
  <path d="M199.235 406.514C172.831 406.514 147.626 401.917 123.622 392.724C99.6177 383.131 78.4139 369.74 60.0107 352.552C41.6074 334.965 27.0048 314.179 16.2029 290.196C5.40096 265.813 0 238.832 0 209.253C0 182.072 4.40078 156.09 13.2023 131.308C22.0039 106.125 35.0062 83.7411 52.2093 64.1549C69.4123 44.5687 90.8161 28.9796 116.421 17.3878C142.025 5.79592 171.43 0 204.636 0C231.041 0 256.246 4.79663 280.25 14.3899C304.254 23.5834 325.458 36.974 343.861 54.5616C362.264 71.7496 376.867 92.5349 387.669 116.918C398.471 140.901 403.872 167.682 403.872 197.261C403.872 224.043 399.471 250.024 390.669 275.207C381.868 300.389 368.866 322.773 351.663 342.359C334.459 361.946 313.056 377.535 287.451 389.126C261.847 400.718 232.441 406.514 199.235 406.514ZM208.237 382.531C239.042 382.531 264.647 376.136 285.051 363.345C305.454 350.154 320.657 331.967 330.659 308.783C341.061 285.2 346.262 257.819 346.262 226.641C346.262 199.06 343.061 173.078 336.66 148.695C330.259 124.313 320.657 102.928 307.855 84.5406C295.453 65.7538 279.85 51.164 261.046 40.7713C242.243 30.3786 220.239 25.1823 195.035 25.1823C165.029 25.1823 139.825 31.5778 119.421 44.3688C99.0176 57.1598 83.6149 75.1472 73.213 98.3309C62.8112 121.115 57.6102 148.096 57.6102 179.274C57.6102 207.254 60.6108 233.436 66.6118 257.819C73.013 282.202 82.4146 303.786 94.8168 322.573C107.619 341.36 123.422 356.15 142.225 366.942C161.029 377.335 183.033 382.531 208.237 382.531Z" />
  <path d="M565.118 406.514C542.714 406.514 522.51 401.318 504.507 390.925C486.504 380.532 472.101 366.342 461.299 348.355C450.897 329.968 445.696 309.183 445.696 285.999C445.696 269.211 448.897 252.822 455.298 236.834C462.099 220.845 471.501 206.255 483.503 193.064C495.505 179.874 509.508 169.481 525.51 161.886C541.513 153.892 558.716 149.895 577.12 149.895C600.324 149.895 621.128 155.491 639.531 166.683C658.334 177.875 673.137 192.665 683.939 211.052C695.141 229.039 700.742 248.825 700.742 270.41C700.742 293.594 695.541 315.578 685.139 336.364C675.137 357.149 660.134 374.137 640.131 387.328C620.127 400.119 595.123 406.514 565.118 406.514ZM577.72 388.527C591.322 388.527 603.524 385.929 614.326 380.732C625.128 375.536 633.53 367.142 639.531 355.55C644.332 346.357 647.532 335.164 649.133 321.974C650.733 308.783 651.533 296.392 651.533 284.8C651.533 265.613 647.932 247.226 640.731 229.639C633.93 211.651 624.128 197.061 611.326 185.869C598.924 174.277 584.121 168.482 566.918 168.482C556.116 168.482 546.314 170.28 537.513 173.878C529.111 177.076 521.31 183.271 514.108 192.465C506.107 202.458 500.906 214.649 498.506 229.039C496.105 243.429 494.905 257.819 494.905 272.209C494.905 291.795 498.506 310.582 505.707 328.569C512.908 346.157 522.71 360.547 535.112 371.739C547.514 382.931 561.717 388.527 577.72 388.527Z" />
  <path d="M739.819 569C737.819 569 735.218 568.6 732.018 567.801C728.817 567.401 727.217 566.002 727.217 563.604C727.217 560.406 728.617 558.008 731.417 556.409C734.618 555.21 737.819 554.01 741.019 552.811C747.02 550.813 752.821 548.414 758.422 545.616C764.023 543.218 766.824 538.022 766.824 530.027V226.041C766.824 222.843 765.823 218.047 763.823 211.651C762.223 205.256 759.422 199.06 755.422 193.064C751.421 187.068 746.02 183.471 739.219 182.272C737.618 181.872 736.418 180.873 735.618 179.274C734.818 177.675 734.418 176.076 734.418 174.477C734.418 172.479 734.818 170.88 735.618 169.681C736.418 168.482 737.419 167.682 738.619 167.282C753.821 163.685 766.824 159.888 777.626 155.89C788.427 151.494 798.629 147.296 808.231 143.299C808.631 143.299 808.831 143.299 808.831 143.299C808.831 142.9 809.031 142.7 809.431 142.7C810.231 142.7 811.031 143.299 811.832 144.498C812.632 145.698 813.032 146.897 813.032 148.096C813.032 151.693 812.432 157.489 811.232 165.484C810.431 173.078 810.031 179.274 810.031 184.071C810.031 187.268 810.231 189.067 810.632 189.467C814.632 185.47 821.833 180.473 832.235 174.477C843.037 168.082 855.239 162.486 868.842 157.689C882.444 152.493 895.447 149.895 907.849 149.895C928.652 149.895 946.256 155.491 960.658 166.683C975.461 177.475 986.663 191.665 994.264 209.253C1002.27 226.441 1006.27 244.428 1006.27 263.215C1006.27 281.202 1002.87 298.79 996.064 315.978C989.263 332.766 979.662 347.955 967.259 361.546C954.857 375.136 940.455 386.129 924.052 394.523C907.649 402.517 890.046 406.514 871.242 406.514C865.641 406.514 858.84 405.515 850.839 403.516C843.237 401.917 835.636 399.719 828.035 396.921C820.833 394.123 815.232 390.925 811.232 387.328C810.832 387.328 810.431 389.726 810.031 394.523C809.631 398.92 809.231 403.516 808.831 408.313C808.831 413.509 808.831 416.707 808.831 417.906V530.027C808.831 535.224 810.832 539.221 814.832 542.019C819.233 545.217 824.034 547.415 829.235 548.614C834.836 550.213 839.637 551.612 843.637 552.811C846.838 554.01 849.838 555.21 852.639 556.409C855.839 558.008 857.44 560.406 857.44 563.604C857.44 566.002 855.839 567.401 852.639 567.801C849.438 568.6 846.638 569 844.237 569C832.635 569 822.834 568.4 814.832 567.201C807.231 566.402 798.229 566.002 787.827 566.002C781.026 566.002 775.425 566.202 771.024 566.602C767.024 567.001 762.823 567.401 758.422 567.801C754.021 568.6 747.82 569 739.819 569ZM880.244 387.927C886.245 387.927 893.446 386.129 901.848 382.531C910.649 378.934 919.251 373.138 927.652 365.143C936.454 357.149 943.655 346.357 949.256 332.766C955.257 319.176 958.258 302.387 958.258 282.401C958.258 259.218 955.257 240.631 949.256 226.641C943.255 212.651 935.854 202.058 927.052 194.863C918.251 187.668 909.249 182.871 900.047 180.473C890.846 178.075 883.044 176.876 876.643 176.876C867.042 176.876 857.04 178.874 846.638 182.871C836.636 186.869 828.035 191.465 820.833 196.662C814.032 201.458 810.632 205.256 810.632 208.054C810.632 216.848 810.431 225.841 810.031 235.035C810.031 243.829 809.831 252.423 809.431 260.817C809.431 269.211 809.231 276.805 808.831 283.601C808.831 289.996 808.831 294.993 808.831 298.59C808.831 314.579 812.432 329.368 819.633 342.959C827.234 356.549 836.436 367.542 847.238 375.936C858.44 383.93 869.442 387.927 880.244 387.927Z" />
  <path d="M1107.42 406.514C1095.01 406.514 1083.41 404.516 1072.61 400.518C1061.81 396.921 1052.61 391.725 1045.01 384.929C1043.01 380.533 1041.41 373.138 1040.21 362.745C1039.4 352.352 1038.8 343.758 1038.4 336.963C1038.4 333.366 1041.01 331.567 1046.21 331.567C1047.81 331.567 1049.21 331.967 1050.41 332.766C1052.01 333.166 1053.01 334.165 1053.41 335.764C1058.61 355.35 1066.81 369.34 1078.01 377.734C1089.61 386.129 1101.22 390.326 1112.82 390.326C1124.42 390.326 1134.22 386.528 1142.22 378.934C1150.62 370.939 1154.83 361.146 1154.83 349.554C1154.83 338.762 1151.22 329.568 1144.02 321.974C1136.82 313.979 1124.22 304.386 1106.22 293.194C1092.61 284.8 1081.61 276.805 1073.21 269.211C1064.81 261.616 1058.61 253.822 1054.61 245.827C1051.01 237.833 1049.21 228.839 1049.21 218.846C1049.21 206.055 1052.21 194.463 1058.21 184.071C1064.21 173.678 1073.21 165.484 1085.21 159.488C1097.22 153.092 1112.22 149.895 1130.22 149.895C1142.22 149.895 1152.22 151.094 1160.23 153.492C1168.23 155.89 1174.23 158.489 1178.23 161.287C1181.43 165.684 1184.03 172.679 1186.03 182.272C1188.43 191.465 1189.63 200.259 1189.63 208.653C1189.63 211.451 1187.63 212.85 1183.63 212.85C1181.23 212.85 1178.83 212.451 1176.43 211.651C1174.43 210.452 1173.03 209.053 1172.23 207.454C1167.03 194.263 1160.43 184.27 1152.43 177.475C1144.82 170.28 1135.22 166.683 1123.62 166.683C1113.62 166.683 1104.62 169.681 1096.62 175.676C1089.01 181.672 1085.21 190.466 1085.21 202.058C1085.21 211.251 1088.01 219.446 1093.61 226.641C1099.62 233.836 1110.62 242.03 1126.62 251.223C1149.82 264.414 1167.03 276.805 1178.23 288.397C1189.83 299.589 1195.63 314.579 1195.63 333.366C1195.63 354.95 1187.43 372.538 1171.03 386.129C1154.63 399.719 1133.42 406.514 1107.42 406.514Z" />
  <path d="M1282.79 275.207C1279.99 275.207 1277.59 273.608 1275.59 270.41C1273.99 266.812 1272.79 260.617 1271.99 251.823C1270.39 234.635 1268.59 216.048 1266.59 196.062C1264.59 175.676 1262.79 155.491 1261.19 135.505C1259.99 115.519 1258.79 97.3316 1257.59 80.9431C1256.79 64.5546 1256.39 51.5637 1256.39 41.9705C1256.39 33.1767 1258.99 25.582 1264.19 19.1865C1269.79 12.3913 1276.59 8.99367 1284.59 8.99367C1292.6 8.99367 1299 12.3913 1303.8 19.1865C1309 25.582 1311.6 33.1767 1311.6 41.9705C1311.6 51.5637 1311 64.5546 1309.8 80.9431C1308.6 97.3316 1307 115.519 1305 135.505C1303.4 155.491 1301.6 175.676 1299.6 196.062C1297.6 216.448 1295.6 235.035 1293.6 251.823C1293.2 258.218 1292 263.815 1289.99 268.611C1288.39 273.008 1285.99 275.207 1282.79 275.207ZM1283.99 406.514C1273.99 406.514 1265.39 403.117 1258.19 396.321C1251.39 389.126 1247.99 380.532 1247.99 370.539C1247.99 360.547 1251.39 352.152 1258.19 345.357C1265.39 338.162 1273.99 334.565 1283.99 334.565C1294 334.565 1302.4 338.162 1309.2 345.357C1316.4 352.152 1320 360.547 1320 370.539C1320 380.532 1316.4 389.126 1309.2 396.321C1302.4 403.117 1294 406.514 1283.99 406.514Z" />
  </g>
</svg>
