<?xml version="1.0" encoding="UTF-8" standalone="no"?>
<svg
   xmlns:dc="http://purl.org/dc/elements/1.1/"
   xmlns:cc="http://creativecommons.org/ns#"
   xmlns:rdf="http://www.w3.org/1999/02/22-rdf-syntax-ns#"
   xmlns:svg="http://www.w3.org/2000/svg"
   xmlns="http://www.w3.org/2000/svg"
   xmlns:sodipodi="http://sodipodi.sourceforge.net/DTD/sodipodi-0.dtd"
   xmlns:inkscape="http://www.inkscape.org/namespaces/inkscape"
   viewBox="0 -256 1792 1792"
   id="svg2989"
   version="1.1"
   inkscape:version="0.48.3.1 r9886"
   width="100%"
   height="100%"
   sodipodi:docname="remove_circle_font_awesome.svg">
  <metadata
     id="metadata2999">
    <rdf:RDF>
      <cc:Work
         rdf:about="">
        <dc:format>image/svg+xml</dc:format>
        <dc:type
           rdf:resource="http://purl.org/dc/dcmitype/StillImage" />
      </cc:Work>
    </rdf:RDF>
  </metadata>
  <defs
     id="defs2997" />
  <sodipodi:namedview
     pagecolor="#ffffff"
     bordercolor="#666666"
     borderopacity="1"
     objecttolerance="10"
     gridtolerance="10"
     guidetolerance="10"
     inkscape:pageopacity="0"
     inkscape:pageshadow="2"
     inkscape:window-width="640"
     inkscape:window-height="480"
     id="namedview2995"
     showgrid="false"
     inkscape:zoom="0.13169643"
     inkscape:cx="896"
     inkscape:cy="896"
     inkscape:window-x="0"
     inkscape:window-y="25"
     inkscape:window-maximized="0"
     inkscape:current-layer="svg2989" />
  <g
     transform="matrix(1,0,0,-1,106.30508,1285.4237)"
     id="g2991">
    <path
       d="m 1125,448 q 0,-27 -18,-45 L 1005,301 q -18,-18 -45,-18 -27,0 -45,18 L 768,448 621,301 q -18,-18 -45,-18 -27,0 -45,18 L 429,403 q -18,18 -18,45 0,27 18,45 L 576,640 429,787 q -18,18 -18,45 0,27 18,45 l 102,102 q 18,18 45,18 27,0 45,-18 L 768,832 915,979 q 18,18 45,18 27,0 45,-18 l 102,-102 q 18,-18 18,-45 0,-27 -18,-45 L 960,640 1107,493 q 18,-18 18,-45 z m 155,192 q 0,104 -40.5,198.5 Q 1199,933 1130,1002 1061,1071 966.5,1111.5 872,1152 768,1152 664,1152 569.5,1111.5 475,1071 406,1002 337,933 296.5,838.5 256,744 256,640 256,536 296.5,441.5 337,347 406,278 475,209 569.5,168.5 664,128 768,128 872,128 966.5,168.5 1061,209 1130,278 1199,347 1239.5,441.5 1280,536 1280,640 z m 256,0 Q 1536,431 1433,254.5 1330,78 1153.5,-25 977,-128 768,-128 559,-128 382.5,-25 206,78 103,254.5 0,431 0,640 0,849 103,1025.5 206,1202 382.5,1305 559,1408 768,1408 977,1408 1153.5,1305 1330,1202 1433,1025.5 1536,849 1536,640 z"
       id="path2993"
       inkscape:connector-curvature="0"
       style="fill:#F00"/>
  </g>
</svg>
