<svg xmlns="http://www.w3.org/2000/svg" viewBox="0 0 281 100" width="281px" height="100px">
  <path fill="#fff" d="M58 74.9c0 3.9-2 6-5.2 6s-5.2-2.1-5.2-6V53.5h-6.7v19.2c0 9.6 4.3 14 11.9 14 7.5 0 11.9-4.5 11.9-14V53.5H58v21.4zm-38.3-8.6l-2 5.9-1.8-5.9-5.3-12.8H2.1v32.8h7.8V70.8l1 4.2L15 86.3h5.6L24.7 75l1-4.2v15.5h7.7V53.5h-8.5zm65.4 1.5L80.9 66c-3.4-1.4-4.3-2.6-4.3-4.3 0-2.4 1.9-3.9 4.6-3.9 3.4 0 5.1 2.1 5.5 5.5h5.9C91.7 56.7 87.8 53 81.4 53s-10.7 3.8-10.7 8.8c0 3.9 2.1 6.8 8 9.2l3.3 1.3c3.9 1.5 4.9 3.2 4.9 5.5 0 2.6-1.6 4.1-4.6 4.1-3.6 0-5.8-2.2-6.5-6.5h-5.9c.8 7.4 5.6 11.3 12.3 11.3 6.2 0 10.7-3.6 10.7-9.2.1-4.6-2.2-7.4-7.8-9.7zM51.7 33.4h-8.1c-.4 4.9-1.5 6.5-3.8 6.5-2.4 0-3.5-1.4-3.5-5.3v-8.9c0-3.9 1.3-5.3 3.5-5.3 2.4 0 3.5 1.6 3.8 6.5h8.1c-.7-9.4-5.2-13.5-12.2-13.5-7.4 0-11.6 4.9-11.6 16.5v.7c0 11.5 4.3 16.5 11.6 16.5 7-.2 11.5-4.2 12.2-13.7zm88.1-17.3c4.2 0 6.9 2.7 7.6 8.6h3.2c-.7-7.2-4.7-11.5-10.9-11.5-7.3 0-11.2 5.6-11.2 14.7v4.2c0 9.3 4 14.7 11.2 14.7 6.5 0 10.2-4.3 10.9-11.5h-3.2c-.7 6.1-3.4 8.7-7.6 8.7-5.4 0-7.9-4.2-7.9-12.1v-5.3c0-6.5 2.9-10.5 7.9-10.5zM12.6 39.9c-2.9 0-4.1-2.7-4.2-5.2H0c.4 7.5 5.9 12.2 12.7 12.2 6.1 0 11-3.9 11-9.8 0-4.8-2.7-7.4-10.3-10.6-3.5-1.5-4.6-2.6-4.6-4 0-1.5 1.4-2.4 2.6-2.4 2.6 0 3.4 2 3.8 4h8.3c-.8-6.6-5.4-11-11.8-11C5.6 13.1.3 16.7.3 22.7c0 4.1 2.6 7.3 8.7 9.9 5.1 2.1 6 3.2 6 4.7.3 1.9-1.1 2.6-2.4 2.6zm79.8 1.8H78.1v-9.4h13.5v-4.9H78.1v-8.8h14.3v-4.9H72.6v32.8h19.8zm-34.3-28h6.6v32.8h-6.6zm118.5 30.8h-16.7V30.7h15.8v-2h-15.8V15.8h16.7v-2.1h-18.9v32.8h18.9zm7.2 9l-11.6 30.2-11.6-30.2h-2.9v32.8h2.2V57.9l10.9 28.4h2.7l11.1-28.4v28.4h2.1V53.5zm-37 20.8c0 6.6-3.3 9.5-8.5 9.5s-8.5-2.9-8.5-9.5V53.5h-3.2V73c0 9.8 4.5 13.8 11.6 13.8S150 82.8 150 73V53.5h-3.2v20.8zm-47.5 12h20.4v-4h-16V71.5h15v-4h-15v-10h16v-4H99.3zm18.1-47.7l-1.5-3.4L104 13.7h-4.7v32.8h4.4V21.4l1.5 3.7 12 21.4h4.7V13.7h-4.5z"/>
</svg>