<svg xmlns="http://www.w3.org/2000/svg" xmlns:xlink="http://www.w3.org/1999/xlink" version="1.2" baseProfile="tiny" x="0px" y="0px" viewBox="0 0 90 90" xml:space="preserve"><path d="M 2.4 83.3 c 0.9 0.4 1.9 0.2 2.6 -0.6 C 16.6 70.3 31.9 63.3 48.2 62.7 V 80.9 c 0 1 0.6 2 1.4 2.3 c 0.3 0.1 0.6 0.2 0.9 0.2 c 0.7 0 1.2 -0.3 1.7 -0.8 l 33.1 -36.4 c 0.9 -1 0.9 -2.7 0 -3.7 l -33.1 -36.4 c -0.7 -0.8 -1.7 -0.9 -2.6 -0.6 C 48.8 6.2 48.2 7.1 48.2 8.1 v 18.3 C 22 27.8 1 51.6 1 80.9 C 1 81.9 1.6 82.9 2.4 83.3 z M 50.6 31.5 c 1.3 0 2.4 -1.1 2.4 -2.6 V 14.3 L 80.3 44.5 L 53 74.7 V 60.1 c 0 -1.4 -1 -2.6 -2.4 -2.6 c -16.4 0 -32.1 6.1 -44.5 17.3 C 8.8 50.4 27.7 31.5 50.6 31.5 z"/></svg>
