<svg xmlns="http://www.w3.org/2000/svg" height="177.54" viewBox="0 0 152.62755 177.541" width="152.63"><g transform="translate(-2.0076 -.97543)"><path d="m63.895 156.89c-1.083 0.28399-2.9052 0.74205-4.2441 0.99805v0.56835c1.965 0.171 2.0215 0.14189 2.0215 1.8809v14.209c0 1.595-0.14453 1.7372-1.9375 1.9082v0.6543h6.0371v-0.6543c-1.737-0.171-1.8789-0.31323-1.8789-1.9082v-7.2617c0.71099-0.82699 1.7656-1.2526 2.9336-1.3106 2.078 0 2.8184 1.3397 2.8184 3.3887v5.1836c0 1.595-0.14053 1.7372-1.9375 1.9082v0.6543h6.0391v-0.68164c-1.735-0.144-1.8809-0.28589-1.8809-1.8809v-6.0371c0-2.536-1.4797-4.1596-3.9297-4.1016-1.537 0.056-3.074 0.9682-4.041 1.9922v-9.5098zm-17.115 0.78906c-0.79799 0-1.4805 0.68342-1.4805 1.5664 0 0.85398 0.68248 1.5352 1.4805 1.5352 0.8257 0 1.4784-0.67913 1.4805-1.5312 0-0.87998-0.65448-1.5603-1.4805-1.5703zm71.84 0c-0.79499 0-1.4824 0.68342-1.4824 1.5664 0 0.85398 0.68643 1.5352 1.4824 1.5352 0.8237 0 1.4765-0.67913 1.4785-1.5312 0-0.87998-0.64853-1.5603-1.4785-1.5703zm-105.02 0.4961c-3.7299 0-5.8633 2.4183-5.8633 5.2383 0 3.4159 3.8432 4.7579 4.7832 5.2129 1.823 0.88298 3.6738 1.8779 3.6738 4.2988 0 2.22-1.3672 3.6758-3.5332 3.6758-3.0169 0-4.4698-3.163-4.9238-4.5l-0.71289 0.11132c0.285 1.538 0.59722 3.5588 0.82422 4.2988 0.34099 0.145 0.85542 0.37062 1.5664 0.59961 0.71299 0.229 1.6791 0.42774 2.7051 0.42774 3.6179 0 6.3242-2.4207 6.3242-5.7246 0-3.5289-2.9911-4.6985-4.8711-5.5215-2.164-0.96998-3.6738-1.9126-3.6738-4.0195 0-1.681 1.0552-3.1582 3.0762-3.1582 2.592 0 3.3901 1.9929 3.873 3.6719l0.71094-0.0859c-0.226-1.708-0.39772-2.8468-0.51172-3.8438-0.313-0.056-0.71104-0.19951-1.082-0.3125-0.59899-0.2-1.5662-0.36914-2.3652-0.36914zm41.209 2.9023-1.8496 1.8789v1.7949h-1.3672l-0.82617 0.79687 0.11523 0.2832h2.0781v8.1738c0 2.279 0.99634 3.4473 2.8203 3.4473 0.198 0 0.56852-0.0865 0.85352-0.22852l2.334-1.168-0.28711-0.62695c-0.54099 0.313-1.1667 0.54102-1.6797 0.54102-0.76799 0-1.8223-0.39818-1.8223-2.6191l0.002-0.01v-7.5098h3.1035c0.34299-0.31199 0.42722-0.76708 0.19922-1.0801h-3.3027v-3.6738h-0.37109zm-30.385 3.2754c-1.452 0.51299-2.8482 0.85758-4.1582 1.1426v0.51172c1.88 0.22799 1.9355 0.25592 1.9355 1.9629h-0.002v6.5801c0 1.595-0.1405 1.7352-2.1055 1.9062v0.65626h6.1816v-0.65626c-1.711-0.17099-1.8535-0.31127-1.8535-1.9062v-7.2051c0.91398-0.73999 2.0524-1.3379 3.1914-1.3379 1.963 0 2.5605 1.311 2.5605 2.9609v5.582c0 1.595-0.14022 1.7352-1.9922 1.9062v0.65626h6.0352v-0.65626c-1.68-0.17099-1.8223-0.31127-1.8223-1.9062v-6.3809c0-0.256-0.02864-0.48193-0.05664-0.79493 1.054-0.91198 2.1641-1.3672 3.1621-1.3672 2.107 0 2.6465 1.4232 2.6465 3.0742v5.4688c0 1.595-0.14052 1.7352-2.0215 1.9062v0.65626h6.0391v-0.65626c-1.652-0.17099-1.7949-0.31127-1.7949-1.9062v-6.3516c0-2.249-1.279-3.7871-3.5859-3.7871-0.93898 0-1.6538 0.31384-2.5078 0.79883-0.45499 0.256-1.3388 0.82484-2.1348 1.4238-0.51299-1.397-1.7948-2.2227-3.2188-2.2227-0.99598 0-1.7086 0.31123-2.5605 0.82422-0.79799 0.48399-1.3955 0.88491-1.9375 1.2539v-2.1367zm23.465 0.002c-1.452 0.51299-2.8482 0.85363-4.1582 1.1406v0.51172c1.881 0.22899 1.9375 0.25787 1.9375 1.9648v6.5781c0 1.594-0.14252 1.7382-2.0215 1.9082v0.6543h6.291v-0.6543c-1.907-0.17-2.0488-0.31423-2.0488-1.9082v-0.006-10.189zm56.309 0c-1.452 0.51299-2.8463 0.85568-4.1562 1.1387v0.51368c1.879 0.22799 1.9375 0.25787 1.9375 1.9648v6.5781c0 1.595-0.14151 1.7372-2.1055 1.9082v0.6543h6.1387v-0.6543c-1.679-0.171-1.8223-0.31323-1.8223-1.9082v-7.2051c0.85399-0.73999 1.9935-1.3379 3.1055-1.3379 2.107 0 2.6484 1.4242 2.6484 3.0762v5.4668c0 1.595-0.14252 1.7372-2.0215 1.9082v0.6543h6.0371v-0.6543c-1.652-0.171-1.793-0.31323-1.793-1.9082v-6.3516c0-2.249-1.2832-3.7852-3.6191-3.7852-0.88399 0-1.5942 0.31122-2.4492 0.82422-0.73999 0.45699-1.3662 0.85395-1.9082 1.252l0.008-0.0156v-2.1191zm15.541 0c-1.455 0.51299-2.8472 0.85363-4.1582 1.1406v0.51172c1.879 0.22899 1.9375 0.25787 1.9375 1.9648v6.5781c0 1.594-0.14252 1.7382-2.0215 1.9082v0.6543h6.293v-0.6543c-1.908-0.17-2.0488-0.31423-2.0488-1.9082l-0.002-0.006v-10.189zm19.99 0c-1.452 0.51299-2.8443 0.85568-4.1562 1.1387v0.51368c1.879 0.22799 1.9375 0.25787 1.9375 1.9648v6.5781c0 1.595-0.14346 1.7372-2.1074 1.9082v0.6543h6.1504v-0.6543c-1.679-0.171-1.8242-0.31323-1.8242-1.9082v-7.2051c0.85698-0.73999 1.9965-1.3379 3.1055-1.3379 2.107 0 2.6484 1.4242 2.6484 3.0762v5.4668c0 1.595-0.14251 1.7372-2.0215 1.9082v0.6543h6.0371v-0.6543c-1.653-0.171-1.793-0.31323-1.793-1.9082v-6.3516c0-2.249-1.2832-3.7852-3.6191-3.7852-0.88099 0-1.5923 0.31122-2.4453 0.82422-0.73998 0.45699-1.3701 0.85395-1.9121 1.252v-0.0156-2.1191zm-59.66 0.0508c-2.48 0-4.2441 1.6815-4.2441 3.7305 0 1.883 1.564 2.8488 3.416 3.6738 1.566 0.68399 2.2207 1.5098 2.2207 2.6777 0 1.395-0.9965 2.1074-2.0215 2.1074-1.678 0-2.959-1.8226-3.416-3.4746v0.0195l-0.6543 0.15039c0 1.11 0.1718 2.6755 0.3418 3.1035 0.54099 0.455 1.8507 1.0547 3.3047 1.0547 2.163 0 4.584-1.2824 4.584-3.9023 0-1.906-1.3663-3.0171-3.4453-3.8711-1.253-0.512-2.4785-1.3125-2.4785-2.4805 0-0.93999 0.59793-1.9356 1.8789-1.9356 1.081 0 1.9936 0.65614 2.8496 2.5371l0.68359-0.17188c-0.056-0.48499-0.34291-2.0803-0.62891-2.7363-0.56799-0.255-1.3666-0.48243-2.3906-0.48243zm11.732 0.002c-2.5916 0-6.2919 2.0788-6.293 6.8613 0 2.96 2.3034 6.1797 6.3203 6.1797 2.877 0 6.1797-2.2778 6.1797-6.7188 0.000001-3.5599-2.5911-6.3223-6.207-6.3223zm37.014 0c-2.02 0.36799-3.6988 1.4528-4.3848 1.9648-0.62599 0.45499-0.96875 0.85662-0.96875 1.2246 0 0.51399 0.77057 0.96875 1.2266 0.96875 0.31299 0 0.5693-0.19802 0.6543-0.54102 0.31299-1.197 0.91171-2.3926 2.3047-2.3926 1.511 0 2.3359 0.9391 2.3359 2.7051v0.96875c-0.85398 0.59699-3.186 1.4252-4.582 1.9942-1.481 0.59699-2.166 1.564-2.166 2.875-0.00001 1.567 1.337 3.2754 3.418 3.2754 0.59799 0 2.1361-1.0816 3.3301-1.8516 0.17 0.71299 0.59742 1.6816 1.5664 1.8516l0.0176-0.0156 2.8613-1.3809-0.25781-0.62695c-0.51199 0.25699-0.99561 0.37109-1.2246 0.37109-0.42699 0-0.79687-0.48212-0.79687-1.5371v-6.4062c0-1.027-0.14305-2.0237-1.082-2.7637-0.56999-0.42599-1.452-0.68359-2.252-0.68359zm-37.355 0.85547c2.591 0 3.957 2.9348 3.957 6.0957-0.000554 3.8383-1.5088 5.2383-3.2734 5.2383-2.478 0-4.0449-2.761-4.0449-6.377 0-2.991 1.4514-4.957 3.3613-4.957zm38.549 4.9414v4.5586c-0.76998 0.59799-1.8216 1.1094-2.4766 1.1094-0.85599 0-1.8789-0.70973-1.8789-2.2207 0-1.026 0.48249-1.5947 1.4805-2.1367 0.53799-0.285 2.249-1.0526 2.875-1.3106z" fill="#231f20" transform="translate(-.0012970)"/><path fill="#1891cb" d="m107.11 146.88c38.42-15.92 56.67-59.967 40.75-98.382-15.91-38.425-59.955-56.661-98.376-40.75-38.421 15.917-56.663 59.962-40.746 98.382 15.911 38.42 59.956 56.66 98.374 40.75"/><path fill="#f7ce17" d="m130.76 94.929c-5.636-9.681-14.536-9.793-15.628-9.763v-0.036l37.533-7.821-37.533-7.814v-0.012c0.392-0.352 7.685-6.792 18.622-6.957 8.267-0.118 15.412-10.228 10.85-17.995 0 0-1.35 12.206-16.762 8.137-10.832-2.865-17.208 3.358-17.96 4.151 0-0.005 0-0.012-0.012-0.018l21.02-32.074-32.074 21.013c-0.005-0.006-0.011-0.006-0.017-0.006 0.022-0.476 0.61-10.222 8.26-18.095 5.754-5.93 3.657-18.125-5.055-20.391 0 0 7.668 9.582-6.106 17.602-9.675 5.637-9.781 14.537-9.758 15.63h-0.023l-7.82-37.535-7.82 37.529c0 0.006-0.005 0.006-0.012 0.006-0.311-0.341-6.793-7.651-6.963-18.63-0.117-8.26-10.228-15.412-17.989-10.844 0 0 12.2 1.351 8.131 16.756-2.866 10.862 3.392 17.238 4.156 17.966 0 0 0 0.006-0.012 0.006l-32.068-21.012 17.12 26.138 3.887 5.936s0 0.005-0.006 0.011c-0.311-0.018-10.163-0.552-18.1-8.26-5.931-5.748-18.131-3.652-20.397 5.061 0 0 9.588-7.668 17.607 6.1 5.654 9.711 14.584 9.787 15.647 9.764 0 0.006-0.012 0.018-0.012 0.023l-37.528 7.814 37.529 7.821v0.006c-0.247 0.229-7.58 6.805-18.635 6.969-8.261 0.124-15.406 10.229-10.85 17.995 0 0 1.362-12.206 16.768-8.138 10.879 2.878 17.25-3.41 17.966-4.156 0.006 0.006 0.012 0.018 0.024 0.023l-21.019 32.071 32.068-21.01c-0.012 0.335-0.552 10.169-8.255 18.107-5.754 5.923-3.658 18.123 5.049 20.39 0 0-7.662-9.581 6.106-17.603 9.711-5.652 9.793-14.584 9.764-15.646 0.012 0.005 0.024 0.005 0.029 0.011l7.82 37.529 7.82-37.529v-0.006c0.282 0.312 6.799 7.633 6.964 18.642 0.123 8.261 10.227 15.406 17.994 10.845 0 0-12.205-1.351-8.132-16.763 2.865-10.851-3.387-17.226-4.156-17.966 0.013-0.006 0.019-0.012 0.029-0.018l32.069 21.013-11.091-16.933-9.923-15.142c0.44 0.023 10.21 0.599 18.095 8.262 5.93 5.747 18.131 3.657 20.397-5.056-0.02 0.02-9.6 7.68-17.62-6.081"/></g></svg>
