<svg width="113" height="23" viewBox="0 0 113 23" xmlns="http://www.w3.org/2000/svg">
  <g id="wordpress" fill="currentColor">
    <path d="M64.0102 8.53906H59.4435V9.0242C60.8721 9.0242 61.1017 9.33088 61.1017 11.1452V14.4163C61.1017 16.2306 60.8721 16.5631 59.4435 16.5631C58.3469 16.4097 57.6065 15.8221 56.5864 14.6972L55.4133 13.4196C56.9942 13.1387 57.8362 12.1419 57.8362 11.0176C57.8362 9.61178 56.6372 8.53906 54.3925 8.53906H49.9023V9.0242C51.3309 9.0242 51.5605 9.33088 51.5605 11.1452V14.4163C51.5605 16.2306 51.3309 16.5631 49.9023 16.5631V17.0482H54.9791V16.5631C53.5506 16.5631 53.3209 16.2306 53.3209 14.4163V13.4962H53.7544L56.5864 17.0482H64.0102C67.6584 17.0482 69.24 15.1063 69.24 12.7804C69.24 10.4545 67.6584 8.53906 64.0102 8.53906ZM53.3209 12.7037V9.3051H54.3668C55.5149 9.3051 56.0249 10.0976 56.0249 11.0176C56.0249 11.9119 55.5149 12.7037 54.3668 12.7037H53.3209ZM64.0868 16.2537H63.91C62.9915 16.2537 62.8641 16.0237 62.8641 14.8478V9.3051H64.0888C66.742 9.3051 67.227 11.2477 67.227 12.7553C67.2249 14.3145 66.7399 16.2537 64.0868 16.2537Z"/>
    <path d="M35.6909 13.6515L37.452 8.43785C37.962 6.93021 37.7324 6.49597 36.0973 6.49597V5.98505H40.8929V6.49597C39.2863 6.49597 38.9036 6.87932 38.2655 8.74521L35.359 17.485H35.0278L32.4254 9.48614L29.7695 17.485H29.4376L26.6062 8.74521C25.9966 6.87932 25.5855 6.49597 24.1055 6.49597V5.98505H29.7695V6.49597C28.2637 6.49597 27.856 6.85354 28.3917 8.43785L30.1007 13.6515L32.6746 5.98438H33.1596L35.6909 13.6515Z"/>
    <path d="M44.3603 17.3818C41.554 17.3818 39.2578 15.3117 39.2578 12.7815C39.2578 10.2778 41.554 8.20703 44.3603 8.20703C47.1666 8.20703 49.4628 10.2778 49.4628 12.7815C49.4628 15.3117 47.1666 17.3818 44.3603 17.3818ZM44.3603 9.0002C42.0133 9.0002 41.1971 11.1205 41.1971 12.7815C41.1971 14.469 42.0133 16.5642 44.3603 16.5642C46.731 16.5642 47.5493 14.469 47.5493 12.7815C47.5493 11.1205 46.7331 9.0002 44.3603 9.0002Z"/>
    <path d="M75.5368 16.5385V17.0494H69.6953V16.5385C71.4043 16.5385 71.7104 16.1043 71.7104 13.5484V9.45968C71.7104 6.90443 71.4043 6.49529 69.6953 6.49529V5.98438H74.9786C77.6061 5.98438 79.0604 7.34139 79.0604 9.153C79.0604 10.9171 77.6061 12.2965 74.9786 12.2965H73.5244V13.5484C73.5244 16.1043 73.8278 16.5385 75.5368 16.5385ZM74.9759 6.90375H73.5244V11.35H74.9786C76.4072 11.35 77.0703 10.354 77.0703 9.15232C77.0676 7.92694 76.4045 6.90443 74.9759 6.90443V6.90375Z"/>
    <path d="M96.5837 14.6449L96.4564 15.1049C96.2267 15.9483 95.9456 16.2583 94.1344 16.2583H93.7768C92.4498 16.2583 92.2189 15.9517 92.2189 14.1373V12.9588C94.2089 12.9588 94.362 13.1372 94.362 14.4664H94.847V10.658H94.362C94.362 11.9871 94.2089 12.1656 92.2189 12.1656V9.30366H93.6223C95.4336 9.30366 95.714 9.61034 95.9436 10.4571L96.0716 10.9429H96.478L96.2999 8.54102H88.8023V9.02615C90.2308 9.02615 90.4605 9.33283 90.4605 11.1472V14.4182C90.4605 16.0785 90.2654 16.4965 89.1389 16.5562C88.0687 16.392 87.3338 15.8098 86.3279 14.6991L85.1548 13.4215C86.7364 13.1406 87.5783 12.1439 87.5783 11.0196C87.5783 9.61373 86.3794 8.54102 84.134 8.54102H79.6445V9.02615C81.0724 9.02615 81.302 9.33283 81.302 11.1472V14.4182C81.302 16.2326 81.0724 16.565 79.6445 16.565V17.0502H84.7247V16.565C83.2961 16.565 83.0665 16.2326 83.0665 14.4182V13.4948H83.5L86.3313 17.0468H96.8167L96.9698 14.6449H96.5837ZM83.0631 12.7023V9.30366H84.1089C85.2564 9.30366 85.7671 10.0961 85.7671 11.0162C85.7671 11.9105 85.2564 12.7023 84.1089 12.7023H83.0631Z"/>
    <path d="M101.766 17.3838C100.745 17.3838 99.8515 16.8471 99.4695 16.5147C99.2593 16.7631 99.1191 17.0631 99.0631 17.3838H98.5781V13.8556H99.0888C99.2921 15.5417 100.466 16.5384 101.972 16.5384C102.784 16.5384 103.451 16.0784 103.451 15.3117C103.451 14.6474 102.864 14.1365 101.819 13.6507L100.364 12.9613C99.3435 12.4748 98.5781 11.6321 98.5781 10.5072C98.5781 9.28111 99.7296 8.23349 101.309 8.23349C102.15 8.23349 102.866 8.54018 103.298 8.89775C103.426 8.7953 103.553 8.51372 103.63 8.20703H104.114V11.223H103.579C103.4 10.022 102.737 9.02531 101.385 9.02531C100.67 9.02531 100.007 9.43241 100.007 10.0729C100.007 10.7372 100.542 11.0954 101.768 11.6572L103.171 12.3473C104.395 12.9349 104.879 13.8807 104.879 14.6474C104.877 16.2568 103.475 17.3838 101.766 17.3838Z"/>
    <path d="M109.481 17.3838C108.46 17.3838 107.567 16.8471 107.184 16.5147C106.974 16.7632 106.834 17.0632 106.778 17.3838H106.293V13.8556H106.803C107.006 15.5417 108.181 16.5384 109.686 16.5384C110.499 16.5384 111.166 16.0784 111.166 15.3117C111.166 14.6474 110.579 14.1365 109.533 13.6507L108.079 12.9613C107.058 12.4748 106.293 11.6321 106.293 10.5072C106.293 9.28111 107.444 8.23349 109.023 8.23349C109.865 8.23349 110.581 8.54018 111.013 8.89775C111.14 8.7953 111.267 8.51372 111.344 8.20703H111.829V11.223H111.293C111.114 10.022 110.451 9.02531 109.099 9.02531C108.385 9.02531 107.722 9.43241 107.722 10.0729C107.722 10.7372 108.257 11.0954 109.483 11.6572L110.885 12.3473C112.111 12.9349 112.595 13.8807 112.595 14.6474C112.593 16.2568 111.189 17.3838 109.481 17.3838Z"/>
    <path d="M11.4818 0.690041C13.6319 0.68649 15.7336 1.3294 17.5149 2.53558C18.6638 3.31296 19.6535 4.30328 20.4309 5.45315C21.6356 7.23759 22.2794 9.34243 22.2794 11.4966C22.2794 13.6508 21.6356 15.7556 20.4309 17.5401C19.6544 18.6916 18.6645 19.6832 17.5149 20.461C15.7333 21.6671 13.6321 22.3115 11.4818 22.3115C9.33144 22.3115 7.23029 21.6671 5.44862 20.461C3.71331 19.289 2.35454 17.638 1.53691 15.7081C0.837309 14.0515 0.561826 12.2462 0.735473 10.4559C0.909119 8.66567 1.5264 6.94721 2.53127 5.45654C3.70295 3.71768 5.35339 2.35694 7.2822 1.53953C8.61073 0.976162 10.0391 0.687229 11.4818 0.690041ZM11.4818 8.00921e-08C9.21117 -0.000268296 6.99147 0.673932 5.10337 1.93735C3.21528 3.20076 1.74359 4.99664 0.874418 7.09788C0.00524523 9.19913 -0.222378 11.5114 0.220334 13.7422C0.663046 15.973 1.75621 18.0223 3.36158 19.6308C4.96696 21.2393 7.01245 22.3348 9.23938 22.7788C11.4663 23.2228 13.7747 22.9953 15.8725 22.1251C17.9704 21.255 19.7636 19.7812 21.0253 17.8902C22.287 15.9992 22.9606 13.7758 22.9608 11.5014C22.961 8.45142 21.7518 5.52631 19.5991 3.36943C17.4464 1.21255 14.5265 0.000539886 11.4818 8.00921e-08Z"/>
    <path d="M1.91406 11.4968C1.91382 13.2965 2.41947 15.06 3.37312 16.5852C4.32678 18.1105 5.6899 19.3359 7.30645 20.1213L2.7445 7.59543C2.19635 8.82276 1.91335 10.1523 1.91406 11.4968ZM17.9395 11.0131C17.9395 9.82839 17.5148 9.00875 17.1511 8.36689C16.6661 7.57711 16.2116 6.90946 16.2116 6.11968C16.2116 5.23762 16.8781 4.41866 17.8176 4.41866C17.8603 4.41866 17.9002 4.42341 17.9415 4.42613C16.92 3.48941 15.7076 2.78607 14.3881 2.36472C13.0687 1.94338 11.6736 1.81408 10.2993 1.98577C8.92507 2.15746 7.60442 2.62603 6.42867 3.35911C5.25293 4.09219 4.25012 5.07227 3.48958 6.23163C3.71446 6.23841 3.92579 6.24316 4.10529 6.24316C5.10574 6.24316 6.65552 6.12171 6.65552 6.12171C7.17098 6.09118 7.23127 6.85043 6.71648 6.91149C6.71648 6.91149 6.19763 6.97188 5.6212 7.00241L9.1055 17.3836L11.1992 11.0938L9.70902 7.00309C9.19355 6.97256 8.70518 6.91217 8.70518 6.91217C8.18972 6.88164 8.25 6.09186 8.76614 6.12239C8.76614 6.12239 10.3457 6.24384 11.2859 6.24384C12.2863 6.24384 13.8354 6.12239 13.8354 6.12239C14.3516 6.09186 14.4119 6.8511 13.8964 6.91217C13.8964 6.91217 13.3775 6.97256 12.8018 7.00309L16.2563 17.3042L17.2432 14.1715C17.6828 12.8023 17.9395 11.832 17.9395 11.0117V11.0131ZM11.6489 12.3348L8.77834 20.6886C10.7057 21.2575 12.763 21.2041 14.6584 20.5359C14.6318 20.4928 14.6091 20.4474 14.5907 20.4002L11.6489 12.3348ZM19.8767 6.89928C19.92 7.22588 19.9415 7.55501 19.9411 7.88447C19.9411 8.85677 19.7589 9.94984 19.2129 11.317L16.2915 19.7787C18.4467 18.5228 20.0274 16.4739 20.697 14.068C21.3666 11.6622 21.0723 9.08962 19.8767 6.89792V6.89928Z"/>
  </g>
</svg>
