<svg viewBox="0 0 30 30" xmlns="http://www.w3.org/2000/svg">
  <g id="icon" fill="currentColor">
    <path d="M14.973 0c4.213 0 7.772 1.451 10.674 4.353C28.549 7.254 30 10.803 30 15s-1.43 7.705-4.287 10.526C22.696 28.51 19.115 30 14.973 30c-4.072 0-7.585-1.474-10.54-4.42C1.477 22.633 0 19.107 0 15S1.474 7.34 4.42 4.34C7.313 1.446 10.83 0 14.973 0zm.04 2.706c-3.401 0-6.281 1.196-8.638 3.589C3.93 8.777 2.705 11.679 2.705 15c0 3.321 1.215 6.196 3.643 8.624 2.429 2.429 5.321 3.642 8.679 3.642 3.357 0 6.267-1.222 8.732-3.67 2.357-2.285 3.536-5.151 3.536-8.598 0-3.428-1.197-6.33-3.589-8.705-2.393-2.392-5.291-3.588-8.692-3.588zM7.956 19.072v-8.304h4.125c2.036 0 3.054.937 3.054 2.813 0 .321-.05.629-.148.924a2.82 2.82 0 01-.509.884c-.24.295-.602.536-1.084.723-.482.187-1.054.282-1.714.282h-1.634v2.678h-2.09zm2.063-6.75v2.517h1.767c.429 0 .75-.12.965-.362.215-.24.322-.54.322-.897 0-.84-.447-1.26-1.34-1.26h-1.714v.001zm5.678 6.75v-8.304h3.215c1.32 0 2.356.34 3.107 1.018.75.678 1.124 1.723 1.124 3.134 0 1.41-.375 2.456-1.124 3.134-.75.678-1.786 1.018-3.107 1.018h-3.215zm2.063-6.563v4.822h1.205c.732 0 1.264-.218 1.594-.657.33-.437.495-1.021.495-1.754 0-.732-.165-1.316-.495-1.754-.33-.438-.87-.656-1.62-.656H17.76z"/>
  </g>
</svg>
