<?xml version="1.0" encoding="UTF-8"?>
<svg version="1.1" xmlns="http://www.w3.org/2000/svg" xmlns:xlink="http://www.w3.org/1999/xlink">
<symbol id="pd-light" viewBox="0 0 24 24"><path d="M12 0C5.37275 0 0 5.37275 0 12C0 18.6265 5.37275 24 12 24C18.6273 24 24 18.6265 24 12C24 5.37269 18.6273 0 12 0ZM12 21.7499C6.62356 21.7499 2.24975 17.3757 2.24975 12C2.24975 10.8746 2.44369 9.79381 2.79638 8.78788L6.60969 10.4859C6.507 10.9963 6.45131 11.5286 6.45131 12.0784C6.45131 16.869 10.0271 18.2188 12.2768 18.2188C13.6035 18.2188 14.7517 17.7906 15.6505 17.1623C15.8213 17.0399 15.9761 16.9167 16.1182 16.7913L14.3689 14.6658C14.3176 14.7244 14.264 14.7801 14.2091 14.83C13.5286 15.4752 12.7807 15.4752 12.6136 15.4752C10.7832 15.4752 10.0171 13.544 10.0068 11.997L20.5166 16.6762C20.5291 16.6784 20.5393 16.6784 20.5496 16.6806C18.8912 19.6999 15.6806 21.7499 12 21.7499ZM21.3958 14.4913L10.556 9.65306C10.9471 8.94481 11.5696 8.4125 12.5011 8.4125C13.0411 8.4125 13.4693 8.59138 13.8066 8.81725C13.9466 8.91844 14.0683 9.01956 14.1709 9.1215L16.1249 7.11037C14.8125 5.982 13.3204 5.78038 12.3446 5.78038C10.0516 5.78038 8.42906 6.77163 7.47262 8.27688L3.84775 6.66019C5.59237 4.00606 8.59437 2.24938 12 2.24938C17.3764 2.24938 21.7506 6.62288 21.7506 12C21.7506 12.8703 21.6341 13.7127 21.4192 14.5163C21.4104 14.5075 21.4046 14.5001 21.3958 14.4913Z" fill="currentColor"/></symbol>
<symbol id="sa-light" viewBox="0 0 24 24"><path d="M11.9786 0C15.3353 0 18.1777 1.16438 20.5069 3.49313C22.8349 5.80763 24 8.643 24 12C24 15.3577 22.8566 18.1714 20.5706 20.4427C18.1567 22.8142 15.2921 24 11.9786 24C8.73525 24 5.92125 22.8214 3.53587 20.4641C1.179 18.1073 0 15.2865 0 12.0004C0 8.72925 1.179 5.8935 3.53587 3.4935C5.86425 1.16438 8.67863 0 11.9786 0ZM12.0214 2.1645C9.29287 2.1645 6.98588 3.129 5.1 5.05763C3.1425 7.04363 2.16412 9.35775 2.16412 12C2.16412 14.6719 3.13538 16.9714 5.07788 18.9C7.02075 20.8433 9.33488 21.8141 12.0206 21.8141C14.6918 21.8141 17.0209 20.8357 19.0065 18.8786C20.8924 17.0501 21.8351 14.7574 21.8351 12C21.8351 9.25762 20.8778 6.94313 18.9641 5.05763C17.064 3.12825 14.7495 2.1645 12.0214 2.1645ZM6.66412 10.3069C6.8925 8.83537 7.485 7.69613 8.44238 6.88912C9.39937 6.08213 10.5634 5.67863 11.9351 5.67863C13.8202 5.67863 15.321 6.28613 16.4351 7.49963C17.5492 8.71387 18.1065 10.2713 18.1065 12.171C18.1065 14.0141 17.5279 15.546 16.3714 16.767C15.2134 17.988 13.7141 18.5993 11.8706 18.5993C10.5135 18.5993 9.342 18.1924 8.3565 17.3779C7.37063 16.5634 6.77813 15.4065 6.57788 13.9065H9.6C9.67125 15.3637 10.5499 16.0924 12.2359 16.0924C13.0781 16.0924 13.7572 15.7279 14.2714 14.9996C14.7863 14.2714 15.0435 13.2994 15.0435 12.0855C15.0435 10.8139 14.8076 9.84638 14.3366 9.18188C13.8649 8.51775 13.1869 8.1855 12.3004 8.1855C10.6999 8.1855 9.80025 8.89237 9.60038 10.3065H10.479L8.10075 12.6851L5.72213 10.3065L6.66412 10.3069Z" fill="currentColor"/></symbol>
<symbol id="zero-dark" viewBox="0 0 24 24"><path fill-rule="evenodd" d="M12 24C18.6274 24 24 18.6274 24 12C24 5.37258 18.6274 0 12 0C5.37258 0 0 5.37258 0 12C0 18.6274 5.37258 24 12 24ZM7.04297 12C7.04297 8.8309 8.03934 5.09253 12.0012 5.09253C15.9627 5.09253 16.9591 8.8309 16.9591 12C16.9591 15.1695 15.9627 18.9075 12.0012 18.9075C8.03897 18.9075 7.04297 15.1695 7.04297 12ZM12.4467 7.75615C12.3087 7.72203 12.1621 7.69728 12.0012 7.69728C9.96347 7.69728 9.86672 10.6039 9.86672 11.9997C9.86672 12.4485 9.87834 13.05 9.95934 13.6635L12.5978 8.81478C12.8716 8.34153 12.7321 8.00215 12.4467 7.75615ZM14.1357 12C14.1357 11.4537 14.1158 10.6767 13.976 9.93265L11.027 15.0259C10.6152 15.6435 10.901 15.9927 11.3547 16.1858C11.3945 16.2015 11.4387 16.215 11.4807 16.227C11.5062 16.236 11.5302 16.2443 11.5565 16.2522C11.6937 16.2863 11.8415 16.3032 12.002 16.3032C14.039 16.3032 14.1357 13.3962 14.1357 12Z" fill="currentColor"/></symbol>
<symbol id="nd-light" viewBox="0 0 24 24"><path d="M11.9786 0C15.3353 0 18.1777 1.16438 20.5069 3.49313C22.8349 5.80763 24 8.643 24 12C24 15.3577 22.8566 18.1714 20.5706 20.4427C18.1567 22.8142 15.2921 24 11.9786 24C8.73525 24 5.92125 22.8214 3.53587 20.4637C1.179 18.1073 0 15.2865 0 12.0004C0 8.72925 1.179 5.8935 3.53587 3.4935C5.86425 1.16438 8.67863 0 11.9786 0ZM12.0214 2.1645C9.29287 2.1645 6.98588 3.129 5.1 5.05763C3.1425 7.04363 2.16412 9.35775 2.16412 12C2.16412 14.6719 3.13538 16.9714 5.07788 18.9C7.02075 20.8433 9.33488 21.8141 12.0206 21.8141C14.6918 21.8141 17.0209 20.8361 19.0065 18.8786C20.8924 17.0501 21.8351 14.7577 21.8351 12C21.8351 9.25762 20.8778 6.94313 18.9641 5.05763C17.064 3.12825 14.7495 2.1645 12.0214 2.1645ZM16.5431 9.171V11.2282H7.82175V9.171H16.5431ZM16.5431 13.0286V15.0848H7.82175V13.0286H16.5431Z" fill="currentColor"/></symbol>
<symbol id="remix-light" viewBox="0 0 24 24"><path d="M11.9784 0C15.3352 0 18.1784 1.164 20.5064 3.4928C22.8352 5.808 24 8.6432 24 12C24 15.3576 22.856 18.1712 20.5704 20.4424C18.1568 22.8144 15.292 24 11.9784 24C8.7352 24 5.9216 22.8216 3.536 20.464C1.1792 18.1072 0 15.2864 0 12C0 8.7296 1.1792 5.8936 3.536 3.4936C5.864 1.164 8.6784 0 11.9784 0ZM12.0216 2.1648C9.2936 2.1648 6.9856 3.1288 5.1 5.0576C3.1424 7.044 2.164 9.3576 2.164 12C2.164 14.672 3.1352 16.9712 5.0776 18.9C7.0208 20.844 9.3352 21.8144 12.0208 21.8144C14.692 21.8144 17.0208 20.836 19.0064 18.8784C20.8928 17.0504 21.8352 14.7576 21.8352 12C21.8352 9.2576 20.8776 6.9432 18.964 5.0576C17.064 3.128 14.7496 2.1648 12.0216 2.1648ZM19.8424 12.2144L20.0784 12.3216V15.7072L19.864 15.8136L16.9504 17.0568L16.8216 17.1L16.6712 17.0576L10.3928 14.4648L10.1784 14.3784L7.0712 15.6648L4.0072 14.3352V11.2496L6.8792 10.0496L6.8576 10.028V6.6424L10.1144 5.2072L17.4648 8.2496V11.228L19.8424 12.2144ZM16.4352 16.1568V14.036H16.4144V13.9496L10.9072 11.7V13.8864L16.4144 16.1584V16.136L16.4352 16.1568ZM16.8 13.3712L18.7288 12.5792L16.9496 11.8288L15.064 12.6208L16.8 13.3712ZM19.328 15.2144V13.136L17.1856 14.036V16.136L19.328 15.2144Z" fill="currentColor"/></symbol>
<symbol id="by-light" viewBox="0 0 24 24"><path d="M11.9786 0C15.3491 0 18.1924 1.15688 20.5069 3.47137C22.8349 5.80013 24 8.643 24 12C24 15.3716 22.8566 18.1785 20.5706 20.421C18.1421 22.8071 15.2782 24 11.9786 24C8.73525 24 5.92125 22.821 3.53587 20.4637C1.179 18.1065 0 15.2858 0 12C0 8.71463 1.179 5.87175 3.53587 3.47175C5.85038 1.15687 8.664 0 11.9786 0ZM12.0214 2.1645C9.29287 2.1645 6.98588 3.12187 5.1 5.03587C3.1425 7.03613 2.16412 9.35775 2.16412 12.0004C2.16412 14.6576 3.13538 16.9579 5.07788 18.8996C7.02075 20.8429 9.33488 21.8137 12.0206 21.8137C14.6918 21.8137 17.0209 20.8361 19.0065 18.8783C20.8924 17.064 21.8351 14.7712 21.8351 11.9996C21.8351 9.27112 20.8778 6.95025 18.9641 5.0355C17.0501 3.1215 14.7356 2.1645 12.0214 2.1645ZM15.2359 9.02137V13.9282H13.8649V19.7565H10.1359V13.9286H8.76487V9.02137C8.76487 8.80687 8.83988 8.625 8.9895 8.475C9.13988 8.32538 9.32213 8.25 9.53588 8.25H14.4649C14.6648 8.25 14.8436 8.325 15.0004 8.475C15.1567 8.625 15.2359 8.80725 15.2359 9.02137ZM10.3282 5.93587C10.3282 4.80788 10.8851 4.24312 12 4.24312C13.1149 4.24312 13.6714 4.80713 13.6714 5.93587C13.6714 7.05 13.1141 7.60725 12 7.60725C10.8859 7.60725 10.3282 7.05 10.3282 5.93587Z" fill="currentColor"/></symbol>
<symbol id="share-light" viewBox="0 0 24 24"><path d="M11.9786 0C15.3353 0 18.1778 1.16438 20.5069 3.49313C22.8349 5.80762 24 8.64304 24 12C24 15.3578 22.8566 18.1714 20.5706 20.4427C18.1567 22.8142 15.2922 24 11.9786 24C8.73528 24 5.92125 22.8214 3.53587 20.4642C1.179 18.1073 0 15.2865 0 12.0004C0 8.72928 1.179 5.8935 3.53587 3.4935C5.86425 1.16438 8.67864 0 11.9786 0ZM12.0214 2.1645C9.29288 2.1645 6.98587 3.129 5.1 5.05762C3.1425 7.04362 2.16413 9.35776 2.16413 12C2.16413 14.6718 3.13538 16.9714 5.07787 18.9C7.02075 20.8433 9.33488 21.8142 12.0206 21.8142C14.6918 21.8142 17.0209 20.8358 19.0065 18.8786C20.8924 17.0502 21.8351 14.7574 21.8351 12C21.8351 9.2576 20.8778 6.94313 18.9642 5.05762C17.064 3.12825 14.7495 2.1645 12.0214 2.1645ZM16.9073 8.57136C17.0925 8.57136 17.25 8.63552 17.3782 8.76376C17.5073 8.8924 17.5718 9.04984 17.5718 9.23552V18.0638C17.5718 18.2494 17.5073 18.4065 17.3782 18.5347C17.3171 18.5974 17.2438 18.647 17.1628 18.6802C17.0818 18.7135 16.9948 18.7298 16.9073 18.7282H10.3714C10.1854 18.7282 10.0286 18.6642 9.8996 18.5347C9.83696 18.4737 9.78744 18.4003 9.75432 18.3193C9.72112 18.2382 9.70504 18.1513 9.70688 18.0638V15.4489H7.09275C6.90638 15.4489 6.74962 15.3851 6.621 15.2565C6.55834 15.1952 6.5089 15.1218 6.47575 15.0406C6.4426 14.9594 6.42643 14.8724 6.42825 14.7847V5.95725C6.42825 5.7855 6.48487 5.63925 6.6 5.51813C6.71346 5.39718 6.8643 5.31794 7.02825 5.29313H13.6278C13.8131 5.29313 13.9706 5.35725 14.0996 5.48587C14.2278 5.61413 14.2924 5.772 14.2924 5.95762V8.57216L16.9073 8.57136ZM7.7355 14.1427H9.70688V9.23552C9.70688 9.06416 9.76352 8.91784 9.87864 8.7964C9.98616 8.67912 10.129 8.60016 10.2855 8.57136H12.9855V6.62138H7.7355V14.1427ZM16.2642 9.87824H11.0142V17.4H16.2642V9.87824Z" fill="currentColor"/></symbol>
<symbol id="by-dark" viewBox="0 0 24 24"><path fill-rule="evenodd" d="M12 24C18.6274 24 24 18.6274 24 12C24 5.37258 18.6274 0 12 0C5.37258 0 0 5.37258 0 12C0 18.6274 5.37258 24 12 24ZM15.2366 13.9284V9.02153C15.2366 8.80741 15.1575 8.62516 15.0011 8.47516C14.8444 8.32516 14.6655 8.25016 14.4656 8.25016H9.53663C9.32288 8.25016 9.14062 8.32554 8.99025 8.47516C8.84063 8.62516 8.76562 8.80704 8.76562 9.02153V13.9288H10.1366V19.7567H13.8656V13.9284H15.2366ZM12.0008 4.24329C10.8859 4.24329 10.329 4.80804 10.329 5.93604C10.329 7.05016 10.8866 7.60741 12.0008 7.60741C13.1149 7.60741 13.6721 7.05016 13.6721 5.93604C13.6721 4.80729 13.1156 4.24329 12.0008 4.24329Z" fill="currentColor"/></symbol>
<symbol id="sampling-plus-dark" viewBox="0 0 24 24"><path fill-rule="evenodd" d="M12 24C18.6274 24 24 18.6274 24 12C24 5.37258 18.6274 0 12 0C5.37258 0 0 5.37258 0 12C0 18.6274 5.37258 24 12 24ZM16.8859 12.2038C16.7934 12.2656 16.7215 12.3535 16.6791 12.4563L16.4871 12.9171L15.9535 8.42434C15.9363 8.28625 15.8685 8.15943 15.7633 8.06834C15.6581 7.97724 15.5229 7.92832 15.3838 7.931C15.2447 7.93368 15.1114 7.98778 15.0098 8.08287C14.9082 8.17795 14.8454 8.30729 14.8335 8.44594L14.6279 10.9339L14.3759 7.60354C14.3654 7.4621 14.3019 7.32985 14.198 7.23328C14.0942 7.1367 13.9577 7.08292 13.8159 7.08272C13.674 7.08252 13.5374 7.1359 13.4332 7.23219C13.3291 7.32847 13.2652 7.46053 13.2543 7.60194L13.0855 9.77474L12.7983 5.21474C12.7889 5.07225 12.7256 4.93868 12.6213 4.84113C12.517 4.74358 12.3795 4.68935 12.2367 4.68945C12.0939 4.68956 11.9565 4.74398 11.8524 4.84167C11.7482 4.93937 11.6851 5.07303 11.6759 5.21554L11.4287 9.26594L11.2199 6.05874C11.2123 5.91518 11.15 5.77999 11.0457 5.68101C10.9415 5.58203 10.8032 5.5268 10.6595 5.5267C10.5157 5.5266 10.3774 5.58163 10.273 5.68046C10.1686 5.77928 10.1061 5.91439 10.0983 6.05794L9.84231 9.93794L9.64231 7.18194C9.63256 7.04043 9.5697 6.90782 9.46633 6.8107C9.36295 6.71357 9.22669 6.6591 9.08485 6.65819C8.943 6.65728 8.80606 6.71 8.70144 6.80579C8.59682 6.90158 8.53227 7.03336 8.52071 7.17474L8.14631 11.5203L8.05991 10.9299C8.04231 10.8107 7.98687 10.7003 7.90176 10.6149C7.81664 10.5296 7.70636 10.4738 7.58716 10.4559C7.46797 10.438 7.34617 10.4588 7.23972 10.5153C7.13326 10.5719 7.04779 10.6611 6.99591 10.7699L6.35991 12.1091H4.23511V13.2331H6.71511C6.81892 13.2332 6.92074 13.2046 7.00927 13.1503C7.0978 13.0961 7.1696 13.0184 7.21671 12.9259L7.73671 16.4643C7.75808 16.5996 7.82804 16.7225 7.93348 16.81C8.03892 16.8974 8.17262 16.9434 8.30954 16.9394C8.44647 16.9354 8.57723 16.8816 8.67736 16.7881C8.77749 16.6946 8.84011 16.5679 8.85351 16.4315L9.03511 14.3235L9.30951 18.1139C9.31548 18.2591 9.37749 18.3963 9.4825 18.4967C9.5875 18.5971 9.72734 18.653 9.87263 18.6524C10.0179 18.6519 10.1574 18.5951 10.2617 18.4939C10.3659 18.3928 10.427 18.2551 10.4319 18.1099L10.6559 14.7019L10.8879 18.2507C10.8937 18.3959 10.9555 18.5332 11.0604 18.6337C11.1652 18.7343 11.305 18.7903 11.4503 18.79C11.5955 18.7897 11.7351 18.7331 11.8395 18.6321C11.9439 18.5311 12.0051 18.3935 12.0103 18.2483L12.2479 14.3547L12.4663 17.8267C12.4782 17.9666 12.542 18.097 12.645 18.1924C12.7481 18.2877 12.8831 18.3411 13.0235 18.3421C13.1639 18.3431 13.2996 18.2917 13.404 18.1978C13.5084 18.1039 13.574 17.9745 13.5879 17.8347L13.8079 14.9987L14.0447 18.1155C14.0518 18.2589 14.1137 18.3941 14.2175 18.4932C14.3214 18.5924 14.4593 18.6479 14.6028 18.6485C14.7464 18.649 14.8847 18.5944 14.9892 18.496C15.0937 18.3976 15.1565 18.2629 15.1647 18.1195L15.4959 14.1059L15.6239 15.1859C15.6381 15.3097 15.6931 15.4253 15.7802 15.5144C15.8673 15.6035 15.9816 15.6611 16.105 15.6781C16.2284 15.6952 16.354 15.6707 16.462 15.6085C16.57 15.5464 16.6543 15.45 16.7015 15.3347L17.5735 13.2347H20.0167V12.1091H17.1983C17.0871 12.109 16.9783 12.1419 16.8859 12.2038Z M13.4231 12.3619H12.3615V13.4235C12.3571 13.5166 12.3171 13.6044 12.2497 13.6687C12.1823 13.733 12.0927 13.7689 11.9995 13.7689C11.9063 13.7689 11.8168 13.733 11.7493 13.6687C11.6819 13.6044 11.6419 13.5166 11.6375 13.4235V12.3619H10.5759C10.485 12.3545 10.4002 12.3132 10.3384 12.2461C10.2765 12.179 10.2422 12.0912 10.2422 11.9999C10.2422 11.9087 10.2765 11.8208 10.3384 11.7538C10.4002 11.6867 10.485 11.6453 10.5759 11.6379H11.6375V10.5763C11.6375 10.4803 11.6756 10.3883 11.7435 10.3204C11.8114 10.2525 11.9035 10.2143 11.9995 10.2143C12.0955 10.2143 12.1876 10.2525 12.2555 10.3204C12.3234 10.3883 12.3615 10.4803 12.3615 10.5763V11.6379H13.4231C13.4721 11.6356 13.521 11.6433 13.5669 11.6604C13.6129 11.6776 13.6548 11.7039 13.6903 11.7377C13.7258 11.7716 13.754 11.8123 13.7733 11.8573C13.7926 11.9024 13.8025 11.9509 13.8025 11.9999C13.8025 12.049 13.7926 12.0975 13.7733 12.1425C13.754 12.1876 13.7258 12.2283 13.6903 12.2621C13.6548 12.296 13.6129 12.3223 13.5669 12.3394C13.521 12.3566 13.4721 12.3642 13.4231 12.3619Z" fill="currentColor"/></symbol>
<symbol id="nc-light" viewBox="0 0 24 24"><path d="M11.9783 0C15.3495 0 18.1924 1.15688 20.5069 3.471C22.8349 5.7855 24 8.62838 24 12C24 15.372 22.857 18.1785 20.5706 20.4217C18.1425 22.8075 15.2779 24 11.9783 24C8.721 24 5.907 22.8142 3.53587 20.4431C1.179 18.0855 0 15.2719 0 12C0 8.71425 1.179 5.87138 3.53587 3.47137C5.85 1.15725 8.664 0 11.9783 0ZM2.7 8.7645C2.343 9.75 2.16412 10.8289 2.16412 12.0004C2.16412 14.6576 3.13538 16.9579 5.07788 18.9004C7.035 20.8294 9.3495 21.7935 12.0206 21.7935C14.721 21.7935 17.049 20.8155 19.0069 18.8576C19.707 18.1864 20.2564 17.4862 20.6561 16.7569L16.1351 14.7428C15.9773 15.5002 15.5955 16.1179 14.9888 16.596C14.3805 17.0745 13.6631 17.3501 12.8348 17.421V19.2641H11.442V17.421C10.1134 17.4075 8.89875 16.929 7.79925 15.9859L9.44925 14.3145C10.2345 15.0428 11.1277 15.4069 12.1279 15.4069C12.5419 15.4069 12.8959 15.3146 13.1891 15.1283C13.4816 14.943 13.6286 14.6362 13.6286 14.2069C13.6286 13.9065 13.521 13.6639 13.3069 13.4783L12.15 12.9851L10.7359 12.342L8.82862 11.5061L2.7 8.7645ZM12.0214 2.14275C9.29287 2.14275 6.98588 3.10688 5.1 5.0355C4.62825 5.50725 4.18538 6.04275 3.77138 6.64313L8.35725 8.7C8.55713 8.0715 8.9355 7.56788 9.49312 7.1895C10.0496 6.81113 10.6999 6.60038 11.4431 6.55725V4.71413H12.8363V6.55725C13.9365 6.61462 14.9362 6.98588 15.8363 7.67138L14.2717 9.27863C13.5994 8.80725 12.9146 8.57175 12.2145 8.57175C11.8429 8.57175 11.511 8.64338 11.2185 8.78588C10.9256 8.92875 10.779 9.17175 10.779 9.5145C10.779 9.61462 10.8146 9.71438 10.8859 9.8145L12.4072 10.5008L13.4573 10.9721L15.3862 11.829L21.5351 14.5718C21.7358 13.7288 21.8355 12.8719 21.8355 12.0004C21.8355 9.243 20.8785 6.92175 18.9645 5.0355C17.0644 3.10688 14.7491 2.14275 12.0214 2.14275Z" fill="currentColor"/></symbol>
<symbol id="sampling-plus-light" viewBox="0 0 24 24"><path d="M3.544 3.48C5.848 1.16 8.6608 0 11.9848 0C15.3496 0 18.1928 1.16 20.516 3.48C22.8384 5.8 24 8.64 24 12C24 15.36 22.8576 18.1696 20.576 20.4304C18.152 22.8104 15.288 24 11.984 24C8.72 24 5.9064 22.8208 3.544 20.46C1.1808 18.1008 0 15.2808 0 12C0 8.72 1.1816 5.88 3.544 3.48ZM18.9536 5.04C17.0512 3.12 14.7384 2.16 12.0152 2.16C9.2912 2.16 6.9888 3.12 5.1064 5.04C3.144 7.02 2.1624 9.34 2.1624 12C2.1624 14.6592 3.1336 16.96 5.0768 18.9C7.0192 20.8392 9.3312 21.8104 12.0152 21.8104C14.6976 21.8104 17.0312 20.8304 19.0136 18.8696C20.896 17.0504 21.8368 14.76 21.8368 12C21.8368 9.2592 20.8752 6.94 18.9536 5.04ZM16.6792 12.456C16.7216 12.3532 16.7935 12.2653 16.886 12.2034C16.9784 12.1416 17.0872 12.1087 17.1984 12.1088H20.0168V13.2344H17.5736L16.7016 15.3344C16.6544 15.4497 16.5701 15.546 16.4621 15.6082C16.3541 15.6704 16.2285 15.6948 16.1051 15.6778C15.9817 15.6608 15.8674 15.6031 15.7803 15.514C15.6932 15.4249 15.6382 15.3094 15.624 15.1856L15.496 14.1056L15.1648 18.1192C15.1566 18.2625 15.0938 18.3973 14.9893 18.4957C14.8848 18.5941 14.7465 18.6486 14.6029 18.6481C14.4593 18.6476 14.3214 18.5921 14.2176 18.4929C14.1138 18.3938 14.0519 18.2586 14.0448 18.1152L13.808 14.9984L13.588 17.8344C13.5741 17.9741 13.5085 18.1036 13.4041 18.1975C13.2997 18.2913 13.164 18.3428 13.0236 18.3418C12.8832 18.3408 12.7482 18.2874 12.6451 18.192C12.542 18.0967 12.4783 17.9663 12.4664 17.8264L12.248 14.3544L12.0104 18.248C12.0052 18.3932 11.944 18.5307 11.8396 18.6317C11.7351 18.7327 11.5956 18.7893 11.4504 18.7896C11.3051 18.79 11.1653 18.7339 11.0605 18.6334C10.9556 18.5328 10.8938 18.3956 10.888 18.2504L10.656 14.7016L10.432 18.1096C10.4271 18.2548 10.366 18.3925 10.2617 18.4936C10.1575 18.5948 10.018 18.6516 9.87273 18.6521C9.72744 18.6526 9.5876 18.5968 9.48259 18.4964C9.37758 18.396 9.31558 18.2588 9.3096 18.1136L9.0352 14.3232L8.8536 16.4312C8.8402 16.5675 8.77758 16.6943 8.67745 16.7878C8.57732 16.8813 8.44656 16.935 8.30963 16.9391C8.17271 16.9431 8.03901 16.8971 7.93357 16.8096C7.82813 16.7222 7.75818 16.5993 7.7368 16.464L7.2168 12.9256C7.16969 13.0181 7.09789 13.0958 7.00936 13.15C6.92083 13.2042 6.81902 13.2329 6.7152 13.2328H4.2352V12.1088H6.36L6.996 10.7696C7.04789 10.6608 7.13336 10.5716 7.23981 10.515C7.34626 10.4585 7.46806 10.4376 7.58726 10.4556C7.70645 10.4735 7.81674 10.5292 7.90185 10.6146C7.98696 10.6999 8.04241 10.8104 8.06 10.9296L8.1464 11.52L8.5208 7.1744C8.53236 7.03303 8.59692 6.90124 8.70153 6.80545C8.80615 6.70966 8.9431 6.65694 9.08494 6.65785C9.22678 6.65876 9.36304 6.71324 9.46642 6.81036C9.5698 6.90749 9.63266 7.04009 9.6424 7.1816L9.8424 9.9376L10.0984 6.0576C10.1062 5.91405 10.1687 5.77895 10.2731 5.68012C10.3775 5.58129 10.5158 5.52626 10.6596 5.52636C10.8033 5.52647 10.9416 5.58169 11.0458 5.68067C11.1501 5.77965 11.2124 5.91484 11.22 6.0584L11.4288 9.2656L11.676 5.2152C11.6852 5.0727 11.7483 4.93904 11.8525 4.84134C11.9566 4.74364 12.094 4.68922 12.2368 4.68912C12.3796 4.68902 12.5171 4.74324 12.6214 4.84079C12.7257 4.93834 12.789 5.07191 12.7984 5.2144L13.0856 9.7744L13.2544 7.6016C13.2653 7.4602 13.3292 7.32813 13.4333 7.23185C13.5375 7.13557 13.6741 7.08218 13.8159 7.08239C13.9578 7.08259 14.0943 7.13636 14.1981 7.23294C14.302 7.32952 14.3655 7.46177 14.376 7.6032L14.628 10.9336L14.8336 8.4456C14.8455 8.30695 14.9083 8.17761 15.0099 8.08253C15.1115 7.98745 15.2447 7.93335 15.3839 7.93067C15.523 7.92798 15.6582 7.9769 15.7634 8.068C15.8686 8.15909 15.9364 8.28591 15.9536 8.424L16.4872 12.9168L16.6792 12.456ZM12.3616 12.3616H13.4232C13.4722 12.3639 13.5211 12.3562 13.567 12.3391C13.6129 12.3219 13.6549 12.2956 13.6904 12.2618C13.7259 12.228 13.7541 12.1873 13.7734 12.1422C13.7927 12.0971 13.8026 12.0486 13.8026 11.9996C13.8026 11.9506 13.7927 11.9021 13.7734 11.857C13.7541 11.8119 13.7259 11.7712 13.6904 11.7374C13.6549 11.7036 13.6129 11.6773 13.567 11.6601C13.5211 11.643 13.4722 11.6353 13.4232 11.6376H12.3616V10.576C12.3616 10.48 12.3235 10.3879 12.2556 10.32C12.1877 10.2521 12.0956 10.214 11.9996 10.214C11.9036 10.214 11.8115 10.2521 11.7436 10.32C11.6757 10.3879 11.6376 10.48 11.6376 10.576V11.6376H10.576C10.4851 11.645 10.4003 11.6864 10.3385 11.7534C10.2766 11.8205 10.2423 11.9084 10.2423 11.9996C10.2423 12.0908 10.2766 12.1787 10.3385 12.2458C10.4003 12.3128 10.4851 12.3542 10.576 12.3616H11.6376V13.4232C11.642 13.5163 11.682 13.6041 11.7494 13.6684C11.8168 13.7327 11.9064 13.7686 11.9996 13.7686C12.0928 13.7686 12.1824 13.7327 12.2498 13.6684C12.3172 13.6041 12.3572 13.5163 12.3616 13.4232V12.3616Z" fill="currentColor"/></symbol>
<symbol id="cc-light" viewBox="0 0 24 24"><path d="M11.9781 0C15.3347 0 18.1927 1.17189 20.5496 3.51455C21.6776 4.64295 22.5352 5.93259 23.121 7.38237C23.7064 8.83251 24 10.3715 24 12.0002C24 13.6431 23.7101 15.1825 23.1322 16.6176C22.5536 18.0532 21.6997 19.3214 20.5717 20.4213C19.4006 21.5782 18.0719 22.4644 16.5858 23.0786C15.1004 23.6929 13.5643 24 11.9788 24C10.3933 24 8.87526 23.697 7.42512 23.0891C5.97534 22.4824 4.6752 21.6037 3.52505 20.4539C2.37491 19.3042 1.50002 18.0074 0.900014 16.5644C0.300005 15.1214 0 13.6003 0 12.0002C0 10.4143 0.30338 8.88951 0.910514 7.42512C1.51765 5.96072 2.40004 4.65007 3.55693 3.4928C5.84259 1.16477 8.64951 0 11.9781 0ZM12.0216 2.16453C9.27877 2.16453 6.97136 3.12192 5.09971 5.03595C4.15657 5.99334 3.43168 7.06811 2.92467 8.261C2.41691 9.4539 2.16378 10.7004 2.16378 12.0006C2.16378 13.2865 2.41691 14.5259 2.92467 15.718C3.43205 16.9116 4.15657 17.9759 5.09971 18.9115C6.04247 19.8476 7.10636 20.5612 8.29288 21.0547C9.47827 21.5475 10.7214 21.7938 12.0216 21.7938C13.3071 21.7938 14.5529 21.5445 15.7615 21.0442C16.9686 20.5436 18.0569 19.8228 19.0289 18.88C20.9002 17.0515 21.8355 14.7587 21.8355 12.0009C21.8355 10.6723 21.5925 9.41527 21.1068 8.2295C20.6219 7.04374 19.9143 5.98697 18.9865 5.0577C17.0568 3.12905 14.7359 2.16453 12.0216 2.16453ZM11.8712 10.0078L10.2635 10.8437C10.0918 10.487 9.8814 10.2365 9.63165 10.0937C9.38152 9.95116 9.14939 9.87953 8.93489 9.87953C7.86387 9.87953 7.32762 10.5864 7.32762 12.0009C7.32762 12.6437 7.46337 13.1575 7.7345 13.5433C8.006 13.9292 8.40613 14.1223 8.93489 14.1223C9.63503 14.1223 10.1278 13.7792 10.4139 13.0937L11.8922 13.8437C11.5779 14.4299 11.1422 14.8904 10.5849 15.226C10.0284 15.562 9.41377 15.7296 8.74214 15.7296C7.67075 15.7296 6.80598 15.4015 6.14897 14.7437C5.49196 14.0867 5.16346 13.1725 5.16346 12.0013C5.16346 10.8583 5.49571 9.95153 6.15985 9.2799C6.82398 8.60863 7.66325 8.27263 8.67801 8.27263C10.1642 8.27188 11.2281 8.85051 11.8712 10.0078ZM18.7927 10.0078L17.2068 10.8437C17.0354 10.487 16.8243 10.2365 16.5745 10.0937C16.324 9.95116 16.0844 9.87953 15.8567 9.87953C14.7854 9.87953 14.2491 10.5864 14.2491 12.0009C14.2491 12.6437 14.3852 13.1575 14.6564 13.5433C14.9275 13.9292 15.3272 14.1223 15.8567 14.1223C16.5561 14.1223 17.0493 13.7792 17.3346 13.0937L18.8347 13.8437C18.5065 14.4299 18.0633 14.8904 17.5068 15.226C16.9495 15.562 16.3424 15.7296 15.6854 15.7296C14.5994 15.7296 13.732 15.4015 13.0825 14.7437C12.4314 14.0867 12.1067 13.1725 12.1067 12.0013C12.1067 10.8583 12.4386 9.95153 13.1035 9.2799C13.7672 8.60863 14.6065 8.27263 15.6209 8.27263C17.1066 8.27188 18.1645 8.85051 18.7927 10.0078Z" fill="currentColor"/></symbol>
<symbol id="sampling-dark" viewBox="0 0 24 24"><path fill-rule="evenodd" d="M12 24C18.6274 24 24 18.6274 24 12C24 5.37258 18.6274 0 12 0C5.37258 0 0 5.37258 0 12C0 18.6274 5.37258 24 12 24ZM16.8859 12.2038C16.7934 12.2656 16.7215 12.3535 16.6791 12.4563L16.4871 12.9171L15.9535 8.42434C15.9363 8.28625 15.8685 8.15943 15.7633 8.06834C15.6581 7.97724 15.5229 7.92832 15.3838 7.931C15.2447 7.93368 15.1114 7.98778 15.0098 8.08287C14.9082 8.17795 14.8454 8.30729 14.8335 8.44594L14.6279 10.9339L14.3759 7.60354C14.3654 7.4621 14.3019 7.32985 14.198 7.23328C14.0942 7.1367 13.9577 7.08292 13.8159 7.08272C13.674 7.08252 13.5374 7.1359 13.4332 7.23219C13.3291 7.32847 13.2652 7.46053 13.2543 7.60194L13.0855 9.77474L12.7983 5.21474C12.7889 5.07225 12.7256 4.93868 12.6213 4.84113C12.517 4.74358 12.3795 4.68935 12.2367 4.68945C12.0939 4.68956 11.9565 4.74398 11.8524 4.84167C11.7482 4.93937 11.6851 5.07303 11.6759 5.21554L11.4287 9.26594L11.2199 6.05874C11.2123 5.91518 11.15 5.77999 11.0457 5.68101C10.9415 5.58203 10.8032 5.5268 10.6595 5.5267C10.5157 5.5266 10.3774 5.58163 10.273 5.68046C10.1686 5.77928 10.1061 5.91439 10.0983 6.05794L9.84231 9.93794L9.64231 7.18194C9.63256 7.04043 9.5697 6.90782 9.46633 6.8107C9.36295 6.71357 9.22669 6.6591 9.08485 6.65819C8.943 6.65728 8.80606 6.71 8.70144 6.80579C8.59682 6.90158 8.53227 7.03336 8.52071 7.17474L8.14631 11.5203L8.05991 10.9299C8.04231 10.8107 7.98687 10.7003 7.90176 10.6149C7.81664 10.5296 7.70636 10.4738 7.58716 10.4559C7.46797 10.438 7.34617 10.4588 7.23972 10.5153C7.13326 10.5719 7.04779 10.6611 6.99591 10.7699L6.35991 12.1091H4.23511V13.2331H6.71511C6.81892 13.2332 6.92074 13.2046 7.00927 13.1503C7.0978 13.0961 7.1696 13.0184 7.21671 12.9259L7.73671 16.4643C7.75808 16.5996 7.82804 16.7225 7.93348 16.81C8.03892 16.8974 8.17262 16.9434 8.30954 16.9394C8.44647 16.9354 8.57723 16.8816 8.67736 16.7881C8.77749 16.6946 8.84011 16.5679 8.85351 16.4315L9.03511 14.3235L9.30951 18.1139C9.31548 18.2591 9.37749 18.3963 9.4825 18.4967C9.5875 18.5971 9.72734 18.653 9.87263 18.6524C10.0179 18.6519 10.1574 18.5951 10.2617 18.4939C10.3659 18.3928 10.427 18.2551 10.4319 18.1099L10.6559 14.7019L10.8879 18.2507C10.8937 18.3959 10.9555 18.5332 11.0604 18.6337C11.1652 18.7343 11.305 18.7903 11.4503 18.79C11.5955 18.7897 11.7351 18.7331 11.8395 18.6321C11.9439 18.5311 12.0051 18.3935 12.0103 18.2483L12.2479 14.3547L12.4663 17.8267C12.4782 17.9666 12.542 18.097 12.645 18.1924C12.7481 18.2877 12.8831 18.3411 13.0235 18.3421C13.1639 18.3431 13.2996 18.2917 13.404 18.1978C13.5084 18.1039 13.574 17.9745 13.5879 17.8347L13.8079 14.9987L14.0447 18.1155C14.0518 18.2589 14.1137 18.3941 14.2175 18.4932C14.3214 18.5924 14.4593 18.6479 14.6028 18.6485C14.7464 18.649 14.8847 18.5944 14.9892 18.496C15.0937 18.3976 15.1565 18.2629 15.1647 18.1195L15.4959 14.1059L15.6239 15.1859C15.6381 15.3097 15.6931 15.4253 15.7802 15.5144C15.8673 15.6035 15.9816 15.6611 16.105 15.6781C16.2284 15.6952 16.354 15.6707 16.462 15.6085C16.57 15.5464 16.6543 15.45 16.7015 15.3347L17.5735 13.2347H20.0167V12.1091H17.1983C17.0871 12.109 16.9783 12.1419 16.8859 12.2038Z" fill="currentColor"/></symbol>
<symbol id="share-dark" viewBox="0 0 24 24"><path fill-rule="evenodd" d="M12 24C18.6274 24 24 18.6274 24 12C24 5.37258 18.6274 0 12 0C5.37258 0 0 5.37258 0 12C0 18.6274 5.37258 24 12 24ZM17.3784 8.7636C17.2501 8.63536 17.0926 8.5712 16.9074 8.5712L14.2925 8.572V5.95746C14.2925 5.77184 14.228 5.61397 14.0997 5.48571C13.9708 5.35709 13.8132 5.29297 13.628 5.29297H7.02836C6.86441 5.31778 6.71357 5.39702 6.60011 5.51797C6.48498 5.63909 6.42836 5.78534 6.42836 5.95709V14.7846C6.42654 14.8722 6.44271 14.9593 6.47586 15.0404C6.50902 15.1216 6.55845 15.195 6.62111 15.2563C6.74974 15.385 6.90649 15.4487 7.09286 15.4487H9.70699V18.0636C9.70515 18.1511 9.72123 18.2381 9.75443 18.3191C9.78755 18.4002 9.83707 18.4735 9.89971 18.5346C10.0288 18.664 10.1855 18.7281 10.3715 18.7281H16.9074C16.9949 18.7297 17.0819 18.7134 17.1629 18.6801C17.2439 18.6468 17.3172 18.5973 17.3784 18.5346C17.5074 18.4063 17.5719 18.2492 17.5719 18.0636V9.23536C17.5719 9.04968 17.5074 8.89224 17.3784 8.7636Z M11.0143 9.87808H16.2643V17.3998H11.0143V9.87808Z M9.70699 14.1426H7.73562V6.62122H12.9856V8.5712H10.2856C10.1292 8.6 9.98627 8.67896 9.87875 8.79624C9.76363 8.91768 9.70699 9.064 9.70699 9.23536V14.1426Z" fill="currentColor"/></symbol>
<symbol id="zero-light" viewBox="0 0 24 24"><path d="M3.55463 3.48755C5.84025 1.15877 8.646 0 11.9749 0C15.3319 0 18.1969 1.16964 20.5549 3.51268C21.6833 4.64145 22.5405 5.92959 23.1262 7.38649C23.7112 8.82989 24 10.3715 24 12.0002C24 13.6438 23.7113 15.1877 23.1259 16.6304C22.5548 18.0588 21.7005 19.3203 20.5714 20.4202C19.3995 21.5778 18.0742 22.461 16.5885 23.0756C15.1024 23.6902 13.5608 24 11.9749 24C10.3886 24 8.86875 23.7015 7.4115 23.1007C5.96812 22.4865 4.66913 21.6052 3.51225 20.4618C2.36925 19.3053 1.49887 18.007 0.898875 16.5633C0.298875 15.1202 0 13.6007 0 12.0002C0 10.4143 0.298875 8.89476 0.898875 7.43712C1.5135 5.96522 2.397 4.6452 3.55463 3.48755ZM18.9829 5.05058C17.0546 3.12192 14.7394 2.15966 12.0251 2.15966C9.282 2.15966 6.972 3.1193 5.10075 5.03295C4.158 5.99072 3.43012 7.06849 2.916 8.2685C2.41613 9.45427 2.15963 10.6993 2.15963 11.9994C2.15963 13.2853 2.41613 14.5225 2.916 15.7221C3.43012 16.9083 4.15763 17.9729 5.10075 18.9157C6.04388 19.8449 7.10812 20.5589 8.29425 21.0592C9.47962 21.5448 10.7246 21.7897 12.0251 21.7897C13.311 21.7897 14.5477 21.5422 15.7477 21.042C16.962 20.5417 18.0533 19.8176 19.0252 18.874C20.8965 17.0455 21.84 14.758 21.84 12.0002C21.84 10.6715 21.5951 9.41302 21.1091 8.22725C20.6235 7.04186 19.9117 5.97947 18.9829 5.05058ZM7.04175 12.0002C7.04175 8.83099 8.03812 5.09255 12 5.09255C15.9615 5.09255 16.9579 8.83099 16.9579 12.0002C16.9579 15.1697 15.9615 18.9078 12 18.9078C8.03775 18.9078 7.04175 15.1697 7.04175 12.0002ZM12.4455 7.75622C12.3075 7.72209 12.1609 7.69734 12 7.69734C9.96225 7.69734 9.8655 10.604 9.8655 11.9998C9.8655 12.4487 9.87712 13.0502 9.95812 13.6637L12.5966 8.81486C12.8704 8.3416 12.7309 8.00222 12.4455 7.75622ZM14.1345 12.0002C14.1345 11.4538 14.1146 10.6768 13.9747 9.93275L11.0257 15.0261C10.614 15.6437 10.8997 15.9928 11.3535 16.186C11.3932 16.2017 11.4375 16.2152 11.4795 16.2272C11.505 16.2362 11.529 16.2445 11.5552 16.2524C11.6925 16.2865 11.8402 16.3034 12.0007 16.3034C14.0377 16.3034 14.1345 13.3963 14.1345 12.0002Z" fill="currentColor"/></symbol>
<symbol id="nd-dark" viewBox="0 0 24 24"><path fill-rule="evenodd" d="M12 24C18.6274 24 24 18.6274 24 12C24 5.37258 18.6274 0 12 0C5.37258 0 0 5.37258 0 12C0 18.6274 5.37258 24 12 24ZM16.5436 11.2283V9.17102H7.82227V11.2283H16.5436ZM16.5436 15.0848V13.0286H7.82227V15.0848H16.5436Z" fill="currentColor"/></symbol>
<symbol id="pd-dark" viewBox="0 0 24 24"><path d="M23.5045 15.4236C23.8269 14.3387 24 13.1896 24 12C24 5.37258 18.6274 0 12 0C7.66161 0 3.86094 2.30225 1.75307 5.75166L7.4642 8.29116L7.46982 8.27677C8.42626 6.77152 10.0488 5.78027 12.3418 5.78027C13.3176 5.78027 14.8097 5.9819 16.1221 7.11027L14.1681 9.1214C14.0655 9.01946 13.9438 8.91834 13.8038 8.81715C13.4665 8.59127 13.0383 8.4124 12.4983 8.4124C11.5668 8.4124 10.9443 8.94471 10.5532 9.65296L10.5507 9.6636L23.5045 15.4236ZM22.6185 17.5951C20.6074 21.404 16.6069 24 12 24C5.37258 24 0 18.6274 0 12C0 10.5462 0.258539 9.15271 0.732148 7.86311L6.61037 10.4769L6.60689 10.4858C6.5042 10.9961 6.44851 11.5285 6.44851 12.0783C6.44851 16.8689 10.0243 18.2187 12.274 18.2187C13.6007 18.2187 14.7489 17.7905 15.6477 17.1622C15.8185 17.0398 15.9733 16.9166 16.1154 16.7912L14.3661 14.6656C14.3148 14.7243 14.2612 14.78 14.2063 14.8299C13.5258 15.4751 12.7779 15.4751 12.6108 15.4751C10.7804 15.4751 10.0143 13.5439 10.004 11.9969L10.0063 11.987L22.6185 17.5951Z" fill="currentColor"/></symbol>
<symbol id="sa-dark" viewBox="0 0 24 24"><path fill-rule="evenodd" d="M12 24C18.6274 24 24 18.6274 24 12C24 5.37258 18.6274 0 12 0C5.37258 0 0 5.37258 0 12C0 18.6274 5.37258 24 12 24ZM8.44486 6.88897C7.48748 7.69597 6.89498 8.83522 6.66661 10.3067L5.72461 10.3063L8.10323 12.685L10.4815 10.3063H9.60286C9.80273 8.89222 10.7024 8.18534 12.3029 8.18534C13.1894 8.18534 13.8674 8.51759 14.3391 9.18172C14.8101 9.84622 15.046 10.8137 15.046 12.0853C15.046 13.2992 14.7887 14.2712 14.2739 14.9995C13.7597 15.7277 13.0806 16.0922 12.2384 16.0922C10.5524 16.0922 9.67373 15.3636 9.60248 13.9063H6.58036C6.78061 15.4063 7.37311 16.5632 8.35898 17.3777C9.34448 18.1922 10.516 18.5991 11.8731 18.5991C13.7166 18.5991 15.2159 17.9878 16.3739 16.7668C17.5304 15.5458 18.109 14.014 18.109 12.1708C18.109 10.2711 17.5517 8.71372 16.4376 7.49947C15.3235 6.28597 13.8227 5.67847 11.9376 5.67847C10.5659 5.67847 9.40186 6.08197 8.44486 6.88897Z" fill="currentColor"/></symbol>
<symbol id="remix-dark" viewBox="0 0 24 24"><path fill-rule="evenodd" d="M12 24C18.6274 24 24 18.6274 24 12C24 5.37258 18.6274 0 12 0C5.37258 0 0 5.37258 0 12C0 18.6274 5.37258 24 12 24ZM20.0783 12.3214L19.8423 12.2142L17.4647 11.2278V8.24943L10.1143 5.20703L6.85748 6.64223V10.0278L6.87908 10.0494L4.00708 11.2494V14.335L7.07108 15.6646L10.1783 14.3782L10.3927 14.4646L16.6711 17.0574L16.8215 17.0998L16.9503 17.0566L19.8639 15.8134L20.0783 15.707V12.3214ZM16.4351 14.0358V16.1566L16.4143 16.1358V16.1582L10.9071 13.8862V11.6998L16.4143 13.9494V14.0358H16.4351ZM18.7287 12.579L16.7999 13.371L15.0639 12.6206L16.9495 11.8286L18.7287 12.579ZM19.3279 13.1358V15.2142L17.1855 16.1358V14.0358L19.3279 13.1358Z" fill="currentColor"/></symbol>
<symbol id="cc-dark" viewBox="0 0 24 24"><path fill-rule="evenodd" d="M12 24C18.6274 24 24 18.6274 24 12C24 5.37258 18.6274 0 12 0C5.37258 0 0 5.37258 0 12C0 18.6274 5.37258 24 12 24ZM10.2621 10.8433L11.8697 10.0075C11.2266 8.85021 10.1627 8.27159 8.67661 8.27234C7.66186 8.27234 6.82261 8.60834 6.15848 9.27959C5.49436 9.95121 5.16211 10.858 5.16211 12.001C5.16211 13.1721 5.49061 14.0863 6.14761 14.7433C6.80461 15.4011 7.66936 15.7292 8.74074 15.7292C9.41236 15.7292 10.027 15.5616 10.5835 15.2256C11.1407 14.89 11.5765 14.4295 11.8907 13.8433L10.4125 13.0933C10.1264 13.7788 9.63361 14.122 8.93349 14.122C8.40473 14.122 8.00461 13.9288 7.73311 13.543C7.46198 13.1571 7.32623 12.6433 7.32623 12.0006C7.32623 10.5861 7.86248 9.87921 8.93349 9.87921C9.14798 9.87921 9.38011 9.95084 9.63023 10.0933C9.87998 10.2362 10.0904 10.4867 10.2621 10.8433ZM17.2052 10.8433L18.7911 10.0075C18.163 8.85021 17.1051 8.27159 15.6194 8.27234C14.605 8.27234 13.7657 8.60834 13.102 9.27959C12.4371 9.95121 12.1052 10.858 12.1052 12.001C12.1052 13.1721 12.43 14.0863 13.081 14.7433C13.7305 15.4011 14.5979 15.7292 15.6839 15.7292C16.3409 15.7292 16.948 15.5616 17.5052 15.2256C18.0617 14.89 18.505 14.4295 18.8331 13.8433L17.3331 13.0933C17.0477 13.7788 16.5546 14.122 15.8552 14.122C15.3257 14.122 14.926 13.9288 14.6549 13.543C14.3837 13.1571 14.2476 12.6433 14.2476 12.0006C14.2476 10.5861 14.7839 9.87921 15.8552 9.87921C16.0829 9.87921 16.3225 9.95084 16.573 10.0933C16.8227 10.2362 17.0339 10.4867 17.2052 10.8433Z" fill="currentColor"/></symbol>
<symbol id="sampling-light" viewBox="0 0 24 24"><path d="M11.9784 0C15.3488 0 18.196 1.1608 20.5176 3.4824C22.8392 5.8032 24 8.6424 24 12C24 15.3576 22.856 18.164 20.5704 20.4208C18.1568 22.808 15.292 24 11.9784 24C8.7208 24 5.9104 22.8208 3.5464 20.464C1.1816 18.1064 0 15.2856 0 12C0 8.7144 1.1792 5.872 3.536 3.472C5.8504 1.1568 8.664 0 11.9784 0ZM12.0104 2.1648C9.2896 2.1648 6.9856 3.1216 5.1 5.036C3.144 7.0216 2.164 9.3432 2.164 12C2.164 14.6568 3.136 16.9568 5.0784 18.8992C7.0216 20.8424 9.3352 21.8128 12.0216 21.8128C14.7072 21.8128 17.0352 20.8352 19.0072 18.8768C20.8928 17.0488 21.836 14.756 21.836 11.9984C21.836 9.256 20.8784 6.9344 18.9648 5.0344C17.0504 3.1208 14.732 2.164 12.0112 2.164L12.0104 2.1648ZM12.1928 4.7352C12.2603 4.72719 12.3287 4.73361 12.3935 4.75402C12.4583 4.77443 12.5181 4.80837 12.5688 4.8536C12.6731 4.94318 12.7381 5.07018 12.7496 5.2072V5.2928L13.0712 10.4784L13.3072 7.6064C13.3072 7.464 13.3568 7.3424 13.4568 7.2424C13.504 7.19384 13.5607 7.15545 13.6233 7.12959C13.6859 7.10372 13.7531 7.09093 13.8208 7.092C13.9632 7.092 14.0848 7.1424 14.1856 7.2424C14.2342 7.28975 14.2725 7.34655 14.2982 7.4093C14.3239 7.47204 14.3365 7.5394 14.3352 7.6072V7.692L14.6128 11.5496L14.892 8.4424C14.9039 8.31903 14.9615 8.20459 15.0536 8.1216C15.143 8.03723 15.2619 7.99128 15.3848 7.9936C15.5144 7.9936 15.628 8.0336 15.728 8.1112C15.7765 8.14826 15.8169 8.19498 15.8465 8.2484C15.8761 8.30182 15.8943 8.36079 15.9 8.4216L16.4576 13.0936L16.7144 12.472C16.8 12.2576 16.964 12.1504 17.2064 12.1504H20.0144V13.1792H17.5496L16.6712 15.3216C16.5704 15.5784 16.3848 15.6864 16.1136 15.6424C15.9951 15.633 15.8844 15.5796 15.8032 15.4928C15.7229 15.4037 15.674 15.2907 15.664 15.1712L15.472 13.6288L15.1072 18.1072C15.0948 18.2298 15.0375 18.3435 14.9464 18.4265C14.8553 18.5094 14.7368 18.5558 14.6136 18.5568C14.4872 18.5577 14.365 18.5118 14.2704 18.428C14.1735 18.3476 14.1121 18.2324 14.0992 18.1072V18.0424L13.8 14.3352L13.5424 17.828C13.5161 17.9514 13.4524 18.0637 13.36 18.1496C13.2701 18.2341 13.1506 18.2801 13.0272 18.2776C12.9012 18.2787 12.7792 18.2331 12.6848 18.1496C12.5877 18.0691 12.5262 17.9535 12.5136 17.828V17.764L12.2344 13.5848L11.956 18.1712V18.2352C11.9572 18.375 11.9035 18.5098 11.8064 18.6104C11.7608 18.6617 11.7047 18.7026 11.6419 18.7304C11.5791 18.7581 11.5111 18.772 11.4424 18.7712C11.3736 18.7722 11.3054 18.7584 11.2425 18.7306C11.1795 18.7029 11.1233 18.6619 11.0776 18.6104C10.9798 18.5101 10.9258 18.3752 10.9272 18.2352V18.1928L10.6488 13.9504L10.3912 18.0424V18.1064C10.3657 18.2299 10.3022 18.3424 10.2096 18.428C10.12 18.5126 10.0008 18.5589 9.8776 18.5568C9.75158 18.5579 9.62962 18.5123 9.5352 18.4288C9.43779 18.3484 9.37599 18.2329 9.3632 18.1072V18.0432H9.3424V17.9792L9.0424 13.6936L8.8064 16.436C8.79398 16.5616 8.73245 16.6772 8.6352 16.7576C8.5407 16.8409 8.41879 16.8865 8.2928 16.8856C8.164 16.8856 8.0528 16.8472 7.96 16.768C7.86593 16.6881 7.80165 16.5787 7.7776 16.4576L7.2416 12.772L7.1776 12.9C7.092 13.0864 6.9344 13.1792 6.7056 13.1792H4.22V12.1496H6.3848L7.0488 10.8C7.1488 10.5712 7.3232 10.4752 7.5736 10.5104C7.824 10.5464 7.9704 10.6856 8.0136 10.928L8.1632 11.9136L8.5696 7.1776C8.5696 7.0352 8.62 6.9136 8.72 6.8144C8.76725 6.76588 8.8239 6.72752 8.88649 6.70165C8.94908 6.67579 9.01629 6.66298 9.084 6.664C9.15173 6.66289 9.21897 6.67566 9.28157 6.70152C9.34417 6.72739 9.40081 6.7658 9.448 6.8144C9.49649 6.86163 9.53478 6.91829 9.56051 6.9809C9.58624 7.04351 9.59887 7.11072 9.5976 7.1784V7.264L9.8336 10.6072L10.1552 6.1288V6.0648C10.1664 5.94187 10.2232 5.82756 10.3143 5.74436C10.4055 5.66117 10.5246 5.61509 10.648 5.6152C10.776 5.6152 10.8904 5.6576 10.9904 5.7432C11.0912 5.8288 11.1472 5.9352 11.1616 6.0648V6.1288L11.4192 10.0288L11.7192 5.2928V5.208C11.7192 5.08 11.7656 4.972 11.8584 4.8864C11.9507 4.80142 12.068 4.74785 12.1928 4.7352Z" fill="currentColor"/></symbol>
<symbol id="nc-dark" viewBox="0 0 24 24"><path d="M23.4764 15.5169C23.8168 14.4047 24 13.2237 24 12C24 5.37258 18.6274 0 12 0C5.37258 0 0 5.37258 0 12C0 18.6274 5.37258 24 12 24C16.5723 24 20.5473 21.4428 22.5729 17.6806L15.9893 14.7531L15.9899 14.7553C15.832 15.5128 15.4502 16.1304 14.8435 16.6086C14.2352 17.0871 13.5179 17.3627 12.6895 17.4336V19.2767H11.2967V17.4336C9.96812 17.4201 8.7535 16.9416 7.654 15.9984L9.304 14.3271C10.0892 15.0553 10.9825 15.4194 11.9826 15.4194C12.3966 15.4194 12.7506 15.3272 13.0439 15.1408C13.3364 14.9556 13.4834 14.6488 13.4834 14.2194C13.4834 13.9244 13.3796 13.6851 13.173 13.5008L12.8927 13.3762L12.0047 12.9977L10.5906 12.3546L8.68337 11.5187L8.68079 11.5033L0.703125 7.956C0.969064 7.21294 1.30621 6.50375 1.70633 5.83666L8.21507 8.73082L8.212 8.71256C8.41187 8.08406 8.79025 7.58043 9.34787 7.20206C9.90437 6.82368 10.5546 6.61293 11.2979 6.56981V4.72668H12.691V6.56981C13.7912 6.62718 14.791 6.99844 15.691 7.68393L14.1265 9.29118C13.4541 8.81981 12.7694 8.58431 12.0692 8.58431C11.6976 8.58431 11.3657 8.65594 11.0732 8.79844C10.7804 8.94131 10.6337 9.18431 10.6337 9.52706C10.6337 9.62718 10.6694 9.72693 10.7406 9.82706L12.262 10.5133L13.312 10.9847L15.241 11.8416L15.2449 11.8567L23.4764 15.5169Z" fill="currentColor"/></symbol>
</svg>
